G04*
G04 #@! TF.GenerationSoftware,Altium Limited,Altium Designer,25.0.2 (28)*
G04*
G04 Layer_Color=65535*
%FSLAX25Y25*%
%MOIN*%
G70*
G04*
G04 #@! TF.SameCoordinates,77BAF947-F79B-4421-9DE9-08F6AA71662D*
G04*
G04*
G04 #@! TF.FilePolarity,Positive*
G04*
G01*
G75*
%ADD10C,0.00600*%
%ADD11C,0.00984*%
%ADD12C,0.00500*%
%ADD13C,0.00787*%
%ADD14C,0.01000*%
%ADD15C,0.01500*%
%ADD16C,0.00500*%
G36*
X68541Y182852D02*
X35276D01*
Y193953D01*
X68541D01*
Y182852D01*
D02*
G37*
G36*
X67399Y181710D02*
X67511D01*
Y181692D01*
X67586D01*
Y181673D01*
X67661D01*
Y181654D01*
X67699D01*
Y181635D01*
X67755D01*
Y181617D01*
X67792D01*
Y181598D01*
X67830D01*
Y181579D01*
X67867D01*
Y181561D01*
X67886D01*
Y181542D01*
X67923D01*
Y181523D01*
X67961D01*
Y181504D01*
X67979D01*
Y181486D01*
X67998D01*
Y181467D01*
X68036D01*
Y181448D01*
X68054D01*
Y181430D01*
X68073D01*
Y181411D01*
X68092D01*
Y181392D01*
X68110D01*
Y181373D01*
X68129D01*
Y181355D01*
X68148D01*
Y181336D01*
X68167D01*
Y181317D01*
X68185D01*
Y181298D01*
X68204D01*
Y181280D01*
X68223D01*
Y181242D01*
X68242D01*
Y181224D01*
X68260D01*
Y181205D01*
X68279D01*
Y181167D01*
X68298D01*
Y181149D01*
X68316D01*
Y181093D01*
X68279D01*
Y181074D01*
X68242D01*
Y181055D01*
X68204D01*
Y181036D01*
X68167D01*
Y181018D01*
X68129D01*
Y180999D01*
X68092D01*
Y180980D01*
X68054D01*
Y180962D01*
X68017D01*
Y180943D01*
X67979D01*
Y180924D01*
X67942D01*
Y180905D01*
X67905D01*
Y180887D01*
X67867D01*
Y180905D01*
X67848D01*
Y180924D01*
X67830D01*
Y180943D01*
X67811D01*
Y180980D01*
X67792D01*
Y180999D01*
X67773D01*
Y181018D01*
X67755D01*
Y181036D01*
X67736D01*
Y181055D01*
X67717D01*
Y181074D01*
X67699D01*
Y181093D01*
X67661D01*
Y181111D01*
X67642D01*
Y181130D01*
X67605D01*
Y181149D01*
X67568D01*
Y181167D01*
X67530D01*
Y181186D01*
X67474D01*
Y181205D01*
X67380D01*
Y181224D01*
X67156D01*
Y181205D01*
X67062D01*
Y181186D01*
X67006D01*
Y181167D01*
X66969D01*
Y181149D01*
X66931D01*
Y181130D01*
X66894D01*
Y181111D01*
X66875D01*
Y181093D01*
X66838D01*
Y181074D01*
X66819D01*
Y181055D01*
X66800D01*
Y181036D01*
X66763D01*
Y181018D01*
X66744D01*
Y180980D01*
X66725D01*
Y180962D01*
X66707D01*
Y180943D01*
X66688D01*
Y180924D01*
X66669D01*
Y180887D01*
X66650D01*
Y180868D01*
X66632D01*
Y180812D01*
X66613D01*
Y180774D01*
X66594D01*
Y180737D01*
X66575D01*
Y180643D01*
X66557D01*
Y180381D01*
X66575D01*
Y180288D01*
X66594D01*
Y180250D01*
X66613D01*
Y180194D01*
X66632D01*
Y180157D01*
X66650D01*
Y180138D01*
X66669D01*
Y180100D01*
X66688D01*
Y180082D01*
X66707D01*
Y180063D01*
X66725D01*
Y180025D01*
X66744D01*
Y180007D01*
X66763D01*
Y179988D01*
X66781D01*
Y179969D01*
X66819D01*
Y179951D01*
X66838D01*
Y179932D01*
X66856D01*
Y179913D01*
X66894D01*
Y179894D01*
X66931D01*
Y179876D01*
X66969D01*
Y179857D01*
X67006D01*
Y179838D01*
X67062D01*
Y179820D01*
X67156D01*
Y179801D01*
X67380D01*
Y179820D01*
X67474D01*
Y179838D01*
X67530D01*
Y179857D01*
X67586D01*
Y179876D01*
X67624D01*
Y179894D01*
X67661D01*
Y179913D01*
X67680D01*
Y179932D01*
X67717D01*
Y179951D01*
X67736D01*
Y179969D01*
X67755D01*
Y179988D01*
X67773D01*
Y180007D01*
X67792D01*
Y180025D01*
X67811D01*
Y180044D01*
X67830D01*
Y180063D01*
X67848D01*
Y180100D01*
X67867D01*
Y180138D01*
X67886D01*
Y180157D01*
X67268D01*
Y180587D01*
X68466D01*
Y180400D01*
X68447D01*
Y180250D01*
X68429D01*
Y180157D01*
X68410D01*
Y180082D01*
X68391D01*
Y180025D01*
X68372D01*
Y179988D01*
X68354D01*
Y179951D01*
X68335D01*
Y179913D01*
X68316D01*
Y179876D01*
X68298D01*
Y179857D01*
X68279D01*
Y179820D01*
X68260D01*
Y179801D01*
X68242D01*
Y179763D01*
X68223D01*
Y179745D01*
X68204D01*
Y179726D01*
X68185D01*
Y179707D01*
X68167D01*
Y179689D01*
X68148D01*
Y179670D01*
X68129D01*
Y179651D01*
X68110D01*
Y179632D01*
X68092D01*
Y179614D01*
X68073D01*
Y179595D01*
X68054D01*
Y179576D01*
X68036D01*
Y179558D01*
X68017D01*
Y179539D01*
X67979D01*
Y179520D01*
X67961D01*
Y179501D01*
X67923D01*
Y179483D01*
X67905D01*
Y179464D01*
X67867D01*
Y179445D01*
X67830D01*
Y179427D01*
X67792D01*
Y179408D01*
X67755D01*
Y179389D01*
X67717D01*
Y179370D01*
X67661D01*
Y179352D01*
X67605D01*
Y179333D01*
X67530D01*
Y179314D01*
X67436D01*
Y179295D01*
X67100D01*
Y179314D01*
X67006D01*
Y179333D01*
X66931D01*
Y179352D01*
X66875D01*
Y179370D01*
X66819D01*
Y179389D01*
X66781D01*
Y179408D01*
X66725D01*
Y179427D01*
X66688D01*
Y179445D01*
X66669D01*
Y179464D01*
X66632D01*
Y179483D01*
X66594D01*
Y179501D01*
X66575D01*
Y179520D01*
X66557D01*
Y179539D01*
X66519D01*
Y179558D01*
X66501D01*
Y179576D01*
X66482D01*
Y179595D01*
X66463D01*
Y179614D01*
X66444D01*
Y179632D01*
X66407D01*
Y179651D01*
X66388D01*
Y179689D01*
X66369D01*
Y179707D01*
X66351D01*
Y179726D01*
X66332D01*
Y179745D01*
X66313D01*
Y179763D01*
X66295D01*
Y179801D01*
X66276D01*
Y179820D01*
X66257D01*
Y179838D01*
X66238D01*
Y179876D01*
X66220D01*
Y179913D01*
X66201D01*
Y179932D01*
X66182D01*
Y179969D01*
X66164D01*
Y180025D01*
X66145D01*
Y180063D01*
X66126D01*
Y180119D01*
X66107D01*
Y180175D01*
X66089D01*
Y180250D01*
X66070D01*
Y180344D01*
X66051D01*
Y180681D01*
X66070D01*
Y180774D01*
X66089D01*
Y180849D01*
X66107D01*
Y180905D01*
X66126D01*
Y180962D01*
X66145D01*
Y180999D01*
X66164D01*
Y181036D01*
X66182D01*
Y181093D01*
X66201D01*
Y181111D01*
X66220D01*
Y181149D01*
X66238D01*
Y181186D01*
X66257D01*
Y181205D01*
X66276D01*
Y181224D01*
X66295D01*
Y181261D01*
X66313D01*
Y181280D01*
X66332D01*
Y181298D01*
X66351D01*
Y181317D01*
X66369D01*
Y181336D01*
X66388D01*
Y181355D01*
X66407D01*
Y181373D01*
X66426D01*
Y181392D01*
X66444D01*
Y181411D01*
X66463D01*
Y181430D01*
X66482D01*
Y181448D01*
X66501D01*
Y181467D01*
X66519D01*
Y181486D01*
X66557D01*
Y181504D01*
X66575D01*
Y181523D01*
X66613D01*
Y181542D01*
X66632D01*
Y181561D01*
X66669D01*
Y181579D01*
X66707D01*
Y181598D01*
X66744D01*
Y181617D01*
X66781D01*
Y181635D01*
X66819D01*
Y181654D01*
X66875D01*
Y181673D01*
X66931D01*
Y181692D01*
X67006D01*
Y181710D01*
X67137D01*
Y181729D01*
X67399D01*
Y181710D01*
D02*
G37*
G36*
X61633Y181692D02*
X61727D01*
Y181673D01*
X61802D01*
Y181654D01*
X61858D01*
Y181635D01*
X61896D01*
Y181617D01*
X61952D01*
Y181598D01*
X61989D01*
Y181579D01*
X62027D01*
Y181561D01*
X62064D01*
Y181542D01*
X62083D01*
Y181523D01*
X62120D01*
Y181504D01*
X62139D01*
Y181486D01*
X62176D01*
Y181467D01*
X62195D01*
Y181448D01*
X62214D01*
Y181430D01*
X62233D01*
Y181411D01*
X62251D01*
Y181392D01*
X62270D01*
Y181373D01*
X62289D01*
Y181355D01*
X62307D01*
Y181336D01*
X62326D01*
Y181317D01*
X62345D01*
Y181298D01*
X62363D01*
Y181280D01*
X62382D01*
Y181261D01*
X62401D01*
Y181224D01*
X62420D01*
Y181205D01*
X62438D01*
Y181186D01*
X62457D01*
Y181149D01*
X62476D01*
Y181130D01*
X62495D01*
Y181093D01*
X62457D01*
Y181074D01*
X62420D01*
Y181055D01*
X62382D01*
Y181036D01*
X62345D01*
Y181018D01*
X62326D01*
Y180999D01*
X62289D01*
Y180980D01*
X62251D01*
Y180962D01*
X62214D01*
Y180943D01*
X62176D01*
Y180924D01*
X62139D01*
Y180905D01*
X62083D01*
Y180887D01*
X62045D01*
Y180905D01*
X62027D01*
Y180943D01*
X62008D01*
Y180962D01*
X61989D01*
Y180980D01*
X61970D01*
Y180999D01*
X61952D01*
Y181018D01*
X61933D01*
Y181036D01*
X61914D01*
Y181055D01*
X61896D01*
Y181074D01*
X61877D01*
Y181093D01*
X61839D01*
Y181111D01*
X61821D01*
Y181130D01*
X61783D01*
Y181149D01*
X61746D01*
Y181167D01*
X61690D01*
Y181186D01*
X61633D01*
Y181205D01*
X61502D01*
Y181224D01*
X61409D01*
Y181205D01*
X61296D01*
Y181186D01*
X61222D01*
Y181167D01*
X61184D01*
Y181149D01*
X61147D01*
Y181130D01*
X61109D01*
Y181111D01*
X61072D01*
Y181093D01*
X61053D01*
Y181074D01*
X61035D01*
Y181055D01*
X60997D01*
Y181036D01*
X60978D01*
Y181018D01*
X60960D01*
Y180999D01*
X60941D01*
Y180980D01*
X60922D01*
Y180943D01*
X60903D01*
Y180924D01*
X60885D01*
Y180905D01*
X60866D01*
Y180868D01*
X60847D01*
Y180830D01*
X60829D01*
Y180793D01*
X60810D01*
Y180737D01*
X60791D01*
Y180681D01*
X60772D01*
Y180362D01*
X60791D01*
Y180288D01*
X60810D01*
Y180250D01*
X60829D01*
Y180213D01*
X60847D01*
Y180175D01*
X60866D01*
Y180138D01*
X60885D01*
Y180119D01*
X60903D01*
Y180082D01*
X60922D01*
Y180063D01*
X60941D01*
Y180044D01*
X60960D01*
Y180025D01*
X60978D01*
Y180007D01*
X60997D01*
Y179988D01*
X61016D01*
Y179969D01*
X61053D01*
Y179951D01*
X61072D01*
Y179932D01*
X61091D01*
Y179913D01*
X61128D01*
Y179894D01*
X61165D01*
Y179876D01*
X61222D01*
Y179857D01*
X61278D01*
Y179838D01*
X61353D01*
Y179820D01*
X61577D01*
Y179838D01*
X61652D01*
Y179857D01*
X61708D01*
Y179876D01*
X61765D01*
Y179894D01*
X61802D01*
Y179913D01*
X61821D01*
Y179932D01*
X61858D01*
Y179951D01*
X61877D01*
Y179969D01*
X61914D01*
Y179988D01*
X61933D01*
Y180007D01*
X61952D01*
Y180025D01*
X61970D01*
Y180044D01*
X61989D01*
Y180082D01*
X62008D01*
Y180100D01*
X62027D01*
Y180119D01*
X62045D01*
Y180157D01*
X62064D01*
Y180194D01*
X62083D01*
Y180175D01*
X62120D01*
Y180157D01*
X62158D01*
Y180138D01*
X62195D01*
Y180119D01*
X62214D01*
Y180100D01*
X62251D01*
Y180082D01*
X62289D01*
Y180063D01*
X62326D01*
Y180044D01*
X62363D01*
Y180025D01*
X62401D01*
Y180007D01*
X62438D01*
Y179988D01*
X62476D01*
Y179969D01*
X62513D01*
Y179932D01*
X62495D01*
Y179913D01*
X62476D01*
Y179876D01*
X62457D01*
Y179857D01*
X62438D01*
Y179820D01*
X62420D01*
Y179801D01*
X62401D01*
Y179782D01*
X62382D01*
Y179745D01*
X62363D01*
Y179726D01*
X62345D01*
Y179707D01*
X62326D01*
Y179689D01*
X62307D01*
Y179670D01*
X62289D01*
Y179651D01*
X62270D01*
Y179632D01*
X62251D01*
Y179614D01*
X62233D01*
Y179595D01*
X62214D01*
Y179576D01*
X62176D01*
Y179558D01*
X62158D01*
Y179539D01*
X62120D01*
Y179520D01*
X62102D01*
Y179501D01*
X62064D01*
Y179483D01*
X62045D01*
Y179464D01*
X62008D01*
Y179445D01*
X61970D01*
Y179427D01*
X61914D01*
Y179408D01*
X61877D01*
Y179389D01*
X61821D01*
Y179370D01*
X61746D01*
Y179352D01*
X61652D01*
Y179333D01*
X61278D01*
Y179352D01*
X61184D01*
Y179370D01*
X61109D01*
Y179389D01*
X61053D01*
Y179408D01*
X61016D01*
Y179427D01*
X60960D01*
Y179445D01*
X60922D01*
Y179464D01*
X60885D01*
Y179483D01*
X60866D01*
Y179501D01*
X60829D01*
Y179520D01*
X60791D01*
Y179539D01*
X60772D01*
Y179558D01*
X60754D01*
Y179576D01*
X60716D01*
Y179595D01*
X60698D01*
Y179614D01*
X60679D01*
Y179632D01*
X60660D01*
Y179651D01*
X60641D01*
Y179670D01*
X60623D01*
Y179689D01*
X60604D01*
Y179707D01*
X60585D01*
Y179726D01*
X60567D01*
Y179745D01*
X60548D01*
Y179763D01*
X60529D01*
Y179782D01*
X60510D01*
Y179820D01*
X60492D01*
Y179838D01*
X60473D01*
Y179857D01*
X60454D01*
Y179894D01*
X60435D01*
Y179932D01*
X60417D01*
Y179969D01*
X60398D01*
Y180007D01*
X60379D01*
Y180044D01*
X60361D01*
Y180082D01*
X60342D01*
Y180138D01*
X60323D01*
Y180194D01*
X60304D01*
Y180269D01*
X60286D01*
Y180381D01*
X60267D01*
Y180643D01*
X60286D01*
Y180756D01*
X60304D01*
Y180830D01*
X60323D01*
Y180905D01*
X60342D01*
Y180943D01*
X60361D01*
Y180999D01*
X60379D01*
Y181036D01*
X60398D01*
Y181074D01*
X60417D01*
Y181111D01*
X60435D01*
Y181130D01*
X60454D01*
Y181167D01*
X60473D01*
Y181205D01*
X60492D01*
Y181224D01*
X60510D01*
Y181242D01*
X60529D01*
Y181280D01*
X60548D01*
Y181298D01*
X60567D01*
Y181317D01*
X60585D01*
Y181336D01*
X60604D01*
Y181355D01*
X60623D01*
Y181373D01*
X60641D01*
Y181392D01*
X60660D01*
Y181411D01*
X60679D01*
Y181430D01*
X60698D01*
Y181448D01*
X60735D01*
Y181467D01*
X60754D01*
Y181486D01*
X60772D01*
Y181504D01*
X60810D01*
Y181523D01*
X60847D01*
Y181542D01*
X60866D01*
Y181561D01*
X60903D01*
Y181579D01*
X60941D01*
Y181598D01*
X60978D01*
Y181617D01*
X61016D01*
Y181635D01*
X61072D01*
Y181654D01*
X61128D01*
Y181673D01*
X61203D01*
Y181692D01*
X61315D01*
Y181710D01*
X61633D01*
Y181692D01*
D02*
G37*
G36*
X45946Y181710D02*
X46059D01*
Y181692D01*
X46134D01*
Y181673D01*
X46190D01*
Y181654D01*
X46246D01*
Y181635D01*
X46284D01*
Y181617D01*
X46340D01*
Y181598D01*
X46377D01*
Y181579D01*
X46396D01*
Y181561D01*
X46433D01*
Y181542D01*
X46471D01*
Y181523D01*
X46489D01*
Y181504D01*
X46527D01*
Y181486D01*
X46546D01*
Y181467D01*
X46564D01*
Y181448D01*
X46583D01*
Y181430D01*
X46602D01*
Y181411D01*
X46639D01*
Y181392D01*
X46658D01*
Y181373D01*
X46677D01*
Y181355D01*
X46695D01*
Y181336D01*
X46714D01*
Y181298D01*
X46733D01*
Y181280D01*
X46751D01*
Y181261D01*
X46770D01*
Y181242D01*
X46789D01*
Y181224D01*
X46808D01*
Y181186D01*
X46826D01*
Y181167D01*
X46845D01*
Y181130D01*
X46864D01*
Y181093D01*
X46826D01*
Y181074D01*
X46789D01*
Y181055D01*
X46751D01*
Y181036D01*
X46714D01*
Y181018D01*
X46677D01*
Y180999D01*
X46639D01*
Y180980D01*
X46602D01*
Y180962D01*
X46564D01*
Y180943D01*
X46527D01*
Y180924D01*
X46489D01*
Y180905D01*
X46452D01*
Y180887D01*
X46396D01*
Y180924D01*
X46377D01*
Y180943D01*
X46358D01*
Y180962D01*
X46340D01*
Y180999D01*
X46321D01*
Y181018D01*
X46302D01*
Y181036D01*
X46284D01*
Y181055D01*
X46246D01*
Y181074D01*
X46227D01*
Y181093D01*
X46209D01*
Y181111D01*
X46171D01*
Y181130D01*
X46134D01*
Y181149D01*
X46115D01*
Y181167D01*
X46059D01*
Y181186D01*
X46003D01*
Y181205D01*
X45909D01*
Y181224D01*
X45684D01*
Y181205D01*
X45610D01*
Y181186D01*
X45553D01*
Y181167D01*
X45497D01*
Y181149D01*
X45460D01*
Y181130D01*
X45441D01*
Y181111D01*
X45404D01*
Y181093D01*
X45385D01*
Y181074D01*
X45347D01*
Y181055D01*
X45329D01*
Y181036D01*
X45310D01*
Y181018D01*
X45291D01*
Y180999D01*
X45273D01*
Y180980D01*
X45254D01*
Y180962D01*
X45235D01*
Y180924D01*
X45217D01*
Y180905D01*
X45198D01*
Y180868D01*
X45179D01*
Y180830D01*
X45160D01*
Y180793D01*
X45142D01*
Y180756D01*
X45123D01*
Y180681D01*
X45104D01*
Y180550D01*
X45085D01*
Y180475D01*
X45104D01*
Y180344D01*
X45123D01*
Y180269D01*
X45142D01*
Y180231D01*
X45160D01*
Y180194D01*
X45179D01*
Y180157D01*
X45198D01*
Y180119D01*
X45217D01*
Y180100D01*
X45235D01*
Y180063D01*
X45254D01*
Y180044D01*
X45273D01*
Y180025D01*
X45291D01*
Y180007D01*
X45310D01*
Y179988D01*
X45329D01*
Y179969D01*
X45347D01*
Y179951D01*
X45385D01*
Y179932D01*
X45404D01*
Y179913D01*
X45441D01*
Y179894D01*
X45460D01*
Y179876D01*
X45497D01*
Y179857D01*
X45553D01*
Y179838D01*
X45610D01*
Y179820D01*
X45684D01*
Y179801D01*
X45928D01*
Y179820D01*
X46003D01*
Y179838D01*
X46078D01*
Y179857D01*
X46115D01*
Y179876D01*
X46152D01*
Y179894D01*
X46190D01*
Y179913D01*
X46227D01*
Y179932D01*
X46246D01*
Y179951D01*
X46284D01*
Y179969D01*
X46302D01*
Y179988D01*
X46321D01*
Y180007D01*
X46340D01*
Y180025D01*
X46358D01*
Y180063D01*
X46377D01*
Y180082D01*
X46396D01*
Y180119D01*
X46415D01*
Y180157D01*
X45797D01*
Y180587D01*
X47014D01*
Y180493D01*
X46995D01*
Y180288D01*
X46976D01*
Y180175D01*
X46957D01*
Y180100D01*
X46939D01*
Y180044D01*
X46920D01*
Y179988D01*
X46901D01*
Y179951D01*
X46883D01*
Y179932D01*
X46864D01*
Y179894D01*
X46845D01*
Y179857D01*
X46826D01*
Y179838D01*
X46808D01*
Y179801D01*
X46789D01*
Y179782D01*
X46770D01*
Y179763D01*
X46751D01*
Y179726D01*
X46733D01*
Y179707D01*
X46714D01*
Y179689D01*
X46695D01*
Y179670D01*
X46677D01*
Y179651D01*
X46658D01*
Y179632D01*
X46639D01*
Y179614D01*
X46620D01*
Y179595D01*
X46602D01*
Y179576D01*
X46583D01*
Y179558D01*
X46546D01*
Y179539D01*
X46527D01*
Y179520D01*
X46508D01*
Y179501D01*
X46471D01*
Y179483D01*
X46452D01*
Y179464D01*
X46415D01*
Y179445D01*
X46377D01*
Y179427D01*
X46340D01*
Y179408D01*
X46302D01*
Y179389D01*
X46246D01*
Y179370D01*
X46209D01*
Y179352D01*
X46152D01*
Y179333D01*
X46078D01*
Y179314D01*
X45965D01*
Y179295D01*
X45647D01*
Y179314D01*
X45535D01*
Y179333D01*
X45460D01*
Y179352D01*
X45404D01*
Y179370D01*
X45366D01*
Y179389D01*
X45310D01*
Y179408D01*
X45273D01*
Y179427D01*
X45235D01*
Y179445D01*
X45198D01*
Y179464D01*
X45179D01*
Y179483D01*
X45142D01*
Y179501D01*
X45104D01*
Y179520D01*
X45085D01*
Y179539D01*
X45067D01*
Y179558D01*
X45029D01*
Y179576D01*
X45011D01*
Y179595D01*
X44992D01*
Y179614D01*
X44973D01*
Y179632D01*
X44954D01*
Y179651D01*
X44936D01*
Y179670D01*
X44917D01*
Y179689D01*
X44898D01*
Y179707D01*
X44879D01*
Y179726D01*
X44861D01*
Y179763D01*
X44842D01*
Y179782D01*
X44823D01*
Y179801D01*
X44805D01*
Y179838D01*
X44786D01*
Y179857D01*
X44767D01*
Y179894D01*
X44748D01*
Y179932D01*
X44730D01*
Y179969D01*
X44711D01*
Y180007D01*
X44692D01*
Y180044D01*
X44674D01*
Y180100D01*
X44655D01*
Y180138D01*
X44636D01*
Y180213D01*
X44618D01*
Y180306D01*
X44599D01*
Y180493D01*
X44580D01*
Y180531D01*
X44599D01*
Y180718D01*
X44618D01*
Y180812D01*
X44636D01*
Y180887D01*
X44655D01*
Y180924D01*
X44674D01*
Y180980D01*
X44692D01*
Y181018D01*
X44711D01*
Y181055D01*
X44730D01*
Y181093D01*
X44748D01*
Y181130D01*
X44767D01*
Y181149D01*
X44786D01*
Y181186D01*
X44805D01*
Y181205D01*
X44823D01*
Y181242D01*
X44842D01*
Y181261D01*
X44861D01*
Y181280D01*
X44879D01*
Y181317D01*
X44898D01*
Y181336D01*
X44917D01*
Y181355D01*
X44936D01*
Y181373D01*
X44954D01*
Y181392D01*
X44973D01*
Y181411D01*
X44992D01*
Y181430D01*
X45029D01*
Y181448D01*
X45048D01*
Y181467D01*
X45067D01*
Y181486D01*
X45085D01*
Y181504D01*
X45123D01*
Y181523D01*
X45142D01*
Y181542D01*
X45179D01*
Y181561D01*
X45217D01*
Y181579D01*
X45235D01*
Y181598D01*
X45273D01*
Y181617D01*
X45329D01*
Y181635D01*
X45366D01*
Y181654D01*
X45422D01*
Y181673D01*
X45479D01*
Y181692D01*
X45553D01*
Y181710D01*
X45666D01*
Y181729D01*
X45946D01*
Y181710D01*
D02*
G37*
G36*
X38964Y181692D02*
X39077D01*
Y181673D01*
X39133D01*
Y181654D01*
X39208D01*
Y181635D01*
X39245D01*
Y181617D01*
X39301D01*
Y181598D01*
X39338D01*
Y181579D01*
X39376D01*
Y181561D01*
X39395D01*
Y181542D01*
X39432D01*
Y181523D01*
X39470D01*
Y181504D01*
X39488D01*
Y181486D01*
X39507D01*
Y181467D01*
X39544D01*
Y181448D01*
X39563D01*
Y181430D01*
X39582D01*
Y181411D01*
X39601D01*
Y181392D01*
X39619D01*
Y181373D01*
X39638D01*
Y181355D01*
X39657D01*
Y181336D01*
X39676D01*
Y181317D01*
X39694D01*
Y181298D01*
X39713D01*
Y181280D01*
X39732D01*
Y181242D01*
X39750D01*
Y181224D01*
X39769D01*
Y181205D01*
X39788D01*
Y181167D01*
X39807D01*
Y181149D01*
X39825D01*
Y181111D01*
X39844D01*
Y181093D01*
X39807D01*
Y181074D01*
X39769D01*
Y181055D01*
X39732D01*
Y181036D01*
X39694D01*
Y181018D01*
X39657D01*
Y180999D01*
X39619D01*
Y180980D01*
X39582D01*
Y180962D01*
X39544D01*
Y180943D01*
X39507D01*
Y180924D01*
X39470D01*
Y180905D01*
X39432D01*
Y180887D01*
X39395D01*
Y180905D01*
X39376D01*
Y180924D01*
X39357D01*
Y180962D01*
X39338D01*
Y180980D01*
X39320D01*
Y180999D01*
X39301D01*
Y181018D01*
X39282D01*
Y181036D01*
X39264D01*
Y181055D01*
X39245D01*
Y181074D01*
X39208D01*
Y181093D01*
X39189D01*
Y181111D01*
X39151D01*
Y181130D01*
X39133D01*
Y181149D01*
X39095D01*
Y181167D01*
X39039D01*
Y181186D01*
X38983D01*
Y181205D01*
X38852D01*
Y181224D01*
X38758D01*
Y181205D01*
X38627D01*
Y181186D01*
X38571D01*
Y181167D01*
X38534D01*
Y181149D01*
X38496D01*
Y181130D01*
X38459D01*
Y181111D01*
X38421D01*
Y181093D01*
X38403D01*
Y181074D01*
X38365D01*
Y181055D01*
X38346D01*
Y181036D01*
X38328D01*
Y181018D01*
X38309D01*
Y180999D01*
X38290D01*
Y180980D01*
X38271D01*
Y180962D01*
X38253D01*
Y180924D01*
X38234D01*
Y180905D01*
X38215D01*
Y180868D01*
X38197D01*
Y180830D01*
X38178D01*
Y180793D01*
X38159D01*
Y180756D01*
X38140D01*
Y180681D01*
X38122D01*
Y180568D01*
X38103D01*
Y180475D01*
X38122D01*
Y180344D01*
X38140D01*
Y180288D01*
X38159D01*
Y180231D01*
X38178D01*
Y180194D01*
X38197D01*
Y180157D01*
X38215D01*
Y180138D01*
X38234D01*
Y180100D01*
X38253D01*
Y180082D01*
X38271D01*
Y180063D01*
X38290D01*
Y180044D01*
X38309D01*
Y180025D01*
X38328D01*
Y180007D01*
X38346D01*
Y179988D01*
X38365D01*
Y179969D01*
X38384D01*
Y179951D01*
X38421D01*
Y179932D01*
X38440D01*
Y179913D01*
X38478D01*
Y179894D01*
X38515D01*
Y179876D01*
X38552D01*
Y179857D01*
X38609D01*
Y179838D01*
X38702D01*
Y179820D01*
X38908D01*
Y179838D01*
X39002D01*
Y179857D01*
X39058D01*
Y179876D01*
X39095D01*
Y179894D01*
X39133D01*
Y179913D01*
X39170D01*
Y179932D01*
X39208D01*
Y179951D01*
X39226D01*
Y179969D01*
X39245D01*
Y179988D01*
X39264D01*
Y180007D01*
X39301D01*
Y180025D01*
X39320D01*
Y180063D01*
X39338D01*
Y180082D01*
X39357D01*
Y180100D01*
X39376D01*
Y180138D01*
X39395D01*
Y180157D01*
X39413D01*
Y180194D01*
X39432D01*
Y180175D01*
X39451D01*
Y180157D01*
X39488D01*
Y180138D01*
X39526D01*
Y180119D01*
X39563D01*
Y180100D01*
X39601D01*
Y180082D01*
X39638D01*
Y180063D01*
X39676D01*
Y180044D01*
X39713D01*
Y180025D01*
X39750D01*
Y180007D01*
X39788D01*
Y179988D01*
X39825D01*
Y179969D01*
X39863D01*
Y179951D01*
X39844D01*
Y179913D01*
X39825D01*
Y179876D01*
X39807D01*
Y179857D01*
X39788D01*
Y179820D01*
X39769D01*
Y179801D01*
X39750D01*
Y179782D01*
X39732D01*
Y179763D01*
X39713D01*
Y179726D01*
X39694D01*
Y179707D01*
X39676D01*
Y179689D01*
X39657D01*
Y179670D01*
X39638D01*
Y179651D01*
X39619D01*
Y179632D01*
X39601D01*
Y179614D01*
X39582D01*
Y179595D01*
X39544D01*
Y179576D01*
X39526D01*
Y179558D01*
X39507D01*
Y179539D01*
X39470D01*
Y179520D01*
X39451D01*
Y179501D01*
X39413D01*
Y179483D01*
X39376D01*
Y179464D01*
X39338D01*
Y179445D01*
X39301D01*
Y179427D01*
X39264D01*
Y179408D01*
X39226D01*
Y179389D01*
X39170D01*
Y179370D01*
X39095D01*
Y179352D01*
X39002D01*
Y179333D01*
X38627D01*
Y179352D01*
X38534D01*
Y179370D01*
X38459D01*
Y179389D01*
X38403D01*
Y179408D01*
X38346D01*
Y179427D01*
X38309D01*
Y179445D01*
X38271D01*
Y179464D01*
X38234D01*
Y179483D01*
X38197D01*
Y179501D01*
X38178D01*
Y179520D01*
X38140D01*
Y179539D01*
X38122D01*
Y179558D01*
X38084D01*
Y179576D01*
X38066D01*
Y179595D01*
X38047D01*
Y179614D01*
X38028D01*
Y179632D01*
X38010D01*
Y179651D01*
X37972D01*
Y179670D01*
X37953D01*
Y179689D01*
X37935D01*
Y179726D01*
X37916D01*
Y179745D01*
X37897D01*
Y179763D01*
X37878D01*
Y179782D01*
X37860D01*
Y179801D01*
X37841D01*
Y179838D01*
X37822D01*
Y179857D01*
X37804D01*
Y179894D01*
X37785D01*
Y179932D01*
X37766D01*
Y179951D01*
X37747D01*
Y179988D01*
X37729D01*
Y180025D01*
X37710D01*
Y180082D01*
X37691D01*
Y180119D01*
X37672D01*
Y180194D01*
X37654D01*
Y180269D01*
X37635D01*
Y180362D01*
X37616D01*
Y180662D01*
X37635D01*
Y180774D01*
X37654D01*
Y180849D01*
X37672D01*
Y180905D01*
X37691D01*
Y180962D01*
X37710D01*
Y180999D01*
X37729D01*
Y181036D01*
X37747D01*
Y181074D01*
X37766D01*
Y181111D01*
X37785D01*
Y181149D01*
X37804D01*
Y181167D01*
X37822D01*
Y181205D01*
X37841D01*
Y181224D01*
X37860D01*
Y181242D01*
X37878D01*
Y181280D01*
X37897D01*
Y181298D01*
X37916D01*
Y181317D01*
X37935D01*
Y181336D01*
X37953D01*
Y181355D01*
X37972D01*
Y181373D01*
X37991D01*
Y181392D01*
X38010D01*
Y181411D01*
X38028D01*
Y181430D01*
X38047D01*
Y181448D01*
X38084D01*
Y181467D01*
X38103D01*
Y181486D01*
X38122D01*
Y181504D01*
X38159D01*
Y181523D01*
X38178D01*
Y181542D01*
X38215D01*
Y181561D01*
X38253D01*
Y181579D01*
X38290D01*
Y181598D01*
X38328D01*
Y181617D01*
X38365D01*
Y181635D01*
X38421D01*
Y181654D01*
X38478D01*
Y181673D01*
X38552D01*
Y181692D01*
X38665D01*
Y181710D01*
X38964D01*
Y181692D01*
D02*
G37*
G36*
X54164Y181635D02*
X54146D01*
Y181617D01*
X54127D01*
Y181579D01*
X54108D01*
Y181542D01*
X54089D01*
Y181523D01*
X54071D01*
Y181486D01*
X54052D01*
Y181448D01*
X54033D01*
Y181430D01*
X54015D01*
Y181392D01*
X53996D01*
Y181355D01*
X53977D01*
Y181336D01*
X53958D01*
Y181298D01*
X53940D01*
Y181261D01*
X53921D01*
Y181242D01*
X53902D01*
Y181205D01*
X53884D01*
Y181167D01*
X53865D01*
Y181149D01*
X53846D01*
Y181111D01*
X53827D01*
Y181074D01*
X53809D01*
Y181055D01*
X53790D01*
Y181018D01*
X53771D01*
Y180980D01*
X53753D01*
Y180962D01*
X53734D01*
Y180924D01*
X53715D01*
Y180887D01*
X53696D01*
Y180868D01*
X53678D01*
Y180830D01*
X53659D01*
Y180793D01*
X53640D01*
Y180774D01*
X53622D01*
Y180737D01*
X53603D01*
Y180699D01*
X53584D01*
Y180681D01*
X53565D01*
Y180643D01*
X53547D01*
Y180606D01*
X53528D01*
Y180587D01*
X53509D01*
Y180550D01*
X53491D01*
Y180512D01*
X53472D01*
Y180493D01*
X53453D01*
Y180456D01*
X53434D01*
Y180437D01*
X53416D01*
Y180400D01*
X53397D01*
Y180362D01*
X53378D01*
Y180344D01*
X53360D01*
Y180306D01*
X53341D01*
Y180269D01*
X53322D01*
Y180250D01*
X53303D01*
Y179333D01*
X52798D01*
Y180250D01*
X52779D01*
Y180288D01*
X52760D01*
Y180306D01*
X52742D01*
Y180344D01*
X52723D01*
Y180381D01*
X52704D01*
Y180400D01*
X52686D01*
Y180437D01*
X52667D01*
Y180475D01*
X52648D01*
Y180493D01*
X52629D01*
Y180531D01*
X52611D01*
Y180568D01*
X52592D01*
Y180587D01*
X52573D01*
Y180624D01*
X52555D01*
Y180662D01*
X52536D01*
Y180681D01*
X52517D01*
Y180718D01*
X52498D01*
Y180737D01*
X52480D01*
Y180774D01*
X52461D01*
Y180812D01*
X52442D01*
Y180830D01*
X52424D01*
Y180868D01*
X52405D01*
Y180905D01*
X52386D01*
Y180924D01*
X52367D01*
Y180962D01*
X52349D01*
Y180999D01*
X52330D01*
Y181018D01*
X52311D01*
Y181055D01*
X52292D01*
Y181093D01*
X52274D01*
Y181111D01*
X52255D01*
Y181149D01*
X52236D01*
Y181186D01*
X52218D01*
Y181205D01*
X52199D01*
Y181242D01*
X52180D01*
Y181280D01*
X52161D01*
Y181298D01*
X52143D01*
Y181336D01*
X52124D01*
Y181373D01*
X52105D01*
Y181392D01*
X52087D01*
Y181430D01*
X52068D01*
Y181467D01*
X52049D01*
Y181486D01*
X52030D01*
Y181523D01*
X52012D01*
Y181561D01*
X51993D01*
Y181579D01*
X51974D01*
Y181617D01*
X51955D01*
Y181654D01*
X51937D01*
Y181692D01*
X52498D01*
Y181673D01*
X52517D01*
Y181654D01*
X52536D01*
Y181617D01*
X52555D01*
Y181598D01*
X52573D01*
Y181561D01*
X52592D01*
Y181523D01*
X52611D01*
Y181486D01*
X52629D01*
Y181467D01*
X52648D01*
Y181430D01*
X52667D01*
Y181392D01*
X52686D01*
Y181373D01*
X52704D01*
Y181336D01*
X52723D01*
Y181298D01*
X52742D01*
Y181280D01*
X52760D01*
Y181242D01*
X52779D01*
Y181205D01*
X52798D01*
Y181186D01*
X52817D01*
Y181149D01*
X52835D01*
Y181111D01*
X52854D01*
Y181074D01*
X52873D01*
Y181055D01*
X52891D01*
Y181018D01*
X52910D01*
Y180980D01*
X52929D01*
Y180962D01*
X52948D01*
Y180924D01*
X52966D01*
Y180887D01*
X52985D01*
Y180868D01*
X53004D01*
Y180830D01*
X53022D01*
Y180793D01*
X53041D01*
Y180774D01*
X53079D01*
Y180812D01*
X53097D01*
Y180849D01*
X53116D01*
Y180868D01*
X53135D01*
Y180905D01*
X53154D01*
Y180943D01*
X53172D01*
Y180962D01*
X53191D01*
Y180999D01*
X53210D01*
Y181036D01*
X53228D01*
Y181055D01*
X53247D01*
Y181074D01*
Y181093D01*
X53266D01*
Y181130D01*
X53285D01*
Y181167D01*
X53303D01*
Y181186D01*
X53322D01*
Y181224D01*
X53341D01*
Y181261D01*
X53360D01*
Y181280D01*
X53378D01*
Y181317D01*
X53397D01*
Y181355D01*
X53416D01*
Y181373D01*
X53434D01*
Y181411D01*
X53453D01*
Y181448D01*
X53472D01*
Y181486D01*
X53491D01*
Y181504D01*
X53509D01*
Y181542D01*
X53528D01*
Y181579D01*
X53547D01*
Y181598D01*
X53565D01*
Y181635D01*
X53584D01*
Y181673D01*
X53603D01*
Y181692D01*
X54164D01*
Y181635D01*
D02*
G37*
G36*
X65845Y181598D02*
Y181579D01*
Y179333D01*
X65396D01*
Y179352D01*
X65377D01*
Y179370D01*
X65359D01*
Y179389D01*
X65340D01*
Y179427D01*
X65321D01*
Y179445D01*
X65302D01*
Y179483D01*
X65284D01*
Y179501D01*
X65265D01*
Y179520D01*
X65246D01*
Y179558D01*
X65228D01*
Y179576D01*
X65209D01*
Y179595D01*
X65190D01*
Y179632D01*
X65171D01*
Y179651D01*
X65153D01*
Y179670D01*
X65134D01*
Y179707D01*
X65115D01*
Y179726D01*
X65097D01*
Y179745D01*
X65078D01*
Y179782D01*
X65059D01*
Y179801D01*
X65040D01*
Y179838D01*
X65022D01*
Y179857D01*
X65003D01*
Y179876D01*
X64984D01*
Y179913D01*
X64966D01*
Y179932D01*
X64947D01*
Y179951D01*
X64928D01*
Y179988D01*
X64909D01*
Y180007D01*
X64891D01*
Y180025D01*
X64872D01*
Y180063D01*
X64853D01*
Y180082D01*
X64834D01*
Y180100D01*
X64816D01*
Y180138D01*
X64797D01*
Y180157D01*
X64778D01*
Y180194D01*
X64760D01*
Y180213D01*
X64741D01*
Y180231D01*
X64722D01*
Y180269D01*
X64704D01*
Y180288D01*
X64685D01*
Y180306D01*
X64666D01*
Y180344D01*
X64647D01*
Y180362D01*
X64629D01*
Y180381D01*
X64610D01*
Y180419D01*
X64591D01*
Y180437D01*
X64573D01*
Y180475D01*
X64554D01*
Y180493D01*
X64535D01*
Y180512D01*
X64516D01*
Y180550D01*
X64498D01*
Y180568D01*
X64479D01*
Y180587D01*
X64460D01*
Y180624D01*
X64441D01*
Y180643D01*
X64423D01*
Y180662D01*
X64404D01*
Y180699D01*
X64385D01*
Y180718D01*
X64367D01*
Y180756D01*
X64348D01*
Y180774D01*
X64329D01*
Y180793D01*
X64310D01*
Y180830D01*
X64292D01*
Y180849D01*
X64273D01*
Y180868D01*
X64254D01*
Y180905D01*
X64236D01*
Y180924D01*
X64217D01*
Y179333D01*
X63749D01*
Y181692D01*
X64348D01*
Y181673D01*
X64367D01*
Y181654D01*
X64385D01*
Y181635D01*
X64404D01*
Y181598D01*
X64423D01*
Y181579D01*
X64441D01*
Y181542D01*
X64460D01*
Y181523D01*
X64479D01*
Y181504D01*
X64498D01*
Y181467D01*
X64516D01*
Y181448D01*
X64535D01*
Y181430D01*
X64554D01*
Y181392D01*
X64573D01*
Y181373D01*
X64591D01*
Y181336D01*
X64610D01*
Y181317D01*
X64629D01*
Y181298D01*
X64647D01*
Y181261D01*
X64666D01*
Y181242D01*
X64685D01*
Y181205D01*
X64704D01*
Y181186D01*
X64722D01*
Y181167D01*
X64741D01*
Y181130D01*
X64760D01*
Y181111D01*
X64778D01*
Y181093D01*
X64797D01*
Y181055D01*
X64816D01*
Y181036D01*
X64834D01*
Y180999D01*
X64853D01*
Y180980D01*
X64872D01*
Y180962D01*
X64891D01*
Y180924D01*
X64909D01*
Y180905D01*
X64928D01*
Y180868D01*
X64947D01*
Y180849D01*
X64966D01*
Y180830D01*
X64984D01*
Y180793D01*
X65003D01*
Y180774D01*
X65022D01*
Y180737D01*
X65040D01*
Y180718D01*
X65059D01*
Y180699D01*
X65078D01*
Y180662D01*
X65097D01*
Y180643D01*
X65115D01*
Y180606D01*
X65134D01*
Y180587D01*
X65153D01*
Y180568D01*
X65171D01*
Y180531D01*
X65190D01*
Y180512D01*
X65209D01*
Y180475D01*
X65228D01*
Y180456D01*
X65246D01*
Y180437D01*
X65265D01*
Y180400D01*
X65284D01*
Y180381D01*
X65302D01*
Y180344D01*
X65321D01*
Y180325D01*
X65340D01*
Y180306D01*
X65359D01*
Y180269D01*
X65377D01*
Y180250D01*
X65396D01*
Y181692D01*
X65845D01*
Y181598D01*
D02*
G37*
G36*
X37298Y180063D02*
X37279D01*
Y179951D01*
X37261D01*
Y179876D01*
X37242D01*
Y179801D01*
X37223D01*
Y179763D01*
X37205D01*
Y179726D01*
X37186D01*
Y179689D01*
X37167D01*
Y179670D01*
X37148D01*
Y179632D01*
X37130D01*
Y179614D01*
X37111D01*
Y179576D01*
X37092D01*
Y179558D01*
X37073D01*
Y179539D01*
X37055D01*
Y179520D01*
X37036D01*
Y179501D01*
X37017D01*
Y179483D01*
X36980D01*
Y179464D01*
X36961D01*
Y179445D01*
X36942D01*
Y179427D01*
X36905D01*
Y179408D01*
X36868D01*
Y179389D01*
X36830D01*
Y179370D01*
X36793D01*
Y179352D01*
X36737D01*
Y179333D01*
X36680D01*
Y179314D01*
X36606D01*
Y179295D01*
X36474D01*
Y179277D01*
X36119D01*
Y179295D01*
X35988D01*
Y179314D01*
X35913D01*
Y179333D01*
X35838D01*
Y179352D01*
X35801D01*
Y179370D01*
X35744D01*
Y179389D01*
X35707D01*
Y179408D01*
X35688D01*
Y179427D01*
X35651D01*
Y179445D01*
X35613D01*
Y179464D01*
X35595D01*
Y179483D01*
X35576D01*
Y179501D01*
X35557D01*
Y179520D01*
X35539D01*
Y179539D01*
X35520D01*
Y179558D01*
X35501D01*
Y179576D01*
X35482D01*
Y179595D01*
X35464D01*
Y179632D01*
X35445D01*
Y179651D01*
X35426D01*
Y179689D01*
X35408D01*
Y179726D01*
X35389D01*
Y179763D01*
X35370D01*
Y179801D01*
X35351D01*
Y179857D01*
X35333D01*
Y179932D01*
X35314D01*
Y180044D01*
X35295D01*
Y181692D01*
X35819D01*
Y180025D01*
X35838D01*
Y179969D01*
X35857D01*
Y179913D01*
X35875D01*
Y179894D01*
X35894D01*
Y179857D01*
X35913D01*
Y179838D01*
X35932D01*
Y179820D01*
X35950D01*
Y179801D01*
X35988D01*
Y179782D01*
X36007D01*
Y179763D01*
X36044D01*
Y179745D01*
X36100D01*
Y179726D01*
X36212D01*
Y179707D01*
X36400D01*
Y179726D01*
X36493D01*
Y179745D01*
X36549D01*
Y179763D01*
X36606D01*
Y179782D01*
X36624D01*
Y179801D01*
X36643D01*
Y179820D01*
X36662D01*
Y179838D01*
X36680D01*
Y179857D01*
X36699D01*
Y179876D01*
X36718D01*
Y179913D01*
X36737D01*
Y179951D01*
X36755D01*
Y180025D01*
X36774D01*
Y181692D01*
X37298D01*
Y180063D01*
D02*
G37*
G36*
X43288Y179782D02*
X44486D01*
Y179352D01*
X42783D01*
Y179595D01*
Y179614D01*
Y181692D01*
X43288D01*
Y179782D01*
D02*
G37*
G36*
X63356Y179333D02*
X62831D01*
Y179520D01*
Y179539D01*
Y181692D01*
X63356D01*
Y179333D01*
D02*
G37*
G36*
X59106Y181654D02*
X59125D01*
Y181617D01*
X59144D01*
Y181579D01*
X59162D01*
Y181542D01*
X59181D01*
Y181504D01*
X59200D01*
Y181448D01*
X59219D01*
Y181411D01*
X59237D01*
Y181373D01*
X59256D01*
Y181336D01*
X59275D01*
Y181280D01*
X59294D01*
Y181242D01*
X59312D01*
Y181205D01*
X59331D01*
Y181167D01*
X59350D01*
Y181111D01*
X59368D01*
Y181074D01*
X59387D01*
Y181036D01*
X59406D01*
Y180999D01*
X59425D01*
Y180962D01*
X59443D01*
Y180905D01*
X59462D01*
Y180868D01*
X59481D01*
Y180830D01*
X59500D01*
Y180793D01*
X59518D01*
Y180737D01*
X59537D01*
Y180699D01*
X59556D01*
Y180662D01*
X59574D01*
Y180624D01*
X59593D01*
Y180568D01*
X59612D01*
Y180531D01*
X59631D01*
Y180493D01*
X59649D01*
Y180456D01*
X59668D01*
Y180419D01*
X59687D01*
Y180362D01*
X59705D01*
Y180325D01*
X59724D01*
Y180288D01*
X59743D01*
Y180250D01*
X59762D01*
Y180194D01*
X59780D01*
Y180157D01*
X59799D01*
Y180119D01*
X59818D01*
Y180082D01*
X59836D01*
Y180025D01*
X59855D01*
Y179988D01*
X59874D01*
Y179951D01*
X59893D01*
Y179913D01*
X59911D01*
Y179857D01*
X59930D01*
Y179820D01*
X59949D01*
Y179782D01*
X59967D01*
Y179745D01*
X59986D01*
Y179707D01*
X60005D01*
Y179651D01*
X60024D01*
Y179614D01*
X60042D01*
Y179576D01*
X60061D01*
Y179539D01*
X60080D01*
Y179483D01*
X60098D01*
Y179445D01*
X60117D01*
Y179408D01*
X60136D01*
Y179370D01*
X60155D01*
Y179333D01*
X59649D01*
Y179370D01*
X59631D01*
Y179408D01*
X59612D01*
Y179445D01*
X59593D01*
Y179501D01*
X59574D01*
Y179539D01*
X59556D01*
Y179576D01*
X59537D01*
Y179632D01*
X59518D01*
Y179670D01*
X59500D01*
Y179707D01*
X59481D01*
Y179745D01*
X59462D01*
Y179801D01*
X59443D01*
Y179838D01*
X59425D01*
Y179857D01*
X58245D01*
Y179838D01*
X58227D01*
Y179820D01*
X58208D01*
Y179763D01*
X58189D01*
Y179726D01*
X58170D01*
Y179689D01*
X58152D01*
Y179651D01*
X58133D01*
Y179614D01*
X58114D01*
Y179576D01*
X58096D01*
Y179539D01*
X58077D01*
Y179501D01*
X58058D01*
Y179464D01*
X58039D01*
Y179427D01*
X58021D01*
Y179370D01*
X58002D01*
Y179333D01*
X57515D01*
Y179352D01*
X57534D01*
Y179389D01*
X57553D01*
Y179427D01*
X57571D01*
Y179483D01*
X57590D01*
Y179520D01*
X57609D01*
Y179558D01*
X57627D01*
Y179595D01*
X57646D01*
Y179632D01*
X57665D01*
Y179689D01*
X57684D01*
Y179726D01*
X57702D01*
Y179763D01*
X57721D01*
Y179801D01*
X57740D01*
Y179838D01*
X57759D01*
Y179894D01*
X57777D01*
Y179932D01*
X57796D01*
Y179969D01*
X57815D01*
Y180007D01*
X57833D01*
Y180044D01*
X57852D01*
Y180100D01*
X57871D01*
Y180138D01*
X57890D01*
Y180175D01*
X57908D01*
Y180213D01*
X57927D01*
Y180250D01*
X57946D01*
Y180288D01*
X57964D01*
Y180344D01*
X57983D01*
Y180381D01*
X58002D01*
Y180419D01*
X58021D01*
Y180456D01*
X58039D01*
Y180493D01*
X58058D01*
Y180550D01*
X58077D01*
Y180587D01*
X58096D01*
Y180624D01*
X58114D01*
Y180662D01*
X58133D01*
Y180699D01*
X58152D01*
Y180756D01*
X58170D01*
Y180793D01*
X58189D01*
Y180830D01*
X58208D01*
Y180868D01*
X58227D01*
Y180905D01*
X58245D01*
Y180962D01*
X58264D01*
Y180999D01*
X58283D01*
Y181036D01*
X58301D01*
Y181074D01*
X58320D01*
Y181111D01*
X58339D01*
Y181167D01*
X58358D01*
Y181205D01*
X58376D01*
Y181242D01*
X58395D01*
Y181280D01*
X58414D01*
Y181317D01*
X58432D01*
Y181373D01*
X58451D01*
Y181411D01*
X58470D01*
Y181448D01*
X58489D01*
Y181486D01*
X58507D01*
Y181523D01*
X58526D01*
Y181579D01*
X58545D01*
Y181617D01*
X58564D01*
Y181654D01*
X58582D01*
Y181692D01*
X59106D01*
Y181654D01*
D02*
G37*
G36*
X56504Y181673D02*
X56654D01*
Y181654D01*
X56729D01*
Y181635D01*
X56785D01*
Y181617D01*
X56841D01*
Y181598D01*
X56879D01*
Y181579D01*
X56916D01*
Y181561D01*
X56935D01*
Y181542D01*
X56972D01*
Y181523D01*
X56991D01*
Y181504D01*
X57010D01*
Y181486D01*
X57029D01*
Y181467D01*
X57047D01*
Y181448D01*
X57066D01*
Y181430D01*
X57085D01*
Y181411D01*
X57103D01*
Y181392D01*
X57122D01*
Y181355D01*
X57141D01*
Y181336D01*
X57160D01*
Y181298D01*
X57178D01*
Y181261D01*
X57197D01*
Y181205D01*
X57216D01*
Y181130D01*
X57234D01*
Y181018D01*
X57253D01*
Y180849D01*
X57234D01*
Y180718D01*
X57216D01*
Y180662D01*
X57197D01*
Y180606D01*
X57178D01*
Y180568D01*
X57160D01*
Y180531D01*
X57141D01*
Y180493D01*
X57122D01*
Y180475D01*
X57103D01*
Y180456D01*
X57085D01*
Y180419D01*
X57066D01*
Y180400D01*
X57047D01*
Y180381D01*
X57029D01*
Y180362D01*
X57010D01*
Y180344D01*
X56972D01*
Y180325D01*
X56954D01*
Y180306D01*
X56916D01*
Y180288D01*
X56897D01*
Y180269D01*
X56860D01*
Y180250D01*
X56823D01*
Y180231D01*
X56766D01*
Y180213D01*
X56710D01*
Y180194D01*
X56729D01*
Y180157D01*
X56748D01*
Y180138D01*
X56766D01*
Y180119D01*
X56785D01*
Y180100D01*
X56804D01*
Y180063D01*
X56823D01*
Y180044D01*
X56841D01*
Y180025D01*
X56860D01*
Y179988D01*
X56879D01*
Y179969D01*
X56897D01*
Y179951D01*
X56916D01*
Y179913D01*
X56935D01*
Y179894D01*
X56954D01*
Y179876D01*
X56972D01*
Y179838D01*
X56991D01*
Y179820D01*
X57010D01*
Y179801D01*
X57029D01*
Y179763D01*
X57047D01*
Y179745D01*
X57066D01*
Y179726D01*
X57085D01*
Y179689D01*
X57103D01*
Y179670D01*
X57122D01*
Y179651D01*
X57141D01*
Y179614D01*
X57160D01*
Y179595D01*
X57178D01*
Y179576D01*
X57197D01*
Y179558D01*
X57216D01*
Y179520D01*
X57234D01*
Y179501D01*
X57253D01*
Y179483D01*
X57272D01*
Y179445D01*
X57291D01*
Y179427D01*
X57309D01*
Y179408D01*
X57328D01*
Y179370D01*
X57347D01*
Y179352D01*
X57365D01*
Y179333D01*
X56729D01*
Y179352D01*
X56710D01*
Y179370D01*
X56691D01*
Y179389D01*
Y179408D01*
X56673D01*
Y179427D01*
X56654D01*
Y179464D01*
X56635D01*
Y179483D01*
X56617D01*
Y179520D01*
X56598D01*
Y179539D01*
X56579D01*
Y179558D01*
X56560D01*
Y179595D01*
X56542D01*
Y179614D01*
X56523D01*
Y179651D01*
X56504D01*
Y179670D01*
X56486D01*
Y179707D01*
X56467D01*
Y179726D01*
X56448D01*
Y179745D01*
X56429D01*
Y179782D01*
X56411D01*
Y179801D01*
X56392D01*
Y179838D01*
X56373D01*
Y179857D01*
X56355D01*
Y179894D01*
X56336D01*
Y179913D01*
X56317D01*
Y179932D01*
X56298D01*
Y179969D01*
X56280D01*
Y179988D01*
X56261D01*
Y180025D01*
X56242D01*
Y180044D01*
X56224D01*
Y180082D01*
X56205D01*
Y180100D01*
X56186D01*
Y180119D01*
X56167D01*
Y180157D01*
X56149D01*
Y180175D01*
X55887D01*
Y179333D01*
X55362D01*
Y181692D01*
X56504D01*
Y181673D01*
D02*
G37*
G36*
X51076D02*
X51225D01*
Y181654D01*
X51300D01*
Y181635D01*
X51357D01*
Y181617D01*
X51394D01*
Y181598D01*
X51431D01*
Y181579D01*
X51469D01*
Y181561D01*
X51506D01*
Y181542D01*
X51525D01*
Y181523D01*
X51544D01*
Y181504D01*
X51581D01*
Y181486D01*
X51600D01*
Y181467D01*
X51619D01*
Y181448D01*
X51637D01*
Y181411D01*
X51656D01*
Y181392D01*
X51675D01*
Y181373D01*
X51693D01*
Y181336D01*
X51712D01*
Y181298D01*
X51731D01*
Y181261D01*
X51750D01*
Y181224D01*
X51768D01*
Y181149D01*
X51787D01*
Y181074D01*
X51806D01*
Y180774D01*
X51787D01*
Y180699D01*
X51768D01*
Y180643D01*
X51750D01*
Y180587D01*
X51731D01*
Y180568D01*
Y180550D01*
X51712D01*
Y180531D01*
X51693D01*
Y180493D01*
X51675D01*
Y180456D01*
X51656D01*
Y180437D01*
X51637D01*
Y180419D01*
X51619D01*
Y180400D01*
X51600D01*
Y180381D01*
X51581D01*
Y180362D01*
X51562D01*
Y180344D01*
X51544D01*
Y180325D01*
X51506D01*
Y180306D01*
X51487D01*
Y180288D01*
X51450D01*
Y180269D01*
X51413D01*
Y180250D01*
X51375D01*
Y180231D01*
X51319D01*
Y180213D01*
X51263D01*
Y180194D01*
X51282D01*
Y180175D01*
X51300D01*
Y180157D01*
X51319D01*
Y180119D01*
X51338D01*
Y180100D01*
X51357D01*
Y180082D01*
X51375D01*
Y180044D01*
X51394D01*
Y180025D01*
X51413D01*
Y180007D01*
X51431D01*
Y179969D01*
X51450D01*
Y179951D01*
X51469D01*
Y179932D01*
X51487D01*
Y179894D01*
X51506D01*
Y179876D01*
X51525D01*
Y179857D01*
X51544D01*
Y179820D01*
X51562D01*
Y179801D01*
X51581D01*
Y179782D01*
X51600D01*
Y179745D01*
X51619D01*
Y179726D01*
X51637D01*
Y179707D01*
X51656D01*
Y179670D01*
X51675D01*
Y179651D01*
X51693D01*
Y179632D01*
X51712D01*
Y179595D01*
X51731D01*
Y179576D01*
X51750D01*
Y179558D01*
X51768D01*
Y179520D01*
X51787D01*
Y179501D01*
X51806D01*
Y179483D01*
X51824D01*
Y179445D01*
X51843D01*
Y179427D01*
X51862D01*
Y179408D01*
X51881D01*
Y179370D01*
X51899D01*
Y179352D01*
X51918D01*
Y179333D01*
X51282D01*
Y179370D01*
X51263D01*
Y179389D01*
X51244D01*
Y179408D01*
X51225D01*
Y179445D01*
X51207D01*
Y179464D01*
X51188D01*
Y179501D01*
X51169D01*
Y179520D01*
X51151D01*
Y179558D01*
X51132D01*
Y179576D01*
X51113D01*
Y179595D01*
X51094D01*
Y179632D01*
X51076D01*
Y179651D01*
X51057D01*
Y179689D01*
X51038D01*
Y179707D01*
X51020D01*
Y179745D01*
X51001D01*
Y179763D01*
X50982D01*
Y179782D01*
X50963D01*
Y179820D01*
X50945D01*
Y179838D01*
X50926D01*
Y179876D01*
X50907D01*
Y179894D01*
X50889D01*
Y179932D01*
X50870D01*
Y179951D01*
X50851D01*
Y179969D01*
X50832D01*
Y180007D01*
X50814D01*
Y180025D01*
X50795D01*
Y180063D01*
X50776D01*
Y180082D01*
X50757D01*
Y180119D01*
X50739D01*
Y180138D01*
X50720D01*
Y180157D01*
X50701D01*
Y180175D01*
X50458D01*
Y179333D01*
X49934D01*
Y181692D01*
X51076D01*
Y181673D01*
D02*
G37*
G36*
X48642Y181654D02*
X48661D01*
Y181617D01*
X48680D01*
Y181579D01*
X48698D01*
Y181542D01*
X48717D01*
Y181486D01*
X48736D01*
Y181448D01*
X48755D01*
Y181411D01*
X48773D01*
Y181373D01*
X48792D01*
Y181317D01*
X48811D01*
Y181280D01*
X48829D01*
Y181242D01*
X48848D01*
Y181205D01*
X48867D01*
Y181149D01*
X48886D01*
Y181111D01*
X48904D01*
Y181074D01*
X48923D01*
Y181036D01*
X48942D01*
Y180999D01*
X48960D01*
Y180943D01*
X48979D01*
Y180905D01*
X48998D01*
Y180868D01*
X49016D01*
Y180830D01*
X49035D01*
Y180774D01*
X49054D01*
Y180737D01*
X49073D01*
Y180699D01*
X49091D01*
Y180662D01*
X49110D01*
Y180606D01*
X49129D01*
Y180568D01*
X49148D01*
Y180531D01*
X49166D01*
Y180493D01*
X49185D01*
Y180456D01*
X49204D01*
Y180400D01*
X49222D01*
Y180362D01*
X49241D01*
Y180325D01*
X49260D01*
Y180288D01*
X49279D01*
Y180231D01*
X49297D01*
Y180194D01*
X49316D01*
Y180157D01*
X49335D01*
Y180119D01*
X49354D01*
Y180063D01*
X49372D01*
Y180025D01*
X49391D01*
Y179988D01*
X49410D01*
Y179951D01*
X49428D01*
Y179894D01*
X49447D01*
Y179857D01*
X49466D01*
Y179820D01*
X49485D01*
Y179782D01*
X49503D01*
Y179726D01*
X49522D01*
Y179689D01*
X49541D01*
Y179651D01*
X49559D01*
Y179614D01*
X49578D01*
Y179576D01*
X49597D01*
Y179520D01*
X49616D01*
Y179483D01*
X49634D01*
Y179445D01*
X49653D01*
Y179408D01*
X49672D01*
Y179352D01*
X49690D01*
Y179333D01*
X49185D01*
Y179370D01*
X49166D01*
Y179408D01*
X49148D01*
Y179445D01*
X49129D01*
Y179483D01*
X49110D01*
Y179539D01*
X49091D01*
Y179576D01*
X49073D01*
Y179614D01*
X49054D01*
Y179651D01*
X49035D01*
Y179707D01*
X49016D01*
Y179745D01*
X48998D01*
Y179782D01*
X48979D01*
Y179838D01*
X48960D01*
Y179857D01*
X47762D01*
Y179820D01*
X47744D01*
Y179782D01*
X47725D01*
Y179745D01*
X47706D01*
Y179707D01*
X47688D01*
Y179651D01*
X47669D01*
Y179614D01*
X47650D01*
Y179576D01*
X47631D01*
Y179539D01*
X47613D01*
Y179501D01*
X47594D01*
Y179464D01*
X47575D01*
Y179427D01*
X47556D01*
Y179389D01*
X47538D01*
Y179352D01*
X47519D01*
Y179333D01*
X47051D01*
Y179352D01*
X47070D01*
Y179408D01*
X47088D01*
Y179445D01*
X47107D01*
Y179483D01*
X47126D01*
Y179520D01*
X47145D01*
Y179558D01*
X47163D01*
Y179595D01*
X47182D01*
Y179651D01*
X47201D01*
Y179689D01*
X47219D01*
Y179726D01*
X47238D01*
Y179763D01*
X47257D01*
Y179801D01*
X47276D01*
Y179857D01*
X47294D01*
Y179894D01*
X47313D01*
Y179932D01*
X47332D01*
Y179969D01*
X47350D01*
Y180007D01*
X47369D01*
Y180063D01*
X47388D01*
Y180100D01*
X47407D01*
Y180138D01*
X47425D01*
Y180175D01*
X47444D01*
Y180213D01*
X47463D01*
Y180269D01*
X47482D01*
Y180306D01*
X47500D01*
Y180344D01*
X47519D01*
Y180381D01*
X47538D01*
Y180419D01*
X47556D01*
Y180475D01*
X47575D01*
Y180512D01*
X47594D01*
Y180550D01*
X47613D01*
Y180587D01*
X47631D01*
Y180624D01*
X47650D01*
Y180681D01*
X47669D01*
Y180718D01*
X47688D01*
Y180756D01*
X47706D01*
Y180793D01*
X47725D01*
Y180830D01*
X47744D01*
Y180887D01*
X47762D01*
Y180924D01*
X47781D01*
Y180962D01*
X47800D01*
Y180999D01*
X47818D01*
Y181036D01*
X47837D01*
Y181093D01*
X47856D01*
Y181130D01*
X47875D01*
Y181167D01*
X47893D01*
Y181205D01*
X47912D01*
Y181242D01*
X47931D01*
Y181298D01*
X47949D01*
Y181336D01*
X47968D01*
Y181373D01*
X47987D01*
Y181411D01*
X48006D01*
Y181448D01*
X48024D01*
Y181486D01*
X48043D01*
Y181542D01*
X48062D01*
Y181579D01*
X48081D01*
Y181617D01*
X48099D01*
Y181654D01*
X48118D01*
Y181692D01*
X48642D01*
Y181654D01*
D02*
G37*
G36*
X41548D02*
X41566D01*
Y181617D01*
X41585D01*
Y181561D01*
X41604D01*
Y181523D01*
X41622D01*
Y181486D01*
X41641D01*
Y181448D01*
X41660D01*
Y181392D01*
X41679D01*
Y181355D01*
X41697D01*
Y181317D01*
X41716D01*
Y181280D01*
X41735D01*
Y181242D01*
X41753D01*
Y181186D01*
X41772D01*
Y181149D01*
X41791D01*
Y181111D01*
X41809D01*
Y181074D01*
X41828D01*
Y181018D01*
X41847D01*
Y180980D01*
X41866D01*
Y180943D01*
X41884D01*
Y180905D01*
X41903D01*
Y180849D01*
X41922D01*
Y180812D01*
X41941D01*
Y180774D01*
X41959D01*
Y180737D01*
X41978D01*
Y180699D01*
X41997D01*
Y180643D01*
X42015D01*
Y180606D01*
X42034D01*
Y180568D01*
X42053D01*
Y180531D01*
X42072D01*
Y180475D01*
X42090D01*
Y180437D01*
X42109D01*
Y180400D01*
X42128D01*
Y180362D01*
X42147D01*
Y180306D01*
X42165D01*
Y180269D01*
X42184D01*
Y180231D01*
X42203D01*
Y180194D01*
X42221D01*
Y180138D01*
X42240D01*
Y180100D01*
X42259D01*
Y180063D01*
X42278D01*
Y180025D01*
X42296D01*
Y179988D01*
X42315D01*
Y179932D01*
X42334D01*
Y179894D01*
X42352D01*
Y179857D01*
X42371D01*
Y179820D01*
X42390D01*
Y179763D01*
X42409D01*
Y179726D01*
X42427D01*
Y179689D01*
X42446D01*
Y179651D01*
X42465D01*
Y179595D01*
X42483D01*
Y179558D01*
X42502D01*
Y179520D01*
X42521D01*
Y179483D01*
X42540D01*
Y179427D01*
X42558D01*
Y179389D01*
X42577D01*
Y179352D01*
X42596D01*
Y179333D01*
X42090D01*
Y179352D01*
X42072D01*
Y179408D01*
X42053D01*
Y179445D01*
X42034D01*
Y179483D01*
X42015D01*
Y179520D01*
X41997D01*
Y179576D01*
X41978D01*
Y179614D01*
X41959D01*
Y179651D01*
X41941D01*
Y179689D01*
X41922D01*
Y179707D01*
Y179726D01*
Y179745D01*
X41903D01*
Y179782D01*
X41884D01*
Y179820D01*
X41866D01*
Y179857D01*
X40668D01*
Y179820D01*
X40649D01*
Y179782D01*
X40630D01*
Y179745D01*
X40611D01*
Y179707D01*
X40593D01*
Y179670D01*
X40574D01*
Y179632D01*
X40555D01*
Y179595D01*
X40537D01*
Y179539D01*
X40518D01*
Y179501D01*
X40499D01*
Y179464D01*
X40480D01*
Y179427D01*
X40462D01*
Y179389D01*
X40443D01*
Y179352D01*
X40424D01*
Y179333D01*
X39956D01*
Y179370D01*
X39975D01*
Y179408D01*
X39994D01*
Y179445D01*
X40012D01*
Y179483D01*
X40031D01*
Y179520D01*
X40050D01*
Y179576D01*
X40069D01*
Y179614D01*
X40087D01*
Y179651D01*
X40106D01*
Y179689D01*
X40125D01*
Y179726D01*
X40143D01*
Y179782D01*
X40162D01*
Y179820D01*
X40181D01*
Y179857D01*
X40200D01*
Y179894D01*
X40218D01*
Y179932D01*
X40237D01*
Y179988D01*
X40256D01*
Y180025D01*
X40275D01*
Y180063D01*
X40293D01*
Y180100D01*
X40312D01*
Y180138D01*
X40331D01*
Y180194D01*
X40349D01*
Y180231D01*
X40368D01*
Y180269D01*
X40387D01*
Y180306D01*
X40406D01*
Y180344D01*
X40424D01*
Y180400D01*
X40443D01*
Y180437D01*
X40462D01*
Y180475D01*
X40480D01*
Y180512D01*
X40499D01*
Y180550D01*
X40518D01*
Y180587D01*
X40537D01*
Y180643D01*
X40555D01*
Y180681D01*
X40574D01*
Y180718D01*
X40593D01*
Y180756D01*
X40611D01*
Y180793D01*
X40630D01*
Y180849D01*
X40649D01*
Y180887D01*
X40668D01*
Y180924D01*
X40686D01*
Y180962D01*
X40705D01*
Y180999D01*
X40724D01*
Y181055D01*
X40742D01*
Y181093D01*
X40761D01*
Y181130D01*
X40780D01*
Y181167D01*
X40799D01*
Y181205D01*
X40817D01*
Y181261D01*
X40836D01*
Y181298D01*
X40855D01*
Y181336D01*
X40874D01*
Y181373D01*
X40892D01*
Y181411D01*
X40911D01*
Y181467D01*
X40930D01*
Y181504D01*
X40948D01*
Y181542D01*
X40967D01*
Y181579D01*
X40986D01*
Y181617D01*
X41005D01*
Y181673D01*
X41023D01*
Y181692D01*
X41548D01*
Y181654D01*
D02*
G37*
%LPC*%
G36*
X65845Y191950D02*
X63543D01*
Y191931D01*
X62813D01*
Y191912D01*
X62382D01*
Y191894D01*
X62064D01*
Y191875D01*
X61821D01*
Y191856D01*
X61633D01*
Y191838D01*
X61465D01*
Y191819D01*
X61334D01*
Y191800D01*
X61222D01*
Y191781D01*
X61128D01*
Y191763D01*
X61035D01*
Y191744D01*
X60960D01*
Y191725D01*
X60903D01*
Y191707D01*
X60866D01*
Y191688D01*
X60810D01*
Y191669D01*
X60772D01*
Y191650D01*
X60735D01*
Y191632D01*
X60716D01*
Y191613D01*
X60679D01*
Y191594D01*
X60660D01*
Y191575D01*
X60623D01*
Y191557D01*
X60604D01*
Y191538D01*
X60585D01*
Y191519D01*
X60567D01*
Y191482D01*
X60548D01*
Y191463D01*
X60529D01*
Y191444D01*
X60510D01*
Y191407D01*
X60492D01*
Y191369D01*
X60473D01*
Y191313D01*
X60454D01*
Y191033D01*
X60473D01*
Y190976D01*
X60492D01*
Y190920D01*
X60510D01*
Y190883D01*
X60529D01*
Y190845D01*
X60548D01*
Y190808D01*
X60567D01*
Y190789D01*
X60585D01*
Y190752D01*
X60604D01*
Y190733D01*
X60623D01*
Y190696D01*
X60641D01*
Y190677D01*
X60660D01*
Y190658D01*
X60679D01*
Y190621D01*
X60698D01*
Y190602D01*
X60716D01*
Y190583D01*
X60735D01*
Y190565D01*
X60754D01*
Y190546D01*
X60772D01*
Y190527D01*
X60791D01*
Y190508D01*
X60810D01*
Y190490D01*
X60829D01*
Y190452D01*
X60847D01*
Y190434D01*
X60866D01*
Y190415D01*
X60885D01*
Y190396D01*
X60903D01*
Y190377D01*
X60922D01*
Y190359D01*
X60941D01*
Y190340D01*
X60960D01*
Y190321D01*
X60978D01*
Y190303D01*
X60997D01*
Y190284D01*
X61035D01*
Y190265D01*
X61053D01*
Y190246D01*
X61072D01*
Y190228D01*
X61091D01*
Y190209D01*
X61109D01*
Y190190D01*
X61128D01*
Y190172D01*
X61147D01*
Y190153D01*
X61165D01*
Y190134D01*
X61184D01*
Y190115D01*
X61203D01*
Y190097D01*
X61222D01*
Y190078D01*
X61240D01*
Y190059D01*
X61259D01*
Y190040D01*
X61278D01*
Y190022D01*
X61296D01*
Y190003D01*
X61315D01*
Y189984D01*
X61334D01*
Y189966D01*
X61353D01*
Y189947D01*
X61371D01*
Y189928D01*
X61409D01*
Y189909D01*
X61428D01*
Y189891D01*
X61446D01*
Y189853D01*
X61465D01*
Y189834D01*
X61484D01*
Y189816D01*
X61502D01*
Y189797D01*
X61521D01*
Y189778D01*
X61540D01*
Y189760D01*
X61559D01*
Y189741D01*
X61577D01*
Y189722D01*
X61596D01*
Y189704D01*
X61615D01*
Y189685D01*
X61633D01*
Y189666D01*
X61652D01*
Y189629D01*
X61671D01*
Y189610D01*
X61690D01*
Y189554D01*
X61652D01*
Y189535D01*
X61633D01*
Y189516D01*
X61596D01*
Y189498D01*
X61559D01*
Y189479D01*
X61540D01*
Y189460D01*
X61502D01*
Y189441D01*
X61465D01*
Y189423D01*
X61409D01*
Y189404D01*
X61371D01*
Y189385D01*
X61334D01*
Y189366D01*
X61278D01*
Y189348D01*
X61240D01*
Y189329D01*
X61184D01*
Y189310D01*
X61128D01*
Y189292D01*
X61072D01*
Y189273D01*
X61016D01*
Y189254D01*
X60960D01*
Y189235D01*
X60885D01*
Y189217D01*
X60810D01*
Y189198D01*
X60754D01*
Y189179D01*
X60679D01*
Y189161D01*
X60585D01*
Y189142D01*
X60510D01*
Y189123D01*
X60417D01*
Y189104D01*
X60304D01*
Y189086D01*
X60192D01*
Y189067D01*
X60080D01*
Y189048D01*
X59949D01*
Y189030D01*
X59780D01*
Y189011D01*
X59593D01*
Y188992D01*
X59350D01*
Y188973D01*
X58245D01*
Y188992D01*
X58002D01*
Y189011D01*
X57852D01*
Y189030D01*
X57721D01*
Y189048D01*
X57627D01*
Y189067D01*
X57515D01*
Y189086D01*
X57422D01*
Y189104D01*
X57328D01*
Y189123D01*
X57234D01*
Y189142D01*
X57160D01*
Y189161D01*
X57085D01*
Y189179D01*
X56991D01*
Y189198D01*
X56916D01*
Y189217D01*
X56841D01*
Y189235D01*
X56766D01*
Y189254D01*
X56691D01*
Y189273D01*
X56617D01*
Y189292D01*
X56560D01*
Y189310D01*
X56486D01*
Y189329D01*
X56411D01*
Y189348D01*
X56355D01*
Y189366D01*
X56280D01*
Y189385D01*
X56224D01*
Y189404D01*
X56149D01*
Y189423D01*
X56093D01*
Y189441D01*
X56018D01*
Y189460D01*
X55962D01*
Y189479D01*
X55887D01*
Y189498D01*
X55830D01*
Y189516D01*
X55756D01*
Y189535D01*
X55699D01*
Y189554D01*
X55643D01*
Y189573D01*
X55568D01*
Y189591D01*
X55512D01*
Y189610D01*
X55456D01*
Y189629D01*
X55381D01*
Y189647D01*
X55325D01*
Y189666D01*
X55250D01*
Y189685D01*
X55194D01*
Y189704D01*
X55138D01*
Y189722D01*
X55063D01*
Y189741D01*
X55007D01*
Y189760D01*
X54951D01*
Y189778D01*
X54876D01*
Y189797D01*
X54820D01*
Y189816D01*
X54745D01*
Y189834D01*
X54689D01*
Y189853D01*
X54632D01*
Y189872D01*
X54558D01*
Y189891D01*
X54501D01*
Y189909D01*
X54426D01*
Y189928D01*
X54370D01*
Y189947D01*
X54295D01*
Y189966D01*
X54221D01*
Y189984D01*
X54164D01*
Y190003D01*
X54089D01*
Y190022D01*
X54033D01*
Y190040D01*
X53958D01*
Y190059D01*
X53884D01*
Y190078D01*
X53809D01*
Y190097D01*
X53734D01*
Y190115D01*
X53659D01*
Y190134D01*
X53603D01*
Y190153D01*
X53528D01*
Y190172D01*
X53434D01*
Y190190D01*
X53360D01*
Y190209D01*
X53285D01*
Y190228D01*
X53210D01*
Y190246D01*
X53116D01*
Y190265D01*
X53041D01*
Y190284D01*
X52929D01*
Y190303D01*
X52835D01*
Y190321D01*
X52742D01*
Y190340D01*
X52648D01*
Y190359D01*
X52536D01*
Y190377D01*
X52424D01*
Y190396D01*
X52292D01*
Y190415D01*
X52161D01*
Y190434D01*
X51993D01*
Y190452D01*
X51731D01*
Y190471D01*
X51188D01*
Y190452D01*
X50982D01*
Y190434D01*
X50832D01*
Y190415D01*
X50720D01*
Y190396D01*
X50626D01*
Y190377D01*
X50551D01*
Y190359D01*
X50477D01*
Y190340D01*
X50420D01*
Y190321D01*
X50346D01*
Y190303D01*
X50308D01*
Y190284D01*
X50252D01*
Y190265D01*
X50196D01*
Y190246D01*
X50158D01*
Y190228D01*
X50102D01*
Y190209D01*
X50065D01*
Y190190D01*
X50027D01*
Y190172D01*
X49990D01*
Y190153D01*
X49953D01*
Y190134D01*
X49915D01*
Y190115D01*
X49878D01*
Y190097D01*
X49840D01*
Y190078D01*
X49821D01*
Y190059D01*
X49784D01*
Y190040D01*
X49747D01*
Y190022D01*
X49728D01*
Y190003D01*
X49690D01*
Y189984D01*
X49672D01*
Y189966D01*
X49634D01*
Y189947D01*
X49616D01*
Y189928D01*
X49578D01*
Y189909D01*
X49559D01*
Y189891D01*
X49541D01*
Y189872D01*
X49503D01*
Y189853D01*
X49485D01*
Y189834D01*
X49466D01*
Y189816D01*
X49428D01*
Y189797D01*
X49410D01*
Y189778D01*
X49391D01*
Y189760D01*
X49372D01*
Y189741D01*
X49354D01*
Y189722D01*
X49316D01*
Y189704D01*
X49297D01*
Y189685D01*
X49279D01*
Y189666D01*
X49260D01*
Y189647D01*
X49241D01*
Y189629D01*
X49222D01*
Y189610D01*
X49204D01*
Y189591D01*
X49185D01*
Y189573D01*
X49148D01*
Y189554D01*
X49129D01*
Y189535D01*
X49110D01*
Y189516D01*
X49091D01*
Y189498D01*
X49073D01*
Y189479D01*
X49054D01*
Y189460D01*
X49035D01*
Y189441D01*
X49016D01*
Y189423D01*
X48998D01*
Y189404D01*
X48979D01*
Y189385D01*
X48960D01*
Y189366D01*
X48942D01*
Y189348D01*
X48923D01*
Y189329D01*
X48886D01*
Y189310D01*
X48867D01*
Y189292D01*
X48848D01*
Y189273D01*
X48829D01*
Y189254D01*
X48811D01*
Y189235D01*
X48792D01*
Y189217D01*
X48773D01*
Y189198D01*
X48736D01*
Y189179D01*
X48717D01*
Y189161D01*
X48698D01*
Y189142D01*
X48680D01*
Y189123D01*
X48661D01*
Y189104D01*
X48623D01*
Y189086D01*
X48605D01*
Y189067D01*
X48567D01*
Y189048D01*
X48549D01*
Y189030D01*
X48530D01*
Y189011D01*
X48492D01*
Y188992D01*
X48455D01*
Y188973D01*
X48436D01*
Y188955D01*
X48399D01*
Y188936D01*
X48361D01*
Y188917D01*
X48324D01*
Y188899D01*
X48287D01*
Y188880D01*
X48230D01*
Y188861D01*
X48193D01*
Y188842D01*
X48118D01*
Y188824D01*
X48062D01*
Y188805D01*
X47987D01*
Y188786D01*
X47912D01*
Y188768D01*
X47818D01*
Y188749D01*
X47706D01*
Y188730D01*
X47575D01*
Y188711D01*
X47425D01*
Y188693D01*
X47238D01*
Y188674D01*
X46939D01*
Y188655D01*
X45872D01*
Y188674D01*
X45347D01*
Y188693D01*
X44861D01*
Y188711D01*
X44112D01*
Y188730D01*
X43738D01*
Y188711D01*
X43213D01*
Y188693D01*
X42970D01*
Y188674D01*
X42727D01*
Y188655D01*
X42577D01*
Y188637D01*
X42427D01*
Y188618D01*
X42278D01*
Y188599D01*
X42147D01*
Y188580D01*
X42034D01*
Y188562D01*
X41922D01*
Y188543D01*
X41828D01*
Y188524D01*
X41716D01*
Y188505D01*
X41622D01*
Y188487D01*
X41529D01*
Y188468D01*
X41454D01*
Y188449D01*
X41379D01*
Y188431D01*
X41304D01*
Y188412D01*
X41210D01*
Y188393D01*
X41136D01*
Y188374D01*
X41061D01*
Y188356D01*
X41005D01*
Y188337D01*
X40930D01*
Y188318D01*
X40874D01*
Y188300D01*
X40817D01*
Y188281D01*
X40742D01*
Y188262D01*
X40686D01*
Y188243D01*
X40611D01*
Y188225D01*
X40555D01*
Y188206D01*
X40499D01*
Y188187D01*
X40443D01*
Y188169D01*
X40406D01*
Y188150D01*
X40349D01*
Y188131D01*
X40293D01*
Y188112D01*
X40237D01*
Y188094D01*
X40200D01*
Y188075D01*
X40143D01*
Y188056D01*
X40087D01*
Y188037D01*
X40050D01*
Y188019D01*
X39994D01*
Y188000D01*
X39956D01*
Y187981D01*
X39919D01*
Y187963D01*
X39863D01*
Y187944D01*
X39825D01*
Y187925D01*
X39788D01*
Y187906D01*
X39750D01*
Y187888D01*
X39694D01*
Y187869D01*
X39657D01*
Y187850D01*
X39619D01*
Y187831D01*
X39582D01*
Y187813D01*
X39526D01*
Y187794D01*
X39488D01*
Y187775D01*
X39451D01*
Y187757D01*
X39432D01*
Y187738D01*
X39395D01*
Y187719D01*
X39357D01*
Y187700D01*
X39320D01*
Y187682D01*
X39282D01*
Y187663D01*
X39245D01*
Y187644D01*
X39208D01*
Y187626D01*
X39170D01*
Y187607D01*
X39151D01*
Y187588D01*
X39114D01*
Y187569D01*
X39077D01*
Y187551D01*
X39039D01*
Y187532D01*
X39020D01*
Y187513D01*
X38983D01*
Y187495D01*
X38945D01*
Y187476D01*
X38927D01*
Y187457D01*
X38889D01*
Y187438D01*
X38852D01*
Y187420D01*
X38833D01*
Y187401D01*
X38796D01*
Y187382D01*
X38777D01*
Y187364D01*
X38739D01*
Y187345D01*
X38702D01*
Y187326D01*
X38683D01*
Y187307D01*
X38646D01*
Y187289D01*
X38627D01*
Y187270D01*
X38590D01*
Y187251D01*
X38571D01*
Y187232D01*
X38534D01*
Y187214D01*
X38515D01*
Y187195D01*
X38496D01*
Y187176D01*
X38459D01*
Y187158D01*
X38440D01*
Y187139D01*
X38403D01*
Y187120D01*
X38384D01*
Y187101D01*
X38346D01*
Y187083D01*
X38328D01*
Y187064D01*
X38309D01*
Y187045D01*
X38271D01*
Y187027D01*
X38253D01*
Y187008D01*
X38234D01*
Y186989D01*
X38197D01*
Y186970D01*
X38178D01*
Y186952D01*
X38159D01*
Y186933D01*
X38140D01*
Y186914D01*
X38103D01*
Y186896D01*
X38084D01*
Y186877D01*
X38066D01*
Y186858D01*
X38047D01*
Y186839D01*
X38010D01*
Y186821D01*
X37991D01*
Y186802D01*
X37972D01*
Y186783D01*
X37953D01*
Y186765D01*
X37916D01*
Y186746D01*
X37897D01*
Y186727D01*
X37878D01*
Y186708D01*
X37860D01*
Y186690D01*
X37822D01*
Y186671D01*
X37804D01*
Y186652D01*
X37785D01*
Y186634D01*
X37766D01*
Y186615D01*
X37747D01*
Y186596D01*
X37710D01*
Y186577D01*
X37691D01*
Y186559D01*
X37672D01*
Y186540D01*
X37654D01*
Y186521D01*
X37635D01*
Y186502D01*
X37616D01*
Y186484D01*
X37598D01*
Y186465D01*
X37560D01*
Y186446D01*
X37541D01*
Y186428D01*
X37523D01*
Y186409D01*
X37504D01*
Y186390D01*
X37485D01*
Y186371D01*
X37467D01*
Y186353D01*
X37448D01*
Y186334D01*
X37429D01*
Y186315D01*
X37410D01*
Y186296D01*
X37392D01*
Y186278D01*
X37373D01*
Y186259D01*
X37354D01*
Y186240D01*
X37336D01*
Y186222D01*
X37317D01*
Y186203D01*
X37298D01*
Y186184D01*
X37279D01*
Y186165D01*
X37261D01*
Y186147D01*
X37242D01*
Y186128D01*
X37223D01*
Y186109D01*
X37205D01*
Y186091D01*
X37186D01*
Y186072D01*
X37167D01*
Y186053D01*
X37148D01*
Y186035D01*
X37130D01*
Y186016D01*
X37111D01*
Y185997D01*
X37092D01*
Y185978D01*
X37073D01*
Y185960D01*
X37055D01*
Y185941D01*
X37036D01*
Y185922D01*
X37017D01*
Y185903D01*
X36999D01*
Y185885D01*
X36980D01*
Y185866D01*
X36961D01*
Y185828D01*
X36942D01*
Y185810D01*
X36924D01*
Y185791D01*
X36905D01*
Y185772D01*
X36886D01*
Y185754D01*
X36868D01*
Y185735D01*
X36849D01*
Y185716D01*
X36830D01*
Y185679D01*
X36811D01*
Y185660D01*
X36793D01*
Y185641D01*
X36774D01*
Y185623D01*
X36755D01*
Y185604D01*
X36737D01*
Y185566D01*
X36718D01*
Y185548D01*
X36699D01*
Y185529D01*
X36680D01*
Y185510D01*
X36662D01*
Y185492D01*
X36643D01*
Y185454D01*
X36624D01*
Y185435D01*
X36606D01*
Y185417D01*
X36587D01*
Y185379D01*
X36568D01*
Y185361D01*
X36549D01*
Y185342D01*
X36531D01*
Y185304D01*
X36512D01*
Y185286D01*
X36493D01*
Y185267D01*
X36474D01*
Y185230D01*
X36456D01*
Y185211D01*
X36437D01*
Y185173D01*
X36418D01*
Y185155D01*
X36400D01*
Y185136D01*
X36381D01*
Y185099D01*
X36400D01*
Y185080D01*
X36418D01*
Y185061D01*
X36456D01*
Y185042D01*
X36474D01*
Y185024D01*
X36512D01*
Y185005D01*
X36531D01*
Y184986D01*
X36568D01*
Y184968D01*
X36587D01*
Y184949D01*
X36624D01*
Y184930D01*
X36643D01*
Y184911D01*
X36680D01*
Y184893D01*
X36699D01*
Y184874D01*
X36718D01*
Y184855D01*
X36755D01*
Y184836D01*
X36774D01*
Y184818D01*
X36811D01*
Y184799D01*
X36830D01*
Y184780D01*
X36868D01*
Y184762D01*
X36886D01*
Y184780D01*
X36905D01*
Y184799D01*
X36924D01*
Y184836D01*
X36942D01*
Y184855D01*
X36961D01*
Y184874D01*
X36980D01*
Y184911D01*
X36999D01*
Y184930D01*
X37017D01*
Y184949D01*
X37036D01*
Y184986D01*
X37055D01*
Y185005D01*
X37073D01*
Y185024D01*
X37092D01*
Y185061D01*
X37111D01*
Y185080D01*
X37130D01*
Y185099D01*
X37148D01*
Y185117D01*
X37167D01*
Y185155D01*
X37186D01*
Y185173D01*
X37205D01*
Y185192D01*
X37223D01*
Y185211D01*
X37242D01*
Y185230D01*
X37261D01*
Y185267D01*
X37279D01*
Y185286D01*
X37298D01*
Y185304D01*
X37317D01*
Y185323D01*
X37336D01*
Y185342D01*
X37354D01*
Y185361D01*
X37373D01*
Y185398D01*
X37392D01*
Y185417D01*
X37410D01*
Y185435D01*
X37429D01*
Y185454D01*
X37448D01*
Y185473D01*
X37467D01*
Y185492D01*
X37485D01*
Y185510D01*
X37504D01*
Y185529D01*
X37523D01*
Y185548D01*
X37541D01*
Y185566D01*
X37560D01*
Y185585D01*
X37579D01*
Y185604D01*
X37598D01*
Y185641D01*
X37616D01*
Y185660D01*
X37635D01*
Y185679D01*
X37654D01*
Y185697D01*
X37672D01*
Y185716D01*
X37691D01*
Y185735D01*
X37710D01*
Y185754D01*
X37729D01*
Y185772D01*
X37747D01*
Y185791D01*
X37766D01*
Y185810D01*
X37785D01*
Y185828D01*
X37822D01*
Y185847D01*
X37841D01*
Y185866D01*
X37860D01*
Y185885D01*
X37878D01*
Y185903D01*
X37897D01*
Y185922D01*
X37916D01*
Y185941D01*
X37935D01*
Y185960D01*
X37953D01*
Y185978D01*
X37972D01*
Y185997D01*
X37991D01*
Y186016D01*
X38010D01*
Y186035D01*
X38028D01*
Y186053D01*
X38066D01*
Y186072D01*
X38084D01*
Y186091D01*
X38103D01*
Y186109D01*
X38122D01*
Y186128D01*
X38140D01*
Y186147D01*
X38159D01*
Y186165D01*
X38178D01*
Y186184D01*
X38215D01*
Y186203D01*
X38234D01*
Y186222D01*
X38253D01*
Y186240D01*
X38271D01*
Y186259D01*
X38309D01*
Y186278D01*
X38328D01*
Y186296D01*
X38346D01*
Y186315D01*
X38365D01*
Y186334D01*
X38403D01*
Y186353D01*
X38421D01*
Y186371D01*
X38440D01*
Y186390D01*
X38459D01*
Y186409D01*
X38496D01*
Y186428D01*
X38515D01*
Y186446D01*
X38534D01*
Y186465D01*
X38552D01*
Y186484D01*
X38590D01*
Y186502D01*
X38609D01*
Y186521D01*
X38627D01*
Y186540D01*
X38665D01*
Y186559D01*
X38683D01*
Y186577D01*
X38702D01*
Y186596D01*
X38739D01*
Y186615D01*
X38758D01*
Y186634D01*
X38796D01*
Y186652D01*
X38814D01*
Y186671D01*
X38852D01*
Y186690D01*
X38871D01*
Y186708D01*
X38889D01*
Y186727D01*
X38927D01*
Y186746D01*
X38945D01*
Y186765D01*
X38983D01*
Y186783D01*
X39002D01*
Y186802D01*
X39039D01*
Y186821D01*
X39077D01*
Y186839D01*
X39095D01*
Y186858D01*
X39133D01*
Y186877D01*
X39151D01*
Y186896D01*
X39189D01*
Y186914D01*
X39208D01*
Y186933D01*
X39245D01*
Y186952D01*
X39282D01*
Y186970D01*
X39301D01*
Y186989D01*
X39338D01*
Y187008D01*
X39376D01*
Y187027D01*
X39395D01*
Y187045D01*
X39432D01*
Y187064D01*
X39470D01*
Y187083D01*
X39507D01*
Y187101D01*
X39544D01*
Y187120D01*
X39582D01*
Y187139D01*
X39601D01*
Y187158D01*
X39638D01*
Y187176D01*
X39676D01*
Y187195D01*
X39713D01*
Y187214D01*
X39750D01*
Y187232D01*
X39788D01*
Y187251D01*
X39825D01*
Y187270D01*
X39881D01*
Y187289D01*
X39919D01*
Y187307D01*
X39956D01*
Y187326D01*
X39994D01*
Y187345D01*
X40050D01*
Y187364D01*
X40087D01*
Y187382D01*
X40125D01*
Y187401D01*
X40162D01*
Y187420D01*
X40218D01*
Y187438D01*
X40256D01*
Y187457D01*
X40312D01*
Y187476D01*
X40349D01*
Y187495D01*
X40406D01*
Y187513D01*
X40462D01*
Y187532D01*
X40518D01*
Y187551D01*
X40555D01*
Y187569D01*
X40611D01*
Y187588D01*
X40668D01*
Y187607D01*
X40705D01*
Y187626D01*
X40780D01*
Y187644D01*
X40836D01*
Y187663D01*
X40892D01*
Y187682D01*
X40967D01*
Y187700D01*
X41023D01*
Y187719D01*
X41080D01*
Y187738D01*
X41154D01*
Y187757D01*
X41210D01*
Y187775D01*
X41285D01*
Y187794D01*
X41360D01*
Y187813D01*
X41454D01*
Y187831D01*
X41529D01*
Y187850D01*
X41604D01*
Y187869D01*
X41679D01*
Y187888D01*
X41772D01*
Y187906D01*
X41884D01*
Y187925D01*
X41978D01*
Y187944D01*
X42090D01*
Y187963D01*
X42184D01*
Y187981D01*
X42315D01*
Y188000D01*
X42465D01*
Y188019D01*
X42614D01*
Y188037D01*
X42764D01*
Y188056D01*
X42989D01*
Y188075D01*
X43232D01*
Y188094D01*
X43756D01*
Y188112D01*
X44112D01*
Y188094D01*
X44861D01*
Y188075D01*
X45329D01*
Y188056D01*
X45872D01*
Y188037D01*
X46939D01*
Y188056D01*
X47257D01*
Y188075D01*
X47463D01*
Y188094D01*
X47631D01*
Y188112D01*
X47744D01*
Y188131D01*
X47875D01*
Y188150D01*
X47968D01*
Y188169D01*
X48062D01*
Y188187D01*
X48155D01*
Y188206D01*
X48212D01*
Y188225D01*
X48268D01*
Y188243D01*
X48343D01*
Y188262D01*
X48399D01*
Y188281D01*
X48455D01*
Y188300D01*
X48492D01*
Y188318D01*
X48530D01*
Y188337D01*
X48567D01*
Y188356D01*
X48623D01*
Y188374D01*
X48661D01*
Y188393D01*
X48698D01*
Y188412D01*
X48717D01*
Y188431D01*
X48755D01*
Y188449D01*
X48792D01*
Y188468D01*
X48811D01*
Y188487D01*
X48848D01*
Y188505D01*
X48886D01*
Y188524D01*
X48904D01*
Y188543D01*
X48923D01*
Y188562D01*
X48960D01*
Y188580D01*
X48979D01*
Y188599D01*
X49016D01*
Y188618D01*
X49035D01*
Y188637D01*
X49054D01*
Y188655D01*
X49073D01*
Y188674D01*
X49110D01*
Y188693D01*
X49129D01*
Y188711D01*
X49148D01*
Y188730D01*
X49166D01*
Y188749D01*
X49185D01*
Y188768D01*
X49222D01*
Y188786D01*
X49241D01*
Y188805D01*
X49260D01*
Y188824D01*
X49279D01*
Y188842D01*
X49297D01*
Y188861D01*
X49316D01*
Y188880D01*
X49335D01*
Y188899D01*
X49354D01*
Y188917D01*
X49372D01*
Y188936D01*
X49391D01*
Y188955D01*
X49428D01*
Y188973D01*
X49447D01*
Y188992D01*
X49466D01*
Y189011D01*
X49485D01*
Y189030D01*
X49503D01*
Y189048D01*
X49522D01*
Y189067D01*
X49541D01*
Y189086D01*
X49559D01*
Y189104D01*
X49578D01*
Y189123D01*
X49597D01*
Y189142D01*
X49616D01*
Y189161D01*
X49634D01*
Y189179D01*
X49672D01*
Y189198D01*
X49690D01*
Y189217D01*
X49709D01*
Y189235D01*
X49728D01*
Y189254D01*
X49747D01*
Y189273D01*
X49765D01*
Y189292D01*
X49803D01*
Y189310D01*
X49821D01*
Y189329D01*
X49840D01*
Y189348D01*
X49859D01*
Y189366D01*
X49896D01*
Y189385D01*
X49915D01*
Y189404D01*
X49934D01*
Y189423D01*
X49971D01*
Y189441D01*
X49990D01*
Y189460D01*
X50027D01*
Y189479D01*
X50046D01*
Y189498D01*
X50084D01*
Y189516D01*
X50102D01*
Y189535D01*
X50140D01*
Y189554D01*
X50177D01*
Y189573D01*
X50215D01*
Y189591D01*
X50252D01*
Y189610D01*
X50289D01*
Y189629D01*
X50327D01*
Y189647D01*
X50364D01*
Y189666D01*
X50402D01*
Y189685D01*
X50458D01*
Y189704D01*
X50514D01*
Y189722D01*
X50570D01*
Y189741D01*
X50626D01*
Y189760D01*
X50701D01*
Y189778D01*
X50776D01*
Y189797D01*
X50889D01*
Y189816D01*
X51020D01*
Y189834D01*
X51207D01*
Y189853D01*
X51731D01*
Y189834D01*
X51955D01*
Y189816D01*
X52124D01*
Y189797D01*
X52255D01*
Y189778D01*
X52367D01*
Y189760D01*
X52498D01*
Y189741D01*
X52592D01*
Y189722D01*
X52686D01*
Y189704D01*
X52779D01*
Y189685D01*
X52873D01*
Y189666D01*
X52966D01*
Y189647D01*
X53041D01*
Y189629D01*
X53135D01*
Y189610D01*
X53210D01*
Y189591D01*
X53285D01*
Y189573D01*
X53378D01*
Y189554D01*
X53453D01*
Y189535D01*
X53509D01*
Y189516D01*
X53584D01*
Y189498D01*
X53659D01*
Y189479D01*
X53734D01*
Y189460D01*
X53809D01*
Y189441D01*
X53884D01*
Y189423D01*
X53940D01*
Y189404D01*
X54015D01*
Y189385D01*
X54071D01*
Y189366D01*
X54146D01*
Y189348D01*
X54202D01*
Y189329D01*
X54277D01*
Y189310D01*
X54333D01*
Y189292D01*
X54408D01*
Y189273D01*
X54464D01*
Y189254D01*
X54539D01*
Y189235D01*
X54595D01*
Y189217D01*
X54670D01*
Y189198D01*
X54726D01*
Y189179D01*
X54782D01*
Y189161D01*
X54857D01*
Y189142D01*
X54913D01*
Y189123D01*
X54988D01*
Y189104D01*
X55044D01*
Y189086D01*
X55100D01*
Y189067D01*
X55175D01*
Y189048D01*
X55231D01*
Y189030D01*
X55288D01*
Y189011D01*
X55362D01*
Y188992D01*
X55419D01*
Y188973D01*
X55493D01*
Y188955D01*
X55550D01*
Y188936D01*
X55606D01*
Y188917D01*
X55681D01*
Y188899D01*
X55737D01*
Y188880D01*
X55812D01*
Y188861D01*
X55868D01*
Y188842D01*
X55943D01*
Y188824D01*
X55999D01*
Y188805D01*
X56074D01*
Y188786D01*
X56130D01*
Y188768D01*
X56205D01*
Y188749D01*
X56261D01*
Y188730D01*
X56336D01*
Y188711D01*
X56411D01*
Y188693D01*
X56467D01*
Y188674D01*
X56542D01*
Y188655D01*
X56617D01*
Y188637D01*
X56691D01*
Y188618D01*
X56766D01*
Y188599D01*
X56841D01*
Y188580D01*
X56916D01*
Y188562D01*
X57010D01*
Y188543D01*
X57085D01*
Y188524D01*
X57178D01*
Y188505D01*
X57253D01*
Y188487D01*
X57347D01*
Y188468D01*
X57459D01*
Y188449D01*
X57571D01*
Y188431D01*
X57684D01*
Y188412D01*
X57815D01*
Y188393D01*
X57964D01*
Y188374D01*
X58245D01*
Y188356D01*
X59368D01*
Y188374D01*
X59612D01*
Y188393D01*
X59818D01*
Y188412D01*
X59986D01*
Y188431D01*
X60117D01*
Y188449D01*
X60248D01*
Y188468D01*
X60361D01*
Y188487D01*
X60454D01*
Y188505D01*
X60567D01*
Y188524D01*
X60660D01*
Y188543D01*
X60735D01*
Y188562D01*
X60829D01*
Y188580D01*
X60903D01*
Y188599D01*
X60960D01*
Y188618D01*
X61035D01*
Y188637D01*
X61109D01*
Y188655D01*
X61165D01*
Y188674D01*
X61222D01*
Y188693D01*
X61296D01*
Y188711D01*
X61353D01*
Y188730D01*
X61390D01*
Y188749D01*
X61446D01*
Y188768D01*
X61502D01*
Y188786D01*
X61540D01*
Y188805D01*
X61596D01*
Y188824D01*
X61633D01*
Y188842D01*
X61671D01*
Y188861D01*
X61708D01*
Y188880D01*
X61746D01*
Y188899D01*
X61783D01*
Y188917D01*
X61821D01*
Y188936D01*
X61858D01*
Y188955D01*
X61896D01*
Y188973D01*
X61933D01*
Y188992D01*
X61952D01*
Y189011D01*
X61989D01*
Y189030D01*
X62008D01*
Y189048D01*
X62045D01*
Y189067D01*
X62064D01*
Y189086D01*
X62083D01*
Y189104D01*
X62102D01*
Y189123D01*
X62139D01*
Y189142D01*
X62158D01*
Y189161D01*
X62176D01*
Y189179D01*
X62195D01*
Y189198D01*
X62214D01*
Y189217D01*
X62233D01*
Y189235D01*
X62251D01*
Y189273D01*
X62270D01*
Y189310D01*
X62289D01*
Y189348D01*
X62307D01*
Y189404D01*
X62326D01*
Y189498D01*
X62345D01*
Y189591D01*
X62326D01*
Y189685D01*
X62307D01*
Y189760D01*
X62289D01*
Y189797D01*
X62270D01*
Y189834D01*
X62251D01*
Y189872D01*
X62233D01*
Y189909D01*
X62214D01*
Y189928D01*
X62195D01*
Y189966D01*
X62176D01*
Y189984D01*
X62158D01*
Y190003D01*
X62139D01*
Y190040D01*
X62120D01*
Y190059D01*
X62102D01*
Y190078D01*
X62083D01*
Y190097D01*
X62064D01*
Y190134D01*
X62045D01*
Y190153D01*
X62027D01*
Y190172D01*
X62008D01*
Y190190D01*
X61989D01*
Y190209D01*
X61970D01*
Y190228D01*
X61952D01*
Y190246D01*
X61933D01*
Y190265D01*
X61914D01*
Y190284D01*
X61896D01*
Y190303D01*
X61877D01*
Y190321D01*
X61858D01*
Y190340D01*
X61839D01*
Y190359D01*
X61821D01*
Y190377D01*
X61802D01*
Y190396D01*
X61783D01*
Y190415D01*
X61765D01*
Y190434D01*
X61746D01*
Y190452D01*
X61727D01*
Y190471D01*
X61708D01*
Y190490D01*
X61690D01*
Y190508D01*
X61671D01*
Y190527D01*
X61652D01*
Y190546D01*
X61633D01*
Y190565D01*
X61615D01*
Y190583D01*
X61596D01*
Y190602D01*
X61559D01*
Y190621D01*
X61540D01*
Y190639D01*
X61521D01*
Y190658D01*
X61502D01*
Y190677D01*
X61484D01*
Y190696D01*
X61465D01*
Y190714D01*
X61446D01*
Y190733D01*
X61428D01*
Y190752D01*
X61409D01*
Y190770D01*
X61390D01*
Y190789D01*
X61371D01*
Y190808D01*
X61353D01*
Y190827D01*
X61334D01*
Y190845D01*
X61315D01*
Y190864D01*
X61296D01*
Y190883D01*
X61278D01*
Y190902D01*
X61259D01*
Y190920D01*
X61240D01*
Y190939D01*
X61222D01*
Y190958D01*
X61203D01*
Y190995D01*
X61184D01*
Y191014D01*
X61165D01*
Y191033D01*
X61147D01*
Y191051D01*
X61128D01*
Y191089D01*
X61109D01*
Y191107D01*
X61091D01*
Y191126D01*
X61128D01*
Y191145D01*
X61184D01*
Y191164D01*
X61278D01*
Y191182D01*
X61390D01*
Y191201D01*
X61502D01*
Y191220D01*
X61671D01*
Y191238D01*
X61858D01*
Y191257D01*
X62102D01*
Y191276D01*
X62401D01*
Y191295D01*
X62813D01*
Y191313D01*
X63543D01*
Y191332D01*
X65845D01*
Y191313D01*
X66819D01*
Y191295D01*
X67137D01*
Y191426D01*
X67156D01*
Y191912D01*
X66819D01*
Y191931D01*
X65845D01*
Y191950D01*
D02*
G37*
G36*
X42671Y187139D02*
X42296D01*
Y187120D01*
X42147D01*
Y187101D01*
X42015D01*
Y187083D01*
X41941D01*
Y187064D01*
X41866D01*
Y187045D01*
X41791D01*
Y187027D01*
X41735D01*
Y187008D01*
X41679D01*
Y186989D01*
X41622D01*
Y186970D01*
X41585D01*
Y186952D01*
X41548D01*
Y186933D01*
X41491D01*
Y186914D01*
X41454D01*
Y186896D01*
X41416D01*
Y186877D01*
X41379D01*
Y186858D01*
X41342D01*
Y186839D01*
X41323D01*
Y186821D01*
X41285D01*
Y186802D01*
X41248D01*
Y186783D01*
X41210D01*
Y186765D01*
X41192D01*
Y186746D01*
X41173D01*
Y186727D01*
X41136D01*
Y186708D01*
X41117D01*
Y186690D01*
X41080D01*
Y186671D01*
X41061D01*
Y186652D01*
X41042D01*
Y186634D01*
X41005D01*
Y186615D01*
X40986D01*
Y186596D01*
X40967D01*
Y186577D01*
X40948D01*
Y186559D01*
X40930D01*
Y186540D01*
X40911D01*
Y186521D01*
X40892D01*
Y186502D01*
X40874D01*
Y186484D01*
X40855D01*
Y186465D01*
X40836D01*
Y186446D01*
X40817D01*
Y186428D01*
X40799D01*
Y186409D01*
X40780D01*
Y186390D01*
X40761D01*
Y186371D01*
X40742D01*
Y186353D01*
X40724D01*
Y186334D01*
X40705D01*
Y186296D01*
X40686D01*
Y186278D01*
X40668D01*
Y186259D01*
X40649D01*
Y186222D01*
X40630D01*
Y186203D01*
X40611D01*
Y186184D01*
X40593D01*
Y186147D01*
X40574D01*
Y186128D01*
X40555D01*
Y186091D01*
X40537D01*
Y186053D01*
X40518D01*
Y186035D01*
X40499D01*
Y185997D01*
X40480D01*
Y185960D01*
X40462D01*
Y185922D01*
X40443D01*
Y185885D01*
X40424D01*
Y185847D01*
X40406D01*
Y185810D01*
X40387D01*
Y185772D01*
X40368D01*
Y185716D01*
X40349D01*
Y185660D01*
X40331D01*
Y185604D01*
X40312D01*
Y185548D01*
X40293D01*
Y185492D01*
X40275D01*
Y185417D01*
X40256D01*
Y185323D01*
X40237D01*
Y185211D01*
X40218D01*
Y185042D01*
X40200D01*
Y184874D01*
X40817D01*
Y185024D01*
X40836D01*
Y185173D01*
X40855D01*
Y185267D01*
X40874D01*
Y185342D01*
X40892D01*
Y185398D01*
X40911D01*
Y185454D01*
X40930D01*
Y185510D01*
X40948D01*
Y185548D01*
X40967D01*
Y185585D01*
X40986D01*
Y185623D01*
X41005D01*
Y185679D01*
X41023D01*
Y185697D01*
X41042D01*
Y185735D01*
X41061D01*
Y185772D01*
X41080D01*
Y185791D01*
X41098D01*
Y185828D01*
X41117D01*
Y185847D01*
X41136D01*
Y185866D01*
X41154D01*
Y185903D01*
X41173D01*
Y185922D01*
X41192D01*
Y185941D01*
X41210D01*
Y185960D01*
X41229D01*
Y185997D01*
X41248D01*
Y186016D01*
X41267D01*
Y186035D01*
X41285D01*
Y186053D01*
X41304D01*
Y186072D01*
X41323D01*
Y186091D01*
X41342D01*
Y186109D01*
X41379D01*
Y186128D01*
X41398D01*
Y186147D01*
X41416D01*
Y186165D01*
X41435D01*
Y186184D01*
X41473D01*
Y186203D01*
X41491D01*
Y186222D01*
X41510D01*
Y186240D01*
X41548D01*
Y186259D01*
X41585D01*
Y186278D01*
X41604D01*
Y186296D01*
X41641D01*
Y186315D01*
X41679D01*
Y186334D01*
X41716D01*
Y186353D01*
X41753D01*
Y186371D01*
X41791D01*
Y186390D01*
X41847D01*
Y186409D01*
X41884D01*
Y186428D01*
X41941D01*
Y186446D01*
X42015D01*
Y186465D01*
X42090D01*
Y186484D01*
X42184D01*
Y186502D01*
X42315D01*
Y186521D01*
X42633D01*
Y186502D01*
X42764D01*
Y186484D01*
X42858D01*
Y186465D01*
X42933D01*
Y186446D01*
X43008D01*
Y186428D01*
X43082D01*
Y186409D01*
X43157D01*
Y186390D01*
X43213D01*
Y186371D01*
X43270D01*
Y186353D01*
X43326D01*
Y186334D01*
X43382D01*
Y186315D01*
X43438D01*
Y186296D01*
X43494D01*
Y186278D01*
X43550D01*
Y186259D01*
X43607D01*
Y186240D01*
X43644D01*
Y186222D01*
X43700D01*
Y186203D01*
X43756D01*
Y186184D01*
X43794D01*
Y186165D01*
X43850D01*
Y186147D01*
X43887D01*
Y186128D01*
X43944D01*
Y186109D01*
X43981D01*
Y186091D01*
X44018D01*
Y186072D01*
X44075D01*
Y186053D01*
X44112D01*
Y186035D01*
X44168D01*
Y186016D01*
X44206D01*
Y185997D01*
X44243D01*
Y185978D01*
X44280D01*
Y185960D01*
X44337D01*
Y185941D01*
X44374D01*
Y185922D01*
X44412D01*
Y185903D01*
X44449D01*
Y185885D01*
X44505D01*
Y185866D01*
X44543D01*
Y185847D01*
X44580D01*
Y185828D01*
X44618D01*
Y185810D01*
X44655D01*
Y185791D01*
X44711D01*
Y185772D01*
X44748D01*
Y185754D01*
X44786D01*
Y185735D01*
X44823D01*
Y185716D01*
X44861D01*
Y185697D01*
X44898D01*
Y185679D01*
X44936D01*
Y185660D01*
X44973D01*
Y185641D01*
X45029D01*
Y185623D01*
X45067D01*
Y185604D01*
X45104D01*
Y185585D01*
X45142D01*
Y185566D01*
X45179D01*
Y185548D01*
X45217D01*
Y185529D01*
X45254D01*
Y185510D01*
X45291D01*
Y185492D01*
X45329D01*
Y185473D01*
X45366D01*
Y185454D01*
X45404D01*
Y185435D01*
X45441D01*
Y185417D01*
X45479D01*
Y185398D01*
X45516D01*
Y185379D01*
X45553D01*
Y185361D01*
X45591D01*
Y185342D01*
X45628D01*
Y185323D01*
X45666D01*
Y185304D01*
X45703D01*
Y185286D01*
X45741D01*
Y185267D01*
X45778D01*
Y185248D01*
X45816D01*
Y185230D01*
X45853D01*
Y185211D01*
X45890D01*
Y185192D01*
X45928D01*
Y185173D01*
X45965D01*
Y185155D01*
X46003D01*
Y185136D01*
X46040D01*
Y185117D01*
X46078D01*
Y185099D01*
X46115D01*
Y185080D01*
X46152D01*
Y185061D01*
X46190D01*
Y185042D01*
X46227D01*
Y185024D01*
X46265D01*
Y185005D01*
X46302D01*
Y184986D01*
X46340D01*
Y184968D01*
X46377D01*
Y184949D01*
X46415D01*
Y184930D01*
X46452D01*
Y184911D01*
X46489D01*
Y184893D01*
X46527D01*
Y184874D01*
X46564D01*
Y184855D01*
X46602D01*
Y184836D01*
X46639D01*
Y184818D01*
X46677D01*
Y184799D01*
X46714D01*
Y184780D01*
X46751D01*
Y184762D01*
X46789D01*
Y184743D01*
X46826D01*
Y184724D01*
X46864D01*
Y184705D01*
X46901D01*
Y184687D01*
X46939D01*
Y184668D01*
X46995D01*
Y184687D01*
X47014D01*
Y184724D01*
X47032D01*
Y184780D01*
X47051D01*
Y184818D01*
X47070D01*
Y184855D01*
X47088D01*
Y184893D01*
X47107D01*
Y184930D01*
X47126D01*
Y184968D01*
X47145D01*
Y185005D01*
X47163D01*
Y185061D01*
X47182D01*
Y185099D01*
X47201D01*
Y185136D01*
X47219D01*
Y185173D01*
X47238D01*
Y185230D01*
X47201D01*
Y185248D01*
X47163D01*
Y185267D01*
X47107D01*
Y185286D01*
X47070D01*
Y185304D01*
X47032D01*
Y185323D01*
X46995D01*
Y185342D01*
X46957D01*
Y185361D01*
X46920D01*
Y185379D01*
X46883D01*
Y185398D01*
X46845D01*
Y185417D01*
X46808D01*
Y185435D01*
X46770D01*
Y185454D01*
X46733D01*
Y185473D01*
X46695D01*
Y185492D01*
X46658D01*
Y185510D01*
X46620D01*
Y185529D01*
X46583D01*
Y185548D01*
X46546D01*
Y185566D01*
X46527D01*
Y185585D01*
X46489D01*
Y185604D01*
X46452D01*
Y185623D01*
X46415D01*
Y185641D01*
X46377D01*
Y185660D01*
X46340D01*
Y185679D01*
X46302D01*
Y185697D01*
X46265D01*
Y185716D01*
X46227D01*
Y185735D01*
X46190D01*
Y185754D01*
X46152D01*
Y185772D01*
X46115D01*
Y185791D01*
X46078D01*
Y185810D01*
X46040D01*
Y185828D01*
X46003D01*
Y185847D01*
X45965D01*
Y185866D01*
X45928D01*
Y185885D01*
X45890D01*
Y185903D01*
X45853D01*
Y185922D01*
X45816D01*
Y185941D01*
X45778D01*
Y185960D01*
X45741D01*
Y185978D01*
X45703D01*
Y185997D01*
X45666D01*
Y186016D01*
X45628D01*
Y186035D01*
X45591D01*
Y186053D01*
X45553D01*
Y186072D01*
X45516D01*
Y186091D01*
X45479D01*
Y186109D01*
X45441D01*
Y186128D01*
X45404D01*
Y186147D01*
X45347D01*
Y186165D01*
X45310D01*
Y186184D01*
X45273D01*
Y186203D01*
X45235D01*
Y186222D01*
X45198D01*
Y186240D01*
X45160D01*
Y186259D01*
X45123D01*
Y186278D01*
X45085D01*
Y186296D01*
X45048D01*
Y186315D01*
X45011D01*
Y186334D01*
X44954D01*
Y186353D01*
X44917D01*
Y186371D01*
X44879D01*
Y186390D01*
X44842D01*
Y186409D01*
X44805D01*
Y186428D01*
X44748D01*
Y186446D01*
X44711D01*
Y186465D01*
X44674D01*
Y186484D01*
X44636D01*
Y186502D01*
X44599D01*
Y186521D01*
X44543D01*
Y186540D01*
X44505D01*
Y186559D01*
X44468D01*
Y186577D01*
X44412D01*
Y186596D01*
X44374D01*
Y186615D01*
X44337D01*
Y186634D01*
X44280D01*
Y186652D01*
X44243D01*
Y186671D01*
X44187D01*
Y186690D01*
X44150D01*
Y186708D01*
X44093D01*
Y186727D01*
X44056D01*
Y186746D01*
X44000D01*
Y186765D01*
X43962D01*
Y186783D01*
X43906D01*
Y186802D01*
X43869D01*
Y186821D01*
X43813D01*
Y186839D01*
X43756D01*
Y186858D01*
X43700D01*
Y186877D01*
X43663D01*
Y186896D01*
X43607D01*
Y186914D01*
X43550D01*
Y186933D01*
X43476D01*
Y186952D01*
X43419D01*
Y186970D01*
X43363D01*
Y186989D01*
X43307D01*
Y187008D01*
X43232D01*
Y187027D01*
X43157D01*
Y187045D01*
X43082D01*
Y187064D01*
X43008D01*
Y187083D01*
X42933D01*
Y187101D01*
X42820D01*
Y187120D01*
X42671D01*
Y187139D01*
D02*
G37*
G36*
X61484Y187120D02*
X61128D01*
Y187101D01*
X60960D01*
Y187083D01*
X60829D01*
Y187064D01*
X60754D01*
Y187045D01*
X60679D01*
Y187027D01*
X60604D01*
Y187008D01*
X60548D01*
Y186989D01*
X60492D01*
Y186970D01*
X60454D01*
Y186952D01*
X60398D01*
Y186933D01*
X60361D01*
Y186914D01*
X60323D01*
Y186896D01*
X60267D01*
Y186877D01*
X60229D01*
Y186858D01*
X60192D01*
Y186839D01*
X60173D01*
Y186821D01*
X60136D01*
Y186802D01*
X60098D01*
Y186783D01*
X60061D01*
Y186765D01*
X60042D01*
Y186746D01*
X60005D01*
Y186727D01*
X59986D01*
Y186708D01*
X59949D01*
Y186690D01*
X59930D01*
Y186671D01*
X59911D01*
Y186652D01*
X59874D01*
Y186634D01*
X59855D01*
Y186615D01*
X59836D01*
Y186596D01*
X59818D01*
Y186577D01*
X59780D01*
Y186559D01*
X59762D01*
Y186540D01*
X59743D01*
Y186521D01*
X59724D01*
Y186502D01*
X59705D01*
Y186484D01*
X59687D01*
Y186465D01*
X59668D01*
Y186446D01*
X59649D01*
Y186428D01*
X59631D01*
Y186409D01*
X59612D01*
Y186390D01*
X59593D01*
Y186371D01*
X59574D01*
Y186353D01*
X59556D01*
Y186334D01*
X59537D01*
Y186296D01*
X59518D01*
Y186278D01*
X59500D01*
Y186259D01*
X59481D01*
Y186222D01*
X59462D01*
Y186203D01*
X59443D01*
Y186184D01*
X59425D01*
Y186147D01*
X59406D01*
Y186128D01*
X59387D01*
Y186091D01*
X59368D01*
Y186072D01*
X59350D01*
Y186035D01*
X59331D01*
Y185997D01*
X59312D01*
Y185978D01*
X59294D01*
Y185941D01*
X59275D01*
Y185903D01*
X59256D01*
Y185866D01*
X59237D01*
Y185828D01*
X59219D01*
Y185772D01*
X59200D01*
Y185735D01*
X59181D01*
Y185679D01*
X59162D01*
Y185641D01*
X59144D01*
Y185585D01*
X59125D01*
Y185529D01*
X59106D01*
Y185454D01*
X59088D01*
Y185379D01*
X59069D01*
Y185286D01*
X59050D01*
Y185173D01*
X59031D01*
Y185005D01*
X59013D01*
Y184836D01*
X59631D01*
Y184986D01*
X59649D01*
Y185136D01*
X59668D01*
Y185230D01*
X59687D01*
Y185304D01*
X59705D01*
Y185379D01*
X59724D01*
Y185417D01*
X59743D01*
Y185473D01*
X59762D01*
Y185529D01*
X59780D01*
Y185566D01*
X59799D01*
Y185604D01*
X59818D01*
Y185641D01*
X59836D01*
Y185679D01*
X59855D01*
Y185716D01*
X59874D01*
Y185735D01*
X59893D01*
Y185772D01*
X59911D01*
Y185791D01*
X59930D01*
Y185828D01*
X59949D01*
Y185847D01*
X59967D01*
Y185866D01*
X59986D01*
Y185903D01*
X60005D01*
Y185922D01*
X60024D01*
Y185941D01*
X60042D01*
Y185960D01*
X60061D01*
Y185978D01*
X60080D01*
Y185997D01*
X60098D01*
Y186016D01*
X60117D01*
Y186035D01*
X60136D01*
Y186053D01*
X60155D01*
Y186072D01*
X60173D01*
Y186091D01*
X60192D01*
Y186109D01*
X60211D01*
Y186128D01*
X60229D01*
Y186147D01*
X60267D01*
Y186165D01*
X60286D01*
Y186184D01*
X60304D01*
Y186203D01*
X60342D01*
Y186222D01*
X60361D01*
Y186240D01*
X60398D01*
Y186259D01*
X60417D01*
Y186278D01*
X60454D01*
Y186296D01*
X60492D01*
Y186315D01*
X60529D01*
Y186334D01*
X60567D01*
Y186353D01*
X60604D01*
Y186371D01*
X60660D01*
Y186390D01*
X60716D01*
Y186409D01*
X60772D01*
Y186428D01*
X60829D01*
Y186446D01*
X60903D01*
Y186465D01*
X60997D01*
Y186484D01*
X61128D01*
Y186502D01*
X61446D01*
Y186484D01*
X61577D01*
Y186465D01*
X61671D01*
Y186446D01*
X61746D01*
Y186428D01*
X61821D01*
Y186409D01*
X61896D01*
Y186390D01*
X61970D01*
Y186371D01*
X62027D01*
Y186353D01*
X62083D01*
Y186334D01*
X62139D01*
Y186315D01*
X62195D01*
Y186296D01*
X62251D01*
Y186278D01*
X62307D01*
Y186259D01*
X62345D01*
Y186240D01*
X62401D01*
Y186222D01*
X62457D01*
Y186203D01*
X62495D01*
Y186184D01*
X62551D01*
Y186165D01*
X62607D01*
Y186147D01*
X62644D01*
Y186128D01*
X62700D01*
Y186109D01*
X62738D01*
Y186091D01*
X62775D01*
Y186072D01*
X62831D01*
Y186053D01*
X62869D01*
Y186035D01*
X62925D01*
Y186016D01*
X62963D01*
Y185997D01*
X63000D01*
Y185978D01*
X63038D01*
Y185960D01*
X63094D01*
Y185941D01*
X63131D01*
Y185922D01*
X63169D01*
Y185903D01*
X63225D01*
Y185885D01*
X63262D01*
Y185866D01*
X63300D01*
Y185847D01*
X63337D01*
Y185828D01*
X63374D01*
Y185810D01*
X63412D01*
Y185791D01*
X63468D01*
Y185772D01*
X63505D01*
Y185754D01*
X63543D01*
Y185735D01*
X63580D01*
Y185716D01*
X63618D01*
Y185697D01*
X63655D01*
Y185679D01*
X63693D01*
Y185660D01*
X63730D01*
Y185641D01*
X63767D01*
Y185623D01*
X63824D01*
Y185604D01*
X63861D01*
Y185585D01*
X63898D01*
Y185566D01*
X63936D01*
Y185548D01*
X63973D01*
Y185529D01*
X64011D01*
Y185510D01*
X64048D01*
Y185492D01*
X64086D01*
Y185473D01*
X64123D01*
Y185454D01*
X64161D01*
Y185435D01*
X64198D01*
Y185417D01*
X64236D01*
Y185398D01*
X64273D01*
Y185379D01*
X64310D01*
Y185361D01*
X64348D01*
Y185342D01*
X64385D01*
Y185323D01*
X64423D01*
Y185304D01*
X64460D01*
Y185286D01*
X64498D01*
Y185267D01*
X64535D01*
Y185248D01*
X64573D01*
Y185230D01*
X64610D01*
Y185211D01*
X64647D01*
Y185192D01*
X64685D01*
Y185173D01*
X64722D01*
Y185155D01*
X64760D01*
Y185136D01*
X64797D01*
Y185117D01*
X64816D01*
Y185099D01*
X64853D01*
Y185080D01*
X64891D01*
Y185061D01*
X64928D01*
Y185042D01*
X64966D01*
Y185024D01*
X65003D01*
Y185005D01*
X65040D01*
Y184986D01*
X65078D01*
Y184968D01*
X65115D01*
Y184949D01*
X65153D01*
Y184930D01*
X65190D01*
Y184911D01*
X65228D01*
Y184893D01*
X65265D01*
Y184874D01*
X65302D01*
Y184855D01*
X65340D01*
Y184836D01*
X65377D01*
Y184818D01*
X65415D01*
Y184799D01*
X65452D01*
Y184780D01*
X65490D01*
Y184762D01*
X65527D01*
Y184743D01*
X65565D01*
Y184724D01*
X65602D01*
Y184705D01*
X65640D01*
Y184687D01*
X65677D01*
Y184668D01*
X65714D01*
Y184649D01*
X65752D01*
Y184631D01*
X65808D01*
Y184649D01*
X65827D01*
Y184705D01*
X65845D01*
Y184743D01*
X65864D01*
Y184780D01*
X65883D01*
Y184818D01*
X65901D01*
Y184855D01*
X65920D01*
Y184893D01*
X65939D01*
Y184930D01*
X65958D01*
Y184968D01*
X65976D01*
Y185024D01*
X65995D01*
Y185061D01*
X66014D01*
Y185099D01*
X66033D01*
Y185136D01*
X66051D01*
Y185192D01*
X66014D01*
Y185211D01*
X65976D01*
Y185230D01*
X65939D01*
Y185248D01*
X65901D01*
Y185267D01*
X65864D01*
Y185286D01*
X65827D01*
Y185304D01*
X65789D01*
Y185323D01*
X65752D01*
Y185342D01*
X65714D01*
Y185361D01*
X65677D01*
Y185379D01*
X65640D01*
Y185398D01*
X65602D01*
Y185417D01*
X65565D01*
Y185435D01*
X65527D01*
Y185454D01*
X65490D01*
Y185473D01*
X65452D01*
Y185492D01*
X65415D01*
Y185510D01*
X65377D01*
Y185529D01*
X65340D01*
Y185548D01*
X65302D01*
Y185566D01*
X65265D01*
Y185585D01*
X65228D01*
Y185604D01*
X65190D01*
Y185623D01*
X65153D01*
Y185641D01*
X65115D01*
Y185660D01*
X65078D01*
Y185679D01*
X65040D01*
Y185697D01*
X65003D01*
Y185716D01*
X64966D01*
Y185735D01*
X64928D01*
Y185754D01*
X64891D01*
Y185772D01*
X64872D01*
Y185791D01*
X64834D01*
Y185810D01*
X64797D01*
Y185828D01*
X64760D01*
Y185847D01*
X64722D01*
Y185866D01*
X64685D01*
Y185885D01*
X64647D01*
Y185903D01*
X64610D01*
Y185922D01*
X64573D01*
Y185941D01*
X64535D01*
Y185960D01*
X64498D01*
Y185978D01*
X64460D01*
Y185997D01*
X64423D01*
Y186016D01*
X64385D01*
Y186035D01*
X64348D01*
Y186053D01*
X64310D01*
Y186072D01*
X64273D01*
Y186091D01*
X64236D01*
Y186109D01*
X64198D01*
Y186128D01*
X64142D01*
Y186147D01*
X64104D01*
Y186165D01*
X64067D01*
Y186184D01*
X64030D01*
Y186203D01*
X63992D01*
Y186222D01*
X63955D01*
Y186240D01*
X63917D01*
Y186259D01*
X63880D01*
Y186278D01*
X63842D01*
Y186296D01*
X63805D01*
Y186315D01*
X63767D01*
Y186334D01*
X63711D01*
Y186353D01*
X63674D01*
Y186371D01*
X63636D01*
Y186390D01*
X63599D01*
Y186409D01*
X63562D01*
Y186428D01*
X63505D01*
Y186446D01*
X63468D01*
Y186465D01*
X63431D01*
Y186484D01*
X63393D01*
Y186502D01*
X63356D01*
Y186521D01*
X63300D01*
Y186540D01*
X63262D01*
Y186559D01*
X63225D01*
Y186577D01*
X63169D01*
Y186596D01*
X63131D01*
Y186615D01*
X63094D01*
Y186634D01*
X63038D01*
Y186652D01*
X63000D01*
Y186671D01*
X62944D01*
Y186690D01*
X62906D01*
Y186708D01*
X62850D01*
Y186727D01*
X62813D01*
Y186746D01*
X62757D01*
Y186765D01*
X62719D01*
Y186783D01*
X62663D01*
Y186802D01*
X62607D01*
Y186821D01*
X62569D01*
Y186839D01*
X62513D01*
Y186858D01*
X62457D01*
Y186877D01*
X62401D01*
Y186896D01*
X62345D01*
Y186914D01*
X62289D01*
Y186933D01*
X62233D01*
Y186952D01*
X62176D01*
Y186970D01*
X62120D01*
Y186989D01*
X62045D01*
Y187008D01*
X61970D01*
Y187027D01*
X61896D01*
Y187045D01*
X61821D01*
Y187064D01*
X61727D01*
Y187083D01*
X61633D01*
Y187101D01*
X61484D01*
Y187120D01*
D02*
G37*
G36*
X58863Y181224D02*
X58844D01*
Y181205D01*
X58826D01*
Y181149D01*
X58807D01*
Y181111D01*
X58788D01*
Y181074D01*
X58769D01*
Y181018D01*
X58751D01*
Y180980D01*
X58732D01*
Y180943D01*
X58713D01*
Y180887D01*
X58694D01*
Y180849D01*
X58676D01*
Y180812D01*
X58657D01*
Y180756D01*
X58638D01*
Y180718D01*
X58620D01*
Y180681D01*
X58601D01*
Y180643D01*
X58582D01*
Y180587D01*
X58564D01*
Y180550D01*
X58545D01*
Y180512D01*
X58526D01*
Y180456D01*
X58507D01*
Y180419D01*
X58489D01*
Y180381D01*
X58470D01*
Y180325D01*
X59237D01*
Y180344D01*
X59219D01*
Y180400D01*
X59200D01*
Y180437D01*
X59181D01*
Y180493D01*
X59162D01*
Y180531D01*
X59144D01*
Y180568D01*
X59125D01*
Y180624D01*
X59106D01*
Y180662D01*
X59088D01*
Y180699D01*
X59069D01*
Y180718D01*
Y180737D01*
Y180756D01*
X59050D01*
Y180793D01*
X59031D01*
Y180849D01*
X59013D01*
Y180887D01*
X58994D01*
Y180924D01*
X58975D01*
Y180980D01*
X58957D01*
Y181018D01*
X58938D01*
Y181055D01*
X58919D01*
Y181111D01*
X58900D01*
Y181149D01*
X58882D01*
Y181205D01*
X58863D01*
Y181224D01*
D02*
G37*
G36*
X56467Y181280D02*
X55887D01*
Y180568D01*
X56392D01*
Y180587D01*
X56486D01*
Y180606D01*
X56560D01*
Y180624D01*
X56598D01*
Y180643D01*
X56617D01*
Y180662D01*
X56654D01*
Y180681D01*
X56673D01*
Y180718D01*
X56691D01*
Y180737D01*
X56710D01*
Y180774D01*
X56729D01*
Y180868D01*
X56748D01*
Y180999D01*
X56729D01*
Y181074D01*
X56710D01*
Y181130D01*
X56691D01*
Y181149D01*
X56673D01*
Y181167D01*
X56654D01*
Y181205D01*
X56617D01*
Y181224D01*
X56579D01*
Y181242D01*
X56542D01*
Y181261D01*
X56467D01*
Y181280D01*
D02*
G37*
G36*
X51020D02*
X50458D01*
Y180568D01*
X50945D01*
Y180587D01*
X51057D01*
Y180606D01*
X51113D01*
Y180624D01*
X51151D01*
Y180643D01*
X51188D01*
Y180662D01*
X51207D01*
Y180681D01*
X51225D01*
Y180699D01*
X51244D01*
Y180737D01*
X51263D01*
Y180774D01*
X51282D01*
Y180830D01*
X51300D01*
Y181036D01*
X51282D01*
Y181093D01*
X51263D01*
Y181130D01*
X51244D01*
Y181167D01*
X51225D01*
Y181186D01*
X51207D01*
Y181205D01*
X51169D01*
Y181224D01*
X51151D01*
Y181242D01*
X51094D01*
Y181261D01*
X51020D01*
Y181280D01*
D02*
G37*
G36*
X48399Y181224D02*
X48380D01*
Y181205D01*
X48361D01*
Y181167D01*
X48343D01*
Y181111D01*
X48324D01*
Y181074D01*
X48305D01*
Y181036D01*
X48287D01*
Y180999D01*
Y180980D01*
X48268D01*
Y180943D01*
X48249D01*
Y180905D01*
X48230D01*
Y180849D01*
X48212D01*
Y180812D01*
X48193D01*
Y180774D01*
X48174D01*
Y180718D01*
X48155D01*
Y180681D01*
X48137D01*
Y180643D01*
X48118D01*
Y180606D01*
X48099D01*
Y180550D01*
X48081D01*
Y180512D01*
X48062D01*
Y180475D01*
X48043D01*
Y180419D01*
X48024D01*
Y180381D01*
X48006D01*
Y180325D01*
X48755D01*
Y180381D01*
X48736D01*
Y180437D01*
X48717D01*
Y180475D01*
X48698D01*
Y180531D01*
X48680D01*
Y180568D01*
X48661D01*
Y180606D01*
X48642D01*
Y180662D01*
X48623D01*
Y180699D01*
X48605D01*
Y180756D01*
X48586D01*
Y180793D01*
X48567D01*
Y180830D01*
X48549D01*
Y180887D01*
X48530D01*
Y180924D01*
X48511D01*
Y180962D01*
X48492D01*
Y181018D01*
X48474D01*
Y181055D01*
X48455D01*
Y181111D01*
X48436D01*
Y181149D01*
X48417D01*
Y181186D01*
X48399D01*
Y181224D01*
D02*
G37*
G36*
X41304D02*
X41285D01*
Y181205D01*
X41267D01*
Y181167D01*
X41248D01*
Y181130D01*
X41229D01*
Y181093D01*
Y181074D01*
X41210D01*
Y181036D01*
X41192D01*
Y180999D01*
X41173D01*
Y180943D01*
X41154D01*
Y180905D01*
X41136D01*
Y180868D01*
X41117D01*
Y180812D01*
X41098D01*
Y180774D01*
X41080D01*
Y180737D01*
X41061D01*
Y180699D01*
X41042D01*
Y180643D01*
X41023D01*
Y180606D01*
X41005D01*
Y180568D01*
X40986D01*
Y180512D01*
X40967D01*
Y180475D01*
X40948D01*
Y180437D01*
X40930D01*
Y180381D01*
X40911D01*
Y180325D01*
X41660D01*
Y180381D01*
X41641D01*
Y180419D01*
X41622D01*
Y180475D01*
X41604D01*
Y180512D01*
X41585D01*
Y180568D01*
X41566D01*
Y180606D01*
X41548D01*
Y180643D01*
X41529D01*
Y180699D01*
X41510D01*
Y180737D01*
X41491D01*
Y180793D01*
X41473D01*
Y180830D01*
X41454D01*
Y180868D01*
X41435D01*
Y180924D01*
X41416D01*
Y180962D01*
X41398D01*
Y180999D01*
X41379D01*
Y181055D01*
X41360D01*
Y181093D01*
X41342D01*
Y181149D01*
X41323D01*
Y181186D01*
X41304D01*
Y181224D01*
D02*
G37*
%LPD*%
D10*
X20680Y21654D02*
X20606Y22658D01*
X20387Y23641D01*
X20027Y24582D01*
X19534Y25461D01*
X18918Y26258D01*
X18193Y26957D01*
X17374Y27543D01*
X16478Y28004D01*
X15525Y28329D01*
X14534Y28512D01*
X13528Y28549D01*
X12526Y28439D01*
X11552Y28184D01*
X10625Y27790D01*
X9765Y27265D01*
X8990Y26621D01*
X8318Y25871D01*
X7762Y25030D01*
X7335Y24118D01*
X7045Y23154D01*
X6898Y22157D01*
Y21150D01*
X7045Y20153D01*
X7335Y19189D01*
X7762Y18277D01*
X8318Y17436D01*
X8990Y16686D01*
X9765Y16042D01*
X10625Y15517D01*
X11552Y15123D01*
X12526Y14868D01*
X13528Y14758D01*
X14534Y14795D01*
X15525Y14978D01*
X16478Y15303D01*
X17374Y15764D01*
X18193Y16350D01*
X18918Y17049D01*
X19534Y17846D01*
X20027Y18725D01*
X20387Y19666D01*
X20606Y20649D01*
X20680Y21654D01*
X73927Y130852D02*
X73327Y131199D01*
Y130506D01*
X73927Y130852D01*
X20680Y175197D02*
X20606Y176201D01*
X20387Y177185D01*
X20027Y178126D01*
X19534Y179004D01*
X18918Y179801D01*
X18193Y180500D01*
X17374Y181087D01*
X16478Y181547D01*
X15525Y181872D01*
X14534Y182055D01*
X13528Y182092D01*
X12526Y181982D01*
X11552Y181727D01*
X10625Y181333D01*
X9765Y180808D01*
X8990Y180164D01*
X8318Y179414D01*
X7762Y178574D01*
X7335Y177662D01*
X7045Y176697D01*
X6898Y175700D01*
Y174693D01*
X7045Y173697D01*
X7335Y172732D01*
X7762Y171820D01*
X8318Y170980D01*
X8990Y170229D01*
X9765Y169585D01*
X10625Y169060D01*
X11552Y168666D01*
X12526Y168412D01*
X13528Y168301D01*
X14534Y168338D01*
X15525Y168521D01*
X16478Y168846D01*
X17374Y169307D01*
X18193Y169893D01*
X18918Y170592D01*
X19534Y171390D01*
X20027Y172268D01*
X20387Y173209D01*
X20606Y174192D01*
X20680Y175197D01*
X9363Y136811D02*
X8763D01*
X9363D01*
X9663Y150595D02*
X9063D01*
X9663D01*
X26080Y9354D02*
Y33954D01*
X7931D02*
X19628D01*
X1480Y9354D02*
Y33954D01*
X7931Y9354D02*
X19628D01*
X31328Y95562D02*
Y98139D01*
X27727Y95562D02*
Y98139D01*
X27728Y102830D02*
Y105407D01*
X31328Y102830D02*
Y105407D01*
X83039Y114503D02*
X84433Y115897D01*
X83933Y113493D02*
X85326Y114886D01*
X87115Y110311D02*
X88508Y111704D01*
X7931Y187497D02*
X19628D01*
X26080Y162897D02*
Y187497D01*
X7931Y162897D02*
X19628D01*
X1480D02*
Y187497D01*
X85235Y74774D02*
X87206D01*
X85235Y70274D02*
X87206D01*
X30995Y90776D02*
X33572D01*
X30995Y87176D02*
X33572D01*
X12498Y136421D02*
X18998D01*
Y123421D02*
Y127511D01*
X12498Y123421D02*
X18998D01*
X12498Y128591D02*
Y131251D01*
X18998Y132331D02*
Y136421D01*
Y146505D02*
Y150595D01*
X12498Y142764D02*
Y145425D01*
Y137595D02*
X18998D01*
Y141685D01*
X12498Y150595D02*
X18998D01*
X99119Y167979D02*
X104819D01*
X99119Y172179D02*
X104819D01*
X147544Y176116D02*
X153244D01*
X147544Y171916D02*
X153244D01*
X147431Y163787D02*
X154931D01*
X147431Y163147D02*
Y163787D01*
Y150387D02*
X154931D01*
Y151077D01*
Y163097D02*
Y163787D01*
X147431Y155647D02*
Y158527D01*
Y150387D02*
Y151027D01*
X180799Y142549D02*
Y148002D01*
X191642Y142549D02*
Y148002D01*
D11*
X44882Y43346D02*
X44144Y43773D01*
Y42920D01*
X44882Y43346D01*
X141587Y23763D02*
X140848Y24190D01*
Y23337D01*
X141587Y23763D01*
X160385Y21083D02*
X159647Y21509D01*
Y20657D01*
X160385Y21083D01*
X31988Y149173D02*
X31250Y149599D01*
Y148747D01*
X31988Y149173D01*
X194429Y138583D02*
X193691Y139009D01*
Y138156D01*
X194429Y138583D01*
X61791Y124054D02*
X61053Y124480D01*
Y123628D01*
X61791Y124054D01*
X98839Y25236D02*
X98100Y25662D01*
Y24810D01*
X98839Y25236D01*
D12*
X29728Y92350D02*
D03*
Y108618D02*
D03*
X36983Y88976D02*
D03*
D13*
X15354Y73819D02*
X14567D01*
X15354D01*
X66043Y49311D02*
X67028D01*
X66043D02*
Y50098D01*
X78642Y49311D02*
X79626D01*
X79626D02*
Y50098D01*
Y62106D02*
Y62894D01*
X66043D02*
X69685D01*
X66043Y62106D02*
Y62894D01*
X78642D02*
X79626D01*
X26181Y69685D02*
X39173D01*
X26181Y43701D02*
X39173D01*
X26181D02*
Y69685D01*
X39173Y43701D02*
Y69685D01*
X87814Y61811D02*
X89772D01*
X87814Y54331D02*
X89772D01*
X67332Y127664D02*
X68724Y129055D01*
X76956Y115569D02*
X81132Y119745D01*
X73443Y119082D02*
X77619Y123258D01*
X69476Y122288D02*
X73651Y126464D01*
X160287Y25524D02*
Y37335D01*
X142571Y25524D02*
Y37335D01*
X145031Y22165D02*
X157629D01*
X145031Y7795D02*
X157629D01*
X163574Y13012D02*
Y16949D01*
X139283Y13406D02*
Y17343D01*
X58081Y138418D02*
X64796Y131703D01*
X38259Y122974D02*
X44974Y116259D01*
X26201Y126221D02*
X36791D01*
Y147402D01*
X26201D02*
X36791D01*
X26201Y126221D02*
Y147402D01*
X197185Y134154D02*
X223524D01*
X99311D02*
X100689D01*
X99311Y62697D02*
Y134154D01*
X197185Y62697D02*
X223524D01*
X99311D02*
X100689D01*
X223524D02*
Y134154D01*
X113386Y20866D02*
X120472D01*
X113386Y1181D02*
X129921D01*
X62992Y123480D02*
X63688Y122784D01*
X87351Y99121D02*
X88047Y98425D01*
X62992Y73370D02*
X63688Y74066D01*
X87351Y97729D02*
X88047Y98425D01*
X37937D02*
X38633Y97729D01*
X62296Y74066D02*
X62992Y73370D01*
X37937Y98425D02*
X38633Y99121D01*
X62296Y122784D02*
X62992Y123480D01*
X113386Y22674D02*
X129921D01*
X113386Y42359D02*
X120472D01*
X31929Y-10413D02*
Y29587D01*
Y-10413D02*
X96496D01*
Y29587D01*
X86496D02*
X96496D01*
X74685D02*
X77362D01*
X62874D02*
X65551D01*
X51063D02*
X53740D01*
X31929D02*
X41929D01*
X122736Y141634D02*
Y142756D01*
X137106Y141634D02*
Y142756D01*
X122736Y154882D02*
Y156004D01*
X135000Y141634D02*
X137106D01*
X129095D02*
X130748D01*
X122736D02*
X124843D01*
X137106Y154882D02*
Y156004D01*
X135000D02*
X137106D01*
X129095D02*
X130748D01*
X122736D02*
X124843D01*
X111771Y160213D02*
Y162622D01*
X114830Y155709D02*
X116889D01*
Y163953D02*
Y167126D01*
Y155709D02*
Y158882D01*
X114830Y167126D02*
X116889D01*
X39947Y127974D02*
X50526Y138553D01*
X3936Y46554D02*
X3444Y47046D01*
X2461D01*
X1969Y46554D01*
Y44587D01*
X2461Y44094D01*
X3444D01*
X3936Y44587D01*
Y45570D01*
X2952D01*
X4920Y44094D02*
Y47046D01*
X6888Y44094D01*
Y47046D01*
X7872D02*
Y44094D01*
X9348D01*
X9840Y44587D01*
Y46554D01*
X9348Y47046D01*
X7872D01*
X83465Y87598D02*
X85432D01*
X84448D01*
Y84646D01*
X86416D02*
Y87598D01*
X87892D01*
X88384Y87106D01*
Y86122D01*
X87892Y85630D01*
X86416D01*
X91336Y87598D02*
X90352Y87106D01*
X89368Y86122D01*
Y85138D01*
X89860Y84646D01*
X90844D01*
X91336Y85138D01*
Y85630D01*
X90844Y86122D01*
X89368D01*
X83071Y79920D02*
X85039D01*
X84055D01*
Y76968D01*
X86023D02*
Y79920D01*
X87499D01*
X87990Y79428D01*
Y78444D01*
X87499Y77952D01*
X86023D01*
X88974Y79920D02*
X90942D01*
Y79428D01*
X88974Y77460D01*
Y76968D01*
X133706Y10397D02*
X135674D01*
X134690D01*
Y7446D01*
X136658D02*
Y10397D01*
X138134D01*
X138626Y9905D01*
Y8922D01*
X138134Y8430D01*
X136658D01*
X141578Y10397D02*
X139610D01*
Y8922D01*
X140594Y9414D01*
X141086D01*
X141578Y8922D01*
Y7938D01*
X141086Y7446D01*
X140102D01*
X139610Y7938D01*
X2362Y66731D02*
X4330D01*
X3346D01*
Y63779D01*
X5314D02*
Y66731D01*
X6790D01*
X7282Y66239D01*
Y65255D01*
X6790Y64763D01*
X5314D01*
X8266Y63779D02*
X9250D01*
X8758D01*
Y66731D01*
X8266Y66239D01*
X116929Y177952D02*
X118897D01*
X117913D01*
Y175000D01*
X119881D02*
Y177952D01*
X121357D01*
X121849Y177460D01*
Y176476D01*
X121357Y175984D01*
X119881D01*
X122833Y177460D02*
X123325Y177952D01*
X124309D01*
X124801Y177460D01*
Y176968D01*
X124309Y176476D01*
X123817D01*
X124309D01*
X124801Y175984D01*
Y175492D01*
X124309Y175000D01*
X123325D01*
X122833Y175492D01*
X27998Y192197D02*
X26030Y190229D01*
Y192197D02*
X27998Y190229D01*
X27014Y192197D02*
Y190229D01*
X26030Y191213D02*
X27998D01*
X29724Y22736D02*
X30216Y23228D01*
Y24212D01*
X29724Y24704D01*
X29232D01*
X28740Y24212D01*
Y23228D01*
X28248Y22736D01*
X27756D01*
X27264Y23228D01*
Y24212D01*
X27756Y24704D01*
X30216Y21752D02*
X27264D01*
Y20276D01*
X27756Y19784D01*
X28248D01*
X28740Y20276D01*
Y21752D01*
Y20276D01*
X29232Y19784D01*
X29724D01*
X30216Y20276D01*
Y21752D01*
X27264Y18800D02*
Y17816D01*
Y18308D01*
X30216D01*
X29724Y18800D01*
X144714Y5009D02*
X146682Y2057D01*
Y5009D02*
X144714Y2057D01*
X147666Y5009D02*
X149634D01*
X148650D01*
Y2057D01*
X150618D02*
Y4025D01*
X151602Y5009D01*
X152586Y4025D01*
Y2057D01*
Y3533D01*
X150618D01*
X153570Y5009D02*
Y2057D01*
X155537D01*
X158489D02*
X156521D01*
X158489Y4025D01*
Y4517D01*
X157997Y5009D01*
X157013D01*
X156521Y4517D01*
X136736Y27019D02*
X139196D01*
X139688Y27511D01*
Y28495D01*
X139196Y28987D01*
X136736D01*
X139688Y29971D02*
Y30955D01*
Y30463D01*
X136736D01*
X137228Y29971D01*
Y32430D02*
X136736Y32923D01*
Y33906D01*
X137228Y34398D01*
X139196D01*
X139688Y33906D01*
Y32923D01*
X139196Y32430D01*
X137228D01*
X14862Y59547D02*
X12402D01*
X11910Y59054D01*
Y58071D01*
X12402Y57579D01*
X14862D01*
X14370Y56595D02*
X14862Y56103D01*
Y55119D01*
X14370Y54627D01*
X13878D01*
X13386Y55119D01*
Y55611D01*
Y55119D01*
X12894Y54627D01*
X12402D01*
X11910Y55119D01*
Y56103D01*
X12402Y56595D01*
X38135Y132742D02*
X41614Y132046D01*
X39526Y134133D02*
X40222Y130655D01*
Y134829D02*
X41614Y136221D01*
X40918Y135525D01*
X43005Y133438D01*
X44396Y134829D02*
X43005Y136221D01*
Y137612D01*
X44396Y137612D01*
X45788Y136221D01*
X44744Y137264D01*
X43353Y135873D01*
X44396Y139004D02*
X46484Y136916D01*
X47875Y138308D01*
X48571Y139004D02*
X49267Y139699D01*
X48919Y139351D01*
X46832Y141439D01*
Y140743D01*
X114469Y46751D02*
Y44292D01*
X114961Y43800D01*
X115945D01*
X116437Y44292D01*
Y46751D01*
X117421Y46259D02*
X117913Y46751D01*
X118897D01*
X119389Y46259D01*
Y45768D01*
X118897Y45276D01*
X119389Y44784D01*
Y44292D01*
X118897Y43800D01*
X117913D01*
X117421Y44292D01*
Y44784D01*
X117913Y45276D01*
X117421Y45768D01*
Y46259D01*
X117913Y45276D02*
X118897D01*
X50690Y76279D02*
Y73819D01*
X51182Y73327D01*
X52166D01*
X52658Y73819D01*
Y76279D01*
X55610Y73327D02*
X53642D01*
X55610Y75295D01*
Y75787D01*
X55117Y76279D01*
X54134D01*
X53642Y75787D01*
X113879Y12893D02*
Y10433D01*
X114371Y9941D01*
X115355D01*
X115847Y10433D01*
Y12893D01*
X116831Y10433D02*
X117323Y9941D01*
X118306D01*
X118798Y10433D01*
Y12401D01*
X118306Y12893D01*
X117323D01*
X116831Y12401D01*
Y11909D01*
X117323Y11417D01*
X118798D01*
X115650Y143208D02*
Y140748D01*
X116142Y140256D01*
X117126D01*
X117618Y140748D01*
Y143208D01*
X118602D02*
X120570D01*
Y142716D01*
X118602Y140748D01*
Y140256D01*
X163681Y160334D02*
X161221D01*
X160729Y159842D01*
Y158858D01*
X161221Y158366D01*
X163681D01*
Y155414D02*
Y157382D01*
X162205D01*
X162697Y156398D01*
Y155906D01*
X162205Y155414D01*
X161221D01*
X160729Y155906D01*
Y156890D01*
X161221Y157382D01*
X70375Y47834D02*
Y45374D01*
X70867Y44882D01*
X71851D01*
X72343Y45374D01*
Y47834D01*
X74803Y44882D02*
Y47834D01*
X73327Y46358D01*
X75295D01*
X81005Y146751D02*
Y144292D01*
X81497Y143800D01*
X82481D01*
X82973Y144292D01*
Y146751D01*
X85924D02*
X84940Y146259D01*
X83956Y145276D01*
Y144292D01*
X84448Y143800D01*
X85432D01*
X85924Y144292D01*
Y144784D01*
X85432Y145276D01*
X83956D01*
X175098Y106299D02*
X172638D01*
X172146Y105807D01*
Y104823D01*
X172638Y104331D01*
X175098D01*
X172146Y103347D02*
Y102363D01*
Y102855D01*
X175098D01*
X174606Y103347D01*
X30118Y176377D02*
X30610Y176869D01*
Y177853D01*
X30118Y178345D01*
X29626D01*
X29134Y177853D01*
Y176869D01*
X28642Y176377D01*
X28150D01*
X27658Y176869D01*
Y177853D01*
X28150Y178345D01*
X30610Y175393D02*
X27658D01*
Y173917D01*
X28150Y173425D01*
X28642D01*
X29134Y173917D01*
Y175393D01*
Y173917D01*
X29626Y173425D01*
X30118D01*
X30610Y173917D01*
Y175393D01*
X27658Y170474D02*
Y172442D01*
X29626Y170474D01*
X30118D01*
X30610Y170966D01*
Y171950D01*
X30118Y172442D01*
X169783Y14765D02*
X166831D01*
Y16241D01*
X167323Y16733D01*
X168307D01*
X168799Y16241D01*
Y14765D01*
Y15749D02*
X169783Y16733D01*
Y19685D02*
Y17717D01*
X167815Y19685D01*
X167323D01*
X166831Y19193D01*
Y18209D01*
X167323Y17717D01*
X166831Y20669D02*
Y22637D01*
X167323D01*
X169291Y20669D01*
X169783D01*
X137009Y48524D02*
Y51476D01*
X138485D01*
X138977Y50984D01*
Y50000D01*
X138485Y49508D01*
X137009D01*
X137993D02*
X138977Y48524D01*
X141929D02*
X139961D01*
X141929Y50492D01*
Y50984D01*
X141437Y51476D01*
X140453D01*
X139961Y50984D01*
X142913D02*
X143405Y51476D01*
X144389D01*
X144881Y50984D01*
Y50492D01*
X144389Y50000D01*
X143897D01*
X144389D01*
X144881Y49508D01*
Y49016D01*
X144389Y48524D01*
X143405D01*
X142913Y49016D01*
X175689Y14765D02*
X172737D01*
Y16241D01*
X173229Y16733D01*
X174213D01*
X174705Y16241D01*
Y14765D01*
Y15749D02*
X175689Y16733D01*
Y19685D02*
Y17717D01*
X173721Y19685D01*
X173229D01*
X172737Y19193D01*
Y18209D01*
X173229Y17717D01*
X175689Y22637D02*
Y20669D01*
X173721Y22637D01*
X173229D01*
X172737Y22145D01*
Y21161D01*
X173229Y20669D01*
X157432Y166241D02*
Y169193D01*
X158908D01*
X159400Y168701D01*
Y167717D01*
X158908Y167225D01*
X157432D01*
X158416D02*
X159400Y166241D01*
X160384D02*
X161368D01*
X160876D01*
Y169193D01*
X160384Y168701D01*
X162844Y166241D02*
X163828D01*
X163336D01*
Y169193D01*
X162844Y168701D01*
X57480Y60926D02*
X54528D01*
Y62402D01*
X55020Y62894D01*
X56004D01*
X56496Y62402D01*
Y60926D01*
Y61910D02*
X57480Y62894D01*
X54528Y65846D02*
X55020Y64862D01*
X56004Y63878D01*
X56988D01*
X57480Y64370D01*
Y65354D01*
X56988Y65846D01*
X56496D01*
X56004Y65354D01*
Y63878D01*
X58444Y45189D02*
X55493D01*
Y46665D01*
X55984Y47157D01*
X56968D01*
X57460Y46665D01*
Y45189D01*
Y46173D02*
X58444Y47157D01*
X55493Y50108D02*
Y48140D01*
X56968D01*
X56476Y49124D01*
Y49616D01*
X56968Y50108D01*
X57952D01*
X58444Y49616D01*
Y48632D01*
X57952Y48140D01*
X2461Y119587D02*
Y122539D01*
X3937D01*
X4429Y122047D01*
Y121063D01*
X3937Y120571D01*
X2461D01*
X3446D02*
X4429Y119587D01*
X6889D02*
Y122539D01*
X5413Y121063D01*
X7381D01*
X2658Y150493D02*
Y153444D01*
X4134D01*
X4626Y152952D01*
Y151969D01*
X4134Y151477D01*
X2658D01*
X3642D02*
X4626Y150493D01*
X5610Y152952D02*
X6102Y153444D01*
X7086D01*
X7578Y152952D01*
Y152461D01*
X7086Y151969D01*
X6594D01*
X7086D01*
X7578Y151477D01*
Y150985D01*
X7086Y150493D01*
X6102D01*
X5610Y150985D01*
X90060Y163091D02*
Y166043D01*
X91536D01*
X92028Y165551D01*
Y164567D01*
X91536Y164075D01*
X90060D01*
X91044D02*
X92028Y163091D01*
X94980D02*
X93012D01*
X94980Y165059D01*
Y165551D01*
X94488Y166043D01*
X93504D01*
X93012Y165551D01*
X162599Y148918D02*
Y151870D01*
X164075D01*
X164567Y151378D01*
Y150394D01*
X164075Y149902D01*
X162599D01*
X163583D02*
X164567Y148918D01*
X165551D02*
X166535D01*
X166043D01*
Y151870D01*
X165551Y151378D01*
X21457Y135531D02*
X23425D01*
X23917Y136023D01*
Y137007D01*
X23425Y137499D01*
X21457D01*
X20965Y137007D01*
Y136023D01*
X21949Y136515D02*
X20965Y135531D01*
Y136023D02*
X21457Y135531D01*
X23425Y134547D02*
X23917Y134055D01*
Y133071D01*
X23425Y132580D01*
X22933D01*
X22441Y133071D01*
Y133563D01*
Y133071D01*
X21949Y132580D01*
X21457D01*
X20965Y133071D01*
Y134055D01*
X21457Y134547D01*
X22244Y150098D02*
X24212D01*
X24704Y150590D01*
Y151574D01*
X24212Y152066D01*
X22244D01*
X21752Y151574D01*
Y150590D01*
X22736Y151082D02*
X21752Y150098D01*
Y150590D02*
X22244Y150098D01*
X21752Y147146D02*
Y149114D01*
X23720Y147146D01*
X24212D01*
X24704Y147638D01*
Y148622D01*
X24212Y149114D01*
X114567Y169095D02*
Y171063D01*
X114075Y171555D01*
X113091D01*
X112599Y171063D01*
Y169095D01*
X113091Y168603D01*
X114075D01*
X113583Y169587D02*
X114567Y168603D01*
X114075D02*
X114567Y169095D01*
X115551Y168603D02*
X116535D01*
X116043D01*
Y171555D01*
X115551Y171063D01*
X26281Y153937D02*
Y150985D01*
X27757D01*
X28249Y151477D01*
Y151969D01*
X27757Y152461D01*
X26281D01*
X27757D01*
X28249Y152953D01*
Y153445D01*
X27757Y153937D01*
X26281D01*
X30709D02*
X29725D01*
X29233Y153445D01*
Y151477D01*
X29725Y150985D01*
X30709D01*
X31201Y151477D01*
Y153445D01*
X30709Y153937D01*
X33661D02*
X32677D01*
X32185Y153445D01*
Y151477D01*
X32677Y150985D01*
X33661D01*
X34153Y151477D01*
Y153445D01*
X33661Y153937D01*
X35137D02*
X37105D01*
X36121D01*
Y150985D01*
X13780Y120374D02*
X12796D01*
X13288D01*
Y117914D01*
X12796Y117422D01*
X12304D01*
X11812Y117914D01*
X14763Y117422D02*
X15747D01*
X15255D01*
Y120374D01*
X14763Y119882D01*
X33957Y33956D02*
X32973D01*
X33465D01*
Y31496D01*
X32973Y31004D01*
X32481D01*
X31989Y31496D01*
X36909Y31004D02*
X34941D01*
X36909Y32972D01*
Y33464D01*
X36417Y33956D01*
X35433D01*
X34941Y33464D01*
X94580Y132310D02*
X92493Y130223D01*
X93536Y129180D01*
X94232D01*
X95623Y130571D01*
Y131267D01*
X94580Y132310D01*
X94928Y128484D02*
Y127788D01*
X95623Y127093D01*
X96319D01*
X97711Y128484D01*
Y129180D01*
X97015Y129875D01*
X96319D01*
X95971Y129528D01*
Y128832D01*
X97015Y127788D01*
X157776Y175492D02*
Y172540D01*
X159252D01*
X159744Y173032D01*
Y175000D01*
X159252Y175492D01*
X157776D01*
X160728Y175000D02*
X161220Y175492D01*
X162204D01*
X162696Y175000D01*
Y174508D01*
X162204Y174016D01*
X162696Y173524D01*
Y173032D01*
X162204Y172540D01*
X161220D01*
X160728Y173032D01*
Y173524D01*
X161220Y174016D01*
X160728Y174508D01*
Y175000D01*
X161220Y174016D02*
X162204D01*
X87375Y107966D02*
X89462Y105878D01*
X90505Y106922D01*
Y107618D01*
X89114Y109009D01*
X88418D01*
X87375Y107966D01*
X89462Y110053D02*
X90853Y111444D01*
X91201Y111097D01*
Y108314D01*
X91549Y107966D01*
X73918Y74507D02*
Y71556D01*
X75394D01*
X75886Y72048D01*
Y74015D01*
X75394Y74507D01*
X73918D01*
X78838D02*
X77854Y74015D01*
X76870Y73032D01*
Y72048D01*
X77362Y71556D01*
X78346D01*
X78838Y72048D01*
Y72540D01*
X78346Y73032D01*
X76870D01*
X99509Y176673D02*
Y173721D01*
X100985D01*
X101477Y174213D01*
Y176181D01*
X100985Y176673D01*
X99509D01*
X104428D02*
X102461D01*
Y175197D01*
X103444Y175689D01*
X103936D01*
X104428Y175197D01*
Y174213D01*
X103936Y173721D01*
X102952D01*
X102461Y174213D01*
X30217Y85728D02*
Y82776D01*
X31693D01*
X32185Y83268D01*
Y85236D01*
X31693Y85728D01*
X30217D01*
X34645Y82776D02*
Y85728D01*
X33169Y84252D01*
X35137D01*
X35728Y98917D02*
X32776D01*
Y97441D01*
X33268Y96949D01*
X35236D01*
X35728Y97441D01*
Y98917D01*
X35236Y95965D02*
X35728Y95473D01*
Y94489D01*
X35236Y93997D01*
X34744D01*
X34252Y94489D01*
Y94981D01*
Y94489D01*
X33760Y93997D01*
X33268D01*
X32776Y94489D01*
Y95473D01*
X33268Y95965D01*
X27855Y115255D02*
Y112304D01*
X29331D01*
X29823Y112796D01*
Y114763D01*
X29331Y115255D01*
X27855D01*
X32775Y112304D02*
X30807D01*
X32775Y114271D01*
Y114763D01*
X32283Y115255D01*
X31299D01*
X30807Y114763D01*
X9449Y75885D02*
Y72934D01*
X10925D01*
X11417Y73426D01*
Y75393D01*
X10925Y75885D01*
X9449D01*
X12401Y72934D02*
X13385D01*
X12893D01*
Y75885D01*
X12401Y75393D01*
X124910Y169094D02*
X124418Y169586D01*
X123434D01*
X122942Y169094D01*
Y167126D01*
X123434Y166634D01*
X124418D01*
X124910Y167126D01*
X127862Y166634D02*
X125894D01*
X127862Y168602D01*
Y169094D01*
X127370Y169586D01*
X126386D01*
X125894Y169094D01*
X128846D02*
X129338Y169586D01*
X130322D01*
X130814Y169094D01*
Y168602D01*
X130322Y168110D01*
X130814Y167618D01*
Y167126D01*
X130322Y166634D01*
X129338D01*
X128846Y167126D01*
Y167618D01*
X129338Y168110D01*
X128846Y168602D01*
Y169094D01*
X129338Y168110D02*
X130322D01*
X135827Y174212D02*
X135335Y174704D01*
X134352D01*
X133860Y174212D01*
Y172244D01*
X134352Y171752D01*
X135335D01*
X135827Y172244D01*
X138779Y171752D02*
X136811D01*
X138779Y173720D01*
Y174212D01*
X138287Y174704D01*
X137303D01*
X136811Y174212D01*
X139763Y174704D02*
X141731D01*
Y174212D01*
X139763Y172244D01*
Y171752D01*
X149213Y142323D02*
X148721Y142815D01*
X147737D01*
X147245Y142323D01*
Y140355D01*
X147737Y139863D01*
X148721D01*
X149213Y140355D01*
X152165Y139863D02*
X150197D01*
X152165Y141831D01*
Y142323D01*
X151673Y142815D01*
X150689D01*
X150197Y142323D01*
X155117Y142815D02*
X154133Y142323D01*
X153149Y141339D01*
Y140355D01*
X153641Y139863D01*
X154625D01*
X155117Y140355D01*
Y140847D01*
X154625Y141339D01*
X153149D01*
X100001Y57874D02*
X99509Y58366D01*
X98525D01*
X98033Y57874D01*
Y55906D01*
X98525Y55414D01*
X99509D01*
X100001Y55906D01*
X102952Y55414D02*
X100985D01*
X102952Y57382D01*
Y57874D01*
X102461Y58366D01*
X101477D01*
X100985Y57874D01*
X105904Y58366D02*
X103936D01*
Y56890D01*
X104920Y57382D01*
X105412D01*
X105904Y56890D01*
Y55906D01*
X105412Y55414D01*
X104428D01*
X103936Y55906D01*
X89617Y159252D02*
X89125Y159744D01*
X88141D01*
X87649Y159252D01*
Y157284D01*
X88141Y156792D01*
X89125D01*
X89617Y157284D01*
X90601Y156792D02*
X91585D01*
X91093D01*
Y159744D01*
X90601Y159252D01*
X93060D02*
X93552Y159744D01*
X94536D01*
X95028Y159252D01*
Y158760D01*
X94536Y158268D01*
X94044D01*
X94536D01*
X95028Y157776D01*
Y157284D01*
X94536Y156792D01*
X93552D01*
X93060Y157284D01*
X35208Y160284D02*
X34716Y160776D01*
X33732D01*
X33240Y160284D01*
Y158316D01*
X33732Y157824D01*
X34716D01*
X35208Y158316D01*
X38160Y160776D02*
X36192D01*
Y159300D01*
X37176Y159792D01*
X37668D01*
X38160Y159300D01*
Y158316D01*
X37668Y157824D01*
X36684D01*
X36192Y158316D01*
X170374Y151378D02*
X169882Y151870D01*
X168898D01*
X168406Y151378D01*
Y149410D01*
X168898Y148918D01*
X169882D01*
X170374Y149410D01*
X171358Y151378D02*
X171850Y151870D01*
X172834D01*
X173326Y151378D01*
Y150886D01*
X172834Y150394D01*
X172342D01*
X172834D01*
X173326Y149902D01*
Y149410D01*
X172834Y148918D01*
X171850D01*
X171358Y149410D01*
X176673Y151378D02*
X176181Y151870D01*
X175198D01*
X174706Y151378D01*
Y149410D01*
X175198Y148918D01*
X176181D01*
X176673Y149410D01*
X179625Y148918D02*
X177657D01*
X179625Y150886D01*
Y151378D01*
X179133Y151870D01*
X178149D01*
X177657Y151378D01*
X186024Y157480D02*
X185532Y157972D01*
X184548D01*
X184056Y157480D01*
Y155512D01*
X184548Y155020D01*
X185532D01*
X186024Y155512D01*
X187008Y155020D02*
X187991D01*
X187499D01*
Y157972D01*
X187008Y157480D01*
D14*
X108968Y170079D02*
X108219Y170512D01*
Y169646D01*
X108968Y170079D01*
X144394Y174016D02*
X143644Y174449D01*
Y173583D01*
X144394Y174016D01*
X126205Y158537D02*
X127717D01*
X127032Y157852D02*
X127717Y158537D01*
X126890Y157852D02*
X127032D01*
X126205Y158537D02*
X126890Y157852D01*
X126205Y158537D02*
X126205D01*
X52333Y128454D02*
X53736Y129857D01*
Y128414D02*
Y129857D01*
X52333Y128414D02*
X53736D01*
X34465Y170290D02*
X35776D01*
X35120D01*
Y166354D01*
X34465D01*
X35776D01*
X37744D02*
X39712D01*
X40368Y167010D01*
X39712Y167666D01*
X38400D01*
X37744Y168322D01*
X38400Y168978D01*
X40368D01*
X41680Y166354D02*
X43648D01*
X44304Y167010D01*
X43648Y167666D01*
X42336D01*
X41680Y168322D01*
X42336Y168978D01*
X44304D01*
X46272D02*
X47584D01*
X48240Y168322D01*
Y166354D01*
X46272D01*
X45616Y167010D01*
X46272Y167666D01*
X48240D01*
X49552Y166354D02*
Y168978D01*
X50208D01*
X50863Y168322D01*
Y166354D01*
Y168322D01*
X51519Y168978D01*
X52175Y168322D01*
Y166354D01*
X57423D02*
Y168978D01*
X58735Y170290D01*
X60047Y168978D01*
Y166354D01*
Y168322D01*
X57423D01*
X61359Y166354D02*
Y170290D01*
Y167666D02*
X63327Y168978D01*
X61359Y167666D02*
X63327Y166354D01*
X65294Y170290D02*
Y166354D01*
Y168322D01*
X65951Y168978D01*
X67262D01*
X67918Y168322D01*
Y166354D01*
X69886Y169634D02*
Y168978D01*
X69230D01*
X70542D01*
X69886D01*
Y167010D01*
X70542Y166354D01*
X73166Y168978D02*
X74478D01*
X75134Y168322D01*
Y166354D01*
X73166D01*
X72510Y167010D01*
X73166Y167666D01*
X75134D01*
X76446Y168978D02*
Y166354D01*
Y167666D01*
X77102Y168322D01*
X77758Y168978D01*
X78414D01*
X34465Y177507D02*
Y173572D01*
X36432D01*
X37088Y174228D01*
Y176851D01*
X36432Y177507D01*
X34465D01*
X40368Y173572D02*
X39056D01*
X38400Y174228D01*
Y175540D01*
X39056Y176196D01*
X40368D01*
X41024Y175540D01*
Y174884D01*
X38400D01*
X42336Y173572D02*
X44304D01*
X44960Y174228D01*
X44304Y174884D01*
X42992D01*
X42336Y175540D01*
X42992Y176196D01*
X44960D01*
X46272Y173572D02*
X47584D01*
X46928D01*
Y176196D01*
X46272D01*
X50863Y172260D02*
X51519D01*
X52175Y172916D01*
Y176196D01*
X50208D01*
X49552Y175540D01*
Y174228D01*
X50208Y173572D01*
X52175D01*
X53487D02*
Y176196D01*
X55455D01*
X56111Y175540D01*
Y173572D01*
X59391D02*
X58079D01*
X57423Y174228D01*
Y175540D01*
X58079Y176196D01*
X59391D01*
X60047Y175540D01*
Y174884D01*
X57423D01*
X63983Y177507D02*
Y173572D01*
X62015D01*
X61359Y174228D01*
Y175540D01*
X62015Y176196D01*
X63983D01*
X69230Y177507D02*
Y173572D01*
X71198D01*
X71854Y174228D01*
Y174884D01*
Y175540D01*
X71198Y176196D01*
X69230D01*
X73166D02*
Y174228D01*
X73822Y173572D01*
X75790D01*
Y172916D01*
X75134Y172260D01*
X74478D01*
X75790Y173572D02*
Y176196D01*
X77102D02*
X77758D01*
Y175540D01*
X77102D01*
Y176196D01*
Y174228D02*
X77758D01*
Y173572D01*
X77102D01*
Y174228D01*
X73835Y191418D02*
X77508D01*
X75671D01*
Y185907D01*
X82100D02*
X80263D01*
X79345Y186826D01*
Y188663D01*
X80263Y189581D01*
X82100D01*
X83018Y188663D01*
Y187744D01*
X79345D01*
X84855Y185907D02*
X86691D01*
X85773D01*
Y191418D01*
X84855D01*
X92201Y185907D02*
X90365D01*
X89446Y186826D01*
Y188663D01*
X90365Y189581D01*
X92201D01*
X93120Y188663D01*
Y187744D01*
X89446D01*
X94956Y185907D02*
Y189581D01*
X95875D01*
X96793Y188663D01*
Y185907D01*
Y188663D01*
X97711Y189581D01*
X98630Y188663D01*
Y185907D01*
X103221D02*
X101385D01*
X100467Y186826D01*
Y188663D01*
X101385Y189581D01*
X103221D01*
X104140Y188663D01*
Y187744D01*
X100467D01*
X106895Y190499D02*
Y189581D01*
X105976D01*
X107813D01*
X106895D01*
Y186826D01*
X107813Y185907D01*
X110568Y189581D02*
Y185907D01*
Y187744D01*
X111486Y188663D01*
X112405Y189581D01*
X113323D01*
X116078D02*
Y186826D01*
X116997Y185907D01*
X119752D01*
Y184989D01*
X118833Y184071D01*
X117915D01*
X119752Y185907D02*
Y189581D01*
X127098Y185907D02*
Y191418D01*
X128935Y189581D01*
X130772Y191418D01*
Y185907D01*
X133527D02*
X135363D01*
X136282Y186826D01*
Y188663D01*
X135363Y189581D01*
X133527D01*
X132608Y188663D01*
Y186826D01*
X133527Y185907D01*
X141792Y191418D02*
Y185907D01*
X139037D01*
X138118Y186826D01*
Y188663D01*
X139037Y189581D01*
X141792D01*
X143628D02*
Y186826D01*
X144547Y185907D01*
X147302D01*
Y189581D01*
X149138Y185907D02*
X150975D01*
X150057D01*
Y191418D01*
X149138D01*
X156485Y185907D02*
X154648D01*
X153730Y186826D01*
Y188663D01*
X154648Y189581D01*
X156485D01*
X157403Y188663D01*
Y187744D01*
X153730D01*
X164750Y185907D02*
Y191418D01*
X167505D01*
X168423Y190499D01*
Y188663D01*
X167505Y187744D01*
X164750D01*
X166587D02*
X168423Y185907D01*
X173015D02*
X171178D01*
X170260Y186826D01*
Y188663D01*
X171178Y189581D01*
X173015D01*
X173933Y188663D01*
Y187744D01*
X170260D01*
X175770Y189581D02*
X177607Y185907D01*
X179444Y189581D01*
X186790Y185907D02*
Y189581D01*
X188627Y191418D01*
X190464Y189581D01*
Y185907D01*
Y188663D01*
X186790D01*
D15*
X158888Y149087D02*
X158181Y149794D01*
X157474Y149087D01*
X158181Y148380D01*
X158888Y149087D01*
D16*
X20276Y76378D02*
X26969D01*
X20276Y71260D02*
X26969D01*
X11004Y80827D02*
X17343D01*
X-2362D02*
Y116024D01*
X807D01*
X11004D02*
X17343D01*
X-2362Y80827D02*
X807D01*
M02*
