G04*
G04 #@! TF.GenerationSoftware,Altium Limited,Altium Designer,25.0.2 (28)*
G04*
G04 Layer_Color=16711935*
%FSLAX25Y25*%
%MOIN*%
G70*
G04*
G04 #@! TF.SameCoordinates,77BAF947-F79B-4421-9DE9-08F6AA71662D*
G04*
G04*
G04 #@! TF.FilePolarity,Negative*
G04*
G01*
G75*
%ADD75R,0.04572X0.04391*%
G04:AMPARAMS|DCode=80|XSize=45.72mil|YSize=43.91mil|CornerRadius=0mil|HoleSize=0mil|Usage=FLASHONLY|Rotation=225.000|XOffset=0mil|YOffset=0mil|HoleType=Round|Shape=Rectangle|*
%AMROTATEDRECTD80*
4,1,4,0.00064,0.03169,0.03169,0.00064,-0.00064,-0.03169,-0.03169,-0.00064,0.00064,0.03169,0.0*
%
%ADD80ROTATEDRECTD80*%

G04:AMPARAMS|DCode=81|XSize=45.72mil|YSize=43.91mil|CornerRadius=0mil|HoleSize=0mil|Usage=FLASHONLY|Rotation=315.000|XOffset=0mil|YOffset=0mil|HoleType=Round|Shape=Rectangle|*
%AMROTATEDRECTD81*
4,1,4,-0.03169,0.00064,-0.00064,0.03169,0.03169,-0.00064,0.00064,-0.03169,-0.03169,0.00064,0.0*
%
%ADD81ROTATEDRECTD81*%

%ADD111R,0.04391X0.04572*%
%ADD114C,0.06800*%
%ADD115C,0.07099*%
G04:AMPARAMS|DCode=116|XSize=70.99mil|YSize=70.99mil|CornerRadius=19.75mil|HoleSize=0mil|Usage=FLASHONLY|Rotation=270.000|XOffset=0mil|YOffset=0mil|HoleType=Round|Shape=RoundedRectangle|*
%AMROUNDEDRECTD116*
21,1,0.07099,0.03150,0,0,270.0*
21,1,0.03150,0.07099,0,0,270.0*
1,1,0.03950,-0.01575,-0.01575*
1,1,0.03950,-0.01575,0.01575*
1,1,0.03950,0.01575,0.01575*
1,1,0.03950,0.01575,-0.01575*
%
%ADD116ROUNDEDRECTD116*%
%ADD117O,0.08477X0.04934*%
%ADD118O,0.06902X0.04934*%
%ADD119C,0.12611*%
%ADD120C,0.06981*%
%ADD121R,0.06981X0.06981*%
%ADD122C,0.02611*%
%ADD123C,0.03162*%
%ADD124C,0.02769*%
G04:AMPARAMS|DCode=164|XSize=35.67mil|YSize=33.79mil|CornerRadius=0mil|HoleSize=0mil|Usage=FLASHONLY|Rotation=135.000|XOffset=0mil|YOffset=0mil|HoleType=Round|Shape=Rectangle|*
%AMROTATEDRECTD164*
4,1,4,0.02456,-0.00067,0.00067,-0.02456,-0.02456,0.00067,-0.00067,0.02456,0.02456,-0.00067,0.0*
%
%ADD164ROTATEDRECTD164*%

%ADD167R,0.04964X0.04391*%
%ADD168R,0.05550X0.04966*%
%ADD169R,0.04761X0.04953*%
D75*
X41839Y51968D02*
D03*
X36114D02*
D03*
X142676Y37421D02*
D03*
X136952D02*
D03*
D80*
X70922Y108323D02*
D03*
X66874Y104275D02*
D03*
X89512D02*
D03*
X93559Y108323D02*
D03*
X77110Y94827D02*
D03*
X81158Y98874D02*
D03*
D81*
X38583Y112992D02*
D03*
X42631Y108944D02*
D03*
X58606Y111866D02*
D03*
X62654Y107819D02*
D03*
X55063Y108323D02*
D03*
X59111Y104275D02*
D03*
X51519Y104780D02*
D03*
X55567Y100732D02*
D03*
X47976Y101237D02*
D03*
X52024Y97189D02*
D03*
X63048Y80260D02*
D03*
X59000Y84307D02*
D03*
X41283Y87654D02*
D03*
X45331Y83606D02*
D03*
X64118Y89425D02*
D03*
X68165Y85378D02*
D03*
X65803Y127504D02*
D03*
X61756Y131551D02*
D03*
X69236Y94544D02*
D03*
X73284Y90496D02*
D03*
D111*
X127559Y35146D02*
D03*
Y29421D02*
D03*
X127953Y13492D02*
D03*
Y7768D02*
D03*
D114*
X5906Y51181D02*
D03*
D115*
X31496Y131811D02*
D03*
D116*
Y141811D02*
D03*
D117*
X5906Y81417D02*
D03*
Y115433D02*
D03*
D118*
X21654Y81417D02*
D03*
Y115433D02*
D03*
D119*
X73465Y8189D02*
D03*
X54961D02*
D03*
D120*
X46457Y25197D02*
D03*
X58268D02*
D03*
X70079D02*
D03*
X81890Y37008D02*
D03*
X70079D02*
D03*
X58268D02*
D03*
X46457D02*
D03*
D121*
X81890Y25197D02*
D03*
D122*
X85546Y106216D02*
D03*
X148031Y42520D02*
D03*
X151575D02*
D03*
X137571Y28679D02*
D03*
X138212Y25475D02*
D03*
X85331Y85303D02*
D03*
X81890Y86695D02*
D03*
X4921Y121063D02*
D03*
X37402Y92520D02*
D03*
X37014Y88976D02*
D03*
X32677Y94488D02*
D03*
X49606Y90662D02*
D03*
X47667Y94459D02*
D03*
X62913Y123559D02*
D03*
X123748Y155032D02*
D03*
X116142Y152756D02*
D03*
X121260Y137922D02*
D03*
X122164Y141062D02*
D03*
X140657Y148571D02*
D03*
X140551Y145276D02*
D03*
X89775Y135816D02*
D03*
X45603Y111090D02*
D03*
X69749Y75194D02*
D03*
X119806Y145286D02*
D03*
X118898Y148425D02*
D03*
X139370Y151575D02*
D03*
X139764Y155083D02*
D03*
X149238Y22356D02*
D03*
X63878Y54823D02*
D03*
X78347Y59941D02*
D03*
X29528Y36417D02*
D03*
X5906Y136811D02*
D03*
X100394Y141732D02*
D03*
X128937Y124016D02*
D03*
X87598Y92520D02*
D03*
X140551Y141732D02*
D03*
X136221Y126378D02*
D03*
X49606Y81102D02*
D03*
X54505Y86402D02*
D03*
X57087Y89370D02*
D03*
X103937Y126772D02*
D03*
X40157Y119291D02*
D03*
X37795Y121653D02*
D03*
X94882Y170079D02*
D03*
X163779Y20866D02*
D03*
X164567Y17717D02*
D03*
Y14567D02*
D03*
Y11417D02*
D03*
X138189Y19685D02*
D03*
Y16535D02*
D03*
Y13386D02*
D03*
Y10236D02*
D03*
X140945Y8661D02*
D03*
X142913Y6299D02*
D03*
X146850D02*
D03*
X151181D02*
D03*
X155905D02*
D03*
X159843Y6693D02*
D03*
X162205Y9055D02*
D03*
X141783Y16949D02*
D03*
X161074Y13406D02*
D03*
X133071Y3543D02*
D03*
X163779Y25197D02*
D03*
X127953Y44882D02*
D03*
X146457Y53150D02*
D03*
X158661Y58268D02*
D03*
X23995Y130532D02*
D03*
X55905Y140551D02*
D03*
X53543Y138583D02*
D03*
X37402Y125984D02*
D03*
X60630Y137795D02*
D03*
X59055Y140157D02*
D03*
X50394Y138976D02*
D03*
X46850Y135827D02*
D03*
X43701Y132677D02*
D03*
X40551Y129528D02*
D03*
X160680Y20295D02*
D03*
X110236Y91732D02*
D03*
X173425Y56102D02*
D03*
X166339Y58071D02*
D03*
X60236Y94095D02*
D03*
X88189Y139764D02*
D03*
X93724Y140922D02*
D03*
X83835Y126355D02*
D03*
X43110Y100886D02*
D03*
X29528Y110236D02*
D03*
X11811Y143701D02*
D03*
X150591Y157480D02*
D03*
D123*
X73284Y90496D02*
D03*
X62205Y65809D02*
D03*
X56988Y59153D02*
D03*
X70778Y66929D02*
D03*
X18504Y52559D02*
D03*
X20965Y56693D02*
D03*
X23425Y52559D02*
D03*
X36114Y51968D02*
D03*
X36220Y46850D02*
D03*
X42036D02*
D03*
X42126Y51968D02*
D03*
X44390Y56693D02*
D03*
X18504Y61417D02*
D03*
X23425D02*
D03*
X34938D02*
D03*
X42126D02*
D03*
X29134Y40945D02*
D03*
X89969Y50428D02*
D03*
X89083Y65748D02*
D03*
X95092Y65492D02*
D03*
X82871Y72524D02*
D03*
X93618Y58071D02*
D03*
X84244Y50428D02*
D03*
X83969Y58071D02*
D03*
X83358Y65748D02*
D03*
X76503Y66929D02*
D03*
X13780Y175197D02*
D03*
X55512Y66929D02*
D03*
X55118Y44597D02*
D03*
X173228Y86614D02*
D03*
Y78740D02*
D03*
X42631Y108944D02*
D03*
X41080Y87857D02*
D03*
X53341Y98099D02*
D03*
X62992Y145669D02*
D03*
X47244D02*
D03*
X39370D02*
D03*
X128937Y58071D02*
D03*
X153543Y141732D02*
D03*
X185039Y102362D02*
D03*
X51181Y31496D02*
D03*
X109252Y58071D02*
D03*
X173228Y82677D02*
D03*
X138779Y58071D02*
D03*
X110236Y74803D02*
D03*
X141732D02*
D03*
X177165Y102362D02*
D03*
X35433Y31496D02*
D03*
X192913Y102362D02*
D03*
X92520Y24606D02*
D03*
X169291Y125984D02*
D03*
X181102Y106299D02*
D03*
X39370Y27559D02*
D03*
X7874Y59055D02*
D03*
X188976Y122047D02*
D03*
X149606Y31496D02*
D03*
X154528D02*
D03*
X11811Y102362D02*
D03*
X144685Y31496D02*
D03*
X11811Y86614D02*
D03*
X163386Y29528D02*
D03*
X102362Y78740D02*
D03*
X11811Y110236D02*
D03*
X102362Y94488D02*
D03*
Y102362D02*
D03*
Y118110D02*
D03*
Y86614D02*
D03*
Y110236D02*
D03*
X181102Y31496D02*
D03*
X188976D02*
D03*
Y39370D02*
D03*
X185039Y35433D02*
D03*
X192913D02*
D03*
X125984Y74803D02*
D03*
X173228Y90551D02*
D03*
X181102Y47244D02*
D03*
Y39370D02*
D03*
X119095Y58071D02*
D03*
X192913Y43307D02*
D03*
X185039D02*
D03*
X188976Y47244D02*
D03*
X13780Y21654D02*
D03*
X173228Y98425D02*
D03*
X192913Y51181D02*
D03*
X118110Y11811D02*
D03*
X153543Y74803D02*
D03*
X114173Y31496D02*
D03*
Y15748D02*
D03*
X163386Y39764D02*
D03*
X90551Y3937D02*
D03*
X118110D02*
D03*
X114173Y7874D02*
D03*
X35433Y3937D02*
D03*
X43307D02*
D03*
X118110Y47244D02*
D03*
Y19685D02*
D03*
Y27559D02*
D03*
X114173Y23622D02*
D03*
X82677Y3937D02*
D03*
X102362Y70866D02*
D03*
X19685Y3937D02*
D03*
X62992D02*
D03*
X39370Y78740D02*
D03*
X141732Y2953D02*
D03*
X39370Y11811D02*
D03*
X11811Y3937D02*
D03*
Y94488D02*
D03*
X27559Y3937D02*
D03*
X31496Y11811D02*
D03*
X35433Y19685D02*
D03*
X161417Y2953D02*
D03*
X122047Y118110D02*
D03*
X153543Y125984D02*
D03*
X3937Y98425D02*
D03*
X161417Y125984D02*
D03*
X185039D02*
D03*
X59055Y161417D02*
D03*
X35433D02*
D03*
X192913Y125984D02*
D03*
X185039Y118110D02*
D03*
X106299Y98425D02*
D03*
X110236Y118110D02*
D03*
X106299Y114173D02*
D03*
X188976Y106299D02*
D03*
X185039Y110236D02*
D03*
X192913Y118110D02*
D03*
X31496Y114173D02*
D03*
X188976D02*
D03*
X106299Y106299D02*
D03*
X192913Y110236D02*
D03*
X3937Y106299D02*
D03*
Y90551D02*
D03*
X39370Y137795D02*
D03*
X43307Y141732D02*
D03*
X62992Y157480D02*
D03*
X55118D02*
D03*
Y145669D02*
D03*
X7874Y153543D02*
D03*
X39370Y157480D02*
D03*
X90551Y173228D02*
D03*
X74803Y161417D02*
D03*
X47244Y157480D02*
D03*
X31496D02*
D03*
X86614Y169291D02*
D03*
X153543Y137795D02*
D03*
X51181Y161417D02*
D03*
X23622Y149606D02*
D03*
X66929Y161417D02*
D03*
X70866Y157480D02*
D03*
X43307Y161417D02*
D03*
X185039Y181102D02*
D03*
X82677Y165354D02*
D03*
X94488Y177165D02*
D03*
X98425Y181102D02*
D03*
X192913Y173228D02*
D03*
X106299Y145669D02*
D03*
X129921Y173228D02*
D03*
X125984Y169291D02*
D03*
X188976Y177165D02*
D03*
X15748Y153543D02*
D03*
X185039Y27559D02*
D03*
X192913D02*
D03*
X188976Y23622D02*
D03*
X181102D02*
D03*
X192913Y19685D02*
D03*
X185039D02*
D03*
X177165D02*
D03*
X173228Y15748D02*
D03*
X181102D02*
D03*
X188976D02*
D03*
X169291Y11811D02*
D03*
X177165D02*
D03*
X185039D02*
D03*
X192913D02*
D03*
X188976Y7874D02*
D03*
X181102D02*
D03*
X173228D02*
D03*
X169291Y3937D02*
D03*
X177165D02*
D03*
X185039D02*
D03*
X192913D02*
D03*
X27458Y121654D02*
D03*
X66645Y104097D02*
D03*
X72441Y97638D02*
D03*
X93593Y132249D02*
D03*
X81890Y135039D02*
D03*
X37937Y104139D02*
D03*
X14764Y69882D02*
D03*
X132496Y162598D02*
D03*
X126772D02*
D03*
X4921Y189947D02*
D03*
X174409Y25295D02*
D03*
X133858Y69291D02*
D03*
X183858Y54724D02*
D03*
X142964Y37335D02*
D03*
X136952Y37421D02*
D03*
X50804Y132429D02*
D03*
X155661Y11634D02*
D03*
X146999Y18327D02*
D03*
X162932Y53149D02*
D03*
X156717Y53400D02*
D03*
X143418Y44455D02*
D03*
X137785Y44508D02*
D03*
X52196Y121572D02*
D03*
X46024Y119976D02*
D03*
X61079Y130653D02*
D03*
X97244Y135039D02*
D03*
X96500Y117500D02*
D03*
X89741Y144905D02*
D03*
X188740Y139370D02*
D03*
X177165Y139658D02*
D03*
X164567Y145571D02*
D03*
X147925Y146850D02*
D03*
X145906Y153337D02*
D03*
X110943Y157677D02*
D03*
X117717Y161417D02*
D03*
X99106Y158268D02*
D03*
X73567Y137346D02*
D03*
X77614Y141394D02*
D03*
X73811Y145465D02*
D03*
X65331Y137031D02*
D03*
X34646Y116535D02*
D03*
X63292Y119852D02*
D03*
X65803Y127504D02*
D03*
X89308Y104072D02*
D03*
X68166Y85378D02*
D03*
X127658Y35017D02*
D03*
Y30017D02*
D03*
Y13524D02*
D03*
X37937Y98425D02*
D03*
X64990Y112963D02*
D03*
X70922Y108323D02*
D03*
X81158Y98874D02*
D03*
X62992Y102362D02*
D03*
X63048Y80260D02*
D03*
X177165Y145382D02*
D03*
X22638Y6904D02*
D03*
X17035Y38780D02*
D03*
X62857Y107615D02*
D03*
X128937Y68898D02*
D03*
X11213Y159055D02*
D03*
X45331Y83606D02*
D03*
X59000Y84307D02*
D03*
X77110Y94827D02*
D03*
X64118Y89425D02*
D03*
X69236Y94544D02*
D03*
X55567Y100732D02*
D03*
X59111Y104275D02*
D03*
X156456Y160787D02*
D03*
X99152Y164567D02*
D03*
X134933Y168110D02*
D03*
X186221Y151094D02*
D03*
X170866Y145382D02*
D03*
X153650Y146850D02*
D03*
X123937Y132874D02*
D03*
X193937D02*
D03*
X168740Y109843D02*
D03*
X163228D02*
D03*
X157717D02*
D03*
Y104331D02*
D03*
X163228D02*
D03*
X168740D02*
D03*
Y98819D02*
D03*
X163228D02*
D03*
X157717D02*
D03*
X193937Y63976D02*
D03*
X127658Y8524D02*
D03*
X118898Y68898D02*
D03*
X143701Y124016D02*
D03*
X138937Y132874D02*
D03*
X158937D02*
D03*
X188976Y57874D02*
D03*
X61782Y116171D02*
D03*
X51519Y104780D02*
D03*
D124*
X72835Y52362D02*
D03*
Y59842D02*
D03*
X75098Y56102D02*
D03*
X70571D02*
D03*
X129921Y145768D02*
D03*
X126870Y148819D02*
D03*
X129921Y151870D02*
D03*
X132972Y148819D02*
D03*
X129921D02*
D03*
X23917Y111024D02*
D03*
Y85827D02*
D03*
D164*
X64990Y112963D02*
D03*
X61782Y116171D02*
D03*
X47667Y94459D02*
D03*
X44459Y97667D02*
D03*
D167*
X41553Y46850D02*
D03*
X36220D02*
D03*
D168*
X34938Y61417D02*
D03*
X41440D02*
D03*
D169*
X37937Y98425D02*
D03*
Y104139D02*
D03*
M02*
