M48
;Layer_Color=9474304
;FILE_FORMAT=2:4
INCH,TZ
;TYPE=PLATED
T01F00S00C0.0079
T02F00S00C0.0098
T03F00S00C0.0118
T05F00S00C0.0300
T06F00S00C0.0402
T07F00S00C0.0433
;TYPE=NON_PLATED
T08F00S00C0.1181
%
T01
X2953Y3642
X13757Y2868
X13821Y2547
X13819Y1969
Y1654
Y1339
Y1024
X14094Y866
X14291Y630
X14685
X15118
X15591
X15984Y669
X16220Y906
X16457Y1142
Y1457
Y1772
X16378Y2087
X16068Y2030
X16107Y1341
X16378Y2520
X14924Y2236
X14178Y1695
X13307Y354
X12795Y4488
X14803Y4252
X15157
X14646Y5315
X15866Y5827
X16634Y5807
X17343Y5610
X7510Y5610
X7057
X7283Y5236
Y5984
X7835Y5994
X6388Y5482
X6975Y7519
X8189Y8669
X8533Y8530
X8760Y9252
X8555Y10622
X8384Y12636
X8978Y13582
X8819Y13976
X9372Y14092
X10039Y14173
X10394Y12677
X12894Y12402
X13622Y12638
X14055Y14173
Y14528
X14066Y14857
X13937Y15157
X13976Y15508
X12992Y15187
Y14882
X13297
X12992Y14577
X12687Y14882
X11890Y14843
X11981Y14529
X12216Y14106
X12126Y13792
X12375Y15503
X11614Y15276
X9488Y17008
X5906Y14016
X5591Y14055
X5354Y13858
X5039Y13898
X4685Y13583
X4370Y13268
X4055Y12953
X4016Y11929
X4560Y11109
X4311Y10089
X4767Y9446
X4961Y9066
X5709Y8937
X5450Y8640
X4961Y8110
X6024Y9409
X6291Y12356
X6063Y13780
X11024Y9173
X15059Y15748
X3740Y12598
X3780Y12165
X2953Y11024
X2392Y11102
X2400Y13053
X591Y13681
X1181Y14370
X492Y12106
X2392Y8583
X3701Y8898
X3740Y9252
X3268Y9449
T02
X2264Y690
X12766Y852
Y1352
Y3002
X13695Y3742
X14296Y3733
X14700Y1833
X15566Y1163
X15672Y5340
X16293Y5315
X18386Y5472
X18898Y5787
X19394Y6398
X16874Y9882
Y10433
Y10984
X16323
X15772
Y10433
X16323
Y9882
X15772
X15894Y13287
X16457Y14557
X17087Y14538
X17717
Y13966
X18874Y13937
X19394Y13287
X18622Y15109
X15365Y14685
X14793
X14591Y15334
X15646Y16079
X13250Y16260
X12677
X11772Y16142
X11094Y15768
X9911Y15827
X9915Y16457
X8974Y14490
X7761Y14139
X7381Y14546
X7357Y13735
X6533Y13703
X6580Y12750
X6108Y13065
X5080Y13243
X5220Y12157
X4602Y11998
X4263Y10894
X5152Y10478
X5557Y10073
X5334Y9810
X5911Y10428
X6299Y10236
X6665Y10410
X6286Y10762
X6499Y11296
X6178Y11617
X6329Y11985
X7092Y10832
X7244Y9764
X6924Y9454
X7711Y9483
X6817Y8538
X6412Y8943
X5900Y8431
X4533Y8361
X8931Y10407
X9650Y11750
X9359Y13225
X9724Y13504
X8189Y13504
X12394Y13287
X13894
X14370Y12402
X13493Y16811
X13386Y6929
X12894Y6890
X11890
X9362Y5807
X13779Y4451
X14342Y4445
X1704Y3878
X3794Y9843
X3465Y11654
X2746Y12165
X1121Y15906
X492Y18995
T03
X1181Y394
X1969
X2756
X3543
X3150Y1181
X3543Y1969
Y3150
X1378Y2165
X3937Y2756
X5118Y3150
X3937Y1181
X4331Y394
X6299
X8268
X9055
X9252Y2461
X11417Y2362
Y3150
X11811Y2756
Y1969
Y1181
Y394
X11417Y787
Y1575
X12766Y3502
X14468Y3150
X14961
X15453
X16339Y2953
X17441Y2530
X18110Y2362
Y3150
X18504Y2756
X18898Y3150
X19291Y2756
Y3543
X18504
X18898Y2362
X19291Y1969
X18504
X17717
X17323Y1575
X18110
Y787
X17717Y1181
X17323Y787
X16929Y1181
Y394
X17717
X18504
Y1181
X18898Y787
Y1575
X19291Y1181
Y394
X16142Y295
X14173
X13878Y5807
X12894
X11909
X10925
X11024Y7480
X10236Y7874
Y8661
Y9449
Y10236
X10630Y9843
Y10630
X10236Y11024
Y11811
X11024
X10630Y11417
X12205Y11811
X15354Y12598
X16142
X16929
X18504
Y11811
X18898Y12205
X19291Y11811
Y12598
X18898Y11417
Y10630
X18504Y10236
X17717
X17323Y9843
Y9055
Y8661
Y8268
Y7874
X15354Y7480
X14173
X12598
X10236Y7087
X9509Y6549
X8908Y6575
X8336
X8287Y7252
X7650Y6693
X7078
X6220Y6581
X5551Y6693
X5699Y5915
X4439Y5669
X4213Y5197
X4204Y4685
X4213Y6142
X3937Y7874
X4108Y8786
X6305Y8026
X7328Y9050
X8116Y9887
X8397Y5807
X8424Y5043
X8997
X11811Y4724
X16339Y3976
X18110Y3937
Y4724
X18504Y4331
X18898Y4724
Y3937
X19291Y4331
Y5118
Y10236
Y11024
X18504
X18110Y10630
X15354Y13780
Y14173
X10630Y14567
X6299
X5512
X4724
X3937
Y13780
X4331Y14173
X4724Y15748
X3937
X4331Y16142
X5118
X5906
X6693
X6299Y15748
X7087
X7480Y16142
X8268Y16535
X8661Y16929
X9055Y17323
X9449Y17717
X9843Y18110
X12992Y17323
X12598Y16929
X18504Y18110
X18898Y17717
X19291Y17323
X5512Y15748
Y4460
X3622Y4685
X3611Y5197
X3494Y6142
X2343
X1850
X2096Y5669
X1850Y5256
X2343
X2913Y4094
X787Y5906
X1476Y6988
X1181Y8661
Y9449
Y10236
Y11024
X394Y10630
Y9843
Y9055
X3794Y10414
X3150Y11417
Y15748
X3543Y16142
X2362Y14961
X1575Y15354
X787
X1378Y17520
T05
X591Y5118
T06
X4646Y2520
X5827
X7008
X8189
Y3701
X7008
X5827
X4646
T07
X3150Y13181
Y14181
T08
X5496Y819
X7346
M30
