G04*
G04 #@! TF.GenerationSoftware,Altium Limited,Altium Designer,25.0.2 (28)*
G04*
G04 Layer_Color=8421504*
%FSLAX25Y25*%
%MOIN*%
G70*
G04*
G04 #@! TF.SameCoordinates,77BAF947-F79B-4421-9DE9-08F6AA71662D*
G04*
G04*
G04 #@! TF.FilePolarity,Positive*
G04*
G01*
G75*
%ADD17R,0.05917X0.04106*%
%ADD18R,0.13386X0.03347*%
%ADD19R,0.13386X0.03346*%
%ADD20R,0.03788X0.03681*%
G04:AMPARAMS|DCode=21|XSize=11.81mil|YSize=23.62mil|CornerRadius=1.95mil|HoleSize=0mil|Usage=FLASHONLY|Rotation=90.000|XOffset=0mil|YOffset=0mil|HoleType=Round|Shape=RoundedRectangle|*
%AMROUNDEDRECTD21*
21,1,0.01181,0.01972,0,0,90.0*
21,1,0.00791,0.02362,0,0,90.0*
1,1,0.00390,0.00986,0.00396*
1,1,0.00390,0.00986,-0.00396*
1,1,0.00390,-0.00986,-0.00396*
1,1,0.00390,-0.00986,0.00396*
%
%ADD21ROUNDEDRECTD21*%
%ADD22R,0.03400X0.08700*%
G04:AMPARAMS|DCode=23|XSize=125.98mil|YSize=82.68mil|CornerRadius=2.07mil|HoleSize=0mil|Usage=FLASHONLY|Rotation=270.000|XOffset=0mil|YOffset=0mil|HoleType=Round|Shape=RoundedRectangle|*
%AMROUNDEDRECTD23*
21,1,0.12598,0.07854,0,0,270.0*
21,1,0.12185,0.08268,0,0,270.0*
1,1,0.00413,-0.03927,-0.06093*
1,1,0.00413,-0.03927,0.06093*
1,1,0.00413,0.03927,0.06093*
1,1,0.00413,0.03927,-0.06093*
%
%ADD23ROUNDEDRECTD23*%
G04:AMPARAMS|DCode=24|XSize=23.62mil|YSize=82.68mil|CornerRadius=2.01mil|HoleSize=0mil|Usage=FLASHONLY|Rotation=270.000|XOffset=0mil|YOffset=0mil|HoleType=Round|Shape=RoundedRectangle|*
%AMROUNDEDRECTD24*
21,1,0.02362,0.07866,0,0,270.0*
21,1,0.01961,0.08268,0,0,270.0*
1,1,0.00402,-0.03933,-0.00980*
1,1,0.00402,-0.03933,0.00980*
1,1,0.00402,0.03933,0.00980*
1,1,0.00402,0.03933,-0.00980*
%
%ADD24ROUNDEDRECTD24*%
%ADD25R,0.03858X0.03386*%
%ADD26R,0.03772X0.03591*%
%ADD27R,0.05328X0.07103*%
G04:AMPARAMS|DCode=28|XSize=37.64mil|YSize=12.3mil|CornerRadius=6.15mil|HoleSize=0mil|Usage=FLASHONLY|Rotation=90.000|XOffset=0mil|YOffset=0mil|HoleType=Round|Shape=RoundedRectangle|*
%AMROUNDEDRECTD28*
21,1,0.03764,0.00000,0,0,90.0*
21,1,0.02534,0.01230,0,0,90.0*
1,1,0.01230,0.00000,0.01267*
1,1,0.01230,0.00000,-0.01267*
1,1,0.01230,0.00000,-0.01267*
1,1,0.01230,0.00000,0.01267*
%
%ADD28ROUNDEDRECTD28*%
%ADD29R,0.01230X0.03764*%
%ADD30C,0.03937*%
%ADD31C,0.02953*%
%ADD32R,0.05512X0.04724*%
%ADD33R,0.02047X0.02047*%
G04:AMPARAMS|DCode=34|XSize=37.72mil|YSize=35.91mil|CornerRadius=0mil|HoleSize=0mil|Usage=FLASHONLY|Rotation=225.000|XOffset=0mil|YOffset=0mil|HoleType=Round|Shape=Rectangle|*
%AMROTATEDRECTD34*
4,1,4,0.00064,0.02603,0.02603,0.00064,-0.00064,-0.02603,-0.02603,-0.00064,0.00064,0.02603,0.0*
%
%ADD34ROTATEDRECTD34*%

G04:AMPARAMS|DCode=35|XSize=37.72mil|YSize=35.91mil|CornerRadius=0mil|HoleSize=0mil|Usage=FLASHONLY|Rotation=315.000|XOffset=0mil|YOffset=0mil|HoleType=Round|Shape=Rectangle|*
%AMROTATEDRECTD35*
4,1,4,-0.02603,0.00064,-0.00064,0.02603,0.02603,-0.00064,0.00064,-0.02603,-0.02603,0.00064,0.0*
%
%ADD35ROTATEDRECTD35*%

G04:AMPARAMS|DCode=36|XSize=33.86mil|YSize=38.58mil|CornerRadius=0mil|HoleSize=0mil|Usage=FLASHONLY|Rotation=45.000|XOffset=0mil|YOffset=0mil|HoleType=Round|Shape=Rectangle|*
%AMROTATEDRECTD36*
4,1,4,0.00167,-0.02561,-0.02561,0.00167,-0.00167,0.02561,0.02561,-0.00167,0.00167,-0.02561,0.0*
%
%ADD36ROTATEDRECTD36*%

G04:AMPARAMS|DCode=37|XSize=28.94mil|YSize=33.94mil|CornerRadius=0mil|HoleSize=0mil|Usage=FLASHONLY|Rotation=225.000|XOffset=0mil|YOffset=0mil|HoleType=Round|Shape=Rectangle|*
%AMROTATEDRECTD37*
4,1,4,-0.00177,0.02223,0.02223,-0.00177,0.00177,-0.02223,-0.02223,0.00177,-0.00177,0.02223,0.0*
%
%ADD37ROTATEDRECTD37*%

G04:AMPARAMS|DCode=38|XSize=36.81mil|YSize=37.88mil|CornerRadius=0mil|HoleSize=0mil|Usage=FLASHONLY|Rotation=135.000|XOffset=0mil|YOffset=0mil|HoleType=Round|Shape=Rectangle|*
%AMROTATEDRECTD38*
4,1,4,0.02641,0.00038,-0.00038,-0.02641,-0.02641,-0.00038,0.00038,0.02641,0.02641,0.00038,0.0*
%
%ADD38ROTATEDRECTD38*%

G04:AMPARAMS|DCode=39|XSize=36.81mil|YSize=37.88mil|CornerRadius=0mil|HoleSize=0mil|Usage=FLASHONLY|Rotation=45.000|XOffset=0mil|YOffset=0mil|HoleType=Round|Shape=Rectangle|*
%AMROTATEDRECTD39*
4,1,4,0.00038,-0.02641,-0.02641,0.00038,-0.00038,0.02641,0.02641,-0.00038,0.00038,-0.02641,0.0*
%
%ADD39ROTATEDRECTD39*%

%ADD40R,0.04153X0.03961*%
G04:AMPARAMS|DCode=41|XSize=23.75mil|YSize=9.81mil|CornerRadius=0mil|HoleSize=0mil|Usage=FLASHONLY|Rotation=45.000|XOffset=0mil|YOffset=0mil|HoleType=Round|Shape=Rectangle|*
%AMROTATEDRECTD41*
4,1,4,-0.00493,-0.01187,-0.01187,-0.00493,0.00493,0.01187,0.01187,0.00493,-0.00493,-0.01187,0.0*
%
%ADD41ROTATEDRECTD41*%

G04:AMPARAMS|DCode=42|XSize=55.12mil|YSize=62.99mil|CornerRadius=0mil|HoleSize=0mil|Usage=FLASHONLY|Rotation=45.000|XOffset=0mil|YOffset=0mil|HoleType=Round|Shape=Rectangle|*
%AMROTATEDRECTD42*
4,1,4,0.00278,-0.04176,-0.04176,0.00278,-0.00278,0.04176,0.04176,-0.00278,0.00278,-0.04176,0.0*
%
%ADD42ROTATEDRECTD42*%

%ADD43R,0.01000X0.01400*%
%ADD44R,0.04095X0.01811*%
%ADD45R,0.04528X0.02362*%
%ADD46R,0.04528X0.01181*%
%ADD47R,0.03543X0.03543*%
%ADD48R,0.03543X0.05906*%
G04:AMPARAMS|DCode=49|XSize=24mil|YSize=33mil|CornerRadius=0mil|HoleSize=0mil|Usage=FLASHONLY|Rotation=45.000|XOffset=0mil|YOffset=0mil|HoleType=Round|Shape=Rectangle|*
%AMROTATEDRECTD49*
4,1,4,0.00318,-0.02015,-0.02015,0.00318,-0.00318,0.02015,0.02015,-0.00318,0.00318,-0.02015,0.0*
%
%ADD49ROTATEDRECTD49*%

%ADD50O,0.05709X0.02362*%
G04:AMPARAMS|DCode=51|XSize=29.53mil|YSize=9.84mil|CornerRadius=4.92mil|HoleSize=0mil|Usage=FLASHONLY|Rotation=315.000|XOffset=0mil|YOffset=0mil|HoleType=Round|Shape=RoundedRectangle|*
%AMROUNDEDRECTD51*
21,1,0.02953,0.00000,0,0,315.0*
21,1,0.01968,0.00984,0,0,315.0*
1,1,0.00984,0.00696,-0.00696*
1,1,0.00984,-0.00696,0.00696*
1,1,0.00984,-0.00696,0.00696*
1,1,0.00984,0.00696,-0.00696*
%
%ADD51ROUNDEDRECTD51*%
G04:AMPARAMS|DCode=52|XSize=9.84mil|YSize=29.53mil|CornerRadius=4.92mil|HoleSize=0mil|Usage=FLASHONLY|Rotation=315.000|XOffset=0mil|YOffset=0mil|HoleType=Round|Shape=RoundedRectangle|*
%AMROUNDEDRECTD52*
21,1,0.00984,0.01968,0,0,315.0*
21,1,0.00000,0.02953,0,0,315.0*
1,1,0.00984,-0.00696,-0.00696*
1,1,0.00984,-0.00696,-0.00696*
1,1,0.00984,0.00696,0.00696*
1,1,0.00984,0.00696,0.00696*
%
%ADD52ROUNDEDRECTD52*%
%ADD53P,0.24777X4X360.0*%
%ADD54R,0.03681X0.03788*%
%ADD55R,0.02400X0.03300*%
%ADD56R,0.01400X0.01000*%
G04:AMPARAMS|DCode=57|XSize=9.45mil|YSize=23.62mil|CornerRadius=1.98mil|HoleSize=0mil|Usage=FLASHONLY|Rotation=180.000|XOffset=0mil|YOffset=0mil|HoleType=Round|Shape=RoundedRectangle|*
%AMROUNDEDRECTD57*
21,1,0.00945,0.01965,0,0,180.0*
21,1,0.00548,0.02362,0,0,180.0*
1,1,0.00397,-0.00274,0.00983*
1,1,0.00397,0.00274,0.00983*
1,1,0.00397,0.00274,-0.00983*
1,1,0.00397,-0.00274,-0.00983*
%
%ADD57ROUNDEDRECTD57*%
G04:AMPARAMS|DCode=58|XSize=9.45mil|YSize=23.62mil|CornerRadius=1.98mil|HoleSize=0mil|Usage=FLASHONLY|Rotation=270.000|XOffset=0mil|YOffset=0mil|HoleType=Round|Shape=RoundedRectangle|*
%AMROUNDEDRECTD58*
21,1,0.00945,0.01965,0,0,270.0*
21,1,0.00548,0.02362,0,0,270.0*
1,1,0.00397,-0.00983,-0.00274*
1,1,0.00397,-0.00983,0.00274*
1,1,0.00397,0.00983,0.00274*
1,1,0.00397,0.00983,-0.00274*
%
%ADD58ROUNDEDRECTD58*%
G04:AMPARAMS|DCode=59|XSize=80.71mil|YSize=80.71mil|CornerRadius=2.02mil|HoleSize=0mil|Usage=FLASHONLY|Rotation=270.000|XOffset=0mil|YOffset=0mil|HoleType=Round|Shape=RoundedRectangle|*
%AMROUNDEDRECTD59*
21,1,0.08071,0.07667,0,0,270.0*
21,1,0.07667,0.08071,0,0,270.0*
1,1,0.00404,-0.03834,-0.03834*
1,1,0.00404,-0.03834,0.03834*
1,1,0.00404,0.03834,0.03834*
1,1,0.00404,0.03834,-0.03834*
%
%ADD59ROUNDEDRECTD59*%
%ADD60R,0.04800X0.02200*%
%ADD61R,0.01600X0.01400*%
G04:AMPARAMS|DCode=62|XSize=48.2mil|YSize=21.18mil|CornerRadius=10.59mil|HoleSize=0mil|Usage=FLASHONLY|Rotation=0.000|XOffset=0mil|YOffset=0mil|HoleType=Round|Shape=RoundedRectangle|*
%AMROUNDEDRECTD62*
21,1,0.04820,0.00000,0,0,0.0*
21,1,0.02702,0.02118,0,0,0.0*
1,1,0.02118,0.01351,0.00000*
1,1,0.02118,-0.01351,0.00000*
1,1,0.02118,-0.01351,0.00000*
1,1,0.02118,0.01351,0.00000*
%
%ADD62ROUNDEDRECTD62*%
%ADD63R,0.04820X0.02118*%
%ADD64R,0.04050X0.02000*%
%ADD65R,0.03591X0.03772*%
%ADD66R,0.09843X0.03762*%
G04:AMPARAMS|DCode=67|XSize=55.12mil|YSize=47.24mil|CornerRadius=0mil|HoleSize=0mil|Usage=FLASHONLY|Rotation=135.000|XOffset=0mil|YOffset=0mil|HoleType=Round|Shape=Rectangle|*
%AMROTATEDRECTD67*
4,1,4,0.03619,-0.00278,0.00278,-0.03619,-0.03619,0.00278,-0.00278,0.03619,0.03619,-0.00278,0.0*
%
%ADD67ROTATEDRECTD67*%

G36*
G01X130315Y149412D02*
G01Y152636D01*
G02X130515Y152835I199J0D01*
G01X133738D01*
G02X133937Y152636I0J-199D01*
G01Y149412D01*
G02X133738Y149213I-199J0D01*
G01X130515D01*
G02X130315Y149412I0J199D01*
D02*
G37*
G36*
G01X129528Y152636D02*
G01Y149412D01*
G02X129329Y149213I-199J0D01*
G01X126105D01*
G02X125906Y149412I0J199D01*
G01Y152636D01*
G02X126105Y152835I199J0D01*
G01X129329D01*
G02X129528Y152636I0J-199D01*
D02*
G37*
G36*
G01Y148226D02*
G01Y145003D01*
G02X129329Y144804I-199J0D01*
G01X126105D01*
G02X125906Y145003I0J199D01*
G01Y148226D01*
G02X126105Y148426I199J0D01*
G01X129329D01*
G02X129528Y148226I0J-199D01*
D02*
G37*
G36*
G01X130315Y145003D02*
G01Y148226D01*
G02X130515Y148426I199J0D01*
G01X133738D01*
G02X133937Y148226I0J-199D01*
G01Y145003D01*
G02X133738Y144804I-199J0D01*
G01X130515D01*
G02X130315Y145003I0J199D01*
D02*
G37*
D17*
X72835Y53656D02*
D03*
Y58549D02*
D03*
D18*
X151429Y31429D02*
D03*
D19*
X151432Y31428D02*
D03*
D20*
X62205Y65809D02*
D03*
Y60176D02*
D03*
Y44832D02*
D03*
Y50465D02*
D03*
X100000Y13840D02*
D03*
Y8207D02*
D03*
X100394Y29467D02*
D03*
Y35100D02*
D03*
X168307Y31163D02*
D03*
Y25530D02*
D03*
X174409Y25530D02*
D03*
Y31163D02*
D03*
X5118Y127105D02*
D03*
Y132738D02*
D03*
Y146911D02*
D03*
Y141278D02*
D03*
X164567Y145336D02*
D03*
Y139703D02*
D03*
D21*
X67323Y59941D02*
D03*
Y57382D02*
D03*
Y54823D02*
D03*
Y52264D02*
D03*
X78347D02*
D03*
Y54823D02*
D03*
Y57382D02*
D03*
Y59941D02*
D03*
D22*
X4921Y6904D02*
D03*
X22638D02*
D03*
Y36404D02*
D03*
X4921D02*
D03*
X22638Y160447D02*
D03*
X4921D02*
D03*
Y189947D02*
D03*
X22638D02*
D03*
D23*
X20965Y56693D02*
D03*
D24*
X44390Y66693D02*
D03*
Y61693D02*
D03*
Y56693D02*
D03*
Y51693D02*
D03*
Y46693D02*
D03*
D25*
X95092Y65492D02*
D03*
Y71516D02*
D03*
D26*
X70778Y66929D02*
D03*
X76503D02*
D03*
X89083Y65748D02*
D03*
X83358D02*
D03*
X17035Y159055D02*
D03*
X11311D02*
D03*
X89969Y50428D02*
D03*
X84244D02*
D03*
X132496Y162598D02*
D03*
X126772D02*
D03*
X104831Y158268D02*
D03*
X99106D02*
D03*
X134933Y168110D02*
D03*
X140658D02*
D03*
X153650Y146850D02*
D03*
X147925D02*
D03*
X17035Y38780D02*
D03*
X11311D02*
D03*
D27*
X93618Y58071D02*
D03*
X83969D02*
D03*
D28*
X143752Y37248D02*
D03*
X146311D02*
D03*
X148870D02*
D03*
X151429D02*
D03*
X153988D02*
D03*
X156547D02*
D03*
X159106D02*
D03*
Y25610D02*
D03*
X156547D02*
D03*
X153988D02*
D03*
X151429D02*
D03*
X148870D02*
D03*
X146311D02*
D03*
D29*
X143752D02*
D03*
D30*
X133858Y13780D02*
D03*
X166535Y156693D02*
D03*
X150000Y179528D02*
D03*
X122441Y45276D02*
D03*
X111024D02*
D03*
X94488Y77953D02*
D03*
Y86221D02*
D03*
Y98425D02*
D03*
X120079Y171260D02*
D03*
X137795Y3937D02*
D03*
X5906Y69882D02*
D03*
D31*
X143701Y148819D02*
D03*
X144685Y141732D02*
D03*
X116601Y145669D02*
D03*
X111024Y151969D02*
D03*
D32*
X155661Y11634D02*
D03*
X146999D02*
D03*
Y18327D02*
D03*
X155661D02*
D03*
D33*
X161074Y13406D02*
D03*
Y16555D02*
D03*
X141783Y13799D02*
D03*
Y16949D02*
D03*
D34*
X73567Y137346D02*
D03*
X77614Y141394D02*
D03*
D35*
X57031Y134701D02*
D03*
X61079Y130653D02*
D03*
X46024Y119976D02*
D03*
X41976Y124024D02*
D03*
D36*
X92149Y126401D02*
D03*
X87889Y122141D02*
D03*
X95831Y122602D02*
D03*
X91571Y118343D02*
D03*
D37*
X68227Y124920D02*
D03*
X71654Y128347D02*
D03*
X75591Y124803D02*
D03*
X72164Y121377D02*
D03*
X79134Y121260D02*
D03*
X75708Y117834D02*
D03*
D38*
X69314Y133048D02*
D03*
X65331Y137031D02*
D03*
X93724Y140922D02*
D03*
X89741Y144905D02*
D03*
D39*
X69662Y141316D02*
D03*
X73645Y145299D02*
D03*
X87818Y130338D02*
D03*
X83835Y126355D02*
D03*
D40*
X33172Y121653D02*
D03*
X27458Y121654D02*
D03*
D41*
X75900Y133225D02*
D03*
X77292Y131834D02*
D03*
X78684Y130442D02*
D03*
X80076Y129050D02*
D03*
X87880Y136853D02*
D03*
X86488Y138245D02*
D03*
X85096Y139637D02*
D03*
X83704Y141029D02*
D03*
D42*
X81890Y135039D02*
D03*
D43*
X29528Y94700D02*
D03*
Y99000D02*
D03*
X29528Y106269D02*
D03*
Y101969D02*
D03*
D44*
X18937Y73819D02*
D03*
X28307D02*
D03*
D45*
X23917Y85827D02*
D03*
Y88976D02*
D03*
Y107874D02*
D03*
Y111024D02*
D03*
D46*
Y91535D02*
D03*
Y93504D02*
D03*
Y103347D02*
D03*
Y105315D02*
D03*
Y95472D02*
D03*
Y97441D02*
D03*
Y101378D02*
D03*
Y99409D02*
D03*
D47*
X157717Y98819D02*
D03*
Y104331D02*
D03*
Y109843D02*
D03*
X163228Y98819D02*
D03*
Y104331D02*
D03*
Y109843D02*
D03*
X168740Y98819D02*
D03*
Y104331D02*
D03*
Y109843D02*
D03*
D48*
X193937Y63976D02*
D03*
X188937D02*
D03*
X183937D02*
D03*
X178937D02*
D03*
X173937D02*
D03*
X168937D02*
D03*
X163937D02*
D03*
X158937D02*
D03*
X153937D02*
D03*
X148937D02*
D03*
X143937D02*
D03*
X138937D02*
D03*
X133937D02*
D03*
X128937D02*
D03*
X123937D02*
D03*
X118937D02*
D03*
X113937D02*
D03*
X108937D02*
D03*
X103937D02*
D03*
Y132874D02*
D03*
X108937D02*
D03*
X113937D02*
D03*
X118937D02*
D03*
X123937D02*
D03*
X128937D02*
D03*
X133937D02*
D03*
X138937D02*
D03*
X143937D02*
D03*
X148937D02*
D03*
X153937D02*
D03*
X158937D02*
D03*
X163937D02*
D03*
X168937D02*
D03*
X173937D02*
D03*
X178937D02*
D03*
X183937D02*
D03*
X188937D02*
D03*
X193937D02*
D03*
D49*
X79776Y114422D02*
D03*
X84514Y119160D02*
D03*
X88589Y114967D02*
D03*
X83852Y110230D02*
D03*
D50*
X127658Y3524D02*
D03*
Y8524D02*
D03*
Y13524D02*
D03*
Y18524D02*
D03*
X106201D02*
D03*
Y13524D02*
D03*
Y8524D02*
D03*
Y3524D02*
D03*
Y25017D02*
D03*
Y30017D02*
D03*
Y35017D02*
D03*
Y40017D02*
D03*
X127658D02*
D03*
Y35017D02*
D03*
Y30017D02*
D03*
Y25017D02*
D03*
D51*
X60695Y121601D02*
D03*
X59304Y120209D02*
D03*
X57912Y118817D02*
D03*
X56520Y117425D02*
D03*
X55128Y116033D02*
D03*
X53736Y114641D02*
D03*
X52344Y113249D02*
D03*
X50952Y111857D02*
D03*
X49560Y110466D02*
D03*
X48168Y109074D02*
D03*
X46776Y107682D02*
D03*
X45384Y106290D02*
D03*
X43992Y104898D02*
D03*
X42600Y103506D02*
D03*
X41208Y102114D02*
D03*
X39816Y100722D02*
D03*
X65289Y75249D02*
D03*
X66681Y76641D02*
D03*
X68073Y78033D02*
D03*
X69465Y79425D02*
D03*
X70857Y80817D02*
D03*
X72249Y82209D02*
D03*
X73641Y83601D02*
D03*
X75032Y84993D02*
D03*
X76424Y86385D02*
D03*
X77816Y87777D02*
D03*
X79208Y89169D02*
D03*
X80600Y90561D02*
D03*
X81992Y91953D02*
D03*
X83384Y93345D02*
D03*
X84776Y94737D02*
D03*
X86168Y96129D02*
D03*
D52*
X39816D02*
D03*
X41208Y94737D02*
D03*
X42600Y93345D02*
D03*
X43992Y91953D02*
D03*
X45384Y90561D02*
D03*
X46776Y89169D02*
D03*
X48168Y87777D02*
D03*
X49560Y86385D02*
D03*
X50952Y84993D02*
D03*
X52344Y83601D02*
D03*
X53736Y82209D02*
D03*
X55128Y80817D02*
D03*
X56520Y79425D02*
D03*
X57911Y78033D02*
D03*
X59304Y76641D02*
D03*
X60695Y75249D02*
D03*
X86168Y100722D02*
D03*
X84776Y102114D02*
D03*
X83384Y103506D02*
D03*
X81992Y104898D02*
D03*
X80600Y106290D02*
D03*
X79208Y107682D02*
D03*
X77816Y109074D02*
D03*
X76424Y110466D02*
D03*
X75032Y111857D02*
D03*
X73641Y113249D02*
D03*
X72249Y114641D02*
D03*
X70857Y116033D02*
D03*
X69465Y117425D02*
D03*
X68073Y118817D02*
D03*
X66681Y120209D02*
D03*
X65289Y121601D02*
D03*
D53*
X62992Y98425D02*
D03*
D54*
X162932Y53149D02*
D03*
X168564D02*
D03*
X162932Y46850D02*
D03*
X168565D02*
D03*
X151183Y47200D02*
D03*
X156816D02*
D03*
X151084Y53400D02*
D03*
X156717D02*
D03*
X137785Y44508D02*
D03*
X143418D02*
D03*
X99152Y164567D02*
D03*
X104785D02*
D03*
X147577Y168110D02*
D03*
X153210D02*
D03*
D55*
X89570Y72524D02*
D03*
X82871D02*
D03*
D56*
X34434Y88976D02*
D03*
X30134D02*
D03*
D57*
X126969Y155315D02*
D03*
X132874D02*
D03*
Y142323D02*
D03*
X126969D02*
D03*
D58*
X136418Y152756D02*
D03*
Y150787D02*
D03*
Y148819D02*
D03*
Y146850D02*
D03*
Y144882D02*
D03*
X123426D02*
D03*
Y146850D02*
D03*
Y148819D02*
D03*
Y150787D02*
D03*
Y152756D02*
D03*
D59*
X129921Y148819D02*
D03*
D60*
X19948Y129921D02*
D03*
X11548Y126181D02*
D03*
Y133661D02*
D03*
Y147835D02*
D03*
Y140354D02*
D03*
X19948Y144095D02*
D03*
D61*
X98619Y170079D02*
D03*
X105319D02*
D03*
X153744Y174016D02*
D03*
X147044D02*
D03*
D62*
X117717Y161417D02*
D03*
X110943Y157677D02*
D03*
D63*
Y165158D02*
D03*
D64*
X156456Y153387D02*
D03*
Y157087D02*
D03*
Y160787D02*
D03*
X145906Y160837D02*
D03*
Y153337D02*
D03*
D65*
X170866Y139658D02*
D03*
Y145382D02*
D03*
X177165Y139658D02*
D03*
Y145382D02*
D03*
D66*
X186221Y151094D02*
D03*
Y139458D02*
D03*
D67*
X46071Y127696D02*
D03*
X50804Y132429D02*
D03*
X56928Y126304D02*
D03*
X52196Y121572D02*
D03*
M02*
