G04*
G04 #@! TF.GenerationSoftware,Altium Limited,Altium Designer,25.0.2 (28)*
G04*
G04 Layer_Color=8388736*
%FSLAX25Y25*%
%MOIN*%
G70*
G04*
G04 #@! TF.SameCoordinates,77BAF947-F79B-4421-9DE9-08F6AA71662D*
G04*
G04*
G04 #@! TF.FilePolarity,Negative*
G04*
G01*
G75*
%ADD27R,0.05328X0.07103*%
G04:AMPARAMS|DCode=28|XSize=37.64mil|YSize=12.3mil|CornerRadius=6.15mil|HoleSize=0mil|Usage=FLASHONLY|Rotation=90.000|XOffset=0mil|YOffset=0mil|HoleType=Round|Shape=RoundedRectangle|*
%AMROUNDEDRECTD28*
21,1,0.03764,0.00000,0,0,90.0*
21,1,0.02534,0.01230,0,0,90.0*
1,1,0.01230,0.00000,0.01267*
1,1,0.01230,0.00000,-0.01267*
1,1,0.01230,0.00000,-0.01267*
1,1,0.01230,0.00000,0.01267*
%
%ADD28ROUNDEDRECTD28*%
%ADD29R,0.01230X0.03764*%
%ADD32R,0.05512X0.04724*%
%ADD68R,0.04588X0.04481*%
G04:AMPARAMS|DCode=69|XSize=19.81mil|YSize=31.62mil|CornerRadius=5.95mil|HoleSize=0mil|Usage=FLASHONLY|Rotation=90.000|XOffset=0mil|YOffset=0mil|HoleType=Round|Shape=RoundedRectangle|*
%AMROUNDEDRECTD69*
21,1,0.01981,0.01972,0,0,90.0*
21,1,0.00791,0.03162,0,0,90.0*
1,1,0.01190,0.00986,0.00396*
1,1,0.01190,0.00986,-0.00396*
1,1,0.01190,-0.00986,-0.00396*
1,1,0.01190,-0.00986,0.00396*
%
%ADD69ROUNDEDRECTD69*%
G04:AMPARAMS|DCode=70|XSize=72.96mil|YSize=102.49mil|CornerRadius=5.95mil|HoleSize=0mil|Usage=FLASHONLY|Rotation=0.000|XOffset=0mil|YOffset=0mil|HoleType=Round|Shape=RoundedRectangle|*
%AMROUNDEDRECTD70*
21,1,0.07296,0.09059,0,0,0.0*
21,1,0.06106,0.10249,0,0,0.0*
1,1,0.01190,0.03053,-0.04530*
1,1,0.01190,-0.03053,-0.04530*
1,1,0.01190,-0.03053,0.04530*
1,1,0.01190,0.03053,0.04530*
%
%ADD70ROUNDEDRECTD70*%
%ADD71R,0.04200X0.09500*%
G04:AMPARAMS|DCode=72|XSize=133.98mil|YSize=90.68mil|CornerRadius=6.07mil|HoleSize=0mil|Usage=FLASHONLY|Rotation=270.000|XOffset=0mil|YOffset=0mil|HoleType=Round|Shape=RoundedRectangle|*
%AMROUNDEDRECTD72*
21,1,0.13398,0.07854,0,0,270.0*
21,1,0.12185,0.09068,0,0,270.0*
1,1,0.01213,-0.03927,-0.06093*
1,1,0.01213,-0.03927,0.06093*
1,1,0.01213,0.03927,0.06093*
1,1,0.01213,0.03927,-0.06093*
%
%ADD72ROUNDEDRECTD72*%
G04:AMPARAMS|DCode=73|XSize=31.62mil|YSize=90.68mil|CornerRadius=6.01mil|HoleSize=0mil|Usage=FLASHONLY|Rotation=270.000|XOffset=0mil|YOffset=0mil|HoleType=Round|Shape=RoundedRectangle|*
%AMROUNDEDRECTD73*
21,1,0.03162,0.07866,0,0,270.0*
21,1,0.01961,0.09068,0,0,270.0*
1,1,0.01202,-0.03933,-0.00980*
1,1,0.01202,-0.03933,0.00980*
1,1,0.01202,0.03933,0.00980*
1,1,0.01202,0.03933,-0.00980*
%
%ADD73ROUNDEDRECTD73*%
%ADD74R,0.04658X0.04186*%
%ADD75R,0.04572X0.04391*%
%ADD76R,0.16732X0.06693*%
%ADD77C,0.04737*%
%ADD78C,0.03753*%
%ADD79R,0.02847X0.02847*%
G04:AMPARAMS|DCode=80|XSize=45.72mil|YSize=43.91mil|CornerRadius=0mil|HoleSize=0mil|Usage=FLASHONLY|Rotation=225.000|XOffset=0mil|YOffset=0mil|HoleType=Round|Shape=Rectangle|*
%AMROTATEDRECTD80*
4,1,4,0.00064,0.03169,0.03169,0.00064,-0.00064,-0.03169,-0.03169,-0.00064,0.00064,0.03169,0.0*
%
%ADD80ROTATEDRECTD80*%

G04:AMPARAMS|DCode=81|XSize=45.72mil|YSize=43.91mil|CornerRadius=0mil|HoleSize=0mil|Usage=FLASHONLY|Rotation=315.000|XOffset=0mil|YOffset=0mil|HoleType=Round|Shape=Rectangle|*
%AMROTATEDRECTD81*
4,1,4,-0.03169,0.00064,-0.00064,0.03169,0.03169,-0.00064,0.00064,-0.03169,-0.03169,0.00064,0.0*
%
%ADD81ROTATEDRECTD81*%

G04:AMPARAMS|DCode=82|XSize=41.86mil|YSize=46.58mil|CornerRadius=0mil|HoleSize=0mil|Usage=FLASHONLY|Rotation=45.000|XOffset=0mil|YOffset=0mil|HoleType=Round|Shape=Rectangle|*
%AMROTATEDRECTD82*
4,1,4,0.00167,-0.03127,-0.03127,0.00167,-0.00167,0.03127,0.03127,-0.00167,0.00167,-0.03127,0.0*
%
%ADD82ROTATEDRECTD82*%

G04:AMPARAMS|DCode=83|XSize=36.94mil|YSize=41.94mil|CornerRadius=0mil|HoleSize=0mil|Usage=FLASHONLY|Rotation=225.000|XOffset=0mil|YOffset=0mil|HoleType=Round|Shape=Rectangle|*
%AMROTATEDRECTD83*
4,1,4,-0.00177,0.02789,0.02789,-0.00177,0.00177,-0.02789,-0.02789,0.00177,-0.00177,0.02789,0.0*
%
%ADD83ROTATEDRECTD83*%

G04:AMPARAMS|DCode=84|XSize=44.81mil|YSize=45.88mil|CornerRadius=0mil|HoleSize=0mil|Usage=FLASHONLY|Rotation=135.000|XOffset=0mil|YOffset=0mil|HoleType=Round|Shape=Rectangle|*
%AMROTATEDRECTD84*
4,1,4,0.03207,0.00038,-0.00038,-0.03207,-0.03207,-0.00038,0.00038,0.03207,0.03207,0.00038,0.0*
%
%ADD84ROTATEDRECTD84*%

G04:AMPARAMS|DCode=85|XSize=44.81mil|YSize=45.88mil|CornerRadius=0mil|HoleSize=0mil|Usage=FLASHONLY|Rotation=45.000|XOffset=0mil|YOffset=0mil|HoleType=Round|Shape=Rectangle|*
%AMROTATEDRECTD85*
4,1,4,0.00038,-0.03207,-0.03207,0.00038,-0.00038,0.03207,0.03207,-0.00038,0.00038,-0.03207,0.0*
%
%ADD85ROTATEDRECTD85*%

%ADD86R,0.04953X0.04761*%
G04:AMPARAMS|DCode=87|XSize=31.75mil|YSize=17.81mil|CornerRadius=0mil|HoleSize=0mil|Usage=FLASHONLY|Rotation=45.000|XOffset=0mil|YOffset=0mil|HoleType=Round|Shape=Rectangle|*
%AMROTATEDRECTD87*
4,1,4,-0.00493,-0.01752,-0.01752,-0.00493,0.00493,0.01752,0.01752,0.00493,-0.00493,-0.01752,0.0*
%
%ADD87ROTATEDRECTD87*%

G04:AMPARAMS|DCode=88|XSize=63.12mil|YSize=70.99mil|CornerRadius=0mil|HoleSize=0mil|Usage=FLASHONLY|Rotation=45.000|XOffset=0mil|YOffset=0mil|HoleType=Round|Shape=Rectangle|*
%AMROTATEDRECTD88*
4,1,4,0.00278,-0.04742,-0.04742,0.00278,-0.00278,0.04742,0.04742,-0.00278,0.00278,-0.04742,0.0*
%
%ADD88ROTATEDRECTD88*%

%ADD89R,0.01800X0.02200*%
%ADD90R,0.04895X0.02611*%
%ADD91R,0.05328X0.03162*%
%ADD92R,0.05328X0.01981*%
%ADD93R,0.04343X0.04343*%
%ADD94R,0.04343X0.06706*%
G04:AMPARAMS|DCode=95|XSize=32mil|YSize=41mil|CornerRadius=0mil|HoleSize=0mil|Usage=FLASHONLY|Rotation=45.000|XOffset=0mil|YOffset=0mil|HoleType=Round|Shape=Rectangle|*
%AMROTATEDRECTD95*
4,1,4,0.00318,-0.02581,-0.02581,0.00318,-0.00318,0.02581,0.02581,-0.00318,0.00318,-0.02581,0.0*
%
%ADD95ROTATEDRECTD95*%

%ADD96O,0.06509X0.03162*%
G04:AMPARAMS|DCode=97|XSize=37.53mil|YSize=17.84mil|CornerRadius=8.92mil|HoleSize=0mil|Usage=FLASHONLY|Rotation=315.000|XOffset=0mil|YOffset=0mil|HoleType=Round|Shape=RoundedRectangle|*
%AMROUNDEDRECTD97*
21,1,0.03753,0.00000,0,0,315.0*
21,1,0.01968,0.01784,0,0,315.0*
1,1,0.01784,0.00696,-0.00696*
1,1,0.01784,-0.00696,0.00696*
1,1,0.01784,-0.00696,0.00696*
1,1,0.01784,0.00696,-0.00696*
%
%ADD97ROUNDEDRECTD97*%
G04:AMPARAMS|DCode=98|XSize=17.84mil|YSize=37.53mil|CornerRadius=8.92mil|HoleSize=0mil|Usage=FLASHONLY|Rotation=315.000|XOffset=0mil|YOffset=0mil|HoleType=Round|Shape=RoundedRectangle|*
%AMROUNDEDRECTD98*
21,1,0.01784,0.01968,0,0,315.0*
21,1,0.00000,0.03753,0,0,315.0*
1,1,0.01784,-0.00696,-0.00696*
1,1,0.01784,-0.00696,-0.00696*
1,1,0.01784,0.00696,0.00696*
1,1,0.01784,0.00696,0.00696*
%
%ADD98ROUNDEDRECTD98*%
%ADD99P,0.25908X4X360.0*%
%ADD100R,0.04481X0.04588*%
%ADD101R,0.03200X0.04100*%
%ADD102R,0.02200X0.01800*%
G04:AMPARAMS|DCode=103|XSize=17.45mil|YSize=31.62mil|CornerRadius=5.98mil|HoleSize=0mil|Usage=FLASHONLY|Rotation=180.000|XOffset=0mil|YOffset=0mil|HoleType=Round|Shape=RoundedRectangle|*
%AMROUNDEDRECTD103*
21,1,0.01745,0.01965,0,0,180.0*
21,1,0.00548,0.03162,0,0,180.0*
1,1,0.01197,-0.00274,0.00983*
1,1,0.01197,0.00274,0.00983*
1,1,0.01197,0.00274,-0.00983*
1,1,0.01197,-0.00274,-0.00983*
%
%ADD103ROUNDEDRECTD103*%
G04:AMPARAMS|DCode=104|XSize=17.45mil|YSize=31.62mil|CornerRadius=5.98mil|HoleSize=0mil|Usage=FLASHONLY|Rotation=270.000|XOffset=0mil|YOffset=0mil|HoleType=Round|Shape=RoundedRectangle|*
%AMROUNDEDRECTD104*
21,1,0.01745,0.01965,0,0,270.0*
21,1,0.00548,0.03162,0,0,270.0*
1,1,0.01197,-0.00983,-0.00274*
1,1,0.01197,-0.00983,0.00274*
1,1,0.01197,0.00983,0.00274*
1,1,0.01197,0.00983,-0.00274*
%
%ADD104ROUNDEDRECTD104*%
G04:AMPARAMS|DCode=105|XSize=88.71mil|YSize=88.71mil|CornerRadius=6.02mil|HoleSize=0mil|Usage=FLASHONLY|Rotation=270.000|XOffset=0mil|YOffset=0mil|HoleType=Round|Shape=RoundedRectangle|*
%AMROUNDEDRECTD105*
21,1,0.08871,0.07667,0,0,270.0*
21,1,0.07667,0.08871,0,0,270.0*
1,1,0.01204,-0.03834,-0.03834*
1,1,0.01204,-0.03834,0.03834*
1,1,0.01204,0.03834,0.03834*
1,1,0.01204,0.03834,-0.03834*
%
%ADD105ROUNDEDRECTD105*%
%ADD106R,0.05600X0.03000*%
%ADD107R,0.02400X0.02200*%
G04:AMPARAMS|DCode=108|XSize=56.2mil|YSize=29.18mil|CornerRadius=14.59mil|HoleSize=0mil|Usage=FLASHONLY|Rotation=0.000|XOffset=0mil|YOffset=0mil|HoleType=Round|Shape=RoundedRectangle|*
%AMROUNDEDRECTD108*
21,1,0.05620,0.00000,0,0,0.0*
21,1,0.02702,0.02918,0,0,0.0*
1,1,0.02918,0.01351,0.00000*
1,1,0.02918,-0.01351,0.00000*
1,1,0.02918,-0.01351,0.00000*
1,1,0.02918,0.01351,0.00000*
%
%ADD108ROUNDEDRECTD108*%
%ADD109R,0.05620X0.02918*%
%ADD110R,0.04850X0.02800*%
%ADD111R,0.04391X0.04572*%
%ADD112R,0.10642X0.04562*%
G04:AMPARAMS|DCode=113|XSize=63.12mil|YSize=55.24mil|CornerRadius=0mil|HoleSize=0mil|Usage=FLASHONLY|Rotation=135.000|XOffset=0mil|YOffset=0mil|HoleType=Round|Shape=Rectangle|*
%AMROTATEDRECTD113*
4,1,4,0.04185,-0.00278,0.00278,-0.04185,-0.04185,0.00278,-0.00278,0.04185,0.04185,-0.00278,0.0*
%
%ADD113ROTATEDRECTD113*%

%ADD114C,0.06800*%
%ADD115C,0.07099*%
G04:AMPARAMS|DCode=116|XSize=70.99mil|YSize=70.99mil|CornerRadius=19.75mil|HoleSize=0mil|Usage=FLASHONLY|Rotation=270.000|XOffset=0mil|YOffset=0mil|HoleType=Round|Shape=RoundedRectangle|*
%AMROUNDEDRECTD116*
21,1,0.07099,0.03150,0,0,270.0*
21,1,0.03150,0.07099,0,0,270.0*
1,1,0.03950,-0.01575,-0.01575*
1,1,0.03950,-0.01575,0.01575*
1,1,0.03950,0.01575,0.01575*
1,1,0.03950,0.01575,-0.01575*
%
%ADD116ROUNDEDRECTD116*%
%ADD117O,0.08477X0.04934*%
%ADD118O,0.06902X0.04934*%
%ADD119C,0.12611*%
%ADD120C,0.06981*%
%ADD121R,0.06981X0.06981*%
%ADD122C,0.02611*%
%ADD123C,0.03162*%
%ADD124C,0.02769*%
D27*
X93618Y58071D02*
D03*
X83969D02*
D03*
D28*
X143752Y37248D02*
D03*
X146311D02*
D03*
X148870D02*
D03*
X151429D02*
D03*
X153988D02*
D03*
X156547D02*
D03*
X159106D02*
D03*
Y25610D02*
D03*
X156547D02*
D03*
X153988D02*
D03*
X151429D02*
D03*
X148870D02*
D03*
X146311D02*
D03*
D29*
X143752D02*
D03*
D32*
X155661Y11634D02*
D03*
X146999D02*
D03*
Y18327D02*
D03*
X155661D02*
D03*
D68*
X62205Y65809D02*
D03*
Y60176D02*
D03*
Y44832D02*
D03*
Y50465D02*
D03*
X100000Y13840D02*
D03*
Y8207D02*
D03*
X100394Y29467D02*
D03*
Y35100D02*
D03*
X168307Y31163D02*
D03*
Y25530D02*
D03*
X174409Y25530D02*
D03*
Y31163D02*
D03*
X5118Y127105D02*
D03*
Y132738D02*
D03*
Y146911D02*
D03*
Y141278D02*
D03*
X164567Y145336D02*
D03*
Y139703D02*
D03*
D69*
X67323Y59941D02*
D03*
Y57382D02*
D03*
Y54823D02*
D03*
Y52264D02*
D03*
X78347D02*
D03*
Y54823D02*
D03*
Y57382D02*
D03*
Y59941D02*
D03*
D70*
X72835Y56102D02*
D03*
D71*
X4921Y6904D02*
D03*
X22638D02*
D03*
Y36404D02*
D03*
X4921D02*
D03*
X22638Y160447D02*
D03*
X4921D02*
D03*
Y189947D02*
D03*
X22638D02*
D03*
D72*
X20965Y56693D02*
D03*
D73*
X44390Y66693D02*
D03*
Y61693D02*
D03*
Y56693D02*
D03*
Y51693D02*
D03*
Y46693D02*
D03*
D74*
X95092Y65492D02*
D03*
Y71516D02*
D03*
D75*
X70778Y66929D02*
D03*
X76503D02*
D03*
X89083Y65748D02*
D03*
X83358D02*
D03*
X17035Y159055D02*
D03*
X11311D02*
D03*
X89969Y50428D02*
D03*
X84244D02*
D03*
X132496Y162598D02*
D03*
X126772D02*
D03*
X104831Y158268D02*
D03*
X99106D02*
D03*
X134933Y168110D02*
D03*
X140658D02*
D03*
X153650Y146850D02*
D03*
X147925D02*
D03*
X17035Y38780D02*
D03*
X11311D02*
D03*
D76*
X151429Y31429D02*
D03*
D77*
X133858Y13780D02*
D03*
X166535Y156693D02*
D03*
X150000Y179528D02*
D03*
X122441Y45276D02*
D03*
X111024D02*
D03*
X94488Y77953D02*
D03*
Y86221D02*
D03*
Y98425D02*
D03*
X120079Y171260D02*
D03*
X137795Y3937D02*
D03*
X5906Y69882D02*
D03*
D78*
X143701Y148819D02*
D03*
X144685Y141732D02*
D03*
X116601Y145669D02*
D03*
X111024Y151969D02*
D03*
D79*
X161074Y13406D02*
D03*
Y16555D02*
D03*
X141783Y13799D02*
D03*
Y16949D02*
D03*
D80*
X73567Y137346D02*
D03*
X77614Y141394D02*
D03*
D81*
X57031Y134701D02*
D03*
X61079Y130653D02*
D03*
X46024Y119976D02*
D03*
X41976Y124024D02*
D03*
D82*
X92149Y126401D02*
D03*
X87889Y122141D02*
D03*
X95831Y122602D02*
D03*
X91571Y118343D02*
D03*
D83*
X68227Y124920D02*
D03*
X71654Y128347D02*
D03*
X75591Y124803D02*
D03*
X72164Y121377D02*
D03*
X79134Y121260D02*
D03*
X75708Y117834D02*
D03*
D84*
X69314Y133048D02*
D03*
X65331Y137031D02*
D03*
X93724Y140922D02*
D03*
X89741Y144905D02*
D03*
D85*
X69662Y141316D02*
D03*
X73645Y145299D02*
D03*
X87818Y130338D02*
D03*
X83835Y126355D02*
D03*
D86*
X33172Y121653D02*
D03*
X27458Y121654D02*
D03*
D87*
X75900Y133225D02*
D03*
X77292Y131834D02*
D03*
X78684Y130442D02*
D03*
X80076Y129050D02*
D03*
X87880Y136853D02*
D03*
X86488Y138245D02*
D03*
X85096Y139637D02*
D03*
X83704Y141029D02*
D03*
D88*
X81890Y135039D02*
D03*
D89*
X29528Y94700D02*
D03*
Y99000D02*
D03*
X29528Y106269D02*
D03*
Y101969D02*
D03*
D90*
X18937Y73819D02*
D03*
X28307D02*
D03*
D91*
X23917Y85827D02*
D03*
Y88976D02*
D03*
Y107874D02*
D03*
Y111024D02*
D03*
D92*
Y91535D02*
D03*
Y93504D02*
D03*
Y103347D02*
D03*
Y105315D02*
D03*
Y95472D02*
D03*
Y97441D02*
D03*
Y101378D02*
D03*
Y99409D02*
D03*
D93*
X157717Y98819D02*
D03*
Y104331D02*
D03*
Y109843D02*
D03*
X163228Y98819D02*
D03*
Y104331D02*
D03*
Y109843D02*
D03*
X168740Y98819D02*
D03*
Y104331D02*
D03*
Y109843D02*
D03*
D94*
X193937Y63976D02*
D03*
X188937D02*
D03*
X183937D02*
D03*
X178937D02*
D03*
X173937D02*
D03*
X168937D02*
D03*
X163937D02*
D03*
X158937D02*
D03*
X153937D02*
D03*
X148937D02*
D03*
X143937D02*
D03*
X138937D02*
D03*
X133937D02*
D03*
X128937D02*
D03*
X123937D02*
D03*
X118937D02*
D03*
X113937D02*
D03*
X108937D02*
D03*
X103937D02*
D03*
Y132874D02*
D03*
X108937D02*
D03*
X113937D02*
D03*
X118937D02*
D03*
X123937D02*
D03*
X128937D02*
D03*
X133937D02*
D03*
X138937D02*
D03*
X143937D02*
D03*
X148937D02*
D03*
X153937D02*
D03*
X158937D02*
D03*
X163937D02*
D03*
X168937D02*
D03*
X173937D02*
D03*
X178937D02*
D03*
X183937D02*
D03*
X188937D02*
D03*
X193937D02*
D03*
D95*
X79776Y114422D02*
D03*
X84514Y119160D02*
D03*
X88589Y114967D02*
D03*
X83852Y110230D02*
D03*
D96*
X127658Y3524D02*
D03*
Y8524D02*
D03*
Y13524D02*
D03*
Y18524D02*
D03*
X106201D02*
D03*
Y13524D02*
D03*
Y8524D02*
D03*
Y3524D02*
D03*
Y25017D02*
D03*
Y30017D02*
D03*
Y35017D02*
D03*
Y40017D02*
D03*
X127658D02*
D03*
Y35017D02*
D03*
Y30017D02*
D03*
Y25017D02*
D03*
D97*
X60695Y121601D02*
D03*
X59304Y120209D02*
D03*
X57912Y118817D02*
D03*
X56520Y117425D02*
D03*
X55128Y116033D02*
D03*
X53736Y114641D02*
D03*
X52344Y113249D02*
D03*
X50952Y111857D02*
D03*
X49560Y110466D02*
D03*
X48168Y109074D02*
D03*
X46776Y107682D02*
D03*
X45384Y106290D02*
D03*
X43992Y104898D02*
D03*
X42600Y103506D02*
D03*
X41208Y102114D02*
D03*
X39816Y100722D02*
D03*
X65289Y75249D02*
D03*
X66681Y76641D02*
D03*
X68073Y78033D02*
D03*
X69465Y79425D02*
D03*
X70857Y80817D02*
D03*
X72249Y82209D02*
D03*
X73641Y83601D02*
D03*
X75032Y84993D02*
D03*
X76424Y86385D02*
D03*
X77816Y87777D02*
D03*
X79208Y89169D02*
D03*
X80600Y90561D02*
D03*
X81992Y91953D02*
D03*
X83384Y93345D02*
D03*
X84776Y94737D02*
D03*
X86168Y96129D02*
D03*
D98*
X39816D02*
D03*
X41208Y94737D02*
D03*
X42600Y93345D02*
D03*
X43992Y91953D02*
D03*
X45384Y90561D02*
D03*
X46776Y89169D02*
D03*
X48168Y87777D02*
D03*
X49560Y86385D02*
D03*
X50952Y84993D02*
D03*
X52344Y83601D02*
D03*
X53736Y82209D02*
D03*
X55128Y80817D02*
D03*
X56520Y79425D02*
D03*
X57911Y78033D02*
D03*
X59304Y76641D02*
D03*
X60695Y75249D02*
D03*
X86168Y100722D02*
D03*
X84776Y102114D02*
D03*
X83384Y103506D02*
D03*
X81992Y104898D02*
D03*
X80600Y106290D02*
D03*
X79208Y107682D02*
D03*
X77816Y109074D02*
D03*
X76424Y110466D02*
D03*
X75032Y111857D02*
D03*
X73641Y113249D02*
D03*
X72249Y114641D02*
D03*
X70857Y116033D02*
D03*
X69465Y117425D02*
D03*
X68073Y118817D02*
D03*
X66681Y120209D02*
D03*
X65289Y121601D02*
D03*
D99*
X62992Y98425D02*
D03*
D100*
X162932Y53149D02*
D03*
X168564D02*
D03*
X162932Y46850D02*
D03*
X168565D02*
D03*
X151183Y47200D02*
D03*
X156816D02*
D03*
X151084Y53400D02*
D03*
X156717D02*
D03*
X137785Y44508D02*
D03*
X143418D02*
D03*
X99152Y164567D02*
D03*
X104785D02*
D03*
X147577Y168110D02*
D03*
X153210D02*
D03*
D101*
X89570Y72524D02*
D03*
X82871D02*
D03*
D102*
X34434Y88976D02*
D03*
X30134D02*
D03*
D103*
X126969Y155315D02*
D03*
X132874D02*
D03*
Y142323D02*
D03*
X126969D02*
D03*
D104*
X136418Y152756D02*
D03*
Y150787D02*
D03*
Y148819D02*
D03*
Y146850D02*
D03*
Y144882D02*
D03*
X123426D02*
D03*
Y146850D02*
D03*
Y148819D02*
D03*
Y150787D02*
D03*
Y152756D02*
D03*
D105*
X129921Y148819D02*
D03*
D106*
X19948Y129921D02*
D03*
X11548Y126181D02*
D03*
Y133661D02*
D03*
Y147835D02*
D03*
Y140354D02*
D03*
X19948Y144095D02*
D03*
D107*
X98619Y170079D02*
D03*
X105319D02*
D03*
X153744Y174016D02*
D03*
X147044D02*
D03*
D108*
X117717Y161417D02*
D03*
X110943Y157677D02*
D03*
D109*
Y165158D02*
D03*
D110*
X156456Y153387D02*
D03*
Y157087D02*
D03*
Y160787D02*
D03*
X145906Y160837D02*
D03*
Y153337D02*
D03*
D111*
X170866Y139658D02*
D03*
Y145382D02*
D03*
X177165Y139658D02*
D03*
Y145382D02*
D03*
D112*
X186221Y151094D02*
D03*
Y139458D02*
D03*
D113*
X46071Y127696D02*
D03*
X50804Y132429D02*
D03*
X56928Y126304D02*
D03*
X52196Y121572D02*
D03*
D114*
X5906Y51181D02*
D03*
D115*
X31496Y131811D02*
D03*
D116*
Y141811D02*
D03*
D117*
X5906Y81417D02*
D03*
Y115433D02*
D03*
D118*
X21654Y81417D02*
D03*
Y115433D02*
D03*
D119*
X73465Y8189D02*
D03*
X54961D02*
D03*
D120*
X46457Y25197D02*
D03*
X58268D02*
D03*
X70079D02*
D03*
X81890Y37008D02*
D03*
X70079D02*
D03*
X58268D02*
D03*
X46457D02*
D03*
D121*
X81890Y25197D02*
D03*
D122*
X85546Y106216D02*
D03*
X148031Y42520D02*
D03*
X151575D02*
D03*
X137571Y28679D02*
D03*
X138212Y25475D02*
D03*
X85331Y85303D02*
D03*
X81890Y86695D02*
D03*
X4921Y121063D02*
D03*
X37402Y92520D02*
D03*
X37014Y88976D02*
D03*
X32677Y94488D02*
D03*
X49606Y90662D02*
D03*
X47667Y94459D02*
D03*
X62913Y123559D02*
D03*
X123748Y155032D02*
D03*
X116142Y152756D02*
D03*
X121260Y137922D02*
D03*
X122164Y141062D02*
D03*
X140657Y148571D02*
D03*
X140551Y145276D02*
D03*
X89775Y135816D02*
D03*
X45603Y111090D02*
D03*
X69749Y75194D02*
D03*
X119806Y145286D02*
D03*
X118898Y148425D02*
D03*
X139370Y151575D02*
D03*
X139764Y155083D02*
D03*
X149238Y22356D02*
D03*
X63878Y54823D02*
D03*
X78347Y59941D02*
D03*
X29528Y36417D02*
D03*
X5906Y136811D02*
D03*
X100394Y141732D02*
D03*
X128937Y124016D02*
D03*
X87598Y92520D02*
D03*
X140551Y141732D02*
D03*
X136221Y126378D02*
D03*
X49606Y81102D02*
D03*
X54505Y86402D02*
D03*
X57087Y89370D02*
D03*
X103937Y126772D02*
D03*
X40157Y119291D02*
D03*
X37795Y121653D02*
D03*
X94882Y170079D02*
D03*
X163779Y20866D02*
D03*
X164567Y17717D02*
D03*
Y14567D02*
D03*
Y11417D02*
D03*
X138189Y19685D02*
D03*
Y16535D02*
D03*
Y13386D02*
D03*
Y10236D02*
D03*
X140945Y8661D02*
D03*
X142913Y6299D02*
D03*
X146850D02*
D03*
X151181D02*
D03*
X155905D02*
D03*
X159843Y6693D02*
D03*
X162205Y9055D02*
D03*
X141783Y16949D02*
D03*
X161074Y13406D02*
D03*
X133071Y3543D02*
D03*
X163779Y25197D02*
D03*
X127953Y44882D02*
D03*
X146457Y53150D02*
D03*
X158661Y58268D02*
D03*
X23995Y130532D02*
D03*
X55905Y140551D02*
D03*
X53543Y138583D02*
D03*
X37402Y125984D02*
D03*
X60630Y137795D02*
D03*
X59055Y140157D02*
D03*
X50394Y138976D02*
D03*
X46850Y135827D02*
D03*
X43701Y132677D02*
D03*
X40551Y129528D02*
D03*
X160680Y20295D02*
D03*
X110236Y91732D02*
D03*
X173425Y56102D02*
D03*
X166339Y58071D02*
D03*
X60236Y94095D02*
D03*
X88189Y139764D02*
D03*
X93724Y140922D02*
D03*
X83835Y126355D02*
D03*
X43110Y100886D02*
D03*
X29528Y110236D02*
D03*
X11811Y143701D02*
D03*
X150591Y157480D02*
D03*
D123*
X73284Y90496D02*
D03*
X62205Y65809D02*
D03*
X56988Y59153D02*
D03*
X70778Y66929D02*
D03*
X18504Y52559D02*
D03*
X20965Y56693D02*
D03*
X23425Y52559D02*
D03*
X36114Y51968D02*
D03*
X36220Y46850D02*
D03*
X42036D02*
D03*
X42126Y51968D02*
D03*
X44390Y56693D02*
D03*
X18504Y61417D02*
D03*
X23425D02*
D03*
X34938D02*
D03*
X42126D02*
D03*
X29134Y40945D02*
D03*
X89969Y50428D02*
D03*
X89083Y65748D02*
D03*
X95092Y65492D02*
D03*
X82871Y72524D02*
D03*
X93618Y58071D02*
D03*
X84244Y50428D02*
D03*
X83969Y58071D02*
D03*
X83358Y65748D02*
D03*
X76503Y66929D02*
D03*
X13780Y175197D02*
D03*
X173228Y86614D02*
D03*
Y78740D02*
D03*
X42631Y108944D02*
D03*
X41080Y87857D02*
D03*
X53341Y98099D02*
D03*
X62992Y145669D02*
D03*
X47244D02*
D03*
X39370D02*
D03*
X27458Y121654D02*
D03*
X66645Y104097D02*
D03*
X72441Y97638D02*
D03*
X93593Y132249D02*
D03*
X81890Y135039D02*
D03*
X37937Y104139D02*
D03*
X14764Y69882D02*
D03*
X132496Y162598D02*
D03*
X126772D02*
D03*
X4921Y189947D02*
D03*
X174409Y25295D02*
D03*
X133858Y69291D02*
D03*
X183858Y54724D02*
D03*
X142964Y37335D02*
D03*
X136952Y37421D02*
D03*
X50804Y132429D02*
D03*
X155661Y11634D02*
D03*
X146999Y18327D02*
D03*
X162932Y53149D02*
D03*
X156717Y53400D02*
D03*
X143418Y44455D02*
D03*
X137785Y44508D02*
D03*
X52196Y121572D02*
D03*
X46024Y119976D02*
D03*
X61079Y130653D02*
D03*
X97244Y135039D02*
D03*
X96500Y117500D02*
D03*
X89741Y144905D02*
D03*
X188740Y139370D02*
D03*
X177165Y139658D02*
D03*
X164567Y145571D02*
D03*
X147925Y146850D02*
D03*
X145906Y153337D02*
D03*
X110943Y157677D02*
D03*
X117717Y161417D02*
D03*
X99106Y158268D02*
D03*
X73567Y137346D02*
D03*
X77614Y141394D02*
D03*
X73811Y145465D02*
D03*
X65331Y137031D02*
D03*
X34646Y116535D02*
D03*
X63292Y119852D02*
D03*
X65803Y127504D02*
D03*
X89308Y104072D02*
D03*
X68166Y85378D02*
D03*
X127658Y35017D02*
D03*
Y30017D02*
D03*
Y13524D02*
D03*
X37937Y98425D02*
D03*
X64990Y112963D02*
D03*
X70922Y108323D02*
D03*
X81158Y98874D02*
D03*
X62992Y102362D02*
D03*
X63048Y80260D02*
D03*
X177165Y145382D02*
D03*
X22638Y6904D02*
D03*
X17035Y38780D02*
D03*
X62857Y107615D02*
D03*
X128937Y68898D02*
D03*
X11213Y159055D02*
D03*
X45331Y83606D02*
D03*
X59000Y84307D02*
D03*
X77110Y94827D02*
D03*
X64118Y89425D02*
D03*
X69236Y94544D02*
D03*
X55567Y100732D02*
D03*
X59111Y104275D02*
D03*
X156456Y160787D02*
D03*
X99152Y164567D02*
D03*
X134933Y168110D02*
D03*
X186221Y151094D02*
D03*
X170866Y145382D02*
D03*
X153650Y146850D02*
D03*
X123937Y132874D02*
D03*
X193937D02*
D03*
X168740Y109843D02*
D03*
X163228D02*
D03*
X157717D02*
D03*
Y104331D02*
D03*
X163228D02*
D03*
X168740D02*
D03*
Y98819D02*
D03*
X163228D02*
D03*
X157717D02*
D03*
X193937Y63976D02*
D03*
X127658Y8524D02*
D03*
X118898Y68898D02*
D03*
X143701Y124016D02*
D03*
X138937Y132874D02*
D03*
X158937D02*
D03*
X188976Y57874D02*
D03*
X61782Y116171D02*
D03*
X51519Y104780D02*
D03*
D124*
X72835Y52362D02*
D03*
Y59842D02*
D03*
X75098Y56102D02*
D03*
X70571D02*
D03*
X129921Y145768D02*
D03*
X126870Y148819D02*
D03*
X129921Y151870D02*
D03*
X132972Y148819D02*
D03*
X129921D02*
D03*
X23917Y111024D02*
D03*
Y85827D02*
D03*
M02*
