G04*
G04 #@! TF.GenerationSoftware,Altium Limited,Altium Designer,25.0.2 (28)*
G04*
G04 Layer_Physical_Order=4*
G04 Layer_Color=16711680*
%FSLAX25Y25*%
%MOIN*%
G70*
G04*
G04 #@! TF.SameCoordinates,77BAF947-F79B-4421-9DE9-08F6AA71662D*
G04*
G04*
G04 #@! TF.FilePolarity,Positive*
G04*
G01*
G75*
%ADD11C,0.00984*%
%ADD13C,0.00787*%
%ADD26R,0.03772X0.03591*%
G04:AMPARAMS|DCode=34|XSize=37.72mil|YSize=35.91mil|CornerRadius=0mil|HoleSize=0mil|Usage=FLASHONLY|Rotation=225.000|XOffset=0mil|YOffset=0mil|HoleType=Round|Shape=Rectangle|*
%AMROTATEDRECTD34*
4,1,4,0.00064,0.02603,0.02603,0.00064,-0.00064,-0.02603,-0.02603,-0.00064,0.00064,0.02603,0.0*
%
%ADD34ROTATEDRECTD34*%

G04:AMPARAMS|DCode=35|XSize=37.72mil|YSize=35.91mil|CornerRadius=0mil|HoleSize=0mil|Usage=FLASHONLY|Rotation=315.000|XOffset=0mil|YOffset=0mil|HoleType=Round|Shape=Rectangle|*
%AMROTATEDRECTD35*
4,1,4,-0.02603,0.00064,-0.00064,0.02603,0.02603,-0.00064,0.00064,-0.02603,-0.02603,0.00064,0.0*
%
%ADD35ROTATEDRECTD35*%

%ADD65R,0.03591X0.03772*%
%ADD125C,0.00984*%
%ADD127C,0.01968*%
%ADD132C,0.00984*%
%ADD133C,0.00984*%
%ADD135C,0.00728*%
%ADD141C,0.00984*%
%ADD150C,0.06000*%
%ADD151C,0.06299*%
G04:AMPARAMS|DCode=152|XSize=62.99mil|YSize=62.99mil|CornerRadius=15.75mil|HoleSize=0mil|Usage=FLASHONLY|Rotation=270.000|XOffset=0mil|YOffset=0mil|HoleType=Round|Shape=RoundedRectangle|*
%AMROUNDEDRECTD152*
21,1,0.06299,0.03150,0,0,270.0*
21,1,0.03150,0.06299,0,0,270.0*
1,1,0.03150,-0.01575,-0.01575*
1,1,0.03150,-0.01575,0.01575*
1,1,0.03150,0.01575,0.01575*
1,1,0.03150,0.01575,-0.01575*
%
%ADD152ROUNDEDRECTD152*%
%ADD153O,0.07677X0.04134*%
%ADD154O,0.06102X0.04134*%
%ADD155C,0.11811*%
%ADD156C,0.06181*%
%ADD157R,0.06181X0.06181*%
%ADD158C,0.01811*%
%ADD159C,0.02362*%
%ADD160C,0.01968*%
%ADD162R,0.04164X0.03591*%
%ADD163R,0.04750X0.04166*%
G04:AMPARAMS|DCode=164|XSize=35.67mil|YSize=33.79mil|CornerRadius=0mil|HoleSize=0mil|Usage=FLASHONLY|Rotation=135.000|XOffset=0mil|YOffset=0mil|HoleType=Round|Shape=Rectangle|*
%AMROTATEDRECTD164*
4,1,4,0.02456,-0.00067,0.00067,-0.02456,-0.02456,0.00067,-0.00067,0.02456,0.02456,-0.00067,0.0*
%
%ADD164ROTATEDRECTD164*%

%ADD165R,0.03961X0.04153*%
%ADD166C,0.00984*%
G36*
X196850Y98244D02*
X178740D01*
X178433Y98183D01*
X178173Y98009D01*
X177998Y97748D01*
X177937Y97441D01*
Y67913D01*
X177998Y67606D01*
X178173Y67346D01*
X178433Y67172D01*
X178740Y67111D01*
X196850D01*
Y0D01*
X0D01*
Y196850D01*
X196850D01*
Y98244D01*
D02*
G37*
%LPC*%
G36*
X152744Y176219D02*
X148044D01*
X147737Y176157D01*
X147476Y175983D01*
X147302Y175723D01*
X147241Y175416D01*
Y172616D01*
X147302Y172309D01*
X147476Y172048D01*
X147737Y171874D01*
X148044Y171813D01*
X152744D01*
X153051Y171874D01*
X153311Y172048D01*
X153485Y172309D01*
X153547Y172616D01*
Y175416D01*
X153485Y175723D01*
X153311Y175983D01*
X153051Y176157D01*
X152744Y176219D01*
D02*
G37*
G36*
X104318Y172282D02*
X99619D01*
X99311Y172221D01*
X99051Y172046D01*
X98877Y171786D01*
X98816Y171479D01*
Y168679D01*
X98877Y168371D01*
X99051Y168111D01*
X99311Y167937D01*
X99619Y167876D01*
X104318D01*
X104626Y167937D01*
X104886Y168111D01*
X105060Y168371D01*
X105121Y168679D01*
Y171479D01*
X105060Y171786D01*
X104886Y172046D01*
X104626Y172221D01*
X104318Y172282D01*
D02*
G37*
G36*
X132887Y164567D02*
X132104D01*
X131381Y164267D01*
X130827Y163714D01*
X130527Y162990D01*
Y162207D01*
X130827Y161483D01*
X131381Y160930D01*
X132104Y160630D01*
X132887D01*
X133611Y160930D01*
X134165Y161483D01*
X134464Y162207D01*
Y162990D01*
X134165Y163714D01*
X133611Y164267D01*
X132887Y164567D01*
D02*
G37*
G36*
X118108Y163386D02*
X117325D01*
X116602Y163086D01*
X116048Y162532D01*
X115748Y161809D01*
Y161026D01*
X116048Y160302D01*
X116602Y159748D01*
X117325Y159449D01*
X118108D01*
X118832Y159748D01*
X119385Y160302D01*
X119685Y161026D01*
Y161809D01*
X119385Y162532D01*
X118832Y163086D01*
X118108Y163386D01*
D02*
G37*
G36*
X99498Y160236D02*
X98715D01*
X97991Y159937D01*
X97438Y159383D01*
X97138Y158659D01*
Y157876D01*
X97438Y157153D01*
X97991Y156599D01*
X98715Y156299D01*
X99498D01*
X100221Y156599D01*
X100775Y157153D01*
X101075Y157876D01*
Y158659D01*
X100775Y159383D01*
X100221Y159937D01*
X99498Y160236D01*
D02*
G37*
G36*
X150927Y159173D02*
X150254D01*
X149632Y158915D01*
X149501Y158785D01*
X117126D01*
X116627Y158686D01*
X116203Y158403D01*
X111664Y153864D01*
X20669D01*
X20170Y153764D01*
X19747Y153482D01*
X11659Y145394D01*
X11474D01*
X10852Y145136D01*
X10376Y144660D01*
X10118Y144037D01*
Y143364D01*
X10376Y142742D01*
X10852Y142266D01*
X11474Y142008D01*
X12148D01*
X12770Y142266D01*
X13246Y142742D01*
X13504Y143364D01*
Y143549D01*
X21210Y151255D01*
X39276D01*
X39292Y150911D01*
X38792Y150812D01*
X38369Y150529D01*
X33541Y145701D01*
X33071Y145794D01*
X29921D01*
X29000Y145611D01*
X28218Y145089D01*
X27696Y144307D01*
X27513Y143386D01*
Y140236D01*
X27696Y139314D01*
X28218Y138533D01*
X29000Y138011D01*
X29921Y137828D01*
X33071D01*
X33993Y138011D01*
X34774Y138533D01*
X35296Y139314D01*
X35479Y140236D01*
Y143386D01*
X35386Y143856D01*
X39832Y148302D01*
X91979D01*
X98701Y141580D01*
Y141396D01*
X98959Y140773D01*
X99435Y140297D01*
X100057Y140040D01*
X100731D01*
X101353Y140297D01*
X101829Y140773D01*
X102087Y141396D01*
Y142069D01*
X101829Y142691D01*
X101353Y143167D01*
X100731Y143425D01*
X100546D01*
X93442Y150529D01*
X93019Y150812D01*
X92520Y150911D01*
X92535Y151255D01*
X112205D01*
X112704Y151354D01*
X113127Y151637D01*
X113482Y151992D01*
X113805Y151819D01*
X113756Y151575D01*
X113756Y151575D01*
Y149220D01*
X95619Y131082D01*
X95322Y131281D01*
X95561Y131858D01*
Y132641D01*
X95262Y133364D01*
X94708Y133918D01*
X94022Y134202D01*
X93866Y134541D01*
X94646Y135321D01*
X94929Y135744D01*
X95028Y136244D01*
Y139832D01*
X95159Y139963D01*
X95417Y140585D01*
Y141259D01*
X95159Y141881D01*
X94683Y142357D01*
X94060Y142615D01*
X93387D01*
X92765Y142357D01*
X92289Y141881D01*
X92031Y141259D01*
Y140585D01*
X92289Y139963D01*
X92419Y139832D01*
Y136784D01*
X83683Y128048D01*
X83498D01*
X82876Y127790D01*
X82400Y127314D01*
X82142Y126692D01*
Y126018D01*
X82400Y125396D01*
X82876Y124920D01*
X83498Y124662D01*
X84172D01*
X84794Y124920D01*
X85270Y125396D01*
X85528Y126018D01*
Y126203D01*
X91301Y131976D01*
X91640Y131820D01*
X91924Y131134D01*
X92478Y130580D01*
X93201Y130281D01*
X93984D01*
X94561Y130520D01*
X94760Y130223D01*
X73781Y109245D01*
X70986Y112040D01*
X67205Y108259D01*
X69975Y105489D01*
X66619Y102133D01*
X65428D01*
X65428Y102133D01*
X64967Y102041D01*
X64576Y101780D01*
X63446Y100650D01*
X58329D01*
X58329Y100650D01*
X57868Y100558D01*
X57477Y100297D01*
X57477Y100297D01*
X51582Y94402D01*
X51236Y94393D01*
X48075Y97554D01*
X51583Y101063D01*
X55127Y104606D01*
X58780Y108259D01*
X62323Y111802D01*
X62665Y111785D01*
X65056Y109394D01*
X68559Y112897D01*
X65351Y116104D01*
X65351Y116104D01*
X63873Y117583D01*
X63955Y117996D01*
X64407Y118183D01*
X64961Y118737D01*
X65123Y119128D01*
X67145Y121150D01*
X67536Y121736D01*
X67674Y122427D01*
Y125593D01*
X69520Y127440D01*
X65739Y131221D01*
X62086Y127568D01*
X64061Y125593D01*
Y123175D01*
X62569Y121683D01*
X62177Y121521D01*
X61624Y120967D01*
X61324Y120244D01*
Y119460D01*
X61357Y119381D01*
X58213Y116237D01*
X58524Y115926D01*
X58542Y115583D01*
X54889Y111930D01*
X51346Y108387D01*
X47912Y104953D01*
X44259Y101301D01*
X44358Y101202D01*
X41069Y97912D01*
X41055Y97899D01*
X40705Y98044D01*
Y101275D01*
Y106722D01*
X41055Y106867D01*
X42695Y105227D01*
X46347Y108880D01*
X42566Y112661D01*
X38914Y109008D01*
X40569Y107353D01*
X40424Y107003D01*
X35169D01*
Y101275D01*
Y95561D01*
X40705D01*
Y97423D01*
X41055Y97568D01*
X41069Y97554D01*
X44097Y94526D01*
X47733Y90890D01*
X47914Y90614D01*
Y90325D01*
X48083Y89917D01*
X47850Y89567D01*
X47213D01*
X43461Y93318D01*
X43461Y93318D01*
X43071Y93579D01*
X42610Y93671D01*
X42610Y93671D01*
X38644D01*
X38361Y93955D01*
X37738Y94213D01*
X37065D01*
X36443Y93955D01*
X35966Y93479D01*
X35709Y92857D01*
Y92183D01*
X35966Y91561D01*
X36443Y91085D01*
X37065Y90827D01*
X37738D01*
X38361Y91085D01*
X38539Y91263D01*
X40654D01*
X40788Y90939D01*
X37566Y87718D01*
X41347Y83937D01*
X45000Y87590D01*
X41651Y90939D01*
X41785Y91263D01*
X42111D01*
X45744Y87629D01*
X45744Y87629D01*
X45863Y87511D01*
X45863Y87511D01*
X46253Y87250D01*
X46714Y87159D01*
X50559D01*
X50559Y87159D01*
X51020Y87250D01*
X51410Y87511D01*
X61003Y97104D01*
X64313D01*
X64456Y96839D01*
X64468Y96764D01*
X58428Y90725D01*
X58126D01*
X58046Y90805D01*
X57423Y91063D01*
X56750D01*
X56128Y90805D01*
X55651Y90329D01*
X55394Y89707D01*
Y89033D01*
X55651Y88411D01*
X56128Y87935D01*
X56150Y87926D01*
X56080Y87576D01*
X55725D01*
X55464Y87837D01*
X54842Y88095D01*
X54168D01*
X53546Y87837D01*
X53070Y87361D01*
X52812Y86738D01*
Y86065D01*
X53070Y85443D01*
X53546Y84966D01*
X54168Y84709D01*
X54842D01*
X55464Y84966D01*
X55725Y85227D01*
X57417D01*
X57866Y85317D01*
X58247Y85571D01*
X73867Y101191D01*
X75000D01*
X75449Y101281D01*
X75830Y101535D01*
X99892Y125597D01*
X102717D01*
X102978Y125336D01*
X103600Y125079D01*
X104274D01*
X104896Y125336D01*
X105372Y125813D01*
X105630Y126435D01*
Y127108D01*
X105372Y127731D01*
X104896Y128207D01*
X104274Y128464D01*
X103600D01*
X102978Y128207D01*
X102717Y127946D01*
X99600D01*
X99456Y128296D01*
X112943Y141783D01*
X119426D01*
X119560Y141459D01*
X115613Y137512D01*
X115330Y137089D01*
X115231Y136590D01*
Y71260D01*
X115330Y70761D01*
X115613Y70337D01*
X116929Y69021D01*
Y68506D01*
X117229Y67782D01*
X117782Y67229D01*
X118506Y66929D01*
X119289D01*
X120013Y67229D01*
X120566Y67782D01*
X120866Y68506D01*
Y69289D01*
X120566Y70013D01*
X120013Y70566D01*
X119289Y70866D01*
X118774D01*
X117840Y71800D01*
Y136050D01*
X119244Y137453D01*
X119656Y137371D01*
X119825Y136963D01*
X120301Y136487D01*
X120923Y136229D01*
X121597D01*
X122219Y136487D01*
X122618Y136886D01*
X130114D01*
X130115Y136886D01*
X130575Y136978D01*
X130966Y137239D01*
X138535Y144808D01*
X138947Y144725D01*
X139116Y144317D01*
X139592Y143840D01*
X139947Y143693D01*
Y143315D01*
X139592Y143167D01*
X139116Y142691D01*
X138858Y142069D01*
Y141743D01*
X135369Y138253D01*
X135108Y137862D01*
X135016Y137401D01*
X135016Y137401D01*
Y127568D01*
X134785Y127337D01*
X134528Y126715D01*
Y126041D01*
X134785Y125419D01*
X135262Y124943D01*
X135884Y124685D01*
X136557D01*
X137180Y124943D01*
X137656Y125419D01*
X137914Y126041D01*
Y126715D01*
X137656Y127337D01*
X137425Y127568D01*
Y131145D01*
X137748Y131279D01*
X137822Y131205D01*
X138545Y130905D01*
X139060D01*
X143658Y126308D01*
X143524Y125984D01*
X143309D01*
X142586Y125685D01*
X142032Y125131D01*
X141732Y124407D01*
Y123624D01*
X142032Y122901D01*
X142586Y122347D01*
X142632Y122328D01*
Y97874D01*
X142732Y97375D01*
X143015Y96952D01*
X145172Y94794D01*
Y54259D01*
X145021Y54109D01*
X144764Y53486D01*
Y52813D01*
X145021Y52191D01*
X145498Y51714D01*
X146120Y51457D01*
X146793D01*
X147416Y51714D01*
X147892Y52191D01*
X148150Y52813D01*
Y53486D01*
X147892Y54109D01*
X147781Y54220D01*
Y95335D01*
X147682Y95834D01*
X147399Y96257D01*
X145242Y98414D01*
Y122773D01*
X145370Y122901D01*
X145669Y123624D01*
Y123839D01*
X145993Y123973D01*
X159085Y110881D01*
Y97877D01*
X159185Y97378D01*
X159467Y96955D01*
X159633Y96789D01*
X159633Y96789D01*
X160424Y95998D01*
Y62681D01*
X160523Y62182D01*
X160806Y61759D01*
X164646Y57919D01*
Y57734D01*
X164903Y57112D01*
X165380Y56636D01*
X166002Y56378D01*
X166675D01*
X167297Y56636D01*
X167774Y57112D01*
X168032Y57734D01*
Y58408D01*
X167774Y59030D01*
X167297Y59506D01*
X166675Y59764D01*
X166491D01*
X163033Y63222D01*
Y96538D01*
X163033Y96538D01*
X162934Y97038D01*
X162651Y97461D01*
X162651Y97461D01*
X161694Y98417D01*
Y111421D01*
X161595Y111921D01*
X161312Y112344D01*
X140905Y132750D01*
Y133265D01*
X140606Y133989D01*
X140052Y134543D01*
X139329Y134843D01*
X138545D01*
X137822Y134543D01*
X137748Y134469D01*
X137425Y134603D01*
Y136903D01*
X140561Y140040D01*
X140888D01*
X141510Y140297D01*
X141986Y140773D01*
X142244Y141396D01*
Y142069D01*
X141986Y142691D01*
X141510Y143167D01*
X141155Y143315D01*
Y143693D01*
X141510Y143840D01*
X141986Y144317D01*
X142244Y144939D01*
Y145203D01*
X143808Y146767D01*
X144069Y147158D01*
X144161Y147619D01*
X144161Y147619D01*
Y151803D01*
X144372Y151930D01*
X144503Y151955D01*
X144791Y151668D01*
X145515Y151368D01*
X146298D01*
X147021Y151668D01*
X147575Y152222D01*
X147875Y152945D01*
Y153728D01*
X147575Y154452D01*
X147021Y155005D01*
X146298Y155305D01*
X145515D01*
X144791Y155005D01*
X144237Y154452D01*
X143938Y153728D01*
Y153107D01*
X143588Y152962D01*
X141457Y155093D01*
Y155420D01*
X141288Y155826D01*
X141522Y156176D01*
X149501D01*
X149632Y156045D01*
X150254Y155787D01*
X150927D01*
X151549Y156045D01*
X152026Y156521D01*
X152284Y157144D01*
Y157817D01*
X152026Y158439D01*
X151549Y158915D01*
X150927Y159173D01*
D02*
G37*
G36*
X111335Y159646D02*
X110552D01*
X109828Y159346D01*
X109274Y158792D01*
X108975Y158069D01*
Y157286D01*
X109274Y156562D01*
X109828Y156008D01*
X110552Y155709D01*
X111335D01*
X112058Y156008D01*
X112612Y156562D01*
X112912Y157286D01*
Y158069D01*
X112612Y158792D01*
X112058Y159346D01*
X111335Y159646D01*
D02*
G37*
G36*
X148317Y148819D02*
X147534D01*
X146810Y148519D01*
X146256Y147965D01*
X145957Y147242D01*
Y146459D01*
X146256Y145735D01*
X146810Y145182D01*
X147534Y144882D01*
X148317D01*
X149040Y145182D01*
X149594Y145735D01*
X149894Y146459D01*
Y147242D01*
X149594Y147965D01*
X149040Y148519D01*
X148317Y148819D01*
D02*
G37*
G36*
X164959Y147539D02*
X164175D01*
X163452Y147240D01*
X162898Y146686D01*
X162599Y145963D01*
Y145179D01*
X162898Y144456D01*
X163452Y143902D01*
X164175Y143603D01*
X164959D01*
X165682Y143902D01*
X166236Y144456D01*
X166535Y145179D01*
Y145963D01*
X166236Y146686D01*
X165682Y147240D01*
X164959Y147539D01*
D02*
G37*
G36*
X74203Y147433D02*
X73419D01*
X72696Y147133D01*
X72142Y146580D01*
X71843Y145856D01*
Y145073D01*
X72142Y144350D01*
X72696Y143796D01*
X73419Y143496D01*
X74203D01*
X74926Y143796D01*
X75480Y144350D01*
X75780Y145073D01*
Y145856D01*
X75480Y146580D01*
X74926Y147133D01*
X74203Y147433D01*
D02*
G37*
G36*
X90132Y146873D02*
X89349D01*
X88626Y146574D01*
X88072Y146020D01*
X87772Y145297D01*
Y144513D01*
X88072Y143790D01*
X88626Y143236D01*
X89349Y142937D01*
X90132D01*
X90856Y143236D01*
X91410Y143790D01*
X91709Y144513D01*
Y145297D01*
X91410Y146020D01*
X90856Y146574D01*
X90132Y146873D01*
D02*
G37*
G36*
X78006Y143362D02*
X77223D01*
X76499Y143063D01*
X75946Y142509D01*
X75646Y141786D01*
Y141002D01*
X75946Y140279D01*
X76499Y139725D01*
X77223Y139426D01*
X78006D01*
X78729Y139725D01*
X79283Y140279D01*
X79583Y141002D01*
Y141786D01*
X79283Y142509D01*
X78729Y143063D01*
X78006Y143362D01*
D02*
G37*
G36*
X88526Y141457D02*
X87852D01*
X87230Y141199D01*
X86754Y140723D01*
X86496Y140101D01*
Y139427D01*
X86754Y138805D01*
X87230Y138329D01*
X87852Y138071D01*
X88526D01*
X89148Y138329D01*
X89624Y138805D01*
X89882Y139427D01*
Y140101D01*
X89624Y140723D01*
X89148Y141199D01*
X88526Y141457D01*
D02*
G37*
G36*
X177557Y141626D02*
X176774D01*
X176050Y141326D01*
X175496Y140773D01*
X175197Y140049D01*
Y139266D01*
X175496Y138542D01*
X176050Y137989D01*
X176774Y137689D01*
X177557D01*
X178280Y137989D01*
X178834Y138542D01*
X179134Y139266D01*
Y140049D01*
X178834Y140773D01*
X178280Y141326D01*
X177557Y141626D01*
D02*
G37*
G36*
X189132Y141339D02*
X188349D01*
X187625Y141039D01*
X187071Y140485D01*
X186772Y139762D01*
Y138979D01*
X187071Y138255D01*
X187625Y137701D01*
X188349Y137402D01*
X189132D01*
X189855Y137701D01*
X190409Y138255D01*
X190709Y138979D01*
Y139762D01*
X190409Y140485D01*
X189855Y141039D01*
X189132Y141339D01*
D02*
G37*
G36*
X65723Y138999D02*
X64940D01*
X64216Y138700D01*
X63662Y138146D01*
X63363Y137423D01*
Y136639D01*
X63662Y135916D01*
X64216Y135362D01*
X64940Y135063D01*
X65723D01*
X66446Y135362D01*
X67000Y135916D01*
X67300Y136639D01*
Y137423D01*
X67000Y138146D01*
X66446Y138700D01*
X65723Y138999D01*
D02*
G37*
G36*
X32015Y135748D02*
X30978D01*
X29976Y135480D01*
X29079Y134961D01*
X28346Y134228D01*
X27828Y133331D01*
X27559Y132329D01*
Y131293D01*
X27828Y130291D01*
X28346Y129394D01*
X29079Y128661D01*
X29976Y128142D01*
X30978Y127874D01*
X32015D01*
X33016Y128142D01*
X33913Y128661D01*
X34646Y129394D01*
X35165Y130291D01*
X35433Y131293D01*
Y132329D01*
X35165Y133331D01*
X34646Y134228D01*
X33913Y134961D01*
X33016Y135480D01*
X32015Y135748D01*
D02*
G37*
G36*
X22654Y118525D02*
Y116433D01*
X25543D01*
X25317Y116980D01*
X24825Y117621D01*
X24184Y118112D01*
X23438Y118421D01*
X22654Y118525D01*
D02*
G37*
G36*
X4906Y118526D02*
X4134D01*
X3333Y118421D01*
X2587Y118112D01*
X1946Y117621D01*
X1455Y116980D01*
X1228Y116433D01*
X4906D01*
Y118526D01*
D02*
G37*
G36*
X96892Y119468D02*
X96108D01*
X95385Y119169D01*
X94831Y118615D01*
X94532Y117892D01*
Y117108D01*
X94831Y116385D01*
X95385Y115831D01*
X96108Y115532D01*
X96892D01*
X97615Y115831D01*
X98169Y116385D01*
X98469Y117108D01*
Y117892D01*
X98169Y118615D01*
X97615Y119169D01*
X96892Y119468D01*
D02*
G37*
G36*
X6242Y138504D02*
X5569D01*
X4947Y138246D01*
X4470Y137770D01*
X4213Y137148D01*
Y136474D01*
X4470Y135852D01*
X4947Y135376D01*
X5569Y135118D01*
X6242D01*
X6865Y135376D01*
X6995Y135506D01*
X17176D01*
X22302Y130380D01*
Y130196D01*
X22560Y129573D01*
X22979Y129155D01*
X15219Y121395D01*
X14936Y120972D01*
X14837Y120472D01*
Y117323D01*
X14837Y117323D01*
Y115308D01*
X14514Y115174D01*
X11946Y117742D01*
X11946Y117742D01*
X9986Y119702D01*
X9986Y119702D01*
X7702Y121985D01*
X7492Y122126D01*
X7279Y122268D01*
X7279Y122268D01*
X7279Y122268D01*
X7122Y122300D01*
X6780Y122368D01*
X6011D01*
X5880Y122498D01*
X5258Y122756D01*
X4585D01*
X3962Y122498D01*
X3486Y122022D01*
X3229Y121400D01*
Y120726D01*
X3486Y120104D01*
X3962Y119628D01*
X4585Y119370D01*
X5258D01*
X5880Y119628D01*
X6011Y119758D01*
X6239D01*
X7148Y118850D01*
X7014Y118526D01*
X6906D01*
Y115433D01*
Y112340D01*
X7677D01*
X8478Y112445D01*
X9224Y112754D01*
X9865Y113246D01*
X10356Y113886D01*
X10665Y114632D01*
X10695Y114859D01*
X11026Y114971D01*
X13262Y112735D01*
Y80900D01*
X13362Y80401D01*
X13645Y79978D01*
X23995Y69627D01*
X24419Y69344D01*
X24918Y69245D01*
X24918Y69245D01*
X30860D01*
X30861Y69245D01*
X70739D01*
X71238Y69344D01*
X71661Y69627D01*
X85644Y83610D01*
X85668D01*
X86290Y83867D01*
X86766Y84344D01*
X87024Y84966D01*
Y85639D01*
X86766Y86262D01*
X86290Y86738D01*
X85668Y86996D01*
X84995D01*
X84372Y86738D01*
X83896Y86262D01*
X83583Y86358D01*
Y87031D01*
X83325Y87654D01*
X82849Y88130D01*
X82227Y88388D01*
X81553D01*
X80931Y88130D01*
X80455Y87654D01*
X80197Y87031D01*
Y86358D01*
X80455Y85736D01*
X80585Y85605D01*
Y84950D01*
X80488Y84804D01*
X80388Y84305D01*
Y83931D01*
X71239Y74781D01*
X71239Y74781D01*
X70286Y73828D01*
X25371D01*
X21199Y78001D01*
X21332Y78324D01*
X22638D01*
X23438Y78429D01*
X24184Y78738D01*
X24825Y79230D01*
X25317Y79871D01*
X25543Y80417D01*
X21654D01*
Y81417D01*
X20654D01*
Y84509D01*
X19869Y84405D01*
X19123Y84096D01*
X18482Y83605D01*
X17990Y82964D01*
X17796Y82496D01*
X17446Y82565D01*
Y83985D01*
X17446Y83985D01*
Y114173D01*
X17483Y114196D01*
X17919Y114060D01*
X17990Y113886D01*
X18482Y113246D01*
X19123Y112754D01*
X19869Y112445D01*
X20654Y112342D01*
Y115433D01*
Y118525D01*
X19869Y118421D01*
X19123Y118112D01*
X18482Y117621D01*
X17990Y116980D01*
X17796Y116511D01*
X17446Y116581D01*
Y117323D01*
X17446Y117323D01*
Y119932D01*
X25416Y127901D01*
X25699Y128325D01*
X25798Y128824D01*
Y129402D01*
X25812Y129422D01*
X25911Y129921D01*
X25812Y130421D01*
X25688Y130605D01*
Y130869D01*
X25431Y131491D01*
X24954Y131968D01*
X24332Y132225D01*
X24147D01*
X18639Y137733D01*
X18216Y138016D01*
X17717Y138116D01*
X6995D01*
X6865Y138246D01*
X6242Y138504D01*
D02*
G37*
G36*
X25543Y114433D02*
X22654D01*
Y112342D01*
X23438Y112445D01*
X24184Y112754D01*
X24825Y113246D01*
X25317Y113886D01*
X25543Y114433D01*
D02*
G37*
G36*
X4906D02*
X1228D01*
X1455Y113886D01*
X1946Y113246D01*
X2587Y112754D01*
X3333Y112445D01*
X4134Y112340D01*
X4906D01*
Y114433D01*
D02*
G37*
G36*
X34646Y117740D02*
X34185Y117648D01*
X33794Y117387D01*
X33533Y116996D01*
X33441Y116535D01*
X33533Y116075D01*
X33794Y115684D01*
X37337Y112141D01*
X37728Y111880D01*
X38189Y111788D01*
X38583D01*
X39044Y111880D01*
X39434Y112141D01*
X39695Y112531D01*
X39787Y112992D01*
X39695Y113453D01*
X39434Y113844D01*
X39044Y114105D01*
X38714Y114170D01*
X35497Y117387D01*
X35107Y117648D01*
X34646Y117740D01*
D02*
G37*
G36*
X30628Y106171D02*
X28428D01*
X28120Y106110D01*
X27860Y105936D01*
X27686Y105676D01*
X27625Y105368D01*
Y102868D01*
X27686Y102561D01*
X27860Y102301D01*
X28120Y102127D01*
X28428Y102066D01*
X30628D01*
X30935Y102127D01*
X31195Y102301D01*
X31369Y102561D01*
X31430Y102868D01*
Y105368D01*
X31369Y105676D01*
X31195Y105936D01*
X30935Y106110D01*
X30628Y106171D01*
D02*
G37*
G36*
X89576Y107992D02*
X85795Y104211D01*
X89447Y100558D01*
X93228Y104339D01*
X89576Y107992D01*
D02*
G37*
G36*
X81222Y102591D02*
X77441Y98810D01*
X81094Y95157D01*
X84875Y98938D01*
X81222Y102591D01*
D02*
G37*
G36*
X30628Y98903D02*
X28428D01*
X28120Y98842D01*
X27860Y98668D01*
X27686Y98408D01*
X27625Y98100D01*
Y95600D01*
X27686Y95293D01*
X27860Y95033D01*
X28120Y94859D01*
X28428Y94798D01*
X30628D01*
X30935Y94859D01*
X31195Y95033D01*
X31369Y95293D01*
X31430Y95600D01*
Y98100D01*
X31369Y98408D01*
X31195Y98668D01*
X30935Y98842D01*
X30628Y98903D01*
D02*
G37*
G36*
X33533Y90879D02*
X31034D01*
X30726Y90818D01*
X30466Y90644D01*
X30292Y90384D01*
X30231Y90076D01*
Y87876D01*
X30292Y87569D01*
X30466Y87309D01*
X30726Y87135D01*
X31034Y87074D01*
X33533D01*
X33841Y87135D01*
X34101Y87309D01*
X34275Y87569D01*
X34336Y87876D01*
Y90076D01*
X34275Y90384D01*
X34101Y90644D01*
X33841Y90818D01*
X33533Y90879D01*
D02*
G37*
G36*
X73220Y94213D02*
X69567Y90560D01*
X73348Y86779D01*
X77001Y90432D01*
X73220Y94213D01*
D02*
G37*
G36*
X22654Y84509D02*
Y82417D01*
X25543D01*
X25317Y82964D01*
X24825Y83605D01*
X24184Y84096D01*
X23438Y84405D01*
X22654Y84509D01*
D02*
G37*
G36*
X7677Y84511D02*
X6906D01*
Y82417D01*
X10583D01*
X10356Y82964D01*
X9865Y83605D01*
X9224Y84096D01*
X8478Y84405D01*
X7677Y84511D01*
D02*
G37*
G36*
X4906D02*
X4134D01*
X3333Y84405D01*
X2587Y84096D01*
X1946Y83605D01*
X1455Y82964D01*
X1228Y82417D01*
X4906D01*
Y84511D01*
D02*
G37*
G36*
X68102Y89095D02*
X64449Y85442D01*
X68230Y81661D01*
X71882Y85314D01*
X68102Y89095D01*
D02*
G37*
G36*
X10583Y80417D02*
X6906D01*
Y78324D01*
X7677D01*
X8478Y78429D01*
X9224Y78738D01*
X9865Y79230D01*
X10356Y79871D01*
X10583Y80417D01*
D02*
G37*
G36*
X4906D02*
X1228D01*
X1455Y79871D01*
X1946Y79230D01*
X2587Y78738D01*
X3333Y78429D01*
X4134Y78324D01*
X4906D01*
Y80417D01*
D02*
G37*
G36*
X62984Y83976D02*
X59331Y80324D01*
X63112Y76543D01*
X66764Y80195D01*
X62984Y83976D01*
D02*
G37*
G36*
X110573Y93425D02*
X109899D01*
X109277Y93168D01*
X108801Y92691D01*
X108543Y92069D01*
Y91884D01*
X105851Y89192D01*
X105569Y88769D01*
X105469Y88270D01*
Y87786D01*
X104113Y86429D01*
X104113Y86429D01*
X102547Y84864D01*
X102547Y84863D01*
X87409Y69726D01*
X84466D01*
X84465Y69726D01*
X82251D01*
X82251Y69726D01*
X81775D01*
X81276Y69626D01*
X80853Y69344D01*
X80853Y69344D01*
X78795Y67286D01*
X78431Y67417D01*
X78172Y68044D01*
X77618Y68598D01*
X76894Y68898D01*
X76111D01*
X75388Y68598D01*
X74834Y68044D01*
X74534Y67321D01*
Y66538D01*
X74794Y65911D01*
X74630Y65561D01*
X73746D01*
X73247Y65461D01*
X72824Y65178D01*
X72824Y65178D01*
X70886Y63241D01*
X70886Y63241D01*
X69436Y61791D01*
X69436Y61791D01*
X67172Y59527D01*
X66889Y59104D01*
X66790Y58605D01*
Y57128D01*
X66790Y57128D01*
Y56189D01*
X65894Y55293D01*
X65481Y55375D01*
X65313Y55782D01*
X64837Y56258D01*
X64215Y56516D01*
X63541D01*
X62919Y56258D01*
X62443Y55782D01*
X62185Y55160D01*
Y54486D01*
X62443Y53864D01*
X62919Y53388D01*
X63325Y53219D01*
X63407Y52807D01*
X59176Y48575D01*
X56225D01*
X56225Y48575D01*
X54011D01*
X54011Y48575D01*
X50160D01*
X49661Y48476D01*
X49238Y48193D01*
X49238Y48193D01*
X38767Y37722D01*
X30617D01*
X30487Y37852D01*
X29864Y38110D01*
X29191D01*
X28569Y37852D01*
X28092Y37376D01*
X27835Y36754D01*
Y36081D01*
X28092Y35458D01*
X28569Y34982D01*
X29191Y34725D01*
X29864D01*
X30487Y34982D01*
X30617Y35113D01*
X39307D01*
X39807Y35212D01*
X40230Y35495D01*
X42016Y37281D01*
X42366Y37136D01*
Y36469D01*
X42645Y35429D01*
X43183Y34496D01*
X43945Y33735D01*
X44878Y33196D01*
X45457Y33041D01*
Y37008D01*
X46457D01*
Y38008D01*
X50424D01*
X50269Y38587D01*
X49730Y39520D01*
X48968Y40281D01*
X48036Y40820D01*
X46995Y41098D01*
X46328D01*
X46183Y41449D01*
X50701Y45966D01*
X54011D01*
X54011Y45966D01*
X56225D01*
X56225Y45966D01*
X59716D01*
X60216Y46065D01*
X60639Y46348D01*
X65794Y51503D01*
X65794Y51503D01*
X69017Y54726D01*
X69300Y55150D01*
X69399Y55649D01*
Y57128D01*
X69399Y57128D01*
Y58064D01*
X71281Y59946D01*
X71281Y59946D01*
X72731Y61396D01*
X72731Y61396D01*
X74286Y62951D01*
X75396D01*
X75396Y62951D01*
X77610D01*
X78109Y63051D01*
X78532Y63333D01*
X80098Y64899D01*
X80098Y64899D01*
X81040Y65841D01*
X81390Y65696D01*
Y65356D01*
X81690Y64633D01*
X82243Y64079D01*
X82967Y63779D01*
X83750D01*
X84473Y64079D01*
X85027Y64633D01*
X85327Y65356D01*
Y66140D01*
X85067Y66767D01*
X85231Y67117D01*
X87950D01*
X88449Y67216D01*
X88872Y67499D01*
X104392Y83018D01*
X104392Y83019D01*
X105958Y84584D01*
X105958Y84584D01*
X107696Y86323D01*
X107696Y86323D01*
X107979Y86746D01*
X108078Y87245D01*
X108078Y87245D01*
Y87729D01*
X110388Y90039D01*
X110573D01*
X111195Y90297D01*
X111671Y90773D01*
X111929Y91395D01*
Y92069D01*
X111671Y92691D01*
X111195Y93168D01*
X110573Y93425D01*
D02*
G37*
G36*
X15155Y71851D02*
X14372D01*
X13649Y71551D01*
X13095Y70997D01*
X12795Y70274D01*
Y69490D01*
X13095Y68767D01*
X13649Y68213D01*
X14372Y67914D01*
X15155D01*
X15879Y68213D01*
X16433Y68767D01*
X16732Y69490D01*
Y70274D01*
X16433Y70997D01*
X15879Y71551D01*
X15155Y71851D01*
D02*
G37*
G36*
X129274Y125709D02*
X128600D01*
X127978Y125451D01*
X127502Y124975D01*
X127244Y124353D01*
Y123679D01*
X127502Y123057D01*
X127632Y122926D01*
Y70377D01*
X127268Y70013D01*
X126969Y69289D01*
Y68506D01*
X127268Y67782D01*
X127822Y67229D01*
X128545Y66929D01*
X129329D01*
X130052Y67229D01*
X130606Y67782D01*
X130905Y68506D01*
Y69289D01*
X130606Y70013D01*
X130242Y70377D01*
Y122926D01*
X130372Y123057D01*
X130630Y123679D01*
Y124353D01*
X130372Y124975D01*
X129896Y125451D01*
X129274Y125709D01*
D02*
G37*
G36*
X62596Y67777D02*
X61813D01*
X61090Y67478D01*
X60536Y66924D01*
X60236Y66200D01*
Y65417D01*
X60536Y64694D01*
X61090Y64140D01*
X61813Y63840D01*
X62596D01*
X63320Y64140D01*
X63873Y64694D01*
X64173Y65417D01*
Y66200D01*
X63873Y66924D01*
X63320Y67478D01*
X62596Y67777D01*
D02*
G37*
G36*
X95484Y67461D02*
X94701D01*
X93977Y67161D01*
X93423Y66607D01*
X93124Y65884D01*
Y65101D01*
X93423Y64377D01*
X93977Y63823D01*
X94701Y63524D01*
X95484D01*
X96207Y63823D01*
X96761Y64377D01*
X97061Y65101D01*
Y65884D01*
X96761Y66607D01*
X96207Y67161D01*
X95484Y67461D01*
D02*
G37*
G36*
X44603Y64288D02*
X38278D01*
Y58547D01*
X44603D01*
Y64288D01*
D02*
G37*
G36*
X78683Y61634D02*
X78010D01*
X77387Y61376D01*
X76911Y60900D01*
X76654Y60278D01*
Y59604D01*
X76911Y58982D01*
X77387Y58506D01*
X78010Y58248D01*
X78683D01*
X79305Y58506D01*
X79782Y58982D01*
X80039Y59604D01*
Y60278D01*
X79782Y60900D01*
X79305Y61376D01*
X78683Y61634D01*
D02*
G37*
G36*
X159328Y134843D02*
X158545D01*
X157822Y134543D01*
X157268Y133989D01*
X156968Y133265D01*
Y132482D01*
X157268Y131759D01*
X157822Y131205D01*
X158545Y130905D01*
X159061D01*
X164597Y125369D01*
Y110950D01*
X164597Y110950D01*
Y108735D01*
X164597Y108735D01*
Y105438D01*
X164597Y105438D01*
Y103223D01*
X164597Y103223D01*
Y99926D01*
X164597Y99926D01*
Y97712D01*
X164597Y97712D01*
Y63626D01*
X164696Y63127D01*
X164979Y62704D01*
X171732Y55950D01*
Y55766D01*
X171990Y55143D01*
X172466Y54667D01*
X173089Y54409D01*
X173724D01*
X173802Y54313D01*
X173896Y54086D01*
X168793Y48983D01*
X160259D01*
X159759Y48884D01*
X159336Y48601D01*
X154560Y43824D01*
X152664D01*
X152534Y43955D01*
X151911Y44213D01*
X151238D01*
X150616Y43955D01*
X150140Y43479D01*
X149993Y43124D01*
X149614D01*
X149467Y43479D01*
X149336Y43609D01*
Y47955D01*
X154425Y53044D01*
X154788Y52912D01*
X155048Y52285D01*
X155602Y51731D01*
X156325Y51432D01*
X157108D01*
X157832Y51731D01*
X158385Y52285D01*
X158685Y53009D01*
Y53792D01*
X158385Y54515D01*
X157832Y55069D01*
X157205Y55329D01*
X157073Y55692D01*
X158064Y56683D01*
X158325Y56575D01*
X158998D01*
X159620Y56832D01*
X160097Y57309D01*
X160354Y57931D01*
Y58605D01*
X160097Y59227D01*
X159620Y59703D01*
X158998Y59961D01*
X158325D01*
X157703Y59703D01*
X157401Y59402D01*
X157192Y59360D01*
X156768Y59077D01*
X154687Y56996D01*
X153121Y55430D01*
X153121Y55430D01*
X147109Y49418D01*
X146826Y48995D01*
X146727Y48496D01*
Y43609D01*
X146596Y43479D01*
X146339Y42856D01*
Y42183D01*
X146596Y41561D01*
X147073Y41085D01*
X147695Y40827D01*
X148368D01*
X148990Y41085D01*
X149467Y41561D01*
X149614Y41916D01*
X149993D01*
X150140Y41561D01*
X150616Y41085D01*
X151238Y40827D01*
X151911D01*
X152534Y41085D01*
X152664Y41215D01*
X155100D01*
X155599Y41314D01*
X156023Y41597D01*
X160799Y46374D01*
X169333D01*
X169832Y46473D01*
X170256Y46756D01*
X180069Y56569D01*
X182424D01*
X182570Y56219D01*
X182190Y55839D01*
X181890Y55116D01*
Y54601D01*
X157273Y29984D01*
X138661D01*
X138530Y30114D01*
X137908Y30372D01*
X137234D01*
X136612Y30114D01*
X136136Y29638D01*
X135878Y29016D01*
Y28342D01*
X136136Y27720D01*
X136612Y27244D01*
X136952Y27103D01*
X137034Y26690D01*
X136777Y26434D01*
X136519Y25811D01*
Y25766D01*
X134117Y23363D01*
X133834Y22940D01*
X133735Y22441D01*
Y6052D01*
X132919Y5236D01*
X132734D01*
X132112Y4978D01*
X131636Y4502D01*
X131378Y3880D01*
Y3207D01*
X131636Y2584D01*
X132112Y2108D01*
X132734Y1850D01*
X133408D01*
X134030Y2108D01*
X134506Y2584D01*
X134764Y3207D01*
Y3391D01*
X135962Y4589D01*
X136245Y5013D01*
X136344Y5512D01*
Y21901D01*
X138225Y23782D01*
X138549D01*
X139171Y24039D01*
X139647Y24516D01*
X139905Y25138D01*
Y25811D01*
X139647Y26434D01*
X139171Y26910D01*
X138895Y27024D01*
X138964Y27374D01*
X157813D01*
X158312Y27474D01*
X158736Y27757D01*
X183735Y52756D01*
X184250D01*
X184973Y53056D01*
X185527Y53609D01*
X185827Y54333D01*
Y55116D01*
X185527Y55839D01*
X185147Y56219D01*
X185292Y56569D01*
X187497D01*
X187861Y56205D01*
X188585Y55905D01*
X189368D01*
X190091Y56205D01*
X190645Y56759D01*
X190945Y57482D01*
Y58266D01*
X190645Y58989D01*
X190091Y59543D01*
X189368Y59842D01*
X188585D01*
X187861Y59543D01*
X187497Y59179D01*
X179529D01*
X179030Y59079D01*
X178606Y58797D01*
X175441Y55631D01*
X175214Y55726D01*
X175118Y55803D01*
Y56439D01*
X174860Y57061D01*
X174384Y57538D01*
X173762Y57795D01*
X173577D01*
X167206Y64166D01*
Y97712D01*
X167206Y97712D01*
Y99926D01*
X167206Y99926D01*
Y103223D01*
X167206Y103223D01*
Y105438D01*
X167206Y105438D01*
Y108735D01*
X167206Y108735D01*
Y110950D01*
X167206Y110950D01*
Y125910D01*
X167107Y126409D01*
X166824Y126832D01*
X160906Y132750D01*
Y133265D01*
X160606Y133989D01*
X160052Y134543D01*
X159328Y134843D01*
D02*
G37*
G36*
X84360Y60039D02*
X83577D01*
X82853Y59740D01*
X82300Y59186D01*
X82000Y58462D01*
Y57679D01*
X82300Y56956D01*
X82853Y56402D01*
X83577Y56102D01*
X84360D01*
X85084Y56402D01*
X85637Y56956D01*
X85937Y57679D01*
Y58462D01*
X85637Y59186D01*
X85084Y59740D01*
X84360Y60039D01*
D02*
G37*
G36*
X6905Y55054D02*
Y52181D01*
X9779D01*
X9633Y52725D01*
X9106Y53637D01*
X8362Y54382D01*
X7450Y54909D01*
X6905Y55054D01*
D02*
G37*
G36*
X4905D02*
X4362Y54909D01*
X3449Y54382D01*
X2705Y53637D01*
X2178Y52725D01*
X2032Y52181D01*
X4905D01*
Y55054D01*
D02*
G37*
G36*
X163323Y55118D02*
X162540D01*
X161816Y54818D01*
X161263Y54265D01*
X160963Y53541D01*
Y52758D01*
X161263Y52034D01*
X161816Y51481D01*
X162540Y51181D01*
X163323D01*
X164047Y51481D01*
X164600Y52034D01*
X164900Y52758D01*
Y53541D01*
X164600Y54265D01*
X164047Y54818D01*
X163323Y55118D01*
D02*
G37*
G36*
X84636Y52397D02*
X83853D01*
X83129Y52097D01*
X82575Y51543D01*
X82276Y50820D01*
Y50037D01*
X82575Y49313D01*
X83129Y48759D01*
X83853Y48460D01*
X84636D01*
X85359Y48759D01*
X85913Y49313D01*
X86213Y50037D01*
Y50820D01*
X85913Y51543D01*
X85359Y52097D01*
X84636Y52397D01*
D02*
G37*
G36*
X9779Y50181D02*
X6905D01*
Y47308D01*
X7450Y47454D01*
X8362Y47980D01*
X9106Y48725D01*
X9633Y49637D01*
X9779Y50181D01*
D02*
G37*
G36*
X4905D02*
X2032D01*
X2178Y49637D01*
X2705Y48725D01*
X3449Y47980D01*
X4362Y47454D01*
X4905Y47308D01*
Y50181D01*
D02*
G37*
G36*
X44512Y54551D02*
X39165D01*
Y49433D01*
X38683D01*
Y44267D01*
X44422D01*
Y49386D01*
X44512D01*
Y54551D01*
D02*
G37*
G36*
X134250Y71260D02*
X133467D01*
X132743Y70960D01*
X132190Y70406D01*
X131890Y69683D01*
Y68900D01*
X132190Y68176D01*
X132554Y67812D01*
Y51328D01*
X127801Y46575D01*
X127616D01*
X126994Y46317D01*
X126518Y45841D01*
X126260Y45219D01*
Y44545D01*
X126518Y43923D01*
X126994Y43447D01*
X127616Y43189D01*
X128289D01*
X128912Y43447D01*
X129388Y43923D01*
X129646Y44545D01*
Y44730D01*
X134781Y49865D01*
X135064Y50288D01*
X135163Y50787D01*
Y67812D01*
X135527Y68176D01*
X135827Y68900D01*
Y69683D01*
X135527Y70406D01*
X134973Y70960D01*
X134250Y71260D01*
D02*
G37*
G36*
X138177Y46477D02*
X137394D01*
X136670Y46177D01*
X136116Y45623D01*
X135817Y44899D01*
Y44116D01*
X136116Y43393D01*
X136670Y42839D01*
X137394Y42540D01*
X138177D01*
X138900Y42839D01*
X139454Y43393D01*
X139754Y44116D01*
Y44899D01*
X139454Y45623D01*
X138900Y46177D01*
X138177Y46477D01*
D02*
G37*
G36*
X143810Y46423D02*
X143027D01*
X142303Y46123D01*
X141749Y45570D01*
X141450Y44846D01*
Y44063D01*
X141749Y43339D01*
X142303Y42786D01*
X143027Y42486D01*
X143810D01*
X144533Y42786D01*
X145087Y43339D01*
X145387Y44063D01*
Y44846D01*
X145087Y45570D01*
X144533Y46123D01*
X143810Y46423D01*
D02*
G37*
G36*
X59268Y40975D02*
Y38008D01*
X62235D01*
X62080Y38587D01*
X61541Y39520D01*
X60779Y40281D01*
X59847Y40820D01*
X59268Y40975D01*
D02*
G37*
G36*
X57268D02*
X56689Y40820D01*
X55756Y40281D01*
X54994Y39520D01*
X54456Y38587D01*
X54301Y38008D01*
X57268D01*
Y40975D01*
D02*
G37*
G36*
X145350Y40004D02*
X140003D01*
Y34838D01*
X145350D01*
Y40004D01*
D02*
G37*
G36*
X82400Y40886D02*
X81379D01*
X80393Y40622D01*
X79509Y40111D01*
X78787Y39389D01*
X78276Y38505D01*
X78012Y37519D01*
Y36497D01*
X78276Y35511D01*
X78787Y34627D01*
X79509Y33905D01*
X80393Y33394D01*
X81379Y33130D01*
X82400D01*
X83387Y33394D01*
X84271Y33905D01*
X84993Y34627D01*
X85503Y35511D01*
X85768Y36497D01*
Y37519D01*
X85503Y38505D01*
X84993Y39389D01*
X84271Y40111D01*
X83387Y40622D01*
X82400Y40886D01*
D02*
G37*
G36*
X70589D02*
X69568D01*
X68582Y40622D01*
X67698Y40111D01*
X66976Y39389D01*
X66465Y38505D01*
X66201Y37519D01*
Y36497D01*
X66465Y35511D01*
X66976Y34627D01*
X67698Y33905D01*
X68582Y33394D01*
X69568Y33130D01*
X70589D01*
X71576Y33394D01*
X72460Y33905D01*
X73182Y34627D01*
X73692Y35511D01*
X73957Y36497D01*
Y37519D01*
X73692Y38505D01*
X73182Y39389D01*
X72460Y40111D01*
X71576Y40622D01*
X70589Y40886D01*
D02*
G37*
G36*
X62235Y36008D02*
X59268D01*
Y33041D01*
X59847Y33196D01*
X60779Y33735D01*
X61541Y34496D01*
X62080Y35429D01*
X62235Y36008D01*
D02*
G37*
G36*
X57268D02*
X54301D01*
X54456Y35429D01*
X54994Y34496D01*
X55756Y33735D01*
X56689Y33196D01*
X57268Y33041D01*
Y36008D01*
D02*
G37*
G36*
X50424D02*
X47457D01*
Y33041D01*
X48036Y33196D01*
X48968Y33735D01*
X49730Y34496D01*
X50269Y35429D01*
X50424Y36008D01*
D02*
G37*
G36*
X130142Y37819D02*
X124976D01*
Y32472D01*
X130142D01*
Y37819D01*
D02*
G37*
G36*
X164116Y26890D02*
X163443D01*
X162821Y26632D01*
X162690Y26501D01*
X158071D01*
X157572Y26402D01*
X157148Y26119D01*
X154775Y23745D01*
X150242D01*
X150196Y23791D01*
X149574Y24049D01*
X148901D01*
X148278Y23791D01*
X147802Y23315D01*
X147545Y22693D01*
Y22019D01*
X147802Y21397D01*
X148278Y20921D01*
X148901Y20663D01*
X149574D01*
X150196Y20921D01*
X150412Y21136D01*
X155315D01*
X155814Y21236D01*
X156237Y21519D01*
X158611Y23892D01*
X162690D01*
X162821Y23762D01*
X163443Y23504D01*
X164116D01*
X164739Y23762D01*
X165215Y24238D01*
X165472Y24860D01*
Y25534D01*
X165215Y26156D01*
X164739Y26632D01*
X164116Y26890D01*
D02*
G37*
G36*
X174801Y27264D02*
X174018D01*
X173294Y26964D01*
X172741Y26410D01*
X172441Y25687D01*
Y24904D01*
X172741Y24180D01*
X173294Y23626D01*
X174018Y23327D01*
X174801D01*
X175524Y23626D01*
X176078Y24180D01*
X176378Y24904D01*
Y25687D01*
X176078Y26410D01*
X175524Y26964D01*
X174801Y27264D01*
D02*
G37*
G36*
X85768Y29075D02*
X78012D01*
Y21319D01*
X85768D01*
Y29075D01*
D02*
G37*
G36*
X70589D02*
X69568D01*
X68582Y28810D01*
X67698Y28300D01*
X66976Y27578D01*
X66465Y26694D01*
X66201Y25707D01*
Y24686D01*
X66465Y23700D01*
X66976Y22816D01*
X67698Y22094D01*
X68582Y21583D01*
X69568Y21319D01*
X70589D01*
X71576Y21583D01*
X72460Y22094D01*
X73182Y22816D01*
X73692Y23700D01*
X73957Y24686D01*
Y25707D01*
X73692Y26694D01*
X73182Y27578D01*
X72460Y28300D01*
X71576Y28810D01*
X70589Y29075D01*
D02*
G37*
G36*
X58778D02*
X57757D01*
X56771Y28810D01*
X55887Y28300D01*
X55165Y27578D01*
X54654Y26694D01*
X54390Y25707D01*
Y24686D01*
X54654Y23700D01*
X55165Y22816D01*
X55887Y22094D01*
X56771Y21583D01*
X57757Y21319D01*
X58778D01*
X59765Y21583D01*
X60649Y22094D01*
X61371Y22816D01*
X61881Y23700D01*
X62146Y24686D01*
Y25707D01*
X61881Y26694D01*
X61371Y27578D01*
X60649Y28300D01*
X59765Y28810D01*
X58778Y29075D01*
D02*
G37*
G36*
X46967D02*
X45946D01*
X44960Y28810D01*
X44076Y28300D01*
X43354Y27578D01*
X42843Y26694D01*
X42579Y25707D01*
Y24686D01*
X42843Y23700D01*
X43354Y22816D01*
X44076Y22094D01*
X44960Y21583D01*
X45946Y21319D01*
X46967D01*
X47954Y21583D01*
X48838Y22094D01*
X49560Y22816D01*
X50070Y23700D01*
X50335Y24686D01*
Y25707D01*
X50070Y26694D01*
X49560Y27578D01*
X48838Y28300D01*
X47954Y28810D01*
X46967Y29075D01*
D02*
G37*
G36*
X130536Y16166D02*
X125370D01*
Y10819D01*
X130536D01*
Y16166D01*
D02*
G37*
G36*
X74124Y14882D02*
X72805D01*
X71512Y14625D01*
X70294Y14120D01*
X69198Y13388D01*
X68266Y12455D01*
X67533Y11359D01*
X67029Y10141D01*
X66772Y8848D01*
Y7530D01*
X67029Y6237D01*
X67533Y5019D01*
X68266Y3923D01*
X69198Y2990D01*
X70294Y2258D01*
X71512Y1753D01*
X72805Y1496D01*
X74124D01*
X75417Y1753D01*
X76635Y2258D01*
X77731Y2990D01*
X78663Y3923D01*
X79396Y5019D01*
X79900Y6237D01*
X80158Y7530D01*
Y8848D01*
X79900Y10141D01*
X79396Y11359D01*
X78663Y12455D01*
X77731Y13388D01*
X76635Y14120D01*
X75417Y14625D01*
X74124Y14882D01*
D02*
G37*
G36*
X55620D02*
X54301D01*
X53008Y14625D01*
X51790Y14120D01*
X50694Y13388D01*
X49762Y12455D01*
X49029Y11359D01*
X48525Y10141D01*
X48268Y8848D01*
Y7530D01*
X48525Y6237D01*
X49029Y5019D01*
X49762Y3923D01*
X50694Y2990D01*
X51790Y2258D01*
X53008Y1753D01*
X54301Y1496D01*
X55620D01*
X56913Y1753D01*
X58131Y2258D01*
X59227Y2990D01*
X60159Y3923D01*
X60892Y5019D01*
X61396Y6237D01*
X61654Y7530D01*
Y8848D01*
X61396Y10141D01*
X60892Y11359D01*
X60159Y12455D01*
X59227Y13388D01*
X58131Y14120D01*
X56913Y14625D01*
X55620Y14882D01*
D02*
G37*
%LPD*%
G36*
X138805Y153647D02*
X138941Y153591D01*
X138920Y153221D01*
X138411Y153010D01*
X137935Y152534D01*
X137677Y151911D01*
Y151585D01*
X130686Y144594D01*
X121666D01*
X121472Y144885D01*
X121499Y144949D01*
Y145623D01*
X121241Y146245D01*
X120765Y146721D01*
X120282Y146921D01*
X120176Y147279D01*
X120180Y147313D01*
X120333Y147466D01*
X120591Y148089D01*
Y148762D01*
X120333Y149384D01*
X120272Y149445D01*
Y149853D01*
X123758Y153340D01*
X124085D01*
X124707Y153597D01*
X124963Y153853D01*
X138599D01*
X138805Y153647D01*
D02*
G37*
D11*
X149322Y22441D02*
X155315D01*
X149238Y22356D02*
X149322Y22441D01*
X30861Y70549D02*
X70739D01*
X85331Y85142D01*
X14567Y80900D02*
X24918Y70549D01*
X120849Y140904D02*
X122006D01*
X116535Y136590D02*
X120849Y140904D01*
X122006D02*
X122164Y141062D01*
X117126Y157480D02*
X150591D01*
X112205Y152559D02*
X117126Y157480D01*
X20669Y152559D02*
X112205D01*
X81693Y84305D02*
X81890Y84502D01*
X81693Y83390D02*
Y84305D01*
X81890Y84502D02*
Y86695D01*
X72161Y73859D02*
X81693Y83390D01*
X85331Y85142D02*
Y85303D01*
X155315Y22441D02*
X158071Y25197D01*
X135039Y22441D02*
X138073Y25475D01*
X138212D01*
X155100Y42520D02*
X160259Y47678D01*
X151575Y42520D02*
X155100D01*
X148031D02*
Y48496D01*
X154043Y54507D01*
X137571Y28679D02*
X157813D01*
X183858Y54724D01*
X24831Y72524D02*
X70826D01*
X17717Y136811D02*
X24606Y129921D01*
X116535Y71260D02*
Y136590D01*
X165902Y63626D02*
X173425Y56102D01*
X93724Y136244D02*
Y140922D01*
X83835Y126355D02*
X93724Y136244D01*
X11811Y143701D02*
X20669Y152559D01*
X165902Y63626D02*
Y97712D01*
X135039Y5512D02*
Y22441D01*
X133071Y3543D02*
X135039Y5512D01*
X179529Y57874D02*
X188976D01*
X169333Y47678D02*
X179529Y57874D01*
X160259Y47678D02*
X169333D01*
X133858Y50787D02*
Y69291D01*
X158071Y25197D02*
X163779D01*
X127953Y44882D02*
X133858Y50787D01*
X146457Y53150D02*
X146476Y53169D01*
X143937Y97874D02*
X146476Y95335D01*
Y53169D02*
Y95335D01*
X158548Y58155D02*
X158661Y58268D01*
X157691Y58155D02*
X158548D01*
X155609Y56073D02*
X157691Y58155D01*
X16142Y120472D02*
X24493Y128824D01*
X16142Y117323D02*
Y120472D01*
Y83985D02*
Y114173D01*
X11024Y116819D02*
X14567Y113276D01*
X19283Y78071D02*
X24831Y72524D01*
X14567Y80900D02*
Y113276D01*
X39292Y149606D02*
X92520D01*
X31496Y141811D02*
X39292Y149606D01*
X92520D02*
X100394Y141732D01*
X4921Y121063D02*
X6780D01*
X9063Y118780D01*
X24493Y128824D02*
Y129808D01*
X24606Y129921D01*
X5906Y136811D02*
X17717D01*
X128937Y68898D02*
Y124016D01*
X165902Y110950D02*
Y125910D01*
Y105438D02*
Y108735D01*
Y99926D02*
Y103223D01*
X138937Y132874D02*
X160390Y111421D01*
Y97877D02*
Y111421D01*
Y97877D02*
X160555Y97712D01*
X116535Y71260D02*
X118898Y68898D01*
X143701Y124016D02*
X143937Y123780D01*
Y97874D02*
Y123780D01*
X158937Y132874D02*
X165902Y125910D01*
D13*
X139703Y155058D02*
X139764Y155118D01*
X123730Y155014D02*
X123774Y155058D01*
X142956Y147619D02*
Y151890D01*
X123774Y155058D02*
X139703D01*
X139764Y155083D02*
X142956Y151890D01*
X139764Y155083D02*
Y155118D01*
X118898Y148425D02*
X119067Y148595D01*
X118146Y145286D02*
X119806D01*
X113517Y145669D02*
X117763D01*
X121161Y143390D02*
X131185D01*
X120758Y142987D02*
X121161Y143390D01*
X72930Y103474D02*
X112444Y142987D01*
X119067Y148595D02*
Y150351D01*
X117763Y145669D02*
X118146Y145286D01*
X112444Y142987D02*
X120758D01*
X119067Y150351D02*
X123748Y155032D01*
X131185Y143390D02*
X139370Y151575D01*
X140595Y148571D02*
X140657D01*
X130115Y138091D02*
X140595Y148571D01*
X140551Y145276D02*
X140613D01*
X142956Y147619D01*
X121428Y138091D02*
X130115D01*
X121260Y137922D02*
X121428Y138091D01*
X114961Y148721D02*
Y151575D01*
X116142Y152756D01*
X72459Y104611D02*
X113517Y145669D01*
X46714Y88363D02*
X50559D01*
X60505Y98309D01*
X46596Y88481D02*
X46714Y88363D01*
X60505Y98309D02*
X64417D01*
X37402Y92520D02*
X37455Y92467D01*
X42610D01*
X46596Y88481D01*
X49606Y90723D02*
X58329Y99446D01*
X63945D01*
X49606Y90662D02*
Y90723D01*
X57087Y89370D02*
X57237Y89521D01*
X58927D01*
X72880Y103474D01*
X67589Y99791D02*
X72409Y104611D01*
X64417Y98309D02*
X65899Y99791D01*
X65428Y100928D02*
X67118D01*
X71938Y105748D01*
X65899Y99791D02*
X67589D01*
X72409Y104611D02*
X72459D01*
X73496Y107257D02*
X114961Y148721D01*
X71988Y105748D02*
X73496Y107257D01*
Y107257D01*
X71938Y105748D02*
X71988D01*
X72880Y103474D02*
X72930D01*
X34646Y116535D02*
X38189Y112992D01*
X38583D01*
X63945Y99446D02*
X65428Y100928D01*
X136221Y126378D02*
Y137402D01*
X140551Y141732D01*
D26*
X41839Y51968D02*
D03*
X36114D02*
D03*
X142676Y37421D02*
D03*
X136952D02*
D03*
D34*
X70922Y108323D02*
D03*
X66874Y104275D02*
D03*
X89512D02*
D03*
X93559Y108323D02*
D03*
X77110Y94827D02*
D03*
X81158Y98874D02*
D03*
D35*
X38583Y112992D02*
D03*
X42631Y108944D02*
D03*
X58606Y111866D02*
D03*
X62654Y107819D02*
D03*
X55063Y108323D02*
D03*
X59111Y104275D02*
D03*
X51519Y104780D02*
D03*
X55567Y100732D02*
D03*
X47976Y101237D02*
D03*
X52024Y97189D02*
D03*
X63048Y80260D02*
D03*
X59000Y84307D02*
D03*
X41283Y87654D02*
D03*
X45331Y83606D02*
D03*
X64118Y89425D02*
D03*
X68165Y85378D02*
D03*
X65803Y127504D02*
D03*
X61756Y131551D02*
D03*
X69236Y94544D02*
D03*
X73284Y90496D02*
D03*
D65*
X127559Y35146D02*
D03*
Y29421D02*
D03*
X127953Y13492D02*
D03*
Y7768D02*
D03*
D125*
X29528Y36417D02*
X39307D01*
X50160Y47271D01*
X54011D01*
X56225D02*
X59716D01*
X64871Y52425D01*
X68094Y57128D02*
Y58605D01*
X70358Y60868D01*
X71809Y62319D02*
X73746Y64256D01*
X75396D01*
X79176Y65822D02*
X81775Y68421D01*
X82251D01*
X84466D02*
X87950D01*
X103470Y83941D01*
X105035Y85507D02*
X106774Y87245D01*
Y88270D01*
X110236Y91732D01*
X16142Y114173D02*
Y117323D01*
X165902Y108735D02*
Y110950D01*
Y103223D02*
Y105438D01*
Y97712D02*
Y99926D01*
D127*
X65803Y127504D02*
X65867Y127440D01*
Y122427D02*
Y127440D01*
X63292Y119852D02*
X65867Y122427D01*
X44459Y97693D02*
X47976Y101210D01*
X44459Y97667D02*
Y97693D01*
X55063Y108323D02*
X58606Y111866D01*
X61848Y115108D02*
Y116105D01*
X58606Y111866D02*
X61848Y115108D01*
X61782Y116171D02*
X61848Y116105D01*
X47976Y101210D02*
Y101237D01*
X51519Y104780D01*
D132*
X54011Y47271D02*
X56225D01*
X82251Y68421D02*
X84466D01*
X24918Y70549D02*
X30861D01*
X70826Y72524D02*
X72161Y73859D01*
D133*
X75396Y64256D02*
X77610D01*
X79176Y65822D01*
X103470Y83941D02*
X105035Y85507D01*
D135*
X99406Y126772D02*
X103937D01*
X54505Y86402D02*
X57417D01*
X73381Y102366D02*
X75000D01*
X57417Y86402D02*
X73381Y102366D01*
X75000D02*
X99406Y126772D01*
D141*
X161728Y62681D02*
X166339Y58071D01*
X161728Y62681D02*
Y96538D01*
X154043Y54507D02*
X155609Y56073D01*
X16142Y81212D02*
Y83985D01*
Y81212D02*
X19283Y78071D01*
X19283D01*
X9063Y118780D02*
X11024Y116819D01*
X160555Y97712D02*
X161728Y96538D01*
D150*
X5906Y51181D02*
D03*
D151*
X31496Y131811D02*
D03*
D152*
Y141811D02*
D03*
D153*
X5906Y81417D02*
D03*
Y115433D02*
D03*
D154*
X21654Y81417D02*
D03*
Y115433D02*
D03*
D155*
X73465Y8189D02*
D03*
X54961D02*
D03*
D156*
X46457Y25197D02*
D03*
X58268D02*
D03*
X70079D02*
D03*
X81890Y37008D02*
D03*
X70079D02*
D03*
X58268D02*
D03*
X46457D02*
D03*
D157*
X81890Y25197D02*
D03*
D158*
X85546Y106216D02*
D03*
X148031Y42520D02*
D03*
X151575D02*
D03*
X137571Y28679D02*
D03*
X138212Y25475D02*
D03*
X85331Y85303D02*
D03*
X81890Y86695D02*
D03*
X4921Y121063D02*
D03*
X37402Y92520D02*
D03*
X37014Y88976D02*
D03*
X32677Y94488D02*
D03*
X49606Y90662D02*
D03*
X47667Y94459D02*
D03*
X62913Y123559D02*
D03*
X123748Y155032D02*
D03*
X116142Y152756D02*
D03*
X121260Y137922D02*
D03*
X122164Y141062D02*
D03*
X140657Y148571D02*
D03*
X140551Y145276D02*
D03*
X89775Y135816D02*
D03*
X45603Y111090D02*
D03*
X69749Y75194D02*
D03*
X119806Y145286D02*
D03*
X118898Y148425D02*
D03*
X139370Y151575D02*
D03*
X139764Y155083D02*
D03*
X149238Y22356D02*
D03*
X63878Y54823D02*
D03*
X78347Y59941D02*
D03*
X29528Y36417D02*
D03*
X5906Y136811D02*
D03*
X100394Y141732D02*
D03*
X128937Y124016D02*
D03*
X87598Y92520D02*
D03*
X140551Y141732D02*
D03*
X136221Y126378D02*
D03*
X49606Y81102D02*
D03*
X54505Y86402D02*
D03*
X57087Y89370D02*
D03*
X103937Y126772D02*
D03*
X40157Y119291D02*
D03*
X37795Y121653D02*
D03*
X94882Y170079D02*
D03*
X163779Y20866D02*
D03*
X164567Y17717D02*
D03*
Y14567D02*
D03*
Y11417D02*
D03*
X138189Y19685D02*
D03*
Y16535D02*
D03*
Y13386D02*
D03*
Y10236D02*
D03*
X140945Y8661D02*
D03*
X142913Y6299D02*
D03*
X146850D02*
D03*
X151181D02*
D03*
X155905D02*
D03*
X159843Y6693D02*
D03*
X162205Y9055D02*
D03*
X141783Y16949D02*
D03*
X161074Y13406D02*
D03*
X133071Y3543D02*
D03*
X163779Y25197D02*
D03*
X127953Y44882D02*
D03*
X146457Y53150D02*
D03*
X158661Y58268D02*
D03*
X23995Y130532D02*
D03*
X55905Y140551D02*
D03*
X53543Y138583D02*
D03*
X37402Y125984D02*
D03*
X60630Y137795D02*
D03*
X59055Y140157D02*
D03*
X50394Y138976D02*
D03*
X46850Y135827D02*
D03*
X43701Y132677D02*
D03*
X40551Y129528D02*
D03*
X160680Y20295D02*
D03*
X110236Y91732D02*
D03*
X173425Y56102D02*
D03*
X166339Y58071D02*
D03*
X60236Y94095D02*
D03*
X88189Y139764D02*
D03*
X93724Y140922D02*
D03*
X83835Y126355D02*
D03*
X43110Y100886D02*
D03*
X29528Y110236D02*
D03*
X11811Y143701D02*
D03*
X150591Y157480D02*
D03*
D159*
X73284Y90496D02*
D03*
X62205Y65809D02*
D03*
X56988Y59153D02*
D03*
X70778Y66929D02*
D03*
X18504Y52559D02*
D03*
X20965Y56693D02*
D03*
X23425Y52559D02*
D03*
X36114Y51968D02*
D03*
X36220Y46850D02*
D03*
X42036D02*
D03*
X42126Y51968D02*
D03*
X44390Y56693D02*
D03*
X18504Y61417D02*
D03*
X23425D02*
D03*
X34938D02*
D03*
X42126D02*
D03*
X29134Y40945D02*
D03*
X89969Y50428D02*
D03*
X89083Y65748D02*
D03*
X95092Y65492D02*
D03*
X82871Y72524D02*
D03*
X93618Y58071D02*
D03*
X84244Y50428D02*
D03*
X83969Y58071D02*
D03*
X83358Y65748D02*
D03*
X76503Y66929D02*
D03*
X13780Y175197D02*
D03*
X55512Y66929D02*
D03*
X55118Y44597D02*
D03*
X173228Y86614D02*
D03*
Y78740D02*
D03*
X42631Y108944D02*
D03*
X41080Y87857D02*
D03*
X53341Y98099D02*
D03*
X62992Y145669D02*
D03*
X47244D02*
D03*
X39370D02*
D03*
X128937Y58071D02*
D03*
X153543Y141732D02*
D03*
X185039Y102362D02*
D03*
X51181Y31496D02*
D03*
X109252Y58071D02*
D03*
X173228Y82677D02*
D03*
X138779Y58071D02*
D03*
X110236Y74803D02*
D03*
X141732D02*
D03*
X177165Y102362D02*
D03*
X35433Y31496D02*
D03*
X192913Y102362D02*
D03*
X92520Y24606D02*
D03*
X169291Y125984D02*
D03*
X181102Y106299D02*
D03*
X39370Y27559D02*
D03*
X7874Y59055D02*
D03*
X188976Y122047D02*
D03*
X149606Y31496D02*
D03*
X154528D02*
D03*
X11811Y102362D02*
D03*
X144685Y31496D02*
D03*
X11811Y86614D02*
D03*
X163386Y29528D02*
D03*
X102362Y78740D02*
D03*
X11811Y110236D02*
D03*
X102362Y94488D02*
D03*
Y102362D02*
D03*
Y118110D02*
D03*
Y86614D02*
D03*
Y110236D02*
D03*
X181102Y31496D02*
D03*
X188976D02*
D03*
Y39370D02*
D03*
X185039Y35433D02*
D03*
X192913D02*
D03*
X125984Y74803D02*
D03*
X173228Y90551D02*
D03*
X181102Y47244D02*
D03*
Y39370D02*
D03*
X119095Y58071D02*
D03*
X192913Y43307D02*
D03*
X185039D02*
D03*
X188976Y47244D02*
D03*
X13780Y21654D02*
D03*
X173228Y98425D02*
D03*
X192913Y51181D02*
D03*
X118110Y11811D02*
D03*
X153543Y74803D02*
D03*
X114173Y31496D02*
D03*
Y15748D02*
D03*
X163386Y39764D02*
D03*
X90551Y3937D02*
D03*
X118110D02*
D03*
X114173Y7874D02*
D03*
X35433Y3937D02*
D03*
X43307D02*
D03*
X118110Y47244D02*
D03*
Y19685D02*
D03*
Y27559D02*
D03*
X114173Y23622D02*
D03*
X82677Y3937D02*
D03*
X102362Y70866D02*
D03*
X19685Y3937D02*
D03*
X62992D02*
D03*
X39370Y78740D02*
D03*
X141732Y2953D02*
D03*
X39370Y11811D02*
D03*
X11811Y3937D02*
D03*
Y94488D02*
D03*
X27559Y3937D02*
D03*
X31496Y11811D02*
D03*
X35433Y19685D02*
D03*
X161417Y2953D02*
D03*
X122047Y118110D02*
D03*
X153543Y125984D02*
D03*
X3937Y98425D02*
D03*
X161417Y125984D02*
D03*
X185039D02*
D03*
X59055Y161417D02*
D03*
X35433D02*
D03*
X192913Y125984D02*
D03*
X185039Y118110D02*
D03*
X106299Y98425D02*
D03*
X110236Y118110D02*
D03*
X106299Y114173D02*
D03*
X188976Y106299D02*
D03*
X185039Y110236D02*
D03*
X192913Y118110D02*
D03*
X31496Y114173D02*
D03*
X188976D02*
D03*
X106299Y106299D02*
D03*
X192913Y110236D02*
D03*
X3937Y106299D02*
D03*
Y90551D02*
D03*
X39370Y137795D02*
D03*
X43307Y141732D02*
D03*
X62992Y157480D02*
D03*
X55118D02*
D03*
Y145669D02*
D03*
X7874Y153543D02*
D03*
X39370Y157480D02*
D03*
X90551Y173228D02*
D03*
X74803Y161417D02*
D03*
X47244Y157480D02*
D03*
X31496D02*
D03*
X86614Y169291D02*
D03*
X153543Y137795D02*
D03*
X51181Y161417D02*
D03*
X23622Y149606D02*
D03*
X66929Y161417D02*
D03*
X70866Y157480D02*
D03*
X43307Y161417D02*
D03*
X185039Y181102D02*
D03*
X82677Y165354D02*
D03*
X94488Y177165D02*
D03*
X98425Y181102D02*
D03*
X192913Y173228D02*
D03*
X106299Y145669D02*
D03*
X129921Y173228D02*
D03*
X125984Y169291D02*
D03*
X188976Y177165D02*
D03*
X15748Y153543D02*
D03*
X185039Y27559D02*
D03*
X192913D02*
D03*
X188976Y23622D02*
D03*
X181102D02*
D03*
X192913Y19685D02*
D03*
X185039D02*
D03*
X177165D02*
D03*
X173228Y15748D02*
D03*
X181102D02*
D03*
X188976D02*
D03*
X169291Y11811D02*
D03*
X177165D02*
D03*
X185039D02*
D03*
X192913D02*
D03*
X188976Y7874D02*
D03*
X181102D02*
D03*
X173228D02*
D03*
X169291Y3937D02*
D03*
X177165D02*
D03*
X185039D02*
D03*
X192913D02*
D03*
X27458Y121654D02*
D03*
X66645Y104097D02*
D03*
X72441Y97638D02*
D03*
X93593Y132249D02*
D03*
X81890Y135039D02*
D03*
X37937Y104139D02*
D03*
X14764Y69882D02*
D03*
X132496Y162598D02*
D03*
X126772D02*
D03*
X4921Y189947D02*
D03*
X174409Y25295D02*
D03*
X133858Y69291D02*
D03*
X183858Y54724D02*
D03*
X142964Y37335D02*
D03*
X136952Y37421D02*
D03*
X50804Y132429D02*
D03*
X155661Y11634D02*
D03*
X146999Y18327D02*
D03*
X162932Y53149D02*
D03*
X156717Y53400D02*
D03*
X143418Y44455D02*
D03*
X137785Y44508D02*
D03*
X52196Y121572D02*
D03*
X46024Y119976D02*
D03*
X61079Y130653D02*
D03*
X97244Y135039D02*
D03*
X96500Y117500D02*
D03*
X89741Y144905D02*
D03*
X188740Y139370D02*
D03*
X177165Y139658D02*
D03*
X164567Y145571D02*
D03*
X147925Y146850D02*
D03*
X145906Y153337D02*
D03*
X110943Y157677D02*
D03*
X117717Y161417D02*
D03*
X99106Y158268D02*
D03*
X73567Y137346D02*
D03*
X77614Y141394D02*
D03*
X73811Y145465D02*
D03*
X65331Y137031D02*
D03*
X34646Y116535D02*
D03*
X63292Y119852D02*
D03*
X65803Y127504D02*
D03*
X89308Y104072D02*
D03*
X68166Y85378D02*
D03*
X127658Y35017D02*
D03*
Y30017D02*
D03*
Y13524D02*
D03*
X37937Y98425D02*
D03*
X64990Y112963D02*
D03*
X70922Y108323D02*
D03*
X81158Y98874D02*
D03*
X62992Y102362D02*
D03*
X63048Y80260D02*
D03*
X177165Y145382D02*
D03*
X22638Y6904D02*
D03*
X17035Y38780D02*
D03*
X62857Y107615D02*
D03*
X128937Y68898D02*
D03*
X11213Y159055D02*
D03*
X45331Y83606D02*
D03*
X59000Y84307D02*
D03*
X77110Y94827D02*
D03*
X64118Y89425D02*
D03*
X69236Y94544D02*
D03*
X55567Y100732D02*
D03*
X59111Y104275D02*
D03*
X156456Y160787D02*
D03*
X99152Y164567D02*
D03*
X134933Y168110D02*
D03*
X186221Y151094D02*
D03*
X170866Y145382D02*
D03*
X153650Y146850D02*
D03*
X123937Y132874D02*
D03*
X193937D02*
D03*
X168740Y109843D02*
D03*
X163228D02*
D03*
X157717D02*
D03*
Y104331D02*
D03*
X163228D02*
D03*
X168740D02*
D03*
Y98819D02*
D03*
X163228D02*
D03*
X157717D02*
D03*
X193937Y63976D02*
D03*
X127658Y8524D02*
D03*
X118898Y68898D02*
D03*
X143701Y124016D02*
D03*
X138937Y132874D02*
D03*
X158937D02*
D03*
X188976Y57874D02*
D03*
X61782Y116171D02*
D03*
X51519Y104780D02*
D03*
D160*
X72835Y52362D02*
D03*
Y59842D02*
D03*
X75098Y56102D02*
D03*
X70571D02*
D03*
X129921Y145768D02*
D03*
X126870Y148819D02*
D03*
X129921Y151870D02*
D03*
X132972Y148819D02*
D03*
X129921D02*
D03*
X23917Y111024D02*
D03*
Y85827D02*
D03*
D162*
X41553Y46850D02*
D03*
X36220D02*
D03*
D163*
X34938Y61417D02*
D03*
X41440D02*
D03*
D164*
X64990Y112963D02*
D03*
X61782Y116171D02*
D03*
X47667Y94459D02*
D03*
X44459Y97667D02*
D03*
D165*
X37937Y98425D02*
D03*
Y104139D02*
D03*
D166*
X64871Y52425D02*
X68094Y55649D01*
Y57128D01*
X70358Y60868D02*
X71809Y62319D01*
M02*
