*
*
G04 PADS VX.2 Build Number: 5060570 generated Gerber (RS-274-X) file*
G04 PC Version=2.1*
*
%IN "PCB_#30823_ESP32-WROVER"*%
*
%MOIN*%
*
%FSLAX35Y35*%
*
*
*
*
G04 PC Standard Apertures*
*
*
G04 Thermal Relief Aperture macro.*
%AMTER*
1,1,$1,0,0*
1,0,$1-$2,0,0*
21,0,$3,$4,0,0,45*
21,0,$3,$4,0,0,135*
%
*
*
G04 Annular Aperture macro.*
%AMANN*
1,1,$1,0,0*
1,0,$2,0,0*
%
*
*
G04 Odd Aperture macro.*
%AMODD*
1,1,$1,0,0*
1,0,$1-0.005,0,0*
%
*
*
G04 PC Custom Aperture Macros*
*
*
*
*
*
*
G04 PC Aperture Table*
*
%ADD010C,0.001*%
%ADD028C,0.015*%
%ADD030C,0.01*%
%ADD031C,0.012*%
%ADD037C,0.005*%
%ADD114R,0.06693X0.03543*%
%ADD138C,0.01575*%
*
*
*
*
G04 PC Circuitry*
G04 Layer Name PCB_#30823_ESP32-WROVER - circuitry*
%LPD*%
*
*
G04 PC Custom Flashes*
G04 Layer Name PCB_#30823_ESP32-WROVER - flashes*
%LPD*%
*
*
G04 PC Circuitry*
G04 Layer Name PCB_#30823_ESP32-WROVER - circuitry*
%LPD*%
*
G54D10*
G54D28*
G01X120320Y165316D02*
Y184658D01*
X123017Y187355*
X125500Y184872D02*
Y176622D01*
X129375Y172747*
X139875*
X120320Y165266D02*
Y155952D01*
X121650Y154622*
X134875*
X138375Y151122*
Y150872*
X125125Y186247D02*
X125500Y185872D01*
Y184872*
X139875Y172747D02*
Y173122D01*
X141000Y174247*
X139875Y172747D02*
Y168722D01*
X143300*
X139875D02*
Y162497D01*
X140646Y161726*
X143625Y161747*
X125500Y184872D02*
X123017Y187355D01*
X123284Y187622*
X123750*
G54D30*
X100000Y223622D02*
X170866D01*
Y100000*
X100000*
Y223622*
G54D31*
X117000Y141497D02*
X121000D01*
X124750Y145247*
X133750*
X138475Y140522*
X140100*
X115625Y164997D02*
Y165266D01*
X120320*
G54D37*
Y165316D01*
X113750Y146622D02*
X114400Y147272D01*
Y153397*
X115875Y154872*
X113750Y146622D02*
Y139497D01*
X117125Y136122*
X167125*
X168935Y134312*
X170866*
X110625Y147427D02*
X111250Y148052D01*
Y152497*
X116750Y157997*
X110625Y147427D02*
Y136747D01*
X114000Y133372*
X162375*
X166435Y129312*
X170880*
X108000Y153872D02*
X112080Y157952D01*
X114596*
X114676Y158032*
Y158183*
X108000Y153872D02*
Y134497D01*
X111625Y130872*
X135155*
X142405Y123622*
X170170*
Y123602*
X170880Y124312*
X107000Y154522D02*
X111520Y159042D01*
X113170*
X114750Y160622*
X107000Y154522D02*
Y133997D01*
X111125Y129872*
X134625*
X141875Y122622*
X165670*
X168910Y119382*
Y119312*
X170880*
X164050Y172572D02*
X166800Y175322D01*
X169856*
X170866Y174312*
X164050Y172572D02*
Y171172D01*
X164750Y170472*
X163000Y173122D02*
X169190Y179312D01*
X170866*
X163000Y173122D02*
Y170622D01*
X163750Y169872*
X144500Y152247D02*
Y151622D01*
X148000Y148122*
X161250*
X163750Y150622*
Y169872*
X142500Y152872D02*
Y152052D01*
X147430Y147122*
X161664*
X164750Y150208*
Y170472*
X126000Y185747D02*
X121375D01*
Y186413*
X121375D02*
X123209Y188247D01*
X124146*
X126000Y186393*
X126000D02*
Y185747D01*
X121375Y186196D02*
X126000D01*
X121607Y186646D02*
X125748D01*
X122057Y187096D02*
X125298D01*
X122507Y187546D02*
X124848D01*
X122957Y187996D02*
X124398D01*
X154038Y116747D02*
G75*
G03X154038I-1538J0D01*
G01X149038Y116797D02*
G03X149038I-1538J0D01*
G01X143238Y118372D02*
G03X143238I-1538J0D01*
G01X128788Y121747D02*
G03X128788I-1538J0D01*
G01X126788Y126872D02*
G03X126788I-1538J0D01*
G01X121663Y117747D02*
G03X121663I-1538J0D01*
G01X116163Y117997D02*
G03X116163I-1538J0D01*
G01X141788Y156222D02*
G03X141788I-1538J0D01*
G01X136038Y139122D02*
G03X136038I-1538J0D01*
G01X131398Y141642D02*
G03X131398I-1538J0D01*
G01X141913Y146497D02*
G03X141913I-1538J0D01*
G01X118798Y151622D02*
G03X118798I-1538J0D01*
G01X159038Y130372D02*
G03X159038I-1538J0D01*
G01X154038Y130497D02*
G03X154038I-1538J0D01*
G01X148038D02*
G03X148038I-1538J0D01*
G01X169616Y198722D02*
G03X169466Y198872I-150J0D01*
G01X101400*
G03X101250Y198722I0J-150*
G01Y192602*
G03X101400Y192452I150J0*
G01X104347*
X104597Y192202D02*
G03X104347Y192452I-250J0D01*
G01X104597Y192202D02*
Y126422D01*
X104347Y126172D02*
G03X104597Y126422I0J250D01*
G01X104347Y126172D02*
X101400D01*
G03X101250Y126022I0J-150*
G01Y122602*
G03X101400Y122452I150J0*
G01X104347*
X104597Y122202D02*
G03X104347Y122452I-250J0D01*
G01X104597Y122202D02*
Y101422D01*
Y101408D02*
G03Y101422I-250J14D01*
G01Y101408D02*
G03X104596Y101400I149J-8D01*
X104746Y101250I150J0*
G01X166120*
G03X166270Y101400I-0J150*
X166269Y101408I-150J0*
G01Y101422D02*
G03Y101408I250J0D01*
G01Y101422D02*
Y120547D01*
G03X166225Y120653I-150J-0*
G01X165300Y121578*
G03X165194Y121622I-106J-106*
G01X141875*
X141168Y121915D02*
G03X141875Y121622I707J707D01*
G01X141168Y121915D02*
X134255Y128828D01*
G03X134149Y128872I-106J-106*
G01X111125*
X110418Y129165D02*
G03X111125Y128872I707J707D01*
G01X110418Y129165D02*
X106293Y133290D01*
X106000Y133997D02*
G03X106293Y133290I1000J0D01*
G01X106000Y133997D02*
Y154522D01*
X106294Y155230D02*
G03X106000Y154522I706J-708D01*
G01X106294Y155230D02*
X110813Y159749D01*
X111520Y160042D02*
G03X110813Y159749I0J-1000D01*
G01X111520Y160042D02*
X112694D01*
G03X112800Y160086I-0J150*
G01X113170Y160456*
G03X113214Y160562I-106J106*
G01X113214*
G03X113213Y160567I-150J-0*
G01X113212Y160622D02*
G03X113213Y160567I1538J0D01*
G01X114147Y162036D02*
G03X113212Y160622I603J-1414D01*
G01X114147Y162036D02*
G03X114238Y162174I-59J138D01*
X114225Y162236I-150J0*
G01X114087Y162872D02*
G03X114225Y162236I1538J0D01*
G01X114431Y163840D02*
G03X114087Y162872I1194J-968D01*
G01X114430Y163840D02*
G03X114464Y163935I-116J95D01*
X114430Y164029I-150J-0*
G01X114097Y164825D02*
G03X114431Y164029I1528J172D01*
G01X114097Y164825D02*
G03X113926Y164956I-149J-17D01*
G01X112162Y166477D02*
G03X113926Y164956I1538J0D01*
G01X113353Y167975D02*
G03X112162Y166477I347J-1498D01*
G01X113353Y167975D02*
G03X113469Y168121I-34J146D01*
G01X113469*
G03Y168134I-150J0*
G01X113463Y168264D02*
G03X113469Y168134I1537J8D01*
G01X113462Y168264D02*
G03X113285Y168411I-149J-0D01*
G01X111462Y169922D02*
G03X113285Y168411I1538J0D01*
G01X112547Y171391D02*
G03X111462Y169922I453J-1469D01*
G01X112547Y171391D02*
G03X112652Y171535I-45J144D01*
X112502Y171685I-150J-0*
G01X110962Y173222D02*
G03X112502Y171685I1538J0D01*
G01X111357Y174250D02*
G03X110962Y173222I1143J-1028D01*
G01X111357Y174250D02*
G03X111395Y174350I-112J100D01*
X111206Y174495I-150J0*
G01X109262Y175978D02*
G03X111206Y174495I1538J0D01*
G01X111087Y177489D02*
G03X109262Y175978I-287J-1511D01*
G01X111087Y177489D02*
G03X111265Y177636I28J147D01*
G01X111265*
G03X111264Y177644I-150J-0*
G01X111262Y177722D02*
G03X111264Y177644I1538J0D01*
G01X111262Y177722D02*
X111262D01*
X111297Y178044D02*
G03X111262Y177722I1503J-322D01*
G01X111297Y178044D02*
G03X111300Y178076I-147J32D01*
X111046Y178184I-150J-0*
G01X108443Y179293D02*
G03X111046Y178184I1538J-0D01*
G01X111518Y179293D02*
G03X108443I-1537J-0D01*
G01X111518D02*
X111518D01*
X111484Y178971D02*
G03X111518Y179293I-1503J322D01*
G01X111484Y178971D02*
G03X111481Y178939I147J-32D01*
X111735Y178831I150J0*
G01X114338Y177722D02*
G03X111735Y178831I-1538J0D01*
G01X112513Y176211D02*
G03X114338Y177722I287J1511D01*
G01X112513Y176211D02*
G03X112335Y176064I-28J-147D01*
G01X112335*
G03X112336Y176056I150J0*
G01X112338Y175978D02*
G03X112336Y176056I-1538J0D01*
G01X111943Y174950D02*
G03X112338Y175978I-1143J1028D01*
G01X111943Y174950D02*
G03X111905Y174850I112J-100D01*
X112094Y174705I150J-0*
G01X113244Y174567D02*
G03X112094Y174705I-744J-1345D01*
G01X113244Y174567D02*
G03X113467Y174699I73J132D01*
Y174710I-150J-0*
G01X113462Y174822D02*
G03X113467Y174710I1538J0D01*
G01X113462Y174822D02*
X113462D01*
X116538D02*
G03X113462I-1538J0D01*
G01X115415Y173341D02*
G03X116538Y174822I-415J1481D01*
G01X115415Y173341D02*
G03X115305Y173197I40J-144D01*
X115415Y173053I150J0*
G01X116538Y171572D02*
G03X115415Y173053I-1538J0D01*
G01X115322Y170069D02*
G03X116538Y171572I-322J1503D01*
G01X115322Y170069D02*
G03X115204Y169922I32J-147D01*
X115322Y169775I150J0*
G01X116538Y168272D02*
G03X115322Y169775I-1538J0D01*
G01X115693Y166900D02*
G03X116538Y168272I-693J1372D01*
G01X115693Y166900D02*
G03X115611Y166766I68J-134D01*
X115761Y166616I150J-0*
G01X118670*
G03X118820Y166766I-0J150*
G01Y184658*
X119259Y185718D02*
G03X118820Y184658I1061J-1060D01*
G01X119259Y185718D02*
X122224Y188683D01*
X122304Y188758D02*
G03X122224Y188683I980J-1136D01*
G01X122304Y188758D02*
G03X122313Y188765I-98J113D01*
G01X122501Y188954*
X123209Y189247D02*
G03X122501Y188954I-0J-1000D01*
G01X123209Y189247D02*
X124146D01*
X124854Y188954D02*
G03X124146Y189247I-708J-707D01*
G01X124854Y188954D02*
X126707Y187101D01*
X127000Y186393D02*
G03X126707Y187101I-1000J0D01*
G01X127000Y186393D02*
Y177306D01*
G03X127044Y177199I150J-0*
G01X129952Y174291*
G03X130058Y174247I106J106*
G01X138817*
G03X138923Y174291I-0J150*
G01X139689Y175058*
G03X139709Y175082I-106J106*
G01X142538Y174247D02*
G03X139709Y175082I-1538J0D01*
G01X141835Y172956D02*
G03X142538Y174247I-835J1291D01*
G01X141835Y172956D02*
G03X141811Y172936I82J-126D01*
G01X141419Y172545*
G03X141375Y172439I106J-106*
G01Y170372*
G03X141525Y170222I150J0*
G01X142946*
G03X142978Y170225I0J150*
G01X144838Y168722D02*
G03X142978Y170225I-1538J0D01*
G01Y167219D02*
G03X144838Y168722I322J1503D01*
G01X142978Y167219D02*
G03X142946Y167222I-32J-147D01*
G01X141525*
G03X141375Y167072I0J-150*
G01Y163382*
G03X141526Y163232I150J0*
G01X143260Y163244*
G03X143292Y163248I-1J150*
G01X145163Y161747D02*
G03X143292Y163248I-1538J0D01*
G01X144859Y160830D02*
G03X145163Y161747I-1234J917D01*
G01X144859Y160830D02*
G03X144829Y160740I120J-90D01*
X144937Y160596I150J0*
G01X146038Y159122D02*
G03X144937Y160596I-1538J0D01*
G01X142962Y159122D02*
G03X146038I1538J0D01*
G01X143243Y160007D02*
G03X142962Y159122I1257J-885D01*
G01X143243Y160007D02*
G03X143270Y160093I-123J86D01*
X143119Y160243I-150J0*
G01X140657Y160226*
X139586Y160665D02*
G03X140657Y160226I1060J1061D01*
G01X139586Y160665D02*
X138814Y161436D01*
X138375Y162497D02*
G03X138814Y161436I1500J0D01*
G01X138375Y162497D02*
Y171097D01*
G03X138225Y171247I-150J0*
G01X129375*
X128314Y171686D02*
G03X129375Y171247I1061J1061D01*
G01X128314Y171686D02*
X124439Y175561D01*
X124000Y176622D02*
G03X124439Y175561I1500J0D01*
G01X124000Y176622D02*
Y184189D01*
G03X123956Y184295I-150J-0*
G01X123548Y184703*
G03X123442Y184747I-106J-106*
G01X122593*
G03X122487Y184703I-0J-150*
G01X121864Y184080*
G03X121820Y183974I106J-106*
G01Y165316*
Y165293D02*
G03Y165316I-1500J23D01*
G01Y165293D02*
Y165291D01*
Y165288*
Y165266D02*
G03Y165288I-1500J-0D01*
G01Y165266D02*
Y156636D01*
G03X121864Y156529I150J-0*
G01X122227Y156166*
G03X122333Y156122I106J106*
G01X134875*
X135936Y155683D02*
G03X134875Y156122I-1061J-1061D01*
G01X135936Y155683D02*
X139436Y152183D01*
X139871Y151236D02*
G03X139436Y152183I-1496J-114D01*
G01X139871Y151236D02*
G03X139874Y151214I149J11D01*
G01X139913Y150872D02*
G03X139874Y151214I-1538J0D01*
G01X136896Y150453D02*
G03X139913Y150872I1479J419D01*
G01X136896Y150453D02*
G03X136857Y150518I-145J-41D01*
G01X134298Y153078*
G03X134192Y153122I-106J-106*
G01X121650*
X120589Y153561D02*
G03X121650Y153122I1061J1061D01*
G01X120589Y153561D02*
X119259Y154891D01*
X118820Y155952D02*
G03X119259Y154891I1500J0D01*
G01X118820Y155952D02*
Y163766D01*
G03X118670Y163916I-150J-0*
G01X117057*
G03X116907Y163766I-0J-150*
X116929Y163686I150J-0*
G01X117163Y162872D02*
G03X116929Y163686I-1538J0D01*
G01X116228Y161458D02*
G03X117163Y162872I-603J1414D01*
G01X116228Y161458D02*
G03X116137Y161320I59J-138D01*
X116150Y161258I150J-0*
G01X116288Y160622D02*
G03X116150Y161258I-1538J0D01*
G01X115917Y159621D02*
G03X116288Y160622I-1167J1001D01*
G01X115917Y159621D02*
G03X115881Y159524I114J-97D01*
X116095Y159388I150J-0*
G01X118288Y157997D02*
G03X116095Y159388I-1538J0D01*
G01X116758Y156460D02*
G03X118288Y157997I-8J1537D01*
G01X116758Y156460D02*
G03X116609Y156310I1J-150D01*
X116680Y156182I150J-0*
G01X117413Y154872D02*
G03X116680Y156182I-1538J0D01*
G01X115820Y153336D02*
G03X117413Y154872I55J1536D01*
G01X115820Y153336D02*
G03X115709Y153292I-5J-150D01*
G01X115444Y153027*
G03X115400Y152921I106J-106*
G01Y147272*
X115107Y146565D02*
G03X115400Y147272I-707J707D01*
G01X115107Y146565D02*
X114794Y146252D01*
G03X114750Y146146I106J-106*
G01Y139973*
G03X114794Y139867I150J0*
G01X117495Y137166*
G03X117601Y137122I106J106*
G01X166119*
G03X166269Y137272I-0J150*
G01Y173015*
G03X166013Y173121I-150J-0*
G01X165094Y172202*
G03X165050Y172096I106J-106*
G01Y171648*
G03X165094Y171542I150J0*
G01X165456Y171180*
X165750Y170472D02*
G03X165456Y171180I-1000J0D01*
G01X165750Y170472D02*
Y150208D01*
X165457Y149501D02*
G03X165750Y150208I-707J707D01*
G01X165457Y149501D02*
X162371Y146415D01*
X161664Y146122D02*
G03X162371Y146415I0J1000D01*
G01X161664Y146122D02*
X147430D01*
X146723Y146415D02*
G03X147430Y146122I707J707D01*
G01X146723Y146415D02*
X141793Y151345D01*
X141608Y151600D02*
G03X141793Y151345I892J452D01*
G01X141608Y151600D02*
G03X141565Y151651I-134J-68D01*
G01X140962Y152872D02*
G03X141565Y151651I1538J0D01*
G01X143771Y153738D02*
G03X140962Y152872I-1271J-866D01*
G01X143771Y153738D02*
G03X143948Y153682I124J84D01*
G01X146038Y152247D02*
G03X143948Y153682I-1538J0D01*
G01X145943Y151716D02*
G03X146038Y152247I-1443J531D01*
G01X145943Y151716D02*
G03X145934Y151665I141J-51D01*
X145978Y151559I150J-0*
G01X148370Y149166*
G03X148476Y149122I106J106*
G01X160774*
G03X160880Y149166I-0J150*
G01X162706Y150992*
G03X162750Y151098I-106J106*
G01Y169396*
G03X162706Y169502I-150J-0*
G01X162293Y169915*
X162000Y170622D02*
G03X162293Y169915I1000J0D01*
G01X162000Y170622D02*
Y173122D01*
X162294Y173830D02*
G03X162000Y173122I706J-708D01*
G01X162294Y173830D02*
X166225Y177761D01*
G03X166269Y177867I-106J106*
G01Y192202*
X166519Y192452D02*
G03X166269Y192202I0J-250D01*
G01X166519Y192452D02*
X169466D01*
G03X169616Y192602I0J150*
G01Y198722*
X113472Y171748D02*
G03X113249Y171879I-150J0D01*
G01X112953Y171753D02*
G03X113249Y171879I-453J1469D01*
G01X112953Y171753D02*
G03X112848Y171610I45J-143D01*
X112998Y171460I150J-0*
G01X113285Y171433D02*
G03X112998Y171460I-285J-1511D01*
G01X113285Y171433D02*
G03X113462Y171580I28J147D01*
G01X113471Y171732D02*
G03X113463Y171580I1529J-160D01*
G01X113471Y171732D02*
G03X113472Y171748I-149J16D01*
G01X166269Y128206D02*
G03X166160Y128351I-150J0D01*
G01X165728Y128605D02*
G03X166160Y128351I707J707D01*
G01X165728Y128605D02*
X162005Y132328D01*
G03X161899Y132372I-106J-106*
G01X114000*
X113293Y132665D02*
G03X114000Y132372I707J707D01*
G01X113293Y132665D02*
X109918Y136040D01*
X109625Y136747D02*
G03X109918Y136040I1000J0D01*
G01X109625Y136747D02*
Y147427D01*
X109919Y148135D02*
G03X109625Y147427I706J-708D01*
G01X109919Y148135D02*
X110206Y148422D01*
G03X110250Y148528I-106J106*
G01Y152497*
X110543Y153204D02*
G03X110250Y152497I707J-707D01*
G01X110543Y153204D02*
X113948Y156609D01*
G03X113992Y156715I-106J106*
G01X113992D02*
G03X113916Y156846I-150J0D01*
G01X113792Y156925D02*
G03X113916Y156846I884J1258D01*
G01X113792Y156925D02*
G03X113705Y156952I-87J-123D01*
G01X112556*
G03X112450Y156908I0J-150*
G01X109044Y153502*
G03X109000Y153396I106J-106*
G01Y134973*
G03X109044Y134867I150J0*
G01X111995Y131916*
G03X112101Y131872I106J106*
G01X135155*
X135862Y131579D02*
G03X135155Y131872I-707J-707D01*
G01X135862Y131579D02*
X142775Y124666D01*
G03X142881Y124622I106J106*
G01X166119*
G03X166269Y124772I-0J150*
G01Y128206*
Y134972D02*
G03X166119Y135122I-150J0D01*
G01X117125*
X116418Y135415D02*
G03X117125Y135122I707J707D01*
G01X116418Y135415D02*
X113043Y138790D01*
X112750Y139497D02*
G03X113043Y138790I1000J0D01*
G01X112750Y139497D02*
Y146622D01*
X113044Y147330D02*
G03X112750Y146622I706J-708D01*
G01X113044Y147330D02*
X113356Y147642D01*
G03X113400Y147748I-106J106*
G01Y152871*
G03X113144Y152977I-150J-0*
G01X112294Y152127*
G03X112250Y152021I106J-106*
G01Y148052*
X111957Y147345D02*
G03X112250Y148052I-707J707D01*
G01X111957Y147345D02*
X111669Y147057D01*
G03X111625Y146951I106J-106*
G01Y137223*
G03X111669Y137117I150J0*
G01X114370Y134416*
G03X114476Y134372I106J106*
G01X162375*
X163082Y134079D02*
G03X162375Y134372I-707J-707D01*
G01X163082Y134079D02*
X166013Y131148D01*
G03X166269Y131254I106J106*
G01Y134972*
X154038Y116747D02*
G03X154038I-1538J0D01*
G01X149038Y116797D02*
G03X149038I-1538J0D01*
G01X143238Y118372D02*
G03X143238I-1538J0D01*
G01X128788Y121747D02*
G03X128788I-1538J0D01*
G01X126788Y126872D02*
G03X126788I-1538J0D01*
G01X121663Y117747D02*
G03X121663I-1538J0D01*
G01X116163Y117997D02*
G03X116163I-1538J0D01*
G01X141788Y156222D02*
G03X141788I-1538J0D01*
G01X136038Y139122D02*
G03X136038I-1538J0D01*
G01X131398Y141642D02*
G03X131398I-1538J0D01*
G01X139396Y139155D02*
G03X141638Y140522I704J1367D01*
G01X139396Y139155D02*
G03X139327Y139172I-69J-133D01*
G01X138475*
X137520Y139567D02*
G03X138475Y139172I955J955D01*
G01X137520Y139567D02*
X133235Y143853D01*
G03X133129Y143897I-106J-106*
G01X125371*
G03X125265Y143853I0J-150*
G01X121955Y140542*
X121000Y140147D02*
G03X121955Y140542I0J1350D01*
G01X121000Y140147D02*
X117773D01*
G03X117704Y140130I0J-150*
G01X115462Y141497D02*
G03X117704Y140130I1538J0D01*
G01Y142864D02*
G03X115462Y141497I-704J-1367D01*
G01X117704Y142864D02*
G03X117773Y142847I69J133D01*
G01X120379*
G03X120485Y142891I-0J150*
G01X123795Y146202*
X124750Y146597D02*
G03X123795Y146202I0J-1350D01*
G01X124750Y146597D02*
X133750D01*
X134705Y146202D02*
G03X133750Y146597I-955J-955D01*
G01X134705Y146202D02*
X138990Y141916D01*
G03X139096Y141872I106J106*
G01X139327*
G03X139396Y141889I-0J150*
G01X141638Y140522D02*
G03X139396Y141889I-1538J0D01*
G01X141913Y146497D02*
G03X141913I-1538J0D01*
G01X165750Y194480D02*
Y187050D01*
X165500Y186800D02*
G03X165750Y187050I0J250D01*
G01X165500Y186800D02*
X158600D01*
X158350Y187050D02*
G03X158600Y186800I250J-0D01*
G01X158350Y187050D02*
Y194480D01*
X158600Y194730D02*
G03X158350Y194480I0J-250D01*
G01X158600Y194730D02*
X165500D01*
X165750Y194480D02*
G03X165500Y194730I-250J-0D01*
G01X130864Y149215D02*
G03X133913Y149497I1511J282D01*
G01X130864Y149215D02*
G03X130708Y149337I-148J-28D01*
G01X129088Y150864D02*
G03X130708Y149337I1537J8D01*
G01X129087Y150864D02*
G03Y150872I-149J-1D01*
Y150880I-149J9*
G01X132136Y151155D02*
G03X129088Y150880I-1511J-283D01*
G01X132136Y151155D02*
G03X132292Y151032I148J27D01*
G01X133913Y149497D02*
G03X132292Y151032I-1538J0D01*
G01X128788Y150872D02*
G03Y150864I150J-9D01*
G01X126854Y149386D02*
G03X128788Y150864I396J1486D01*
G01X126854Y149386D02*
G03X126676Y149298I-39J-145D01*
G01X125107Y148341D02*
G03X126676Y149298I143J1531D01*
G01X125107Y148341D02*
G03X124952Y148241I-13J-149D01*
G01X121962Y148747D02*
G03X124952Y148241I1538J0D01*
G01X123643Y150278D02*
G03X121962Y148747I-143J-1531D01*
G01X123643Y150278D02*
G03X123798Y150378I13J149D01*
G01X125646Y151358D02*
G03X123798Y150378I-396J-1486D01*
G01X125646Y151358D02*
G03X125824Y151447I39J145D01*
G01X128788Y150880D02*
G03X125824Y151447I-1538J-8D01*
G01X128788Y150880D02*
G03Y150872I150J1D01*
G01X118798Y151622D02*
G03X118798I-1538J0D01*
G01X113465Y182342D02*
G03X116538Y182422I1535J80D01*
G01X113465Y182342D02*
G03X113331Y182484I-150J-7D01*
G01X112211Y183174D02*
G03X113331Y182484I1289J838D01*
G01X112211Y183174D02*
G03X111944Y183144I-126J-81D01*
G01X108962Y183672D02*
G03X111944Y183144I1538J0D01*
G01X111789Y184510D02*
G03X108962Y183672I-1289J-838D01*
G01X111789Y184510D02*
G03X112056Y184540I126J81D01*
G01X115035Y184092D02*
G03X112056Y184540I-1535J-80D01*
G01X115035Y184092D02*
G03X115169Y183950I150J7D01*
G01X116538Y182422D02*
G03X115169Y183950I-1538J0D01*
G01X159038Y130372D02*
G03X159038I-1538J0D01*
G01X154038Y130497D02*
G03X154038I-1538J0D01*
G01X148038D02*
G03X148038I-1538J0D01*
G01X101250Y198449D02*
X169616D01*
X101250Y197999D02*
X169616D01*
X101250Y197549D02*
X169616D01*
X101250Y197099D02*
X169616D01*
X101250Y196649D02*
X169616D01*
X101250Y196199D02*
X169616D01*
X101250Y195749D02*
X169616D01*
X101250Y195299D02*
X169616D01*
X101250Y194849D02*
X169616D01*
X165750Y194399D02*
X169616D01*
X165750Y193949D02*
X169616D01*
X165750Y193499D02*
X169616D01*
X165750Y193049D02*
X169616D01*
X165750Y192599D02*
X169616D01*
X165750Y192149D02*
X166269D01*
X165750Y191699D02*
X166269D01*
X165750Y191249D02*
X166269D01*
X165750Y190799D02*
X166269D01*
X165750Y190349D02*
X166269D01*
X165750Y189899D02*
X166269D01*
X165750Y189449D02*
X166269D01*
X165750Y188999D02*
X166269D01*
X165750Y188549D02*
X166269D01*
X165750Y188099D02*
X166269D01*
X165750Y187649D02*
X166269D01*
X165750Y187199D02*
X166269D01*
X126935Y186749D02*
X166269D01*
X127000Y186299D02*
X166269D01*
X127000Y185849D02*
X166269D01*
X127000Y185399D02*
X166269D01*
X127000Y184949D02*
X166269D01*
X127000Y184499D02*
X166269D01*
X127000Y184049D02*
X166269D01*
X127000Y183599D02*
X166269D01*
X127000Y183149D02*
X166269D01*
X127000Y182699D02*
X166269D01*
X127000Y182249D02*
X166269D01*
X127000Y181799D02*
X166269D01*
X127000Y181349D02*
X166269D01*
X127000Y180899D02*
X166269D01*
X127000Y180449D02*
X166269D01*
X127000Y179999D02*
X166269D01*
X127000Y179549D02*
X166269D01*
X127000Y179099D02*
X166269D01*
X127000Y178649D02*
X166269D01*
X127000Y178199D02*
X166269D01*
X165691Y172799D02*
X166269D01*
X165241Y172349D02*
X166269D01*
X165050Y171899D02*
X166269D01*
X165188Y171449D02*
X166269D01*
X165600Y170999D02*
X166269D01*
X165747Y170549D02*
X166269D01*
X165750Y170099D02*
X166269D01*
X165750Y169649D02*
X166269D01*
X165750Y169199D02*
X166269D01*
X165750Y168749D02*
X166269D01*
X165750Y168299D02*
X166269D01*
X165750Y167849D02*
X166269D01*
X165750Y167399D02*
X166269D01*
X165750Y166949D02*
X166269D01*
X165750Y166499D02*
X166269D01*
X165750Y166049D02*
X166269D01*
X165750Y165599D02*
X166269D01*
X165750Y165149D02*
X166269D01*
X165750Y164699D02*
X166269D01*
X165750Y164249D02*
X166269D01*
X165750Y163799D02*
X166269D01*
X165750Y163349D02*
X166269D01*
X165750Y162899D02*
X166269D01*
X165750Y162449D02*
X166269D01*
X165750Y161999D02*
X166269D01*
X165750Y161549D02*
X166269D01*
X165750Y161099D02*
X166269D01*
X165750Y160649D02*
X166269D01*
X165750Y160199D02*
X166269D01*
X165750Y159749D02*
X166269D01*
X165750Y159299D02*
X166269D01*
X165750Y158849D02*
X166269D01*
X165750Y158399D02*
X166269D01*
X165750Y157949D02*
X166269D01*
X165750Y157499D02*
X166269D01*
X165750Y157049D02*
X166269D01*
X165750Y156599D02*
X166269D01*
X165750Y156149D02*
X166269D01*
X165750Y155699D02*
X166269D01*
X165750Y155249D02*
X166269D01*
X165750Y154799D02*
X166269D01*
X165750Y154349D02*
X166269D01*
X165750Y153899D02*
X166269D01*
X165750Y153449D02*
X166269D01*
X165750Y152999D02*
X166269D01*
X165750Y152549D02*
X166269D01*
X165750Y152099D02*
X166269D01*
X165750Y151649D02*
X166269D01*
X165750Y151199D02*
X166269D01*
X165750Y150749D02*
X166269D01*
X165750Y150299D02*
X166269D01*
X165683Y149849D02*
X166269D01*
X165355Y149399D02*
X166269D01*
X164905Y148949D02*
X166269D01*
X164455Y148499D02*
X166269D01*
X164005Y148049D02*
X166269D01*
X163555Y147599D02*
X166269D01*
X163105Y147149D02*
X166269D01*
X162655Y146699D02*
X166269D01*
X162151Y146249D02*
X166269D01*
X141745Y145799D02*
X166269D01*
X141397Y145349D02*
X166269D01*
X136008Y144899D02*
X166269D01*
X136458Y144449D02*
X166269D01*
X136908Y143999D02*
X166269D01*
X137358Y143549D02*
X166269D01*
X137808Y143099D02*
X166269D01*
X138258Y142649D02*
X166269D01*
X138708Y142199D02*
X166269D01*
X141027Y141749D02*
X166269D01*
X141427Y141299D02*
X166269D01*
X141602Y140849D02*
X166269D01*
X141633Y140399D02*
X166269D01*
X141527Y139949D02*
X166269D01*
X141247Y139499D02*
X166269D01*
X140540Y139049D02*
X166269D01*
X135946Y138599D02*
X166269D01*
X135690Y138149D02*
X166269D01*
X135081Y137699D02*
X166269D01*
X104597Y120149D02*
X166269D01*
X142477Y119699D02*
X166269D01*
X142963Y119249D02*
X166269D01*
X143177Y118799D02*
X166269D01*
X143237Y118349D02*
X166269D01*
X153519Y117899D02*
X166269D01*
X153868Y117449D02*
X166269D01*
X154017Y116999D02*
X166269D01*
X154025Y116549D02*
X166269D01*
X153894Y116099D02*
X166269D01*
X153576Y115649D02*
X166269D01*
X104597Y115199D02*
X166269D01*
X104597Y114749D02*
X166269D01*
X104597Y114299D02*
X166269D01*
X104597Y113849D02*
X166269D01*
X104597Y113399D02*
X166269D01*
X104597Y112949D02*
X166269D01*
X104597Y112499D02*
X166269D01*
X104597Y112049D02*
X166269D01*
X104597Y111599D02*
X166269D01*
X104597Y111149D02*
X166269D01*
X104597Y110699D02*
X166269D01*
X104597Y110249D02*
X166269D01*
X104597Y109799D02*
X166269D01*
X104597Y109349D02*
X166269D01*
X104597Y108899D02*
X166269D01*
X104597Y108449D02*
X166269D01*
X104597Y107999D02*
X166269D01*
X104597Y107549D02*
X166269D01*
X104597Y107099D02*
X166269D01*
X104597Y106649D02*
X166269D01*
X104597Y106199D02*
X166269D01*
X104597Y105749D02*
X166269D01*
X104597Y105299D02*
X166269D01*
X104597Y104849D02*
X166269D01*
X104597Y104399D02*
X166269D01*
X104597Y103949D02*
X166269D01*
X104597Y103499D02*
X166269D01*
X104597Y103049D02*
X166269D01*
X104597Y102599D02*
X166269D01*
X104597Y102149D02*
X166269D01*
X104597Y101699D02*
X166269D01*
X117413Y137249D02*
X166267D01*
X128272Y120599D02*
X166260D01*
X127000Y177749D02*
X166212D01*
X128620Y121049D02*
X165829D01*
X127000Y177299D02*
X165762D01*
X128767Y121499D02*
X165379D01*
X127395Y176849D02*
X165312D01*
X127845Y176399D02*
X164862D01*
X128295Y175949D02*
X164412D01*
X141893Y175499D02*
X163962D01*
X142312Y175049D02*
X163512D01*
X142497Y174599D02*
X163062D01*
X144762Y169199D02*
X162750D01*
X144837Y168749D02*
X162750D01*
X144778Y168299D02*
X162750D01*
X144565Y167849D02*
X162750D01*
X144083Y167399D02*
X162750D01*
X141375Y166949D02*
X162750D01*
X141375Y166499D02*
X162750D01*
X141375Y166049D02*
X162750D01*
X141375Y165599D02*
X162750D01*
X141375Y165149D02*
X162750D01*
X141375Y164699D02*
X162750D01*
X141375Y164249D02*
X162750D01*
X141375Y163799D02*
X162750D01*
X141379Y163349D02*
X162750D01*
X144644Y162899D02*
X162750D01*
X144993Y162449D02*
X162750D01*
X145142Y161999D02*
X162750D01*
X145150Y161549D02*
X162750D01*
X145019Y161099D02*
X162750D01*
X144860Y160649D02*
X162750D01*
X145598Y160199D02*
X162750D01*
X145904Y159749D02*
X162750D01*
X146027Y159299D02*
X162750D01*
X146013Y158849D02*
X162750D01*
X145857Y158399D02*
X162750D01*
X145494Y157949D02*
X162750D01*
X141107Y157499D02*
X162750D01*
X141546Y157049D02*
X162750D01*
X141741Y156599D02*
X162750D01*
X141786Y156149D02*
X162750D01*
X141696Y155699D02*
X162750D01*
X141440Y155249D02*
X162750D01*
X140831Y154799D02*
X162750D01*
X142928Y154349D02*
X162750D01*
X143645Y153899D02*
X162750D01*
X145459Y153449D02*
X162750D01*
X145841Y152999D02*
X162750D01*
X146008Y152549D02*
X162750D01*
X146030Y152099D02*
X162750D01*
X145935Y151649D02*
X162750D01*
X146338Y151199D02*
X162750D01*
X142534Y174149D02*
X162612D01*
X144527Y169649D02*
X162559D01*
X146788Y150749D02*
X162462D01*
X142436Y173699D02*
X162183D01*
X143985Y170099D02*
X162148D01*
X147238Y150299D02*
X162012D01*
X142169Y173249D02*
X162008D01*
X141375Y170549D02*
X162003D01*
X141673Y172799D02*
X162000D01*
X141375Y172349D02*
X162000D01*
X141375Y171899D02*
X162000D01*
X141375Y171449D02*
X162000D01*
X141375Y170999D02*
X162000D01*
X147688Y149849D02*
X161562D01*
X148138Y149399D02*
X161112D01*
X101250Y194399D02*
X158350D01*
X101250Y193949D02*
X158350D01*
X101250Y193499D02*
X158350D01*
X101250Y193049D02*
X158350D01*
X101250Y192599D02*
X158350D01*
X104597Y192149D02*
X158350D01*
X104597Y191699D02*
X158350D01*
X104597Y191249D02*
X158350D01*
X104597Y190799D02*
X158350D01*
X104597Y190349D02*
X158350D01*
X104597Y189899D02*
X158350D01*
X104597Y189449D02*
X158350D01*
X124806Y188999D02*
X158350D01*
X125259Y188549D02*
X158350D01*
X125709Y188099D02*
X158350D01*
X126159Y187649D02*
X158350D01*
X126609Y187199D02*
X158350D01*
X148573Y117899D02*
X151481D01*
X148522Y115649D02*
X151424D01*
X148893Y117449D02*
X151132D01*
X148870Y116099D02*
X151106D01*
X149024Y116999D02*
X150983D01*
X149017Y116549D02*
X150975D01*
X141892Y146249D02*
X146943D01*
X104597Y115649D02*
X146478D01*
X141899Y146699D02*
X146439D01*
X143163Y117899D02*
X146427D01*
X104597Y116099D02*
X146130D01*
X142929Y117449D02*
X146107D01*
X141768Y147149D02*
X145989D01*
X121088Y116549D02*
X145983D01*
X142391Y116999D02*
X145976D01*
X141448Y147599D02*
X145539D01*
X132891Y148049D02*
X145089D01*
X133544Y148499D02*
X144639D01*
X133811Y148949D02*
X144189D01*
X138815Y149399D02*
X143739D01*
X121820Y157949D02*
X143506D01*
X139522Y149849D02*
X143289D01*
X121820Y160199D02*
X143227D01*
X121820Y158399D02*
X143143D01*
X121820Y159749D02*
X143096D01*
X121820Y158849D02*
X142987D01*
X121820Y159299D02*
X142973D01*
X139802Y150299D02*
X142839D01*
X139908Y150749D02*
X142389D01*
X137270Y154349D02*
X142072D01*
X139877Y151199D02*
X141939D01*
X139780Y151649D02*
X141569D01*
X137720Y153899D02*
X141355D01*
X139514Y152099D02*
X141171D01*
X128774Y121949D02*
X141134D01*
X138170Y153449D02*
X141075D01*
X121468Y116999D02*
X141009D01*
X139070Y152549D02*
X140997D01*
X138620Y152999D02*
X140968D01*
X104597Y119699D02*
X140923D01*
X128643Y122399D02*
X140684D01*
X121633Y117449D02*
X140471D01*
X120455Y119249D02*
X140437D01*
X121655Y117899D02*
X140237D01*
X128323Y122849D02*
X140234D01*
X121247Y118799D02*
X140223D01*
X121540Y118349D02*
X140163D01*
X128745Y175499D02*
X140107D01*
X101250Y123299D02*
X139784D01*
X129195Y175049D02*
X139680D01*
X136820Y154799D02*
X139669D01*
X136036Y139049D02*
X139660D01*
X121820Y160649D02*
X139602D01*
X121820Y157499D02*
X139393D01*
X135558Y145349D02*
X139353D01*
X101250Y123749D02*
X139334D01*
X124522Y147599D02*
X139302D01*
X129645Y174599D02*
X139230D01*
X121820Y161099D02*
X139152D01*
X136370Y155249D02*
X139060D01*
X135108Y145799D02*
X139005D01*
X115392Y147149D02*
X138982D01*
X121820Y157049D02*
X138954D01*
X101250Y124199D02*
X138884D01*
X134655Y146249D02*
X138858D01*
X115219Y146699D02*
X138851D01*
X135919Y155699D02*
X138804D01*
X121825Y156599D02*
X138759D01*
X122248Y156149D02*
X138714D01*
X121820Y161549D02*
X138713D01*
X121820Y161999D02*
X138460D01*
X101250Y124649D02*
X138434D01*
X121820Y162449D02*
X138376D01*
X121820Y170999D02*
X138375D01*
X121820Y170549D02*
X138375D01*
X121820Y170099D02*
X138375D01*
X121820Y169649D02*
X138375D01*
X121820Y169199D02*
X138375D01*
X121820Y168749D02*
X138375D01*
X121820Y168299D02*
X138375D01*
X121820Y167849D02*
X138375D01*
X121820Y167399D02*
X138375D01*
X121820Y166949D02*
X138375D01*
X121820Y166499D02*
X138375D01*
X121820Y166049D02*
X138375D01*
X121820Y165599D02*
X138375D01*
X121820Y165149D02*
X138375D01*
X121820Y164699D02*
X138375D01*
X121820Y164249D02*
X138375D01*
X121820Y163799D02*
X138375D01*
X121820Y163349D02*
X138375D01*
X121820Y162899D02*
X138375D01*
X101250Y125099D02*
X137984D01*
X133909Y149399D02*
X137935D01*
X135991Y139499D02*
X137594D01*
X126033Y125549D02*
X137534D01*
X133872Y149849D02*
X137228D01*
X135796Y139949D02*
X137139D01*
X126515Y125999D02*
X137084D01*
X133687Y150299D02*
X136948D01*
X135357Y140399D02*
X136689D01*
X126728Y126449D02*
X136634D01*
X133268Y150749D02*
X136627D01*
X131177Y140849D02*
X136239D01*
X126787Y126899D02*
X136184D01*
X132127Y151199D02*
X136177D01*
X131359Y141299D02*
X135789D01*
X126712Y127349D02*
X135734D01*
X131952Y151649D02*
X135727D01*
X131394Y141749D02*
X135339D01*
X126477Y127799D02*
X135284D01*
X131552Y152099D02*
X135277D01*
X131293Y142199D02*
X134889D01*
X125935Y128249D02*
X134834D01*
X118487Y152549D02*
X134827D01*
X131022Y142649D02*
X134439D01*
X104597Y128699D02*
X134384D01*
X117945Y152999D02*
X134377D01*
X130352Y143099D02*
X133989D01*
X116963Y137699D02*
X133919D01*
X130764Y140399D02*
X133643D01*
X124961Y143549D02*
X133539D01*
X116513Y138149D02*
X133310D01*
X114752Y139949D02*
X133204D01*
X116063Y138599D02*
X133054D01*
X115163Y139499D02*
X133009D01*
X115613Y139049D02*
X132964D01*
X124870Y148049D02*
X131859D01*
X125941Y148499D02*
X131206D01*
X126479Y148949D02*
X130939D01*
X127690Y149399D02*
X130185D01*
X128177Y152099D02*
X129698D01*
X128398Y149849D02*
X129478D01*
X124511Y143099D02*
X129368D01*
X128577Y151649D02*
X129298D01*
X128677Y150299D02*
X129198D01*
X128752Y151199D02*
X129123D01*
X128783Y150749D02*
X129092D01*
X121785Y140399D02*
X128956D01*
X124061Y142649D02*
X128698D01*
X121820Y171449D02*
X128624D01*
X122261Y140849D02*
X128543D01*
X123611Y142199D02*
X128427D01*
X122711Y141299D02*
X128361D01*
X123161Y141749D02*
X128326D01*
X121820Y171899D02*
X128102D01*
X121820Y172349D02*
X127652D01*
X121820Y172799D02*
X127202D01*
X121820Y173249D02*
X126752D01*
X118722Y152099D02*
X126323D01*
X121820Y173699D02*
X126302D01*
X104597Y120599D02*
X126228D01*
X101250Y122849D02*
X126177D01*
X118797Y151649D02*
X125923D01*
X104597Y121049D02*
X125880D01*
X104501Y122399D02*
X125857D01*
X121820Y174149D02*
X125852D01*
X104597Y121499D02*
X125733D01*
X104597Y121949D02*
X125726D01*
X121820Y174599D02*
X125402D01*
X121820Y175049D02*
X124952D01*
X104597Y128249D02*
X124565D01*
X121820Y175499D02*
X124502D01*
X118738Y151199D02*
X124473D01*
X101250Y125549D02*
X124467D01*
X121820Y175949D02*
X124160D01*
X104597Y127799D02*
X124023D01*
X121820Y176399D02*
X124017D01*
X121840Y184049D02*
X124000D01*
X121820Y183599D02*
X124000D01*
X121820Y183149D02*
X124000D01*
X121820Y182699D02*
X124000D01*
X121820Y182249D02*
X124000D01*
X121820Y181799D02*
X124000D01*
X121820Y181349D02*
X124000D01*
X121820Y180899D02*
X124000D01*
X121820Y180449D02*
X124000D01*
X121820Y179999D02*
X124000D01*
X121820Y179549D02*
X124000D01*
X121820Y179099D02*
X124000D01*
X121820Y178649D02*
X124000D01*
X121820Y178199D02*
X124000D01*
X121820Y177749D02*
X124000D01*
X121820Y177299D02*
X124000D01*
X121820Y176849D02*
X124000D01*
X118525Y150749D02*
X123987D01*
X101250Y125999D02*
X123985D01*
X114791Y146249D02*
X123845D01*
X104597Y127349D02*
X123788D01*
X104597Y126449D02*
X123772D01*
X122282Y184499D02*
X123752D01*
X118043Y150299D02*
X123734D01*
X104597Y126899D02*
X123713D01*
X114750Y145799D02*
X123392D01*
X114750Y145349D02*
X122942D01*
X104597Y188999D02*
X122549D01*
X114750Y144899D02*
X122492D01*
X115400Y147599D02*
X122478D01*
X115400Y149849D02*
X122427D01*
X115400Y148049D02*
X122130D01*
X115400Y149399D02*
X122107D01*
X104597Y188549D02*
X122090D01*
X114750Y144449D02*
X122042D01*
X115400Y148499D02*
X121983D01*
X115400Y148949D02*
X121976D01*
X104597Y188099D02*
X121640D01*
X114750Y143999D02*
X121592D01*
X104597Y187649D02*
X121190D01*
X114750Y143549D02*
X121142D01*
X104597Y187199D02*
X120740D01*
X116456Y153449D02*
X120715D01*
X114750Y143099D02*
X120692D01*
X104597Y186749D02*
X120290D01*
X117065Y153899D02*
X120252D01*
X104597Y186299D02*
X119840D01*
X117321Y154349D02*
X119802D01*
X115518Y119249D02*
X119795D01*
X104597Y185849D02*
X119390D01*
X117411Y154799D02*
X119352D01*
X115141Y116549D02*
X119162D01*
X114164Y185399D02*
X119016D01*
X115937Y118799D02*
X119003D01*
X117366Y155249D02*
X118995D01*
X114719Y184949D02*
X118848D01*
X117171Y155699D02*
X118842D01*
X114958Y184499D02*
X118820D01*
X115044Y184049D02*
X118820D01*
X115990Y183599D02*
X118820D01*
X116355Y183149D02*
X118820D01*
X116512Y182699D02*
X118820D01*
X116528Y182249D02*
X118820D01*
X116406Y181799D02*
X118820D01*
X116101Y181349D02*
X118820D01*
X115208Y180899D02*
X118820D01*
X110995Y180449D02*
X118820D01*
X111347Y179999D02*
X118820D01*
X111497Y179549D02*
X118820D01*
X113485Y179099D02*
X118820D01*
X114027Y178649D02*
X118820D01*
X114262Y178199D02*
X118820D01*
X114337Y177749D02*
X118820D01*
X114278Y177299D02*
X118820D01*
X114065Y176849D02*
X118820D01*
X113583Y176399D02*
X118820D01*
X116046Y175949D02*
X118820D01*
X116381Y175499D02*
X118820D01*
X116521Y175049D02*
X118820D01*
X116521Y174599D02*
X118820D01*
X116382Y174149D02*
X118820D01*
X116050Y173699D02*
X118820D01*
X115314Y173249D02*
X118820D01*
X115927Y172799D02*
X118820D01*
X116327Y172349D02*
X118820D01*
X116502Y171899D02*
X118820D01*
X116533Y171449D02*
X118820D01*
X116427Y170999D02*
X118820D01*
X116147Y170549D02*
X118820D01*
X115440Y170099D02*
X118820D01*
X115685Y169649D02*
X118820D01*
X116227Y169199D02*
X118820D01*
X116462Y168749D02*
X118820D01*
X116537Y168299D02*
X118820D01*
X116478Y167849D02*
X118820D01*
X116265Y167399D02*
X118820D01*
X115783Y166949D02*
X118820D01*
X117087Y163349D02*
X118820D01*
X117162Y162899D02*
X118820D01*
X117103Y162449D02*
X118820D01*
X116890Y161999D02*
X118820D01*
X116408Y161549D02*
X118820D01*
X116212Y161099D02*
X118820D01*
X116287Y160649D02*
X118820D01*
X116228Y160199D02*
X118820D01*
X116015Y159749D02*
X118820D01*
X117568Y159299D02*
X118820D01*
X118030Y158849D02*
X118820D01*
X118234Y158399D02*
X118820D01*
X118287Y157949D02*
X118820D01*
X118205Y157499D02*
X118820D01*
X117960Y157049D02*
X118820D01*
X117389Y156599D02*
X118820D01*
X116732Y156149D02*
X118820D01*
X116910Y163799D02*
X118816D01*
X115794Y116999D02*
X118782D01*
X116122Y118349D02*
X118710D01*
X116061Y117449D02*
X118617D01*
X116159Y117899D02*
X118595D01*
X115422Y152999D02*
X116575D01*
X115400Y150299D02*
X116477D01*
X115400Y152549D02*
X116033D01*
X115400Y150749D02*
X115995D01*
X114750Y142649D02*
X115981D01*
X114750Y140399D02*
X115924D01*
X115400Y152099D02*
X115798D01*
X115400Y151199D02*
X115782D01*
X115400Y151649D02*
X115723D01*
X114750Y142199D02*
X115632D01*
X114750Y140849D02*
X115606D01*
X114750Y141749D02*
X115483D01*
X114750Y141299D02*
X115475D01*
X104597Y180899D02*
X114792D01*
X104597Y163799D02*
X114398D01*
X104597Y164249D02*
X114282D01*
X104597Y163349D02*
X114163D01*
X104597Y162449D02*
X114147D01*
X104597Y164699D02*
X114117D01*
X104597Y116549D02*
X114109D01*
X104597Y162899D02*
X114088D01*
X104597Y161999D02*
X114065D01*
X112337Y175949D02*
X113954D01*
X104597Y181349D02*
X113899D01*
X104597Y119249D02*
X113732D01*
X112261Y175499D02*
X113619D01*
X104597Y181799D02*
X113595D01*
X104597Y161549D02*
X113523D01*
X112025Y175049D02*
X113479D01*
X111081Y182249D02*
X113472D01*
X104597Y168299D02*
X113458D01*
X104597Y116999D02*
X113456D01*
X113185Y174599D02*
X113429D01*
X104597Y118799D02*
X113313D01*
X104597Y161099D02*
X113288D01*
X104597Y160649D02*
X113213D01*
X104597Y117449D02*
X113189D01*
X104597Y118349D02*
X113128D01*
X104597Y117899D02*
X113091D01*
X104597Y167849D02*
X113005D01*
X104597Y165149D02*
X112926D01*
X104597Y160199D02*
X112912D01*
X104597Y185399D02*
X112836D01*
X111690Y182699D02*
X112701D01*
X104597Y171449D02*
X112625D01*
X104597Y167399D02*
X112469D01*
X104597Y165599D02*
X112438D01*
X111357Y184949D02*
X112281D01*
X104597Y166949D02*
X112237D01*
X111946Y183149D02*
X112228D01*
X104597Y166049D02*
X112223D01*
X104597Y166499D02*
X112163D01*
X111506Y179099D02*
X112115D01*
X111797Y184499D02*
X112033D01*
X104597Y168749D02*
X112006D01*
X104597Y170999D02*
X111902D01*
X104597Y171899D02*
X111717D01*
X104597Y169199D02*
X111643D01*
X104597Y170549D02*
X111596D01*
X104597Y169649D02*
X111487D01*
X104597Y170099D02*
X111473D01*
X104597Y174149D02*
X111273D01*
X104597Y177749D02*
X111263D01*
X111064Y178199D02*
X111236D01*
X104597Y172349D02*
X111235D01*
X104597Y173699D02*
X111038D01*
X104597Y172799D02*
X111022D01*
X104597Y173249D02*
X110963D01*
X104597Y159749D02*
X110812D01*
X104597Y129149D02*
X110434D01*
X104597Y159299D02*
X110362D01*
X104597Y174599D02*
X110121D01*
X104597Y177299D02*
X110013D01*
X104597Y129599D02*
X109984D01*
X104597Y182249D02*
X109919D01*
X104597Y158849D02*
X109912D01*
X104597Y184949D02*
X109643D01*
X104597Y175049D02*
X109575D01*
X104597Y130049D02*
X109534D01*
X104597Y176849D02*
X109533D01*
X104597Y158399D02*
X109462D01*
X104597Y175499D02*
X109339D01*
X104597Y176399D02*
X109321D01*
X104597Y182699D02*
X109310D01*
X104597Y175949D02*
X109263D01*
X104597Y184499D02*
X109204D01*
X104597Y130499D02*
X109084D01*
X104597Y183149D02*
X109054D01*
X104597Y157949D02*
X109012D01*
X104597Y184049D02*
X109009D01*
X104597Y180449D02*
X108967D01*
X104597Y183599D02*
X108964D01*
X104597Y178199D02*
X108901D01*
X104597Y130949D02*
X108634D01*
X104597Y179999D02*
X108615D01*
X104597Y178649D02*
X108585D01*
X104597Y157499D02*
X108562D01*
X104597Y179549D02*
X108465D01*
X104597Y179099D02*
X108456D01*
X104597Y131399D02*
X108184D01*
X104597Y157049D02*
X108112D01*
X104597Y131849D02*
X107734D01*
X104597Y156599D02*
X107662D01*
X104597Y132299D02*
X107284D01*
X104597Y156149D02*
X107212D01*
X104597Y132749D02*
X106834D01*
X104597Y155699D02*
X106762D01*
X104597Y133199D02*
X106384D01*
X104597Y155249D02*
X106312D01*
X104597Y133649D02*
X106063D01*
X104597Y154799D02*
X106039D01*
X104597Y154349D02*
X106000D01*
X104597Y153899D02*
X106000D01*
X104597Y153449D02*
X106000D01*
X104597Y152999D02*
X106000D01*
X104597Y152549D02*
X106000D01*
X104597Y152099D02*
X106000D01*
X104597Y151649D02*
X106000D01*
X104597Y151199D02*
X106000D01*
X104597Y150749D02*
X106000D01*
X104597Y150299D02*
X106000D01*
X104597Y149849D02*
X106000D01*
X104597Y149399D02*
X106000D01*
X104597Y148949D02*
X106000D01*
X104597Y148499D02*
X106000D01*
X104597Y148049D02*
X106000D01*
X104597Y147599D02*
X106000D01*
X104597Y147149D02*
X106000D01*
X104597Y146699D02*
X106000D01*
X104597Y146249D02*
X106000D01*
X104597Y145799D02*
X106000D01*
X104597Y145349D02*
X106000D01*
X104597Y144899D02*
X106000D01*
X104597Y144449D02*
X106000D01*
X104597Y143999D02*
X106000D01*
X104597Y143549D02*
X106000D01*
X104597Y143099D02*
X106000D01*
X104597Y142649D02*
X106000D01*
X104597Y142199D02*
X106000D01*
X104597Y141749D02*
X106000D01*
X104597Y141299D02*
X106000D01*
X104597Y140849D02*
X106000D01*
X104597Y140399D02*
X106000D01*
X104597Y139949D02*
X106000D01*
X104597Y139499D02*
X106000D01*
X104597Y139049D02*
X106000D01*
X104597Y138599D02*
X106000D01*
X104597Y138149D02*
X106000D01*
X104597Y137699D02*
X106000D01*
X104597Y137249D02*
X106000D01*
X104597Y136799D02*
X106000D01*
X104597Y136349D02*
X106000D01*
X104597Y135899D02*
X106000D01*
X104597Y135449D02*
X106000D01*
X104597Y134999D02*
X106000D01*
X104597Y134549D02*
X106000D01*
X104597Y134099D02*
X106000D01*
X113249Y171879D02*
X113395D01*
X139671Y127771D02*
X166269D01*
X140121Y127321D02*
X166269D01*
X140571Y126871D02*
X166269D01*
X141021Y126421D02*
X166269D01*
X141471Y125971D02*
X166269D01*
X141921Y125521D02*
X166269D01*
X142371Y125071D02*
X166269D01*
X139221Y128221D02*
X166268D01*
X138771Y128671D02*
X165662D01*
X158393Y129121D02*
X165212D01*
X158812Y129571D02*
X164762D01*
X158997Y130021D02*
X164312D01*
X159034Y130471D02*
X163862D01*
X158936Y130921D02*
X163412D01*
X158669Y131371D02*
X162962D01*
X158015Y131821D02*
X162512D01*
X111641Y132271D02*
X162062D01*
X153282Y131821D02*
X156985D01*
X153185Y129121D02*
X156607D01*
X153765Y131371D02*
X156331D01*
X153727Y129571D02*
X156188D01*
X153978Y130921D02*
X156064D01*
X153962Y130021D02*
X156003D01*
X154037Y130471D02*
X155966D01*
X147185Y129121D02*
X151815D01*
X147282Y131821D02*
X151718D01*
X147727Y129571D02*
X151273D01*
X147765Y131371D02*
X151235D01*
X147962Y130021D02*
X151038D01*
X147978Y130921D02*
X151022D01*
X148037Y130471D02*
X150963D01*
X138321Y129121D02*
X145815D01*
X135471Y131821D02*
X145718D01*
X137871Y129571D02*
X145273D01*
X136071Y131371D02*
X145235D01*
X137421Y130021D02*
X145038D01*
X136521Y130921D02*
X145022D01*
X136971Y130471D02*
X144963D01*
X112113Y156571D02*
X113909D01*
X111663Y156121D02*
X113459D01*
X111191Y132721D02*
X113237D01*
X111213Y155671D02*
X113009D01*
X110741Y133171D02*
X112787D01*
X110763Y155221D02*
X112559D01*
X110291Y133621D02*
X112337D01*
X110313Y154771D02*
X112109D01*
X109841Y134071D02*
X111887D01*
X109863Y154321D02*
X111659D01*
X109391Y134521D02*
X111437D01*
X109413Y153871D02*
X111209D01*
X109000Y134971D02*
X110987D01*
X109002Y153421D02*
X110759D01*
X109000Y135421D02*
X110537D01*
X109000Y152971D02*
X110369D01*
X109000Y152521D02*
X110250D01*
X109000Y152071D02*
X110250D01*
X109000Y151621D02*
X110250D01*
X109000Y151171D02*
X110250D01*
X109000Y150721D02*
X110250D01*
X109000Y150271D02*
X110250D01*
X109000Y149821D02*
X110250D01*
X109000Y149371D02*
X110250D01*
X109000Y148921D02*
X110250D01*
X109000Y148471D02*
X110238D01*
X109000Y135871D02*
X110087D01*
X109000Y148021D02*
X109820D01*
X109000Y136321D02*
X109720D01*
X109000Y147571D02*
X109635D01*
X109000Y147121D02*
X109625D01*
X109000Y146671D02*
X109625D01*
X109000Y146221D02*
X109625D01*
X109000Y145771D02*
X109625D01*
X109000Y145321D02*
X109625D01*
X109000Y144871D02*
X109625D01*
X109000Y144421D02*
X109625D01*
X109000Y143971D02*
X109625D01*
X109000Y143521D02*
X109625D01*
X109000Y143071D02*
X109625D01*
X109000Y142621D02*
X109625D01*
X109000Y142171D02*
X109625D01*
X109000Y141721D02*
X109625D01*
X109000Y141271D02*
X109625D01*
X109000Y140821D02*
X109625D01*
X109000Y140371D02*
X109625D01*
X109000Y139921D02*
X109625D01*
X109000Y139471D02*
X109625D01*
X109000Y139021D02*
X109625D01*
X109000Y138571D02*
X109625D01*
X109000Y138121D02*
X109625D01*
X109000Y137671D02*
X109625D01*
X109000Y137221D02*
X109625D01*
X109000Y136771D02*
X109625D01*
X114083Y134703D02*
X166269D01*
X162848Y134253D02*
X166269D01*
X163358Y133803D02*
X166269D01*
X163808Y133353D02*
X166269D01*
X164258Y132903D02*
X166269D01*
X164708Y132453D02*
X166269D01*
X165158Y132003D02*
X166269D01*
X165608Y131553D02*
X166269D01*
X113633Y135153D02*
X116878D01*
X113183Y135603D02*
X116230D01*
X112733Y136053D02*
X115780D01*
X112283Y136503D02*
X115330D01*
X111833Y136953D02*
X114880D01*
X111625Y137403D02*
X114430D01*
X111625Y137853D02*
X113980D01*
X111625Y138303D02*
X113530D01*
X112870Y152703D02*
X113400D01*
X112420Y152253D02*
X113400D01*
X112250Y151803D02*
X113400D01*
X112250Y151353D02*
X113400D01*
X112250Y150903D02*
X113400D01*
X112250Y150453D02*
X113400D01*
X112250Y150003D02*
X113400D01*
X112250Y149553D02*
X113400D01*
X112250Y149103D02*
X113400D01*
X112250Y148653D02*
X113400D01*
X112250Y148203D02*
X113400D01*
X112204Y147753D02*
X113400D01*
X111625Y138753D02*
X113080D01*
X111915Y147303D02*
X113018D01*
X111625Y139203D02*
X112794D01*
X111625Y146853D02*
X112777D01*
X111625Y146403D02*
X112750D01*
X111625Y145953D02*
X112750D01*
X111625Y145503D02*
X112750D01*
X111625Y145053D02*
X112750D01*
X111625Y144603D02*
X112750D01*
X111625Y144153D02*
X112750D01*
X111625Y143703D02*
X112750D01*
X111625Y143253D02*
X112750D01*
X111625Y142803D02*
X112750D01*
X111625Y142353D02*
X112750D01*
X111625Y141903D02*
X112750D01*
X111625Y141453D02*
X112750D01*
X111625Y141003D02*
X112750D01*
X111625Y140553D02*
X112750D01*
X111625Y140103D02*
X112750D01*
X111625Y139653D02*
X112750D01*
G54D114*
X100000Y194312D03*
Y114312D03*
Y174312D03*
X170866Y169312D03*
X100000Y109312D03*
X170866Y164312D03*
X100000Y104312D03*
Y164312D03*
X170866Y159312D03*
X170880Y104312D03*
X170866Y189312D03*
X100000Y159312D03*
X170866Y154312D03*
X170880Y109312D03*
X100000Y154312D03*
X170866Y139312D03*
X170880Y114312D03*
X100000Y149312D03*
X170866D03*
Y194312D03*
X100000Y144312D03*
X170866D03*
X100000Y139312D03*
X170866Y134312D03*
X100000D03*
X170880Y129312D03*
X100000D03*
X170880Y124312D03*
X100000Y119312D03*
X170880D03*
X170866Y184312D03*
X100000Y124312D03*
Y184312D03*
X170866Y179312D03*
X100000D03*
X170866Y174312D03*
X100000Y169312D03*
Y189312D03*
G54D138*
X108375Y102247D03*
X115780Y106512D03*
X118750Y102122D03*
X123375Y104872D03*
X126625Y102122D03*
X161625Y105747D03*
X165000Y101997D03*
X159250Y101872D03*
X129180Y106172D03*
X134500Y102122D03*
X142500D03*
X150350Y102072D03*
X150125Y105122D03*
X157480Y104331D03*
X120125Y117747D03*
X114625Y117997D03*
X117000Y141497D03*
X127250Y121747D03*
X125250Y126872D03*
X124960Y124792D03*
X105330Y129772D03*
X104875Y125497D03*
X105000Y123122D03*
X105330Y106792D03*
X105375Y112497D03*
X105350Y117272D03*
X112375Y137372D03*
X112250Y132622D03*
X112000Y127497D03*
X120125Y125122D03*
X116500Y123997D03*
X112750Y122497D03*
X109450Y119542D03*
X110600Y115822D03*
X112260Y111202D03*
X116190Y145747D03*
X121500Y145372D03*
X124875Y140372D03*
X145000Y142102D03*
X147500Y116797D03*
X140375Y146497D03*
X140100Y140522D03*
X152500Y116747D03*
X146500Y130497D03*
X134500Y139122D03*
X157500Y130372D03*
X141700Y118372D03*
X152500Y130497D03*
X129860Y141642D03*
X165625Y143247D03*
X161000Y131747D03*
X165625Y112747D03*
X149998Y142128D03*
X158750Y126747D03*
X155003Y142130D03*
X145250Y118902D03*
Y125747D03*
X129930Y123962D03*
X131987Y142112D03*
X136654Y139606D03*
X161000Y139747D03*
X165625Y138372D03*
Y134247D03*
Y127997D03*
X165670Y125202D03*
X165625Y119372D03*
X162000Y116622D03*
X157480Y116929D03*
X154760Y119532D03*
X154220Y125402D03*
X149750Y127122D03*
X149375Y130497D03*
X140970Y128632D03*
X137950Y123882D03*
X129930Y128302D03*
X132125Y120122D03*
X135875Y116747D03*
X139125Y112622D03*
X135500Y109247D03*
X132125Y110747D03*
X126752Y160866D03*
Y166378D03*
X115000Y174822D03*
X110800Y175978D03*
X117260Y151622D03*
X112800Y177722D03*
X115000Y171572D03*
X112500Y173222D03*
X110500Y183672D03*
X113500Y184012D03*
X115000Y182422D03*
X125250Y149872D03*
X123500Y148747D03*
X127250Y150872D03*
X115875Y154872D03*
X113000Y169922D03*
X115000Y168272D03*
X115625Y162872D03*
X113700Y166477D03*
X116750Y157997D03*
X109981Y179293D03*
X114676Y158183D03*
X114750Y160622D03*
X125125Y186247D03*
X115625Y164997D03*
X127569Y180172D03*
X109710Y149362D03*
X112830Y151492D03*
X118500Y154497D03*
X112860Y156322D03*
X112508Y160622D03*
X122750Y183997D03*
X118250Y183747D03*
X105180Y176842D03*
X107180Y178812D03*
X105665Y185231D03*
X108375Y185747D03*
X116625Y185497D03*
X126700Y158022D03*
X123996Y160866D03*
X126752Y163622D03*
X123996Y166378D03*
X126752Y169134D03*
X132264Y160866D03*
Y166378D03*
X144500Y152247D03*
X130625Y150872D03*
X144500Y159122D03*
X142500Y152872D03*
X140250Y156222D03*
X132375Y149497D03*
X143300Y168722D03*
X138375Y150872D03*
X143625Y161747D03*
X141000Y174247D03*
X161620Y150912D03*
X140830Y154152D03*
X144700Y147662D03*
X140375Y148747D03*
X129738Y177966D03*
X146980Y162802D03*
X149100Y159722D03*
X147000Y159122D03*
X154700Y153122D03*
X165710Y171882D03*
X156790Y184382D03*
X153000Y183997D03*
X150125Y184622D03*
X139780Y177272D03*
X155750Y171997D03*
X154000Y174222D03*
X152412Y171992D03*
X145625Y168497D03*
X151470Y168788D03*
X148609Y168489D03*
X149650Y171131D03*
X157750Y169622D03*
X144908Y185522D03*
X134470Y179682D03*
X134378Y183579D03*
X131200Y183322D03*
X132264Y169134D03*
X129508Y166378D03*
X135020D03*
X132264Y163622D03*
X129508Y160866D03*
X135020D03*
X132264Y158110D03*
X130649Y148166D03*
X149400Y155922D03*
X147000D03*
X163750Y181497D03*
X160038Y181561D03*
X162100Y153522D03*
X162125Y157122D03*
Y161122D03*
Y164497D03*
X162100Y168022D03*
X159600D03*
X160800Y170922D03*
X159500Y174122D03*
X157375Y179997D03*
X155208Y181522D03*
X150923Y181507D03*
X148756Y180114D03*
X146433Y181564D03*
X145513Y178626D03*
X142765Y179949D03*
X139763Y181921D03*
X139938Y185213D03*
X132460Y185682D03*
X130000Y185372D03*
X147640Y152412D03*
X150900Y153122D03*
X149020Y149972D03*
X152500Y149962D03*
X155900Y150012D03*
X159290Y149932D03*
X123750Y187622D03*
X125150Y197766D03*
X114235Y197781D03*
X115375Y191372D03*
X127000Y188372D03*
X124000Y190997D03*
X121908Y193322D03*
X122472Y196096D03*
X119376Y197731D03*
X117115Y196062D03*
X116625Y193372D03*
X110000Y192747D03*
X112750Y193497D03*
X111232Y196131D03*
X108136Y197781D03*
X102188Y197662D03*
X104975Y196166D03*
X104750Y193497D03*
X154860Y194632D03*
X156880Y194792D03*
X156790Y186732D03*
X154420D03*
X150956Y188827D03*
X147455Y187428D03*
X145875Y198122D03*
X137208Y197622D03*
X131980Y192252D03*
X130298Y197696D03*
X128107Y196236D03*
X156880Y197562D03*
X154685Y197570D03*
X149308Y197545D03*
X141308Y187615D03*
X140380Y189652D03*
X142807Y190951D03*
X145008Y190222D03*
X147640Y190983D03*
X147602Y196317D03*
X144188Y196333D03*
X141750Y198122D03*
X140328Y195774D03*
X137362Y194068D03*
X134408Y195622D03*
X134990Y190812D03*
X134446Y187358D03*
X129750Y187997D03*
X127660Y191902D03*
X168500Y197497D03*
G74*
X0Y0D02*
M02*
