*
*
G04 PADS VX.2 Build Number: 5060570 generated Gerber (RS-274-X) file*
G04 PC Version=2.1*
*
%IN "PCB_#30823_ESP32-WROVER"*%
*
%MOIN*%
*
%FSLAX35Y35*%
*
*
*
*
G04 PC Standard Apertures*
*
*
G04 Thermal Relief Aperture macro.*
%AMTER*
1,1,$1,0,0*
1,0,$1-$2,0,0*
21,0,$3,$4,0,0,45*
21,0,$3,$4,0,0,135*
%
*
*
G04 Annular Aperture macro.*
%AMANN*
1,1,$1,0,0*
1,0,$2,0,0*
%
*
*
G04 Odd Aperture macro.*
%AMODD*
1,1,$1,0,0*
1,0,$1-0.005,0,0*
%
*
*
G04 PC Custom Aperture Macros*
*
*
*
*
*
*
G04 PC Aperture Table*
*
%ADD010C,0.001*%
%ADD030C,0.01*%
*
*
*
*
G04 PC Circuitry*
G04 Layer Name PCB_#30823_ESP32-WROVER - circuitry*
%LPD*%
*
*
G04 PC Custom Flashes*
G04 Layer Name PCB_#30823_ESP32-WROVER - flashes*
%LPD*%
*
*
G04 PC Circuitry*
G04 Layer Name PCB_#30823_ESP32-WROVER - circuitry*
%LPD*%
*
G54D10*
G01X171220Y99912D02*
X171223D01*
X170866Y223622D02*
X170869D01*
G54D30*
X96000Y190312D02*
X104000Y198312D01*
X96000D02*
X104000Y190312D01*
X96000Y110312D02*
X104000Y118312D01*
X96000D02*
X104000Y110312D01*
X96000Y170312D02*
X104000Y178312D01*
X96000D02*
X104000Y170312D01*
X166866Y165312D02*
X174866Y173312D01*
X166866D02*
X174866Y165312D01*
X96000Y105312D02*
X104000Y113312D01*
X96000D02*
X104000Y105312D01*
X166866Y160312D02*
X174866Y168312D01*
X166866D02*
X174866Y160312D01*
X96000Y100312D02*
X104000Y108312D01*
X96000D02*
X104000Y100312D01*
X96000Y160312D02*
X104000Y168312D01*
X96000D02*
X104000Y160312D01*
X166866Y155312D02*
X174866Y163312D01*
X166866D02*
X174866Y155312D01*
X166880Y100312D02*
X174880Y108312D01*
X166880D02*
X174880Y100312D01*
X166866Y185312D02*
X174866Y193312D01*
X166866D02*
X174866Y185312D01*
X96000Y155312D02*
X104000Y163312D01*
X96000D02*
X104000Y155312D01*
X166866Y150312D02*
X174866Y158312D01*
X166866D02*
X174866Y150312D01*
X166880Y105312D02*
X174880Y113312D01*
X166880D02*
X174880Y105312D01*
X96000Y150312D02*
X104000Y158312D01*
X96000D02*
X104000Y150312D01*
X166866Y135312D02*
X174866Y143312D01*
X166866D02*
X174866Y135312D01*
X166880Y110312D02*
X174880Y118312D01*
X166880D02*
X174880Y110312D01*
X96000Y145312D02*
X104000Y153312D01*
X96000D02*
X104000Y145312D01*
X166866D02*
X174866Y153312D01*
X166866D02*
X174866Y145312D01*
X166866Y190312D02*
X174866Y198312D01*
X166866D02*
X174866Y190312D01*
X96000Y140312D02*
X104000Y148312D01*
X96000D02*
X104000Y140312D01*
X166866D02*
X174866Y148312D01*
X166866D02*
X174866Y140312D01*
X96000Y135312D02*
X104000Y143312D01*
X96000D02*
X104000Y135312D01*
X166866Y130312D02*
X174866Y138312D01*
X166866D02*
X174866Y130312D01*
X96000D02*
X104000Y138312D01*
X96000D02*
X104000Y130312D01*
X166880Y125312D02*
X174880Y133312D01*
X166880D02*
X174880Y125312D01*
X96000D02*
X104000Y133312D01*
X96000D02*
X104000Y125312D01*
X166880Y120312D02*
X174880Y128312D01*
X166880D02*
X174880Y120312D01*
X96000Y115312D02*
X104000Y123312D01*
X96000D02*
X104000Y115312D01*
X166880D02*
X174880Y123312D01*
X166880D02*
X174880Y115312D01*
X166866Y180312D02*
X174866Y188312D01*
X166866D02*
X174866Y180312D01*
X96000Y120312D02*
X104000Y128312D01*
X96000D02*
X104000Y120312D01*
X96000Y180312D02*
X104000Y188312D01*
X96000D02*
X104000Y180312D01*
X166866Y175312D02*
X174866Y183312D01*
X166866D02*
X174866Y175312D01*
X96000D02*
X104000Y183312D01*
X96000D02*
X104000Y175312D01*
X166866Y170312D02*
X174866Y178312D01*
X166866D02*
X174866Y170312D01*
X96000Y165312D02*
X104000Y173312D01*
X96000D02*
X104000Y165312D01*
X96000Y185312D02*
X104000Y193312D01*
X96000D02*
X104000Y185312D01*
X104375Y102247D02*
X112375D01*
X108375Y98247D02*
Y106247D01*
X111780Y106512D02*
X119780D01*
X115780Y102512D02*
Y110512D01*
X114750Y102122D02*
X122750D01*
X118750Y98122D02*
Y106122D01*
X119375Y104872D02*
X127375D01*
X123375Y100872D02*
Y108872D01*
X122625Y102122D02*
X130625D01*
X126625Y98122D02*
Y106122D01*
X157625Y105747D02*
X165625D01*
X161625Y101747D02*
Y109747D01*
X161000Y101997D02*
X169000D01*
X165000Y97997D02*
Y105997D01*
X155250Y101872D02*
X163250D01*
X159250Y97872D02*
Y105872D01*
X125180Y106172D02*
X133180D01*
X129180Y102172D02*
Y110172D01*
X130500Y102122D02*
X138500D01*
X134500Y98122D02*
Y106122D01*
X138500Y102122D02*
X146500D01*
X142500Y98122D02*
Y106122D01*
X146350Y102072D02*
X154350D01*
X150350Y98072D02*
Y106072D01*
X146125Y105122D02*
X154125D01*
X150125Y101122D02*
Y109122D01*
X153480Y104331D02*
X161480D01*
X157480Y100331D02*
Y108331D01*
X116125Y117747D02*
X124125D01*
X120125Y113747D02*
Y121747D01*
X110625Y117997D02*
X118625D01*
X114625Y113997D02*
Y121997D01*
X113000Y141497D02*
X121000D01*
X117000Y137497D02*
Y145497D01*
X123250Y121747D02*
X131250D01*
X127250Y117747D02*
Y125747D01*
X121250Y126872D02*
X129250D01*
X125250Y122872D02*
Y130872D01*
X120960Y124792D02*
X128960D01*
X124960Y120792D02*
Y128792D01*
X101330Y129772D02*
X109330D01*
X105330Y125772D02*
Y133772D01*
X100875Y125497D02*
X108875D01*
X104875Y121497D02*
Y129497D01*
X101000Y123122D02*
X109000D01*
X105000Y119122D02*
Y127122D01*
X101330Y106792D02*
X109330D01*
X105330Y102792D02*
Y110792D01*
X101375Y112497D02*
X109375D01*
X105375Y108497D02*
Y116497D01*
X101350Y117272D02*
X109350D01*
X105350Y113272D02*
Y121272D01*
X108375Y137372D02*
X116375D01*
X112375Y133372D02*
Y141372D01*
X108250Y132622D02*
X116250D01*
X112250Y128622D02*
Y136622D01*
X108000Y127497D02*
X116000D01*
X112000Y123497D02*
Y131497D01*
X116125Y125122D02*
X124125D01*
X120125Y121122D02*
Y129122D01*
X112500Y123997D02*
X120500D01*
X116500Y119997D02*
Y127997D01*
X108750Y122497D02*
X116750D01*
X112750Y118497D02*
Y126497D01*
X105450Y119542D02*
X113450D01*
X109450Y115542D02*
Y123542D01*
X106600Y115822D02*
X114600D01*
X110600Y111822D02*
Y119822D01*
X108260Y111202D02*
X116260D01*
X112260Y107202D02*
Y115202D01*
X112190Y145747D02*
X120190D01*
X116190Y141747D02*
Y149747D01*
X117500Y145372D02*
X125500D01*
X121500Y141372D02*
Y149372D01*
X120875Y140372D02*
X128875D01*
X124875Y136372D02*
Y144372D01*
X141000Y142102D02*
X149000D01*
X145000Y138102D02*
Y146102D01*
X143500Y116797D02*
X151500D01*
X147500Y112797D02*
Y120797D01*
X136375Y146497D02*
X144375D01*
X140375Y142497D02*
Y150497D01*
X136100Y140522D02*
X144100D01*
X140100Y136522D02*
Y144522D01*
X148500Y116747D02*
X156500D01*
X152500Y112747D02*
Y120747D01*
X142500Y130497D02*
X150500D01*
X146500Y126497D02*
Y134497D01*
X130500Y139122D02*
X138500D01*
X134500Y135122D02*
Y143122D01*
X153500Y130372D02*
X161500D01*
X157500Y126372D02*
Y134372D01*
X137700Y118372D02*
X145700D01*
X141700Y114372D02*
Y122372D01*
X148500Y130497D02*
X156500D01*
X152500Y126497D02*
Y134497D01*
X125860Y141642D02*
X133860D01*
X129860Y137642D02*
Y145642D01*
X161625Y143247D02*
X169625D01*
X165625Y139247D02*
Y147247D01*
X157000Y131747D02*
X165000D01*
X161000Y127747D02*
Y135747D01*
X161625Y112747D02*
X169625D01*
X165625Y108747D02*
Y116747D01*
X145998Y142128D02*
X153998D01*
X149998Y138128D02*
Y146128D01*
X154750Y126747D02*
X162750D01*
X158750Y122747D02*
Y130747D01*
X151003Y142130D02*
X159003D01*
X155003Y138130D02*
Y146130D01*
X141250Y118902D02*
X149250D01*
X145250Y114902D02*
Y122902D01*
X141250Y125747D02*
X149250D01*
X145250Y121747D02*
Y129747D01*
X125930Y123962D02*
X133930D01*
X129930Y119962D02*
Y127962D01*
X127987Y142112D02*
X135987D01*
X131987Y138112D02*
Y146112D01*
X132654Y139606D02*
X140654D01*
X136654Y135606D02*
Y143606D01*
X157000Y139747D02*
X165000D01*
X161000Y135747D02*
Y143747D01*
X161625Y138372D02*
X169625D01*
X165625Y134372D02*
Y142372D01*
X161625Y134247D02*
X169625D01*
X165625Y130247D02*
Y138247D01*
X161625Y127997D02*
X169625D01*
X165625Y123997D02*
Y131997D01*
X161670Y125202D02*
X169670D01*
X165670Y121202D02*
Y129202D01*
X161625Y119372D02*
X169625D01*
X165625Y115372D02*
Y123372D01*
X158000Y116622D02*
X166000D01*
X162000Y112622D02*
Y120622D01*
X153480Y116929D02*
X161480D01*
X157480Y112929D02*
Y120929D01*
X150760Y119532D02*
X158760D01*
X154760Y115532D02*
Y123532D01*
X150220Y125402D02*
X158220D01*
X154220Y121402D02*
Y129402D01*
X145750Y127122D02*
X153750D01*
X149750Y123122D02*
Y131122D01*
X145375Y130497D02*
X153375D01*
X149375Y126497D02*
Y134497D01*
X136970Y128632D02*
X144970D01*
X140970Y124632D02*
Y132632D01*
X133950Y123882D02*
X141950D01*
X137950Y119882D02*
Y127882D01*
X125930Y128302D02*
X133930D01*
X129930Y124302D02*
Y132302D01*
X128125Y120122D02*
X136125D01*
X132125Y116122D02*
Y124122D01*
X131875Y116747D02*
X139875D01*
X135875Y112747D02*
Y120747D01*
X135125Y112622D02*
X143125D01*
X139125Y108622D02*
Y116622D01*
X131500Y109247D02*
X139500D01*
X135500Y105247D02*
Y113247D01*
X128125Y110747D02*
X136125D01*
X132125Y106747D02*
Y114747D01*
X122752Y160866D02*
X130752D01*
X126752Y156866D02*
Y164866D01*
X122752Y166378D02*
X130752D01*
X126752Y162378D02*
Y170378D01*
X111000Y174822D02*
X119000D01*
X115000Y170822D02*
Y178822D01*
X106800Y175978D02*
X114800D01*
X110800Y171978D02*
Y179978D01*
X113260Y151622D02*
X121260D01*
X117260Y147622D02*
Y155622D01*
X108800Y177722D02*
X116800D01*
X112800Y173722D02*
Y181722D01*
X111000Y171572D02*
X119000D01*
X115000Y167572D02*
Y175572D01*
X108500Y173222D02*
X116500D01*
X112500Y169222D02*
Y177222D01*
X106500Y183672D02*
X114500D01*
X110500Y179672D02*
Y187672D01*
X109500Y184012D02*
X117500D01*
X113500Y180012D02*
Y188012D01*
X111000Y182422D02*
X119000D01*
X115000Y178422D02*
Y186422D01*
X121250Y149872D02*
X129250D01*
X125250Y145872D02*
Y153872D01*
X119500Y148747D02*
X127500D01*
X123500Y144747D02*
Y152747D01*
X123250Y150872D02*
X131250D01*
X127250Y146872D02*
Y154872D01*
X111875D02*
X119875D01*
X115875Y150872D02*
Y158872D01*
X109000Y169922D02*
X117000D01*
X113000Y165922D02*
Y173922D01*
X111000Y168272D02*
X119000D01*
X115000Y164272D02*
Y172272D01*
X111625Y162872D02*
X119625D01*
X115625Y158872D02*
Y166872D01*
X109700Y166477D02*
X117700D01*
X113700Y162477D02*
Y170477D01*
X112750Y157997D02*
X120750D01*
X116750Y153997D02*
Y161997D01*
X105981Y179293D02*
X113981D01*
X109981Y175293D02*
Y183293D01*
X110676Y158183D02*
X118676D01*
X114676Y154183D02*
Y162183D01*
X110750Y160622D02*
X118750D01*
X114750Y156622D02*
Y164622D01*
X121125Y186247D02*
X129125D01*
X125125Y182247D02*
Y190247D01*
X111625Y164997D02*
X119625D01*
X115625Y160997D02*
Y168997D01*
X123569Y180172D02*
X131569D01*
X127569Y176172D02*
Y184172D01*
X105710Y149362D02*
X113710D01*
X109710Y145362D02*
Y153362D01*
X108830Y151492D02*
X116830D01*
X112830Y147492D02*
Y155492D01*
X114500Y154497D02*
X122500D01*
X118500Y150497D02*
Y158497D01*
X108860Y156322D02*
X116860D01*
X112860Y152322D02*
Y160322D01*
X108508Y160622D02*
X116508D01*
X112508Y156622D02*
Y164622D01*
X118750Y183997D02*
X126750D01*
X122750Y179997D02*
Y187997D01*
X114250Y183747D02*
X122250D01*
X118250Y179747D02*
Y187747D01*
X101180Y176842D02*
X109180D01*
X105180Y172842D02*
Y180842D01*
X103180Y178812D02*
X111180D01*
X107180Y174812D02*
Y182812D01*
X101665Y185231D02*
X109665D01*
X105665Y181231D02*
Y189231D01*
X104375Y185747D02*
X112375D01*
X108375Y181747D02*
Y189747D01*
X112625Y185497D02*
X120625D01*
X116625Y181497D02*
Y189497D01*
X122700Y158022D02*
X130700D01*
X126700Y154022D02*
Y162022D01*
X119996Y160866D02*
X127996D01*
X123996Y156866D02*
Y164866D01*
X122752Y163622D02*
X130752D01*
X126752Y159622D02*
Y167622D01*
X119996Y166378D02*
X127996D01*
X123996Y162378D02*
Y170378D01*
X122752Y169134D02*
X130752D01*
X126752Y165134D02*
Y173134D01*
X128264Y160866D02*
X136264D01*
X132264Y156866D02*
Y164866D01*
X128264Y166378D02*
X136264D01*
X132264Y162378D02*
Y170378D01*
X140500Y152247D02*
X148500D01*
X144500Y148247D02*
Y156247D01*
X126625Y150872D02*
X134625D01*
X130625Y146872D02*
Y154872D01*
X140500Y159122D02*
X148500D01*
X144500Y155122D02*
Y163122D01*
X138500Y152872D02*
X146500D01*
X142500Y148872D02*
Y156872D01*
X136250Y156222D02*
X144250D01*
X140250Y152222D02*
Y160222D01*
X128375Y149497D02*
X136375D01*
X132375Y145497D02*
Y153497D01*
X139300Y168722D02*
X147300D01*
X143300Y164722D02*
Y172722D01*
X134375Y150872D02*
X142375D01*
X138375Y146872D02*
Y154872D01*
X139625Y161747D02*
X147625D01*
X143625Y157747D02*
Y165747D01*
X137000Y174247D02*
X145000D01*
X141000Y170247D02*
Y178247D01*
X157620Y150912D02*
X165620D01*
X161620Y146912D02*
Y154912D01*
X136830Y154152D02*
X144830D01*
X140830Y150152D02*
Y158152D01*
X140700Y147662D02*
X148700D01*
X144700Y143662D02*
Y151662D01*
X136375Y148747D02*
X144375D01*
X140375Y144747D02*
Y152747D01*
X125738Y177966D02*
X133738D01*
X129738Y173966D02*
Y181966D01*
X142980Y162802D02*
X150980D01*
X146980Y158802D02*
Y166802D01*
X145100Y159722D02*
X153100D01*
X149100Y155722D02*
Y163722D01*
X143000Y159122D02*
X151000D01*
X147000Y155122D02*
Y163122D01*
X150700Y153122D02*
X158700D01*
X154700Y149122D02*
Y157122D01*
X161710Y171882D02*
X169710D01*
X165710Y167882D02*
Y175882D01*
X152790Y184382D02*
X160790D01*
X156790Y180382D02*
Y188382D01*
X149000Y183997D02*
X157000D01*
X153000Y179997D02*
Y187997D01*
X146125Y184622D02*
X154125D01*
X150125Y180622D02*
Y188622D01*
X135780Y177272D02*
X143780D01*
X139780Y173272D02*
Y181272D01*
X151750Y171997D02*
X159750D01*
X155750Y167997D02*
Y175997D01*
X150000Y174222D02*
X158000D01*
X154000Y170222D02*
Y178222D01*
X148412Y171992D02*
X156412D01*
X152412Y167992D02*
Y175992D01*
X141625Y168497D02*
X149625D01*
X145625Y164497D02*
Y172497D01*
X147470Y168788D02*
X155470D01*
X151470Y164788D02*
Y172788D01*
X144609Y168489D02*
X152609D01*
X148609Y164489D02*
Y172489D01*
X145650Y171131D02*
X153650D01*
X149650Y167131D02*
Y175131D01*
X153750Y169622D02*
X161750D01*
X157750Y165622D02*
Y173622D01*
X140908Y185522D02*
X148908D01*
X144908Y181522D02*
Y189522D01*
X130470Y179682D02*
X138470D01*
X134470Y175682D02*
Y183682D01*
X130378Y183579D02*
X138378D01*
X134378Y179579D02*
Y187579D01*
X127200Y183322D02*
X135200D01*
X131200Y179322D02*
Y187322D01*
X128264Y169134D02*
X136264D01*
X132264Y165134D02*
Y173134D01*
X125508Y166378D02*
X133508D01*
X129508Y162378D02*
Y170378D01*
X131020Y166378D02*
X139020D01*
X135020Y162378D02*
Y170378D01*
X128264Y163622D02*
X136264D01*
X132264Y159622D02*
Y167622D01*
X125508Y160866D02*
X133508D01*
X129508Y156866D02*
Y164866D01*
X131020Y160866D02*
X139020D01*
X135020Y156866D02*
Y164866D01*
X128264Y158110D02*
X136264D01*
X132264Y154110D02*
Y162110D01*
X126649Y148166D02*
X134649D01*
X130649Y144166D02*
Y152166D01*
X145400Y155922D02*
X153400D01*
X149400Y151922D02*
Y159922D01*
X143000Y155922D02*
X151000D01*
X147000Y151922D02*
Y159922D01*
X159750Y181497D02*
X167750D01*
X163750Y177497D02*
Y185497D01*
X156038Y181561D02*
X164038D01*
X160038Y177561D02*
Y185561D01*
X158100Y153522D02*
X166100D01*
X162100Y149522D02*
Y157522D01*
X158125Y157122D02*
X166125D01*
X162125Y153122D02*
Y161122D01*
X158125D02*
X166125D01*
X162125Y157122D02*
Y165122D01*
X158125Y164497D02*
X166125D01*
X162125Y160497D02*
Y168497D01*
X158100Y168022D02*
X166100D01*
X162100Y164022D02*
Y172022D01*
X155600Y168022D02*
X163600D01*
X159600Y164022D02*
Y172022D01*
X156800Y170922D02*
X164800D01*
X160800Y166922D02*
Y174922D01*
X155500Y174122D02*
X163500D01*
X159500Y170122D02*
Y178122D01*
X153375Y179997D02*
X161375D01*
X157375Y175997D02*
Y183997D01*
X151208Y181522D02*
X159208D01*
X155208Y177522D02*
Y185522D01*
X146923Y181507D02*
X154923D01*
X150923Y177507D02*
Y185507D01*
X144756Y180114D02*
X152756D01*
X148756Y176114D02*
Y184114D01*
X142433Y181564D02*
X150433D01*
X146433Y177564D02*
Y185564D01*
X141513Y178626D02*
X149513D01*
X145513Y174626D02*
Y182626D01*
X138765Y179949D02*
X146765D01*
X142765Y175949D02*
Y183949D01*
X135763Y181921D02*
X143763D01*
X139763Y177921D02*
Y185921D01*
X135938Y185213D02*
X143938D01*
X139938Y181213D02*
Y189213D01*
X128460Y185682D02*
X136460D01*
X132460Y181682D02*
Y189682D01*
X126000Y185372D02*
X134000D01*
X130000Y181372D02*
Y189372D01*
X143640Y152412D02*
X151640D01*
X147640Y148412D02*
Y156412D01*
X146900Y153122D02*
X154900D01*
X150900Y149122D02*
Y157122D01*
X145020Y149972D02*
X153020D01*
X149020Y145972D02*
Y153972D01*
X148500Y149962D02*
X156500D01*
X152500Y145962D02*
Y153962D01*
X151900Y150012D02*
X159900D01*
X155900Y146012D02*
Y154012D01*
X155290Y149932D02*
X163290D01*
X159290Y145932D02*
Y153932D01*
X119750Y187622D02*
X127750D01*
X123750Y183622D02*
Y191622D01*
X121150Y197766D02*
X129150D01*
X125150Y193766D02*
Y201766D01*
X110235Y197781D02*
X118235D01*
X114235Y193781D02*
Y201781D01*
X111375Y191372D02*
X119375D01*
X115375Y187372D02*
Y195372D01*
X123000Y188372D02*
X131000D01*
X127000Y184372D02*
Y192372D01*
X120000Y190997D02*
X128000D01*
X124000Y186997D02*
Y194997D01*
X117908Y193322D02*
X125908D01*
X121908Y189322D02*
Y197322D01*
X118472Y196096D02*
X126472D01*
X122472Y192096D02*
Y200096D01*
X115376Y197731D02*
X123376D01*
X119376Y193731D02*
Y201731D01*
X113115Y196062D02*
X121115D01*
X117115Y192062D02*
Y200062D01*
X112625Y193372D02*
X120625D01*
X116625Y189372D02*
Y197372D01*
X106000Y192747D02*
X114000D01*
X110000Y188747D02*
Y196747D01*
X108750Y193497D02*
X116750D01*
X112750Y189497D02*
Y197497D01*
X107232Y196131D02*
X115232D01*
X111232Y192131D02*
Y200131D01*
X104136Y197781D02*
X112136D01*
X108136Y193781D02*
Y201781D01*
X98188Y197662D02*
X106188D01*
X102188Y193662D02*
Y201662D01*
X100975Y196166D02*
X108975D01*
X104975Y192166D02*
Y200166D01*
X100750Y193497D02*
X108750D01*
X104750Y189497D02*
Y197497D01*
X150860Y194632D02*
X158860D01*
X154860Y190632D02*
Y198632D01*
X152880Y194792D02*
X160880D01*
X156880Y190792D02*
Y198792D01*
X152790Y186732D02*
X160790D01*
X156790Y182732D02*
Y190732D01*
X150420Y186732D02*
X158420D01*
X154420Y182732D02*
Y190732D01*
X146956Y188827D02*
X154956D01*
X150956Y184827D02*
Y192827D01*
X143455Y187428D02*
X151455D01*
X147455Y183428D02*
Y191428D01*
X141875Y198122D02*
X149875D01*
X145875Y194122D02*
Y202122D01*
X133208Y197622D02*
X141208D01*
X137208Y193622D02*
Y201622D01*
X127980Y192252D02*
X135980D01*
X131980Y188252D02*
Y196252D01*
X126298Y197696D02*
X134298D01*
X130298Y193696D02*
Y201696D01*
X124107Y196236D02*
X132107D01*
X128107Y192236D02*
Y200236D01*
X152880Y197562D02*
X160880D01*
X156880Y193562D02*
Y201562D01*
X150685Y197570D02*
X158685D01*
X154685Y193570D02*
Y201570D01*
X145308Y197545D02*
X153308D01*
X149308Y193545D02*
Y201545D01*
X137308Y187615D02*
X145308D01*
X141308Y183615D02*
Y191615D01*
X136380Y189652D02*
X144380D01*
X140380Y185652D02*
Y193652D01*
X138807Y190951D02*
X146807D01*
X142807Y186951D02*
Y194951D01*
X141008Y190222D02*
X149008D01*
X145008Y186222D02*
Y194222D01*
X143640Y190983D02*
X151640D01*
X147640Y186983D02*
Y194983D01*
X143602Y196317D02*
X151602D01*
X147602Y192317D02*
Y200317D01*
X140188Y196333D02*
X148188D01*
X144188Y192333D02*
Y200333D01*
X137750Y198122D02*
X145750D01*
X141750Y194122D02*
Y202122D01*
X136328Y195774D02*
X144328D01*
X140328Y191774D02*
Y199774D01*
X133362Y194068D02*
X141362D01*
X137362Y190068D02*
Y198068D01*
X130408Y195622D02*
X138408D01*
X134408Y191622D02*
Y199622D01*
X130990Y190812D02*
X138990D01*
X134990Y186812D02*
Y194812D01*
X130446Y187358D02*
X138446D01*
X134446Y183358D02*
Y191358D01*
X125750Y187997D02*
X133750D01*
X129750Y183997D02*
Y191997D01*
X123660Y191902D02*
X131660D01*
X127660Y187902D02*
Y195902D01*
X164500Y197497D02*
X172500D01*
X168500Y193497D02*
Y201497D01*
X100000Y223622D02*
X170866D01*
Y100000*
X100000*
Y223622*
X280000Y172000D02*
X538000D01*
X280000Y148000D02*
X538000D01*
X280000Y124000D02*
X538000D01*
X280000Y100000D02*
X538000D01*
X280000Y172000D02*
Y100000D01*
X364000Y172000D02*
Y100000D01*
X400000Y172000D02*
Y100000D01*
X436000Y172000D02*
Y100000D01*
X490000Y172000D02*
Y100000D01*
X538000Y172000D02*
Y100000D01*
X315500Y160750D02*
X314955Y161500D01*
X314136Y161875*
X313045*
X312227Y161500*
X311682Y160750*
Y160000*
X311955Y159250*
X312227Y158875*
X312773Y158500*
X314409Y157750*
X314955Y157375*
X315227Y157000*
X315500Y156250*
Y155125*
X314955Y154375*
X314136Y154000*
X313045*
X312227Y154375*
X311682Y155125*
X317955Y161875D02*
Y154000D01*
X324227Y161875D02*
X320409Y154000D01*
Y161875D02*
X324227D01*
X320409Y154000D02*
X324227D01*
X326682Y161875D02*
Y154000D01*
Y161875D02*
X330227D01*
X326682Y158125D02*
X328864D01*
X326682Y154000D02*
X330227D01*
X373864Y161875D02*
X373318Y161500D01*
X372773Y160750*
X372500Y160000*
X372227Y158875*
Y157000*
X372500Y155875*
X372773Y155125*
X373318Y154375*
X373864Y154000*
X374955*
X375500Y154375*
X376045Y155125*
X376318Y155875*
X376591Y157000*
Y158875*
X376318Y160000*
X376045Y160750*
X375500Y161500*
X374955Y161875*
X373864*
X374682Y155500D02*
X376318Y153250D01*
X380955Y161875D02*
Y154000D01*
X379045Y161875D02*
X382864D01*
X385318D02*
X387500Y158125D01*
Y154000*
X389682Y161875D02*
X387500Y158125D01*
X412045Y160750D02*
X411500Y161500D01*
X410682Y161875*
X409591*
X408773Y161500*
X408227Y160750*
Y160000*
X408500Y159250*
X408773Y158875*
X409318Y158500*
X410955Y157750*
X411500Y157375*
X411773Y157000*
X412045Y156250*
Y155125*
X411500Y154375*
X410682Y154000*
X409591*
X408773Y154375*
X408227Y155125*
X414500Y161875D02*
X416682Y158125D01*
Y154000*
X418864Y161875D02*
X416682Y158125D01*
X421318Y161875D02*
Y154000D01*
Y161875D02*
X423500Y154000D01*
X425682Y161875D02*
X423500Y154000D01*
X425682Y161875D02*
Y154000D01*
X447500Y161875D02*
Y154000D01*
Y161875D02*
X449955D01*
X450773Y161500*
X451045Y161125*
X451318Y160375*
Y159250*
X451045Y158500*
X450773Y158125*
X449955Y157750*
X447500*
X453773Y161875D02*
Y154000D01*
X457045*
X461682Y161875D02*
X459500Y154000D01*
X461682Y161875D02*
X463864Y154000D01*
X460318Y156625D02*
X463045D01*
X468227Y161875D02*
Y154000D01*
X466318Y161875D02*
X470136D01*
X472591D02*
Y154000D01*
Y161875D02*
X476136D01*
X472591Y158125D02*
X474773D01*
X472591Y154000D02*
X476136D01*
X478591Y161875D02*
Y154000D01*
Y161875D02*
X480500D01*
X481318Y161500*
X481864Y160750*
X482136Y160000*
X482409Y158875*
Y157000*
X482136Y155875*
X481864Y155125*
X481318Y154375*
X480500Y154000*
X478591*
X506682Y161875D02*
Y154000D01*
X504773Y161875D02*
X508591D01*
X512682D02*
X512136Y161500D01*
X511591Y160750*
X511318Y160000*
X511045Y158875*
Y157000*
X511318Y155875*
X511591Y155125*
X512136Y154375*
X512682Y154000*
X513773*
X514318Y154375*
X514864Y155125*
X515136Y155875*
X515409Y157000*
Y158875*
X515136Y160000*
X514864Y160750*
X514318Y161500*
X513773Y161875*
X512682*
X517864D02*
Y154000D01*
X521136*
X289545Y135250D02*
X289273Y134125D01*
X288727Y133375*
X287909Y133000*
X287636*
X286818Y133375*
X286273Y134125*
X286000Y135250*
Y135625*
X286273Y136750*
X286818Y137500*
X287636Y137875*
X287909*
X288727Y137500*
X289273Y136750*
X289545Y135250*
Y133375*
X289273Y131500*
X288727Y130375*
X287909Y130000*
X287364*
X286545Y130375*
X286273Y131125*
X292273Y130750D02*
X292000Y130375D01*
X292273Y130000*
X292545Y130375*
X292273Y130750*
X296364Y137875D02*
X295545Y137500D01*
X295273Y136750*
Y136000*
X295545Y135250*
X296091Y134875*
X297182Y134500*
X298000Y134125*
X298545Y133375*
X298818Y132625*
Y131500*
X298545Y130750*
X298273Y130375*
X297455Y130000*
X296364*
X295545Y130375*
X295273Y130750*
X295000Y131500*
Y132625*
X295273Y133375*
X295818Y134125*
X296636Y134500*
X297727Y134875*
X298273Y135250*
X298545Y136000*
Y136750*
X298273Y137500*
X297455Y137875*
X296364*
X304000D02*
X301273Y132625D01*
X305364*
X304000Y137875D02*
Y130000D01*
X373045Y136000D02*
Y136375D01*
X373318Y137125*
X373591Y137500*
X374136Y137875*
X375227*
X375773Y137500*
X376045Y137125*
X376318Y136375*
Y135625*
X376045Y134875*
X375500Y133750*
X372773Y130000*
X376591*
X381773Y137875D02*
X379045Y132625D01*
X383136*
X381773Y137875D02*
Y130000D01*
X388864Y136750D02*
X388591Y137500D01*
X387773Y137875*
X387227*
X386409Y137500*
X385864Y136375*
X385591Y134500*
Y132625*
X385864Y131125*
X386409Y130375*
X387227Y130000*
X387500*
X388318Y130375*
X388864Y131125*
X389136Y132250*
Y132625*
X388864Y133750*
X388318Y134500*
X387500Y134875*
X387227*
X386409Y134500*
X385864Y133750*
X385591Y132625*
X412000Y136000D02*
X424000D01*
X418000Y130000D02*
Y142000D01*
X444636Y137875D02*
X446818Y134125D01*
Y130000*
X449000Y137875D02*
X446818Y134125D01*
X451455Y137875D02*
Y130000D01*
Y137875D02*
X455000D01*
X451455Y134125D02*
X453636D01*
X451455Y130000D02*
X455000D01*
X461273Y136750D02*
X460727Y137500D01*
X459909Y137875*
X458818*
X458000Y137500*
X457455Y136750*
Y136000*
X457727Y135250*
X458000Y134875*
X458545Y134500*
X460182Y133750*
X460727Y133375*
X461000Y133000*
X461273Y132250*
Y131125*
X460727Y130375*
X459909Y130000*
X458818*
X458000Y130375*
X457455Y131125*
X502455Y136750D02*
Y130000D01*
X500000Y133375D02*
X504909D01*
X512273Y139375D02*
X507364Y127375D01*
X514727Y133375D02*
X519636D01*
X523727Y137875D02*
X522909Y137500D01*
X522364Y136375*
X522091Y134500*
Y133375*
X522364Y131500*
X522909Y130375*
X523727Y130000*
X524273*
X525091Y130375*
X525636Y131500*
X525909Y133375*
Y134500*
X525636Y136375*
X525091Y137500*
X524273Y137875*
X523727*
X286273Y112000D02*
Y112375D01*
X286545Y113125*
X286818Y113500*
X287364Y113875*
X288455*
X289000Y113500*
X289273Y113125*
X289545Y112375*
Y111625*
X289273Y110875*
X288727Y109750*
X286000Y106000*
X289818*
X292273Y112375D02*
X292818Y112750D01*
X293636Y113875*
Y106000*
X296364Y106750D02*
X296091Y106375D01*
X296364Y106000*
X296636Y106375*
X296364Y106750*
X302364Y112750D02*
X302091Y113500D01*
X301273Y113875*
X300727*
X299909Y113500*
X299364Y112375*
X299091Y110500*
Y108625*
X299364Y107125*
X299909Y106375*
X300727Y106000*
X301000*
X301818Y106375*
X302364Y107125*
X302636Y108250*
Y108625*
X302364Y109750*
X301818Y110500*
X301000Y110875*
X300727*
X299909Y110500*
X299364Y109750*
X299091Y108625*
X308636Y113875D02*
X305909D01*
X305636Y110500*
X305909Y110875*
X306727Y111250*
X307545*
X308364Y110875*
X308909Y110125*
X309182Y109000*
X308909Y108250*
X308636Y107125*
X308091Y106375*
X307273Y106000*
X306455*
X305636Y106375*
X305364Y106750*
X305091Y107500*
X376455Y113875D02*
X379455D01*
X377818Y110875*
X378636*
X379182Y110500*
X379455Y110125*
X379727Y109000*
Y108250*
X379455Y107125*
X378909Y106375*
X378091Y106000*
X377273*
X376455Y106375*
X376182Y106750*
X375909Y107500*
X383545Y113875D02*
X382727Y113500D01*
X382455Y112750*
Y112000*
X382727Y111250*
X383273Y110875*
X384364Y110500*
X385182Y110125*
X385727Y109375*
X386000Y108625*
Y107500*
X385727Y106750*
X385455Y106375*
X384636Y106000*
X383545*
X382727Y106375*
X382455Y106750*
X382182Y107500*
Y108625*
X382455Y109375*
X383000Y110125*
X383818Y110500*
X384909Y110875*
X385455Y111250*
X385727Y112000*
Y112750*
X385455Y113500*
X384636Y113875*
X383545*
X412000Y106000D02*
X424000Y118000D01*
X412000D02*
X424000Y106000D01*
X444636Y113875D02*
X446818Y110125D01*
Y106000*
X449000Y113875D02*
X446818Y110125D01*
X451455Y113875D02*
Y106000D01*
Y113875D02*
X455000D01*
X451455Y110125D02*
X453636D01*
X451455Y106000D02*
X455000D01*
X461273Y112750D02*
X460727Y113500D01*
X459909Y113875*
X458818*
X458000Y113500*
X457455Y112750*
Y112000*
X457727Y111250*
X458000Y110875*
X458545Y110500*
X460182Y109750*
X460727Y109375*
X461000Y109000*
X461273Y108250*
Y107125*
X460727Y106375*
X459909Y106000*
X458818*
X458000Y106375*
X457455Y107125*
X502455Y112750D02*
Y106000D01*
X500000Y109375D02*
X504909D01*
X512273Y115375D02*
X507364Y103375D01*
X514727Y109375D02*
X519636D01*
X523727Y113875D02*
X522909Y113500D01*
X522364Y112375*
X522091Y110500*
Y109375*
X522364Y107500*
X522909Y106375*
X523727Y106000*
X524273*
X525091Y106375*
X525636Y107500*
X525909Y109375*
Y110500*
X525636Y112375*
X525091Y113500*
X524273Y113875*
X523727*
X0Y0D02*
M02*
