*
*
G04 PADS VX.2 Build Number: 5060570 generated Gerber (RS-274-X) file*
G04 PC Version=2.1*
*
%IN "PCB_#30823_ESP32-WROVER"*%
*
%MOIN*%
*
%FSLAX35Y35*%
*
*
*
*
G04 PC Standard Apertures*
*
*
G04 Thermal Relief Aperture macro.*
%AMTER*
1,1,$1,0,0*
1,0,$1-$2,0,0*
21,0,$3,$4,0,0,45*
21,0,$3,$4,0,0,135*
%
*
*
G04 Annular Aperture macro.*
%AMANN*
1,1,$1,0,0*
1,0,$2,0,0*
%
*
*
G04 Odd Aperture macro.*
%AMODD*
1,1,$1,0,0*
1,0,$1-0.005,0,0*
%
*
*
G04 PC Custom Aperture Macros*
*
*
*
*
*
*
G04 PC Aperture Table*
*
%ADD010C,0.001*%
%ADD030C,0.01*%
%ADD037C,0.005*%
%ADD101R,0.03543X0.03543*%
%ADD138C,0.01575*%
*
*
*
*
G04 PC Circuitry*
G04 Layer Name PCB_#30823_ESP32-WROVER - circuitry*
%LPD*%
*
*
G04 PC Custom Flashes*
G04 Layer Name PCB_#30823_ESP32-WROVER - flashes*
%LPD*%
*
*
G04 PC Circuitry*
G04 Layer Name PCB_#30823_ESP32-WROVER - circuitry*
%LPD*%
*
G54D10*
G54D30*
G01X100000Y223622D02*
X170866D01*
Y100000*
X100000*
Y223622*
G54D37*
X159038Y130372D02*
G75*
G03X159038I-1538J0D01*
G01X154038Y116747D02*
G03X154038I-1538J0D01*
G01Y130497D02*
G03X154038I-1538J0D01*
G01X149038Y116797D02*
G03X149038I-1538J0D01*
G01X148038Y130497D02*
G03X148038I-1538J0D01*
G01X143238Y118372D02*
G03X143238I-1538J0D01*
G01X141638Y140522D02*
G03X141638I-1538J0D01*
G01X141913Y146497D02*
G03X141913I-1538J0D01*
G01X139913Y150872D02*
G03X139913I-1538J0D01*
G01X141788Y156222D02*
G03X141788I-1538J0D01*
G01X144838Y168722D02*
G03X144838I-1538J0D01*
G01X142538Y174247D02*
G03X142538I-1538J0D01*
G01X136038Y139122D02*
G03X136038I-1538J0D01*
G01X128788Y121747D02*
G03X128788I-1538J0D01*
G01X131398Y141642D02*
G03X131398I-1538J0D01*
G01X126788Y126872D02*
G03X126788I-1538J0D01*
G01X121663Y117747D02*
G03X121663I-1538J0D01*
G01X116163Y117997D02*
G03X116163I-1538J0D01*
G01X118538Y141497D02*
G03X118538I-1538J0D01*
G01X118798Y151622D02*
G03X118798I-1538J0D01*
G01X169616Y198722D02*
G03X169466Y198872I-150J0D01*
G01X101400*
G03X101250Y198722I0J-150*
G01Y192602*
G03X101400Y192452I150J0*
G01X102830*
X103080Y192202D02*
G03X102830Y192452I-250J0D01*
G01X103080Y192202D02*
Y126422D01*
X102830Y126172D02*
G03X103080Y126422I0J250D01*
G01X102830Y126172D02*
X101400D01*
G03X101250Y126022I0J-150*
G01Y122602*
G03X101400Y122452I150J0*
G01X102750*
X103000Y122202D02*
G03X102750Y122452I-250J0D01*
G01X103000Y122202D02*
Y101422D01*
Y101408D02*
G03Y101422I-250J14D01*
G01Y101408D02*
G03X102999Y101400I149J-8D01*
X103149Y101250I150J0*
G01X167601*
G03X167751Y101400I-0J150*
X167750Y101408I-150J0*
G01Y101422D02*
G03Y101408I250J0D01*
G01Y101422D02*
Y192202D01*
X168000Y192452D02*
G03X167750Y192202I0J-250D01*
G01X168000Y192452D02*
X169466D01*
G03X169616Y192602I0J150*
G01Y198722*
X113472Y171748D02*
G03X113249Y171879I-150J0D01*
G01X112953Y171753D02*
G03X113249Y171879I-453J1469D01*
G01X112953Y171753D02*
G03X112848Y171610I45J-143D01*
X112998Y171460I150J-0*
G01X113285Y171433D02*
G03X112998Y171460I-285J-1511D01*
G01X113285Y171433D02*
G03X113462Y171580I28J147D01*
G01X113471Y171732D02*
G03X113463Y171580I1529J-160D01*
G01X113471Y171732D02*
G03X113472Y171748I-149J16D01*
G01X159038Y130372D02*
G03X159038I-1538J0D01*
G01X165750Y194480D02*
Y187050D01*
X165500Y186800D02*
G03X165750Y187050I0J250D01*
G01X165500Y186800D02*
X158600D01*
X158350Y187050D02*
G03X158600Y186800I250J-0D01*
G01X158350Y187050D02*
Y194480D01*
X158600Y194730D02*
G03X158350Y194480I0J-250D01*
G01X158600Y194730D02*
X165500D01*
X165750Y194480D02*
G03X165500Y194730I-250J-0D01*
G01X154038Y116747D02*
G03X154038I-1538J0D01*
G01Y130497D02*
G03X154038I-1538J0D01*
G01X149038Y116797D02*
G03X149038I-1538J0D01*
G01X148038Y130497D02*
G03X148038I-1538J0D01*
G01X143238Y118372D02*
G03X143238I-1538J0D01*
G01X141638Y140522D02*
G03X141638I-1538J0D01*
G01X141913Y146497D02*
G03X141913I-1538J0D01*
G01X143229Y151381D02*
G03X146038Y152247I1271J866D01*
G01X143229Y151381D02*
G03X143052Y151437I-124J-84D01*
G01X140962Y152872D02*
G03X143052Y151437I1538J0D01*
G01X143771Y153738D02*
G03X140962Y152872I-1271J-866D01*
G01X143771Y153738D02*
G03X143948Y153682I124J84D01*
G01X146038Y152247D02*
G03X143948Y153682I-1538J0D01*
G01X142962Y159122D02*
G03X146038I1538J0D01*
G01X143266Y160039D02*
G03X142962Y159122I1234J-917D01*
G01X143266Y160039D02*
G03X143296Y160129I-120J90D01*
X143188Y160273I-150J-0*
G01X142087Y161747D02*
G03X143188Y160273I1538J0D01*
G01X145163Y161747D02*
G03X142087I-1538J0D01*
G01X144859Y160830D02*
G03X145163Y161747I-1234J917D01*
G01X144859Y160830D02*
G03X144829Y160740I120J-90D01*
X144937Y160596I150J0*
G01X146038Y159122D02*
G03X144937Y160596I-1538J0D01*
G01X139913Y150872D02*
G03X139913I-1538J0D01*
G01X141788Y156222D02*
G03X141788I-1538J0D01*
G01X144838Y168722D02*
G03X144838I-1538J0D01*
G01X142538Y174247D02*
G03X142538I-1538J0D01*
G01X136038Y139122D02*
G03X136038I-1538J0D01*
G01X128788Y121747D02*
G03X128788I-1538J0D01*
G01X131398Y141642D02*
G03X131398I-1538J0D01*
G01X130864Y149215D02*
G03X133913Y149497I1511J282D01*
G01X130864Y149215D02*
G03X130708Y149337I-148J-28D01*
G01X129088Y150864D02*
G03X130708Y149337I1537J8D01*
G01X129087Y150864D02*
G03Y150872I-149J-1D01*
Y150880I-149J9*
G01X132136Y151155D02*
G03X129088Y150880I-1511J-283D01*
G01X132136Y151155D02*
G03X132292Y151032I148J27D01*
G01X133913Y149497D02*
G03X132292Y151032I-1538J0D01*
G01X126788Y126872D02*
G03X126788I-1538J0D01*
G01X128788Y150872D02*
G03Y150864I150J-9D01*
G01X126854Y149386D02*
G03X128788Y150864I396J1486D01*
G01X126854Y149386D02*
G03X126676Y149298I-39J-145D01*
G01X125107Y148341D02*
G03X126676Y149298I143J1531D01*
G01X125107Y148341D02*
G03X124952Y148241I-13J-149D01*
G01X121962Y148747D02*
G03X124952Y148241I1538J0D01*
G01X123643Y150278D02*
G03X121962Y148747I-143J-1531D01*
G01X123643Y150278D02*
G03X123798Y150378I13J149D01*
G01X125646Y151358D02*
G03X123798Y150378I-396J-1486D01*
G01X125646Y151358D02*
G03X125824Y151447I39J145D01*
G01X128788Y150880D02*
G03X125824Y151447I-1538J-8D01*
G01X128788Y150880D02*
G03Y150872I150J1D01*
G01X123610Y185985D02*
G03X126663Y186247I1515J262D01*
G01X123610Y185985D02*
G03X123488Y186107I-148J-26D01*
G01X122212Y187622D02*
G03X123488Y186107I1538J0D01*
G01X125265Y187884D02*
G03X122212Y187622I-1515J-262D01*
G01X125265Y187884D02*
G03X125387Y187762I148J26D01*
G01X126663Y186247D02*
G03X125387Y187762I-1538J0D01*
G01X121663Y117747D02*
G03X121663I-1538J0D01*
G01X116163Y117997D02*
G03X116163I-1538J0D01*
G01X118538Y141497D02*
G03X118538I-1538J0D01*
G01X118798Y151622D02*
G03X118798I-1538J0D01*
G01X116758Y156460D02*
G03X118288Y157997I-8J1537D01*
G01X116758Y156460D02*
G03X116609Y156310I1J-150D01*
X116680Y156182I150J-0*
G01X117413Y154872D02*
G03X116680Y156182I-1538J0D01*
G01X114337Y154872D02*
G03X117413I1538J0D01*
G01X115867Y156410D02*
G03X114337Y154872I8J-1538D01*
G01X115867Y156410D02*
G03X116016Y156560I-1J150D01*
X115945Y156687I-150J-0*
G01X115697Y156877D02*
G03X115945Y156687I1053J1120D01*
G01X115697Y156877D02*
G03X115513Y156893I-103J-110D01*
G01X113138Y158183D02*
G03X115513Y156893I1538J-0D01*
G01X113648Y159326D02*
G03X113138Y158183I1028J-1143D01*
G01X113648Y159326D02*
G03X113698Y159438I-100J112D01*
X113654Y159543I-150J0*
G01X113212Y160622D02*
G03X113654Y159543I1538J0D01*
G01X114147Y162036D02*
G03X113212Y160622I603J-1414D01*
G01X114147Y162036D02*
G03X114238Y162174I-59J138D01*
X114225Y162236I-150J0*
G01X114087Y162872D02*
G03X114225Y162236I1538J0D01*
G01X114431Y163840D02*
G03X114087Y162872I1194J-968D01*
G01X114430Y163840D02*
G03X114464Y163935I-116J95D01*
X114430Y164029I-150J-0*
G01X114097Y164825D02*
G03X114431Y164029I1528J172D01*
G01X114097Y164825D02*
G03X113926Y164956I-149J-17D01*
G01X112162Y166477D02*
G03X113926Y164956I1538J0D01*
G01X113353Y167975D02*
G03X112162Y166477I347J-1498D01*
G01X113353Y167975D02*
G03X113469Y168121I-34J146D01*
G01X113469*
G03Y168134I-150J0*
G01X113463Y168264D02*
G03X113469Y168134I1537J8D01*
G01X113462Y168264D02*
G03X113285Y168411I-149J-0D01*
G01X111462Y169922D02*
G03X113285Y168411I1538J0D01*
G01X112547Y171391D02*
G03X111462Y169922I453J-1469D01*
G01X112547Y171391D02*
G03X112652Y171535I-45J144D01*
X112502Y171685I-150J-0*
G01X110962Y173222D02*
G03X112502Y171685I1538J0D01*
G01X111357Y174250D02*
G03X110962Y173222I1143J-1028D01*
G01X111357Y174250D02*
G03X111395Y174350I-112J100D01*
X111206Y174495I-150J0*
G01X109262Y175978D02*
G03X111206Y174495I1538J0D01*
G01X111087Y177489D02*
G03X109262Y175978I-287J-1511D01*
G01X111087Y177489D02*
G03X111265Y177636I28J147D01*
G01X111265*
G03X111264Y177644I-150J-0*
G01X111262Y177722D02*
G03X111264Y177644I1538J0D01*
G01X111262Y177722D02*
X111262D01*
X111297Y178044D02*
G03X111262Y177722I1503J-322D01*
G01X111297Y178044D02*
G03X111300Y178076I-147J32D01*
X111046Y178184I-150J-0*
G01X108443Y179293D02*
G03X111046Y178184I1538J-0D01*
G01X111518Y179293D02*
G03X108443I-1537J-0D01*
G01X111518D02*
X111518D01*
X111484Y178971D02*
G03X111518Y179293I-1503J322D01*
G01X111484Y178971D02*
G03X111481Y178939I147J-32D01*
X111735Y178831I150J0*
G01X114338Y177722D02*
G03X111735Y178831I-1538J0D01*
G01X112513Y176211D02*
G03X114338Y177722I287J1511D01*
G01X112513Y176211D02*
G03X112335Y176064I-28J-147D01*
G01X112335*
G03X112336Y176056I150J0*
G01X112338Y175978D02*
G03X112336Y176056I-1538J0D01*
G01X111943Y174950D02*
G03X112338Y175978I-1143J1028D01*
G01X111943Y174950D02*
G03X111905Y174850I112J-100D01*
X112094Y174705I150J-0*
G01X113244Y174567D02*
G03X112094Y174705I-744J-1345D01*
G01X113244Y174567D02*
G03X113467Y174699I73J132D01*
Y174710I-150J-0*
G01X113462Y174822D02*
G03X113467Y174710I1538J0D01*
G01X113462Y174822D02*
X113462D01*
X116538D02*
G03X113462I-1538J0D01*
G01X115415Y173341D02*
G03X116538Y174822I-415J1481D01*
G01X115415Y173341D02*
G03X115305Y173197I40J-144D01*
X115415Y173053I150J0*
G01X116538Y171572D02*
G03X115415Y173053I-1538J0D01*
G01X115322Y170069D02*
G03X116538Y171572I-322J1503D01*
G01X115322Y170069D02*
G03X115204Y169922I32J-147D01*
X115322Y169775I150J0*
G01X116538Y168272D02*
G03X115322Y169775I-1538J0D01*
G01X115519Y166825D02*
G03X116538Y168272I-519J1447D01*
G01X115519Y166825D02*
G03X115420Y166684I51J-141D01*
X115575Y166534I150J-0*
G01X117163Y164997D02*
G03X115575Y166534I-1538J0D01*
G01X116820Y164029D02*
G03X117163Y164997I-1195J968D01*
G01X116820Y164029D02*
G03X116786Y163935I116J-94D01*
X116820Y163840I150J-0*
G01X117163Y162872D02*
G03X116820Y163840I-1538J0D01*
G01X116228Y161458D02*
G03X117163Y162872I-603J1414D01*
G01X116228Y161458D02*
G03X116137Y161320I59J-138D01*
X116150Y161258I150J-0*
G01X116288Y160622D02*
G03X116150Y161258I-1538J0D01*
G01X115917Y159621D02*
G03X116288Y160622I-1167J1001D01*
G01X115917Y159621D02*
G03X115881Y159524I114J-97D01*
X116095Y159388I150J-0*
G01X118288Y157997D02*
G03X116095Y159388I-1538J0D01*
G01X113465Y182342D02*
G03X116538Y182422I1535J80D01*
G01X113465Y182342D02*
G03X113331Y182484I-150J-7D01*
G01X112211Y183174D02*
G03X113331Y182484I1289J838D01*
G01X112211Y183174D02*
G03X111944Y183144I-126J-81D01*
G01X108962Y183672D02*
G03X111944Y183144I1538J0D01*
G01X111789Y184510D02*
G03X108962Y183672I-1289J-838D01*
G01X111789Y184510D02*
G03X112056Y184540I126J81D01*
G01X115035Y184092D02*
G03X112056Y184540I-1535J-80D01*
G01X115035Y184092D02*
G03X115169Y183950I150J7D01*
G01X116538Y182422D02*
G03X115169Y183950I-1538J0D01*
G01X101250Y198449D02*
X169616D01*
X101250Y197999D02*
X169616D01*
X101250Y197549D02*
X169616D01*
X101250Y197099D02*
X169616D01*
X101250Y196649D02*
X169616D01*
X101250Y196199D02*
X169616D01*
X101250Y195749D02*
X169616D01*
X101250Y195299D02*
X169616D01*
X101250Y194849D02*
X169616D01*
X165750Y194399D02*
X169616D01*
X165750Y193949D02*
X169616D01*
X165750Y193499D02*
X169616D01*
X165750Y193049D02*
X169616D01*
X165750Y192599D02*
X169616D01*
X165750Y192149D02*
X167750D01*
X165750Y191699D02*
X167750D01*
X165750Y191249D02*
X167750D01*
X165750Y190799D02*
X167750D01*
X165750Y190349D02*
X167750D01*
X165750Y189899D02*
X167750D01*
X165750Y189449D02*
X167750D01*
X165750Y188999D02*
X167750D01*
X165750Y188549D02*
X167750D01*
X165750Y188099D02*
X167750D01*
X165750Y187649D02*
X167750D01*
X165750Y187199D02*
X167750D01*
X126578Y186749D02*
X167750D01*
X126662Y186299D02*
X167750D01*
X126610Y185849D02*
X167750D01*
X126407Y185399D02*
X167750D01*
X125949Y184949D02*
X167750D01*
X114958Y184499D02*
X167750D01*
X115044Y184049D02*
X167750D01*
X115990Y183599D02*
X167750D01*
X116355Y183149D02*
X167750D01*
X116512Y182699D02*
X167750D01*
X116528Y182249D02*
X167750D01*
X116406Y181799D02*
X167750D01*
X116101Y181349D02*
X167750D01*
X115208Y180899D02*
X167750D01*
X110995Y180449D02*
X167750D01*
X111347Y179999D02*
X167750D01*
X111497Y179549D02*
X167750D01*
X113485Y179099D02*
X167750D01*
X114027Y178649D02*
X167750D01*
X114262Y178199D02*
X167750D01*
X114337Y177749D02*
X167750D01*
X114278Y177299D02*
X167750D01*
X114065Y176849D02*
X167750D01*
X113583Y176399D02*
X167750D01*
X116046Y175949D02*
X167750D01*
X141893Y175499D02*
X167750D01*
X142312Y175049D02*
X167750D01*
X142497Y174599D02*
X167750D01*
X142534Y174149D02*
X167750D01*
X142436Y173699D02*
X167750D01*
X142169Y173249D02*
X167750D01*
X141516Y172799D02*
X167750D01*
X116327Y172349D02*
X167750D01*
X116502Y171899D02*
X167750D01*
X116533Y171449D02*
X167750D01*
X116427Y170999D02*
X167750D01*
X116147Y170549D02*
X167750D01*
X143985Y170099D02*
X167750D01*
X144527Y169649D02*
X167750D01*
X144762Y169199D02*
X167750D01*
X144837Y168749D02*
X167750D01*
X144778Y168299D02*
X167750D01*
X144565Y167849D02*
X167750D01*
X144083Y167399D02*
X167750D01*
X115783Y166949D02*
X167750D01*
X115955Y166499D02*
X167750D01*
X116747Y166049D02*
X167750D01*
X117040Y165599D02*
X167750D01*
X117155Y165149D02*
X167750D01*
X117133Y164699D02*
X167750D01*
X116968Y164249D02*
X167750D01*
X116852Y163799D02*
X167750D01*
X117087Y163349D02*
X167750D01*
X144644Y162899D02*
X167750D01*
X144993Y162449D02*
X167750D01*
X145142Y161999D02*
X167750D01*
X145150Y161549D02*
X167750D01*
X145019Y161099D02*
X167750D01*
X144860Y160649D02*
X167750D01*
X145598Y160199D02*
X167750D01*
X145904Y159749D02*
X167750D01*
X146027Y159299D02*
X167750D01*
X146013Y158849D02*
X167750D01*
X145857Y158399D02*
X167750D01*
X145494Y157949D02*
X167750D01*
X141107Y157499D02*
X167750D01*
X141546Y157049D02*
X167750D01*
X141741Y156599D02*
X167750D01*
X141786Y156149D02*
X167750D01*
X141696Y155699D02*
X167750D01*
X141440Y155249D02*
X167750D01*
X140831Y154799D02*
X167750D01*
X142928Y154349D02*
X167750D01*
X143645Y153899D02*
X167750D01*
X145459Y153449D02*
X167750D01*
X145841Y152999D02*
X167750D01*
X146008Y152549D02*
X167750D01*
X146030Y152099D02*
X167750D01*
X145916Y151649D02*
X167750D01*
X145625Y151199D02*
X167750D01*
X144845Y150749D02*
X167750D01*
X139802Y150299D02*
X167750D01*
X139522Y149849D02*
X167750D01*
X138815Y149399D02*
X167750D01*
X133811Y148949D02*
X167750D01*
X133544Y148499D02*
X167750D01*
X132891Y148049D02*
X167750D01*
X141448Y147599D02*
X167750D01*
X141768Y147149D02*
X167750D01*
X141899Y146699D02*
X167750D01*
X141892Y146249D02*
X167750D01*
X141745Y145799D02*
X167750D01*
X141397Y145349D02*
X167750D01*
X103080Y144899D02*
X167750D01*
X103080Y144449D02*
X167750D01*
X103080Y143999D02*
X167750D01*
X103080Y143549D02*
X167750D01*
X130352Y143099D02*
X167750D01*
X131022Y142649D02*
X167750D01*
X131293Y142199D02*
X167750D01*
X141027Y141749D02*
X167750D01*
X141427Y141299D02*
X167750D01*
X141602Y140849D02*
X167750D01*
X141633Y140399D02*
X167750D01*
X141527Y139949D02*
X167750D01*
X141247Y139499D02*
X167750D01*
X140540Y139049D02*
X167750D01*
X135946Y138599D02*
X167750D01*
X135690Y138149D02*
X167750D01*
X135081Y137699D02*
X167750D01*
X103080Y137249D02*
X167750D01*
X103080Y136799D02*
X167750D01*
X103080Y136349D02*
X167750D01*
X103080Y135899D02*
X167750D01*
X103080Y135449D02*
X167750D01*
X103080Y134999D02*
X167750D01*
X103080Y134549D02*
X167750D01*
X103080Y134099D02*
X167750D01*
X103080Y133649D02*
X167750D01*
X103080Y133199D02*
X167750D01*
X103080Y132749D02*
X167750D01*
X103080Y132299D02*
X167750D01*
X157928Y131849D02*
X167750D01*
X158645Y131399D02*
X167750D01*
X158925Y130949D02*
X167750D01*
X159032Y130499D02*
X167750D01*
X159003Y130049D02*
X167750D01*
X158829Y129599D02*
X167750D01*
X158431Y129149D02*
X167750D01*
X103080Y128699D02*
X167750D01*
X125935Y128249D02*
X167750D01*
X126477Y127799D02*
X167750D01*
X126712Y127349D02*
X167750D01*
X126787Y126899D02*
X167750D01*
X126728Y126449D02*
X167750D01*
X126515Y125999D02*
X167750D01*
X126033Y125549D02*
X167750D01*
X101250Y125099D02*
X167750D01*
X101250Y124649D02*
X167750D01*
X101250Y124199D02*
X167750D01*
X101250Y123749D02*
X167750D01*
X101250Y123299D02*
X167750D01*
X128323Y122849D02*
X167750D01*
X128643Y122399D02*
X167750D01*
X128774Y121949D02*
X167750D01*
X128767Y121499D02*
X167750D01*
X128620Y121049D02*
X167750D01*
X128272Y120599D02*
X167750D01*
X103000Y120149D02*
X167750D01*
X142477Y119699D02*
X167750D01*
X142963Y119249D02*
X167750D01*
X143177Y118799D02*
X167750D01*
X143237Y118349D02*
X167750D01*
X153519Y117899D02*
X167750D01*
X153868Y117449D02*
X167750D01*
X154017Y116999D02*
X167750D01*
X154025Y116549D02*
X167750D01*
X153894Y116099D02*
X167750D01*
X153576Y115649D02*
X167750D01*
X103000Y115199D02*
X167750D01*
X103000Y114749D02*
X167750D01*
X103000Y114299D02*
X167750D01*
X103000Y113849D02*
X167750D01*
X103000Y113399D02*
X167750D01*
X103000Y112949D02*
X167750D01*
X103000Y112499D02*
X167750D01*
X103000Y112049D02*
X167750D01*
X103000Y111599D02*
X167750D01*
X103000Y111149D02*
X167750D01*
X103000Y110699D02*
X167750D01*
X103000Y110249D02*
X167750D01*
X103000Y109799D02*
X167750D01*
X103000Y109349D02*
X167750D01*
X103000Y108899D02*
X167750D01*
X103000Y108449D02*
X167750D01*
X103000Y107999D02*
X167750D01*
X103000Y107549D02*
X167750D01*
X103000Y107099D02*
X167750D01*
X103000Y106649D02*
X167750D01*
X103000Y106199D02*
X167750D01*
X103000Y105749D02*
X167750D01*
X103000Y105299D02*
X167750D01*
X103000Y104849D02*
X167750D01*
X103000Y104399D02*
X167750D01*
X103000Y103949D02*
X167750D01*
X103000Y103499D02*
X167750D01*
X103000Y103049D02*
X167750D01*
X103000Y102599D02*
X167750D01*
X103000Y102149D02*
X167750D01*
X103000Y101699D02*
X167750D01*
X101250Y194399D02*
X158350D01*
X101250Y193949D02*
X158350D01*
X101250Y193499D02*
X158350D01*
X101250Y193049D02*
X158350D01*
X101250Y192599D02*
X158350D01*
X103080Y192149D02*
X158350D01*
X103080Y191699D02*
X158350D01*
X103080Y191249D02*
X158350D01*
X103080Y190799D02*
X158350D01*
X103080Y190349D02*
X158350D01*
X103080Y189899D02*
X158350D01*
X103080Y189449D02*
X158350D01*
X124435Y188999D02*
X158350D01*
X124977Y188549D02*
X158350D01*
X125212Y188099D02*
X158350D01*
X125757Y187649D02*
X158350D01*
X126333Y187199D02*
X158350D01*
X153233Y131849D02*
X157072D01*
X153239Y129149D02*
X156569D01*
X153745Y131399D02*
X156355D01*
X153748Y129599D02*
X156171D01*
X153970Y130949D02*
X156075D01*
X153971Y130049D02*
X155997D01*
X154038Y130499D02*
X155968D01*
X147233Y131849D02*
X151767D01*
X147239Y129149D02*
X151761D01*
X148573Y117899D02*
X151481D01*
X148522Y115649D02*
X151424D01*
X147745Y131399D02*
X151255D01*
X147748Y129599D02*
X151252D01*
X148893Y117449D02*
X151132D01*
X148870Y116099D02*
X151106D01*
X147970Y130949D02*
X151030D01*
X147971Y130049D02*
X151029D01*
X149024Y116999D02*
X150983D01*
X149017Y116549D02*
X150975D01*
X148038Y130499D02*
X150962D01*
X103000Y115649D02*
X146478D01*
X143163Y117899D02*
X146427D01*
X103000Y116099D02*
X146130D01*
X142929Y117449D02*
X146107D01*
X121088Y116549D02*
X145983D01*
X142391Y116999D02*
X145976D01*
X103080Y131849D02*
X145767D01*
X103080Y129149D02*
X145761D01*
X103080Y131399D02*
X145255D01*
X103080Y129599D02*
X145252D01*
X103080Y130949D02*
X145030D01*
X103080Y130049D02*
X145029D01*
X103080Y130499D02*
X144962D01*
X139908Y150749D02*
X144155D01*
X118287Y157949D02*
X143506D01*
X139877Y151199D02*
X143375D01*
X116228Y160199D02*
X143279D01*
X118234Y158399D02*
X143143D01*
X116015Y159749D02*
X143096D01*
X118030Y158849D02*
X142987D01*
X117568Y159299D02*
X142973D01*
X115440Y170099D02*
X142615D01*
X117162Y162899D02*
X142606D01*
X116287Y160649D02*
X142549D01*
X116265Y167399D02*
X142517D01*
X117103Y162449D02*
X142257D01*
X116212Y161099D02*
X142231D01*
X116890Y161999D02*
X142108D01*
X116408Y161549D02*
X142100D01*
X115685Y169649D02*
X142073D01*
X117321Y154349D02*
X142072D01*
X116478Y167849D02*
X142035D01*
X116227Y169199D02*
X141838D01*
X116537Y168299D02*
X141822D01*
X116462Y168749D02*
X141763D01*
X139702Y151649D02*
X141569D01*
X117065Y153899D02*
X141355D01*
X139302Y152099D02*
X141171D01*
X116456Y153449D02*
X141075D01*
X121468Y116999D02*
X141009D01*
X118487Y152549D02*
X140997D01*
X117945Y152999D02*
X140968D01*
X103000Y119699D02*
X140923D01*
X115927Y172799D02*
X140484D01*
X121633Y117449D02*
X140471D01*
X120455Y119249D02*
X140437D01*
X121655Y117899D02*
X140237D01*
X121247Y118799D02*
X140223D01*
X121540Y118349D02*
X140163D01*
X116381Y175499D02*
X140107D01*
X115314Y173249D02*
X139831D01*
X116521Y175049D02*
X139688D01*
X117411Y154799D02*
X139669D01*
X136036Y139049D02*
X139660D01*
X116050Y173699D02*
X139564D01*
X116521Y174599D02*
X139503D01*
X116382Y174149D02*
X139466D01*
X118205Y157499D02*
X139393D01*
X103080Y145349D02*
X139353D01*
X124522Y147599D02*
X139302D01*
X131394Y141749D02*
X139173D01*
X117366Y155249D02*
X139060D01*
X103080Y145799D02*
X139005D01*
X103080Y147149D02*
X138982D01*
X117960Y157049D02*
X138954D01*
X135991Y139499D02*
X138953D01*
X103080Y146249D02*
X138858D01*
X103080Y146699D02*
X138851D01*
X117171Y155699D02*
X138804D01*
X131359Y141299D02*
X138773D01*
X117389Y156599D02*
X138759D01*
X116732Y156149D02*
X138714D01*
X135796Y139949D02*
X138673D01*
X131177Y140849D02*
X138598D01*
X135357Y140399D02*
X138567D01*
X133909Y149399D02*
X137935D01*
X131552Y152099D02*
X137448D01*
X133872Y149849D02*
X137228D01*
X131952Y151649D02*
X137048D01*
X133687Y150299D02*
X136948D01*
X132127Y151199D02*
X136873D01*
X133268Y150749D02*
X136842D01*
X103080Y137699D02*
X133919D01*
X130764Y140399D02*
X133643D01*
X103080Y138149D02*
X133310D01*
X103080Y139949D02*
X133204D01*
X103080Y138599D02*
X133054D01*
X103080Y139499D02*
X133009D01*
X103080Y139049D02*
X132964D01*
X124870Y148049D02*
X131859D01*
X125941Y148499D02*
X131206D01*
X126479Y148949D02*
X130939D01*
X127690Y149399D02*
X130185D01*
X128177Y152099D02*
X129698D01*
X128398Y149849D02*
X129478D01*
X103080Y143099D02*
X129368D01*
X128577Y151649D02*
X129298D01*
X128677Y150299D02*
X129198D01*
X128752Y151199D02*
X129123D01*
X128783Y150749D02*
X129092D01*
X118076Y140399D02*
X128956D01*
X118019Y142649D02*
X128698D01*
X118394Y140849D02*
X128543D01*
X118368Y142199D02*
X128427D01*
X118525Y141299D02*
X128361D01*
X118517Y141749D02*
X128326D01*
X118722Y152099D02*
X126323D01*
X103000Y120599D02*
X126228D01*
X101250Y122849D02*
X126177D01*
X118797Y151649D02*
X125923D01*
X103000Y121049D02*
X125880D01*
X102904Y122399D02*
X125857D01*
X103000Y121499D02*
X125733D01*
X103000Y121949D02*
X125726D01*
X103080Y128249D02*
X124565D01*
X118738Y151199D02*
X124473D01*
X101250Y125549D02*
X124467D01*
X114719Y184949D02*
X124301D01*
X103080Y127799D02*
X124023D01*
X118525Y150749D02*
X123987D01*
X101250Y125999D02*
X123985D01*
X114164Y185399D02*
X123843D01*
X103080Y127349D02*
X123788D01*
X103080Y126449D02*
X123772D01*
X118043Y150299D02*
X123734D01*
X103080Y126899D02*
X123713D01*
X103080Y185849D02*
X123640D01*
X103080Y188999D02*
X123065D01*
X103080Y186299D02*
X122967D01*
X103080Y188549D02*
X122523D01*
X103080Y186749D02*
X122485D01*
X103080Y147599D02*
X122478D01*
X103080Y149849D02*
X122427D01*
X103080Y188099D02*
X122288D01*
X103080Y187199D02*
X122272D01*
X103080Y187649D02*
X122213D01*
X103080Y148049D02*
X122130D01*
X103080Y149399D02*
X122107D01*
X103080Y148499D02*
X121983D01*
X103080Y148949D02*
X121976D01*
X115518Y119249D02*
X119795D01*
X115141Y116549D02*
X119162D01*
X115937Y118799D02*
X119003D01*
X115794Y116999D02*
X118782D01*
X116122Y118349D02*
X118710D01*
X116061Y117449D02*
X118617D01*
X116159Y117899D02*
X118595D01*
X103080Y152999D02*
X116575D01*
X103080Y150299D02*
X116477D01*
X103080Y152549D02*
X116033D01*
X103080Y156599D02*
X116011D01*
X103080Y150749D02*
X115995D01*
X103080Y142649D02*
X115981D01*
X103080Y140399D02*
X115924D01*
X103080Y152099D02*
X115798D01*
X103080Y151199D02*
X115782D01*
X103080Y151649D02*
X115723D01*
X103080Y142199D02*
X115632D01*
X103080Y140849D02*
X115606D01*
X103080Y141749D02*
X115483D01*
X103080Y141299D02*
X115475D01*
X103080Y153449D02*
X115294D01*
X103080Y156149D02*
X115018D01*
X103080Y180899D02*
X114792D01*
X103080Y153899D02*
X114685D01*
X103080Y155699D02*
X114579D01*
X103080Y154349D02*
X114429D01*
X103080Y163799D02*
X114398D01*
X103080Y155249D02*
X114384D01*
X103080Y154799D02*
X114339D01*
X103080Y164249D02*
X114282D01*
X103080Y163349D02*
X114163D01*
X103080Y162449D02*
X114147D01*
X103080Y164699D02*
X114117D01*
X103000Y116549D02*
X114109D01*
X103080Y162899D02*
X114088D01*
X103080Y161999D02*
X114065D01*
X112337Y175949D02*
X113954D01*
X103080Y181349D02*
X113899D01*
X103000Y119249D02*
X113732D01*
X103080Y157049D02*
X113637D01*
X112261Y175499D02*
X113619D01*
X103080Y159299D02*
X113618D01*
X103080Y181799D02*
X113595D01*
X103080Y161549D02*
X113523D01*
X103080Y159749D02*
X113485D01*
X112025Y175049D02*
X113479D01*
X111081Y182249D02*
X113472D01*
X103080Y168299D02*
X113458D01*
X103000Y116999D02*
X113456D01*
X113185Y174599D02*
X113429D01*
X103000Y118799D02*
X113313D01*
X103080Y157499D02*
X113299D01*
X103080Y158849D02*
X113290D01*
X103080Y161099D02*
X113288D01*
X103080Y160199D02*
X113272D01*
X103080Y160649D02*
X113213D01*
X103000Y117449D02*
X113189D01*
X103080Y157949D02*
X113156D01*
X103080Y158399D02*
X113153D01*
X103000Y118349D02*
X113128D01*
X103000Y117899D02*
X113091D01*
X103080Y167849D02*
X113005D01*
X103080Y165149D02*
X112926D01*
X103080Y185399D02*
X112836D01*
X111690Y182699D02*
X112701D01*
X103080Y171449D02*
X112625D01*
X103080Y167399D02*
X112469D01*
X103080Y165599D02*
X112438D01*
X111357Y184949D02*
X112281D01*
X103080Y166949D02*
X112237D01*
X111946Y183149D02*
X112228D01*
X103080Y166049D02*
X112223D01*
X103080Y166499D02*
X112163D01*
X111506Y179099D02*
X112115D01*
X111797Y184499D02*
X112033D01*
X103080Y168749D02*
X112006D01*
X103080Y170999D02*
X111902D01*
X103080Y171899D02*
X111717D01*
X103080Y169199D02*
X111643D01*
X103080Y170549D02*
X111596D01*
X103080Y169649D02*
X111487D01*
X103080Y170099D02*
X111473D01*
X103080Y174149D02*
X111273D01*
X103080Y177749D02*
X111263D01*
X111064Y178199D02*
X111236D01*
X103080Y172349D02*
X111235D01*
X103080Y173699D02*
X111038D01*
X103080Y172799D02*
X111022D01*
X103080Y173249D02*
X110963D01*
X103080Y174599D02*
X110121D01*
X103080Y177299D02*
X110013D01*
X103080Y182249D02*
X109919D01*
X103080Y184949D02*
X109643D01*
X103080Y175049D02*
X109575D01*
X103080Y176849D02*
X109533D01*
X103080Y175499D02*
X109339D01*
X103080Y176399D02*
X109321D01*
X103080Y182699D02*
X109310D01*
X103080Y175949D02*
X109263D01*
X103080Y184499D02*
X109204D01*
X103080Y183149D02*
X109054D01*
X103080Y184049D02*
X109009D01*
X103080Y180449D02*
X108967D01*
X103080Y183599D02*
X108964D01*
X103080Y178199D02*
X108901D01*
X103080Y179999D02*
X108615D01*
X103080Y178649D02*
X108585D01*
X103080Y179549D02*
X108465D01*
X103080Y179099D02*
X108456D01*
X113249Y171879D02*
X113395D01*
G54D101*
X100000Y194312D03*
Y114312D03*
Y174312D03*
X170866Y169312D03*
X100000Y109312D03*
X170866Y164312D03*
X100000Y104312D03*
Y164312D03*
X170866Y159312D03*
X170880Y104312D03*
X170866Y189312D03*
X100000Y159312D03*
X170866Y154312D03*
X170880Y109312D03*
X100000Y154312D03*
X170866Y139312D03*
X170880Y114312D03*
X100000Y149312D03*
X170866D03*
Y194312D03*
X100000Y144312D03*
X170866D03*
X100000Y139312D03*
X170866Y134312D03*
X100000D03*
X170880Y129312D03*
X100000D03*
X170880Y124312D03*
X100000Y119312D03*
X170880D03*
X170866Y184312D03*
X100000Y124312D03*
Y184312D03*
X170866Y179312D03*
X100000D03*
X170866Y174312D03*
X100000Y169312D03*
Y189312D03*
G54D138*
X108375Y102247D03*
X115780Y106512D03*
X118750Y102122D03*
X123375Y104872D03*
X126625Y102122D03*
X161625Y105747D03*
X165000Y101997D03*
X159250Y101872D03*
X129180Y106172D03*
X134500Y102122D03*
X142500D03*
X150350Y102072D03*
X150125Y105122D03*
X157480Y104331D03*
X120125Y117747D03*
X114625Y117997D03*
X117000Y141497D03*
X127250Y121747D03*
X125250Y126872D03*
X124960Y124792D03*
X105330Y129772D03*
X104875Y125497D03*
X105000Y123122D03*
X105330Y106792D03*
X105375Y112497D03*
X105350Y117272D03*
X112375Y137372D03*
X112250Y132622D03*
X112000Y127497D03*
X120125Y125122D03*
X116500Y123997D03*
X112750Y122497D03*
X109450Y119542D03*
X110600Y115822D03*
X112260Y111202D03*
X116190Y145747D03*
X121500Y145372D03*
X124875Y140372D03*
X145000Y142102D03*
X147500Y116797D03*
X140375Y146497D03*
X140100Y140522D03*
X152500Y116747D03*
X146500Y130497D03*
X134500Y139122D03*
X157500Y130372D03*
X141700Y118372D03*
X152500Y130497D03*
X129860Y141642D03*
X165625Y143247D03*
X161000Y131747D03*
X165625Y112747D03*
X149998Y142128D03*
X158750Y126747D03*
X155003Y142130D03*
X145250Y118902D03*
Y125747D03*
X129930Y123962D03*
X131987Y142112D03*
X136654Y139606D03*
X161000Y139747D03*
X165625Y138372D03*
Y134247D03*
Y127997D03*
X165670Y125202D03*
X165625Y119372D03*
X162000Y116622D03*
X157480Y116929D03*
X154760Y119532D03*
X154220Y125402D03*
X149750Y127122D03*
X149375Y130497D03*
X140970Y128632D03*
X137950Y123882D03*
X129930Y128302D03*
X132125Y120122D03*
X135875Y116747D03*
X139125Y112622D03*
X135500Y109247D03*
X132125Y110747D03*
X126752Y160866D03*
Y166378D03*
X115000Y174822D03*
X110800Y175978D03*
X117260Y151622D03*
X112800Y177722D03*
X115000Y171572D03*
X112500Y173222D03*
X110500Y183672D03*
X113500Y184012D03*
X115000Y182422D03*
X125250Y149872D03*
X123500Y148747D03*
X127250Y150872D03*
X115875Y154872D03*
X113000Y169922D03*
X115000Y168272D03*
X115625Y162872D03*
X113700Y166477D03*
X116750Y157997D03*
X109981Y179293D03*
X114676Y158183D03*
X114750Y160622D03*
X125125Y186247D03*
X115625Y164997D03*
X127569Y180172D03*
X109710Y149362D03*
X112830Y151492D03*
X118500Y154497D03*
X112860Y156322D03*
X112508Y160622D03*
X122750Y183997D03*
X118250Y183747D03*
X105180Y176842D03*
X107180Y178812D03*
X105665Y185231D03*
X108375Y185747D03*
X116625Y185497D03*
X126700Y158022D03*
X123996Y160866D03*
X126752Y163622D03*
X123996Y166378D03*
X126752Y169134D03*
X132264Y160866D03*
Y166378D03*
X144500Y152247D03*
X130625Y150872D03*
X144500Y159122D03*
X142500Y152872D03*
X140250Y156222D03*
X132375Y149497D03*
X143300Y168722D03*
X138375Y150872D03*
X143625Y161747D03*
X141000Y174247D03*
X161620Y150912D03*
X140830Y154152D03*
X144700Y147662D03*
X140375Y148747D03*
X129738Y177966D03*
X146980Y162802D03*
X149100Y159722D03*
X147000Y159122D03*
X154700Y153122D03*
X165710Y171882D03*
X156790Y184382D03*
X153000Y183997D03*
X150125Y184622D03*
X139780Y177272D03*
X155750Y171997D03*
X154000Y174222D03*
X152412Y171992D03*
X145625Y168497D03*
X151470Y168788D03*
X148609Y168489D03*
X149650Y171131D03*
X157750Y169622D03*
X144908Y185522D03*
X134470Y179682D03*
X134378Y183579D03*
X131200Y183322D03*
X132264Y169134D03*
X129508Y166378D03*
X135020D03*
X132264Y163622D03*
X129508Y160866D03*
X135020D03*
X132264Y158110D03*
X130649Y148166D03*
X149400Y155922D03*
X147000D03*
X163750Y181497D03*
X160038Y181561D03*
X162100Y153522D03*
X162125Y157122D03*
Y161122D03*
Y164497D03*
X162100Y168022D03*
X159600D03*
X160800Y170922D03*
X159500Y174122D03*
X157375Y179997D03*
X155208Y181522D03*
X150923Y181507D03*
X148756Y180114D03*
X146433Y181564D03*
X145513Y178626D03*
X142765Y179949D03*
X139763Y181921D03*
X139938Y185213D03*
X132460Y185682D03*
X130000Y185372D03*
X147640Y152412D03*
X150900Y153122D03*
X149020Y149972D03*
X152500Y149962D03*
X155900Y150012D03*
X159290Y149932D03*
X123750Y187622D03*
X125150Y197766D03*
X114235Y197781D03*
X115375Y191372D03*
X127000Y188372D03*
X124000Y190997D03*
X121908Y193322D03*
X122472Y196096D03*
X119376Y197731D03*
X117115Y196062D03*
X116625Y193372D03*
X110000Y192747D03*
X112750Y193497D03*
X111232Y196131D03*
X108136Y197781D03*
X102188Y197662D03*
X104975Y196166D03*
X104750Y193497D03*
X154860Y194632D03*
X156880Y194792D03*
X156790Y186732D03*
X154420D03*
X150956Y188827D03*
X147455Y187428D03*
X145875Y198122D03*
X137208Y197622D03*
X131980Y192252D03*
X130298Y197696D03*
X128107Y196236D03*
X156880Y197562D03*
X154685Y197570D03*
X149308Y197545D03*
X141308Y187615D03*
X140380Y189652D03*
X142807Y190951D03*
X145008Y190222D03*
X147640Y190983D03*
X147602Y196317D03*
X144188Y196333D03*
X141750Y198122D03*
X140328Y195774D03*
X137362Y194068D03*
X134408Y195622D03*
X134990Y190812D03*
X134446Y187358D03*
X129750Y187997D03*
X127660Y191902D03*
X168500Y197497D03*
G74*
X0Y0D02*
M02*
