M48
;FILE_FORMAT=2:4
INCH,LZ
FMAT,2
ICI,OFF
;TYPE=PLATED
T1C.00984
T2C.02165
%
M72
G90
G93X0Y0
T1C.00984F0S0
X011875Y010212
X010838Y010225
X012338Y010487
X011578Y010651
X010533Y010679
X011226Y01112
X010538Y01125
X01106Y011582
X010535Y011727
X012013Y011775
X011463Y0118
X010945Y011954
X011275Y01225
X0105Y012312
X01165Y0124
X012496Y012479
X012013Y012512
X010488Y01255
X0112Y01275
X010533Y012977
X011225Y013262
X011238Y013737
X012488Y014037
X0117Y01415
X01215Y014537
X011619Y014575
X01235Y014875
X010971Y014936
X011283Y015149
X011726Y015162
X01185Y01545
X011588Y015487
X011286Y015632
X011675Y0158
X011468Y015818
X011475Y016062
X011251Y016062
X0124Y016087
X011563Y016287
X011563Y0165
X0124Y016638
X01137Y016648
X0115Y016827
X0113Y016992
X0115Y017157
X01125Y017322
X0115Y017482
X01108Y017598
X010518Y017684
X01128Y017772
X010718Y017881
X010998Y017929
X0115Y018242
X01105Y018367
X011825Y018375
X012275Y0184
X01135Y018401
X010567Y018523
X011663Y01855
X010838Y018575
X012375Y018762
X0124Y0191
X011538Y019137
X011Y019275
X012191Y019332
X011663Y019337
X011275Y01935
X010475Y01935
X011712Y019606
X012247Y01961
X011123Y019613
X010498Y019617
X010219Y019766
X011938Y019773
X010814Y019778
X011424Y019778
X014588Y019812
X014175Y019812
X012515Y019777
X01303Y01977
X013721Y019762
X014931Y019755
X014419Y019633
X01476Y019632
X012811Y019624
X014033Y019577
X013441Y019562
X013736Y019407
X013198Y019225
X012766Y01919
X014764Y019098
X014281Y019095
X013499Y019081
X014501Y019022
X014038Y018965
X0127Y018837
X012975Y0188
X014131Y018761
X014746Y018743
X013445Y018736
X012513Y018625
X013246Y018568
X014491Y018552
X013Y018537
X013994Y018521
X013438Y018358
X01312Y018332
X013976Y018192
X014643Y018156
X012757Y018017
X014876Y018011
X014277Y017995
X013447Y017968
X014551Y017863
X012974Y017797
X013978Y017727
X0141Y017425
X014965Y017113
X013226Y016913
X012675Y016913
X01433Y016872
X014563Y01685
X014861Y016849
X013226Y016638
X012675Y016638
X012951Y016638
X013502Y016638
X012675Y016362
X013226Y016362
X014698Y01628
X014363Y016175
X012951Y016087
X013502Y016087
X012675Y016087
X013226Y016087
X01491Y015972
X0147Y015912
X01445Y015912
X013226Y015811
X01267Y015802
X014025Y015622
X01494Y015592
X0147Y015592
X014083Y015415
X01425Y015287
X014764Y015241
X01445Y015225
X013838Y015087
X013063Y015087
X012725Y015087
X014902Y014997
X012525Y014987
X013238Y01495
X014038Y014875
X013065Y014817
X01447Y014766
X014038Y01465
X015Y014213
X013199Y014211
X0145Y01421
X012986Y014164
X01401Y014052
X013665Y013961
X01345Y013912
X01465Y01305
X014938Y01305
X014097Y012863
X012993Y01283
X014975Y012712
X012525Y012687
X014525Y012575
X012993Y012396
X013795Y012388
X012725Y012175
X013213Y012012
X014525Y01189
X01417Y011837
X01475Y01168
X013588Y011675
X013913Y011262
X013213Y011075
X01355Y010925
X012918Y010617
X01345Y010212
X012663Y010212
X01425Y010212
X015925Y010187
X0165Y0102
X015035Y010207
X015748Y010433
X015013Y010512
X016163Y010575
X016563Y011275
X0162Y011662
X01525Y011675
X015748Y011693
X016563Y011937
X015476Y011953
X016567Y01252
X015422Y01254
X015875Y012675
X016563Y0128
X01575Y013037
X01525Y01305
X0161Y013175
X016563Y013425
X016563Y013837
X0161Y013975
X0155Y014213
X016563Y014325
X015929Y014993
X01525Y014996
X01559Y015001
X016162Y015091
X01509Y015312
X01547Y015312
X01621Y015352
X016213Y015712
X016213Y016112
X016213Y01645
X01621Y016802
X01596Y016802
X015147Y016879
X015775Y016962
X01608Y017092
X016571Y017188
X015241Y017199
X015575Y0172
X01595Y017412
X0154Y017422
X015738Y018
X016375Y01815
X015092Y018151
X015521Y018152
X016004Y018156
X0153Y0184
X015679Y018438
X015013Y018462
X015679Y018673
X015442Y018673
X015096Y018883
X015486Y019463
X015688Y019479
X01685Y01975
X015688Y019756
X015469Y019757
T2C.02165F197S55
X01Y010431
X01Y010931
X01Y011431
X01Y011931
X01Y012431
X01Y012931
X01Y013431
X01Y013931
X01Y014431
X01Y014931
X01Y015431
X01Y015931
X01Y016431
X01Y016931
X01Y017431
X01Y017931
X01Y018431
X01Y018931
X01Y019431
X017087Y019431
X017087Y018931
X017087Y018431
X017087Y017931
X017087Y017431
X017087Y016931
X017087Y016431
X017087Y015931
X017087Y015431
X017087Y014931
X017087Y014431
X017087Y013931
X017087Y013431
X017088Y012931
X017088Y012431
X017088Y011931
X017088Y011431
X017088Y010931
X017088Y010431
M30
