*
*
G04 PADS VX.2 Build Number: 5060570 generated Gerber (RS-274-X) file*
G04 PC Version=2.1*
*
%IN "PCB_#30823_ESP32-WROVER"*%
*
%MOIN*%
*
%FSLAX35Y35*%
*
*
*
*
G04 PC Standard Apertures*
*
*
G04 Thermal Relief Aperture macro.*
%AMTER*
1,1,$1,0,0*
1,0,$1-$2,0,0*
21,0,$3,$4,0,0,45*
21,0,$3,$4,0,0,135*
%
*
*
G04 Annular Aperture macro.*
%AMANN*
1,1,$1,0,0*
1,0,$2,0,0*
%
*
*
G04 Odd Aperture macro.*
%AMODD*
1,1,$1,0,0*
1,0,$1-0.005,0,0*
%
*
*
G04 PC Custom Aperture Macros*
*
*
*
*
*
*
G04 PC Aperture Table*
*
%ADD010C,0.001*%
%ADD030C,0.01*%
%ADD037C,0.005*%
%ADD038C,0.004*%
%ADD116C,0.002*%
%ADD117C,0.02362*%
%ADD139C,0.00197*%
%ADD140C,0.00787*%
%ADD141C,0.01969*%
%ADD142C,0.00984*%
%ADD143C,0.00402*%
*
*
*
*
G04 PC Circuitry*
G04 Layer Name PCB_#30823_ESP32-WROVER - circuitry*
%LPD*%
*
*
G04 PC Custom Flashes*
G04 Layer Name PCB_#30823_ESP32-WROVER - flashes*
%LPD*%
*
*
G04 PC Circuitry*
G04 Layer Name PCB_#30823_ESP32-WROVER - circuitry*
%LPD*%
*
G54D10*
G01X171220Y99912D02*
X171223D01*
X170866Y223622D02*
X170869D01*
G54D30*
X149762Y168918D02*
X151168D01*
X150465Y168215*
X149762Y168918*
X100000Y223622D02*
X170866D01*
Y100000*
X100000*
Y223622*
G54D37*
X161595Y167428D02*
Y154314D01*
X150103*
Y167428*
X161595*
G54D38*
X139705Y116504D02*
X160295D01*
Y130504*
X139705*
Y125004*
Y122004D02*
G75*
G03Y125004I-0J1500D01*
G01Y122004D02*
Y116504D01*
X143300Y119504D02*
G03X143300I-800J0D01*
G01X117125Y191372D02*
Y193572D01*
X117524Y193972*
X119712*
X120125Y193559*
Y191372*
X117125Y189372D02*
Y187172D01*
X117525Y186772*
X119725*
X120125Y187172*
Y189372*
X138773Y175925D02*
G03X138773I-360J0D01*
G01X139351Y170622D02*
Y173465D01*
X119665Y170622D02*
Y173465D01*
Y156622D02*
Y153780D01*
X139351Y156535D02*
Y153780D01*
Y173465D02*
X140728D01*
X139351Y153780D02*
X140728D01*
X118288Y173465D02*
X119665D01*
X118288Y153780D02*
X119665D01*
X111156Y187116D02*
Y189478D01*
X115094*
Y187116*
X111156*
Y190266D02*
Y193219D01*
X115094*
Y190266*
X111156*
X115094Y189478D02*
X111156Y190266D01*
Y189478D02*
X115094Y190266D01*
Y192431D02*
X111156D01*
G54D116*
X144281Y172224D02*
X148219D01*
Y170020*
X144281*
Y172224*
X127152Y148321D02*
Y144384D01*
X124948*
Y148321*
X127152*
X118969Y142420D02*
X115031D01*
Y144624*
X118969*
Y142420*
X148219Y165220D02*
X144281D01*
Y167424*
X148219*
Y165220*
X129652Y148341D02*
Y144404D01*
X127448*
Y148341*
X129652*
X129239Y141900D02*
X125301D01*
Y144104*
X129239*
Y141900*
X135985Y181654D02*
Y185591D01*
X138189*
Y181654*
X135985*
X147373Y173579D02*
Y177516D01*
X149577*
Y173579*
X147373*
X118969Y148020D02*
X115031D01*
Y150224*
X118969*
Y148020*
X109108Y163426D02*
Y167363D01*
X111312*
Y163426*
X109108*
X129487Y180326D02*
X126704Y183110D01*
X126704D02*
X128263Y184668D01*
X131046Y181885*
X129487Y180326*
X145602Y156966D02*
Y153029D01*
X143398*
Y156966*
X145602*
X151986Y190247D02*
X148645Y193588D01*
X150204Y195147*
X153545Y191806*
X151986Y190247*
X148645Y193616D02*
X151986Y196957D01*
X153545Y195398*
X150204Y192057*
X148645Y193616*
X125454Y185260D02*
X128237Y188043D01*
X129796Y186485*
X129796D02*
X127013Y183701D01*
X125454Y185260*
X120898Y188029D02*
Y191966D01*
X123102*
Y188029*
X120898*
X139227Y150341D02*
Y146404D01*
X137023*
Y150341*
X139227*
X121412Y150011D02*
Y146074D01*
X119208*
Y150011*
X121412*
X114102Y165197D02*
Y161260D01*
X111898*
Y165197*
X114102*
X129954Y180385D02*
X132737Y183168D01*
X134296Y181610*
X134296D02*
X131513Y178826D01*
X129954Y180385*
X152658Y170724D02*
X156596D01*
Y168520*
X152658*
Y170724*
X140139Y186520D02*
X136201D01*
Y188724*
X140139*
Y186520*
X159594Y151020D02*
X155656D01*
Y153224*
X159594*
Y151020*
X149973Y173579D02*
Y177516D01*
X152177*
Y173579*
X149973*
X144523D02*
Y177516D01*
X146727*
Y173579*
X144523*
X140139Y178520D02*
X136201D01*
Y180724*
X140139*
Y178520*
X141648Y175029D02*
Y178966D01*
X143852*
Y175029*
X141648*
X144281Y162324D02*
X148219D01*
Y160120*
X144281*
Y162324*
G54D117*
X166204Y141997D02*
Y157247D01*
X104637Y185622D02*
Y194622D01*
X145000Y191712D02*
Y196260D01*
X136840*
G54D139*
X135452Y110858D02*
Y140386D01*
X113798*
Y110858*
X135452*
G54D140*
X134271Y119323D02*
Y131921D01*
X114979*
Y119323*
X134271*
G54D141*
X119901Y121882D02*
G03X119901I-985J0D01*
G54D142*
G01X114290Y113024D02*
G03X114290I-492J0D01*
G54D143*
G01X165642Y194404D02*
Y187120D01*
X158358*
Y194404*
X165642*
G74*
X0Y0D02*
M02*
