*
*
G04 PADS VX.2 Build Number: 5060570 generated Gerber (RS-274-X) file*
G04 PC Version=2.1*
*
%IN "PCB_#30823_ESP32-WROVER"*%
*
%MOIN*%
*
%FSLAX35Y35*%
*
*
*
*
G04 PC Standard Apertures*
*
*
G04 Thermal Relief Aperture macro.*
%AMTER*
1,1,$1,0,0*
1,0,$1-$2,0,0*
21,0,$3,$4,0,0,45*
21,0,$3,$4,0,0,135*
%
*
*
G04 Annular Aperture macro.*
%AMANN*
1,1,$1,0,0*
1,0,$2,0,0*
%
*
*
G04 Odd Aperture macro.*
%AMODD*
1,1,$1,0,0*
1,0,$1-0.005,0,0*
%
*
*
G04 PC Custom Aperture Macros*
*
*
*
*
*
*
G04 PC Aperture Table*
*
%ADD010C,0.001*%
%ADD030C,0.01*%
%ADD036C,0.006*%
%ADD037C,0.005*%
%ADD038C,0.004*%
%ADD095C,0.007*%
%ADD096C,0.009*%
%ADD097C,0.0035*%
%ADD098C,0.0055*%
%ADD099C,0.003*%
*
*
*
*
G04 PC Circuitry*
G04 Layer Name PCB_#30823_ESP32-WROVER - circuitry*
%LPD*%
*
*
G04 PC Custom Flashes*
G04 Layer Name PCB_#30823_ESP32-WROVER - flashes*
%LPD*%
*
*
G04 PC Circuitry*
G04 Layer Name PCB_#30823_ESP32-WROVER - circuitry*
%LPD*%
*
G54D10*
G01X171220Y99912D02*
X171223D01*
X170866Y223622D02*
X170869D01*
G54D30*
X100000D02*
X170866D01*
Y100000*
X100000*
Y223622*
X163636Y214909D02*
G75*
G03X163636I-5430J0D01*
G54D36*
G01X113656Y218239D02*
Y218859D01*
X116576Y219419D02*
X104786Y206929D01*
X116336Y206579D02*
X104836Y219569D01*
X109776Y207759D02*
G03X109776I-990J0D01*
G54D37*
G01X108859Y194877D02*
X108950Y195096D01*
X109132Y195315*
X109313Y195424*
X109677*
X109859Y195315*
X110041Y195096*
X110132Y194877*
X110222Y194549*
Y194002*
X110132Y193674*
X110041Y193455*
X109859Y193236*
X109677Y193127*
X109313*
X109132Y193236*
X108950Y193455*
X108859Y193674*
Y194002*
X109313D02*
X108859D01*
X108041Y195424D02*
Y193127D01*
Y195424D02*
X106768Y193127D01*
Y195424D02*
Y193127D01*
X105950Y195424D02*
Y193127D01*
Y195424D02*
X105313D01*
X105041Y195315*
X104859Y195096*
X104768Y194877*
X104677Y194549*
Y194002*
X104768Y193674*
X104859Y193455*
X105041Y193236*
X105313Y193127*
X105950*
X110159Y190424D02*
X109159D01*
X109704Y189549*
X109431*
X109250Y189440*
X109159Y189330*
X109068Y189002*
Y188783*
X109159Y188455*
X109341Y188236*
X109613Y188127*
X109886*
X110159Y188236*
X110250Y188346*
X110341Y188565*
X108250Y190424D02*
X107522Y188127D01*
X106795Y190424D02*
X107522Y188127D01*
X105795Y190424D02*
X104795D01*
X105341Y189549*
X105068*
X104886Y189440*
X104795Y189330*
X104704Y189002*
Y188783*
X104795Y188455*
X104977Y188236*
X105250Y188127*
X105522*
X105795Y188236*
X105886Y188346*
X105977Y188565*
X107978Y185359D02*
Y183062D01*
Y185359D02*
X106797D01*
X107978Y184265D02*
X107251D01*
X107978Y183062D02*
X106797D01*
X105978Y185359D02*
Y183062D01*
Y185359D02*
X104706Y183062D01*
Y185359D02*
Y183062D01*
X122060Y180031D02*
X122242Y180250D01*
X122514Y180359*
X122878*
X123151Y180250*
X123333Y180031*
Y179812*
X123242Y179593*
X123151Y179484*
X122969Y179375*
X122424Y179156*
X122242Y179046*
X122151Y178937*
X122060Y178718*
Y178390*
X122242Y178171*
X122514Y178062*
X122878*
X123151Y178171*
X123333Y178390*
X121242Y180359D02*
Y178062D01*
Y180359D02*
X120060D01*
X121242Y179265D02*
X120514D01*
X121242Y178062D02*
X120060D01*
X119242Y180359D02*
Y178062D01*
Y180359D02*
X117969Y178062D01*
Y180359D02*
Y178062D01*
X115878Y180031D02*
X116060Y180250D01*
X116333Y180359*
X116696*
X116969Y180250*
X117151Y180031*
Y179812*
X117060Y179593*
X116969Y179484*
X116787Y179375*
X116242Y179156*
X116060Y179046*
X115969Y178937*
X115878Y178718*
Y178390*
X116060Y178171*
X116333Y178062*
X116696*
X116969Y178171*
X117151Y178390*
X114514Y180359D02*
X114696Y180250D01*
X114878Y180031*
X114969Y179812*
X115060Y179484*
Y178937*
X114969Y178609*
X114878Y178390*
X114696Y178171*
X114514Y178062*
X114151*
X113969Y178171*
X113787Y178390*
X113696Y178609*
X113605Y178937*
Y179484*
X113696Y179812*
X113787Y180031*
X113969Y180250*
X114151Y180359*
X114514*
X112787D02*
Y178062D01*
Y180359D02*
X111969D01*
X111696Y180250*
X111605Y180140*
X111514Y179921*
Y179703*
X111605Y179484*
X111696Y179375*
X111969Y179265*
X112787*
X112151D02*
X111514Y178062D01*
X110696Y177625D02*
X108787D01*
X108242Y180359D02*
X107514Y178062D01*
X106787Y180359D02*
X107514Y178062D01*
X105969Y180359D02*
Y178062D01*
Y180359D02*
X105151D01*
X104878Y180250*
X104787Y180140*
X104696Y179921*
Y179593*
X104787Y179375*
X104878Y179265*
X105151Y179156*
X105969*
X111246Y170359D02*
Y168062D01*
X109882Y170359D02*
X110064Y170250D01*
X110246Y170031*
X110337Y169812*
X110428Y169484*
Y168937*
X110337Y168609*
X110246Y168390*
X110064Y168171*
X109882Y168062*
X109519*
X109337Y168171*
X109155Y168390*
X109064Y168609*
X108973Y168937*
Y169484*
X109064Y169812*
X109155Y170031*
X109337Y170250*
X109519Y170359*
X109882*
X107973D02*
X106973D01*
X107519Y169484*
X107246*
X107064Y169375*
X106973Y169265*
X106882Y168937*
Y168718*
X106973Y168390*
X107155Y168171*
X107428Y168062*
X107701*
X107973Y168171*
X108064Y168281*
X108155Y168500*
X105155Y170359D02*
X106064Y168828D01*
X104701*
X105155Y170359D02*
Y168062D01*
X111246Y165359D02*
Y163062D01*
X109882Y165359D02*
X110064Y165250D01*
X110246Y165031*
X110337Y164812*
X110428Y164484*
Y163937*
X110337Y163609*
X110246Y163390*
X110064Y163171*
X109882Y163062*
X109519*
X109337Y163171*
X109155Y163390*
X109064Y163609*
X108973Y163937*
Y164484*
X109064Y164812*
X109155Y165031*
X109337Y165250*
X109519Y165359*
X109882*
X107973D02*
X106973D01*
X107519Y164484*
X107246*
X107064Y164375*
X106973Y164265*
X106882Y163937*
Y163718*
X106973Y163390*
X107155Y163171*
X107428Y163062*
X107701*
X107973Y163171*
X108064Y163281*
X108155Y163500*
X104882Y165359D02*
X105792D01*
X105882Y164375*
X105792Y164484*
X105519Y164593*
X105246*
X104973Y164484*
X104792Y164265*
X104701Y163937*
X104792Y163718*
X104882Y163390*
X105064Y163171*
X105337Y163062*
X105610*
X105882Y163171*
X105973Y163281*
X106064Y163500*
X111167Y160359D02*
Y158062D01*
X109804Y160359D02*
X109986Y160250D01*
X110167Y160031*
X110258Y159812*
X110349Y159484*
Y158937*
X110258Y158609*
X110167Y158390*
X109986Y158171*
X109804Y158062*
X109440*
X109258Y158171*
X109076Y158390*
X108986Y158609*
X108895Y158937*
Y159484*
X108986Y159812*
X109076Y160031*
X109258Y160250*
X109440Y160359*
X109804*
X107895D02*
X106895D01*
X107440Y159484*
X107167*
X106986Y159375*
X106895Y159265*
X106804Y158937*
Y158718*
X106895Y158390*
X107076Y158171*
X107349Y158062*
X107622*
X107895Y158171*
X107986Y158281*
X108076Y158500*
X105895Y159812D02*
Y159921D01*
X105804Y160140*
X105713Y160250*
X105531Y160359*
X105167*
X104986Y160250*
X104895Y160140*
X104804Y159921*
Y159703*
X104895Y159484*
X105076Y159156*
X105986Y158062*
X104713*
X111167Y155359D02*
Y153062D01*
X109804Y155359D02*
X109986Y155250D01*
X110167Y155031*
X110258Y154812*
X110349Y154484*
Y153937*
X110258Y153609*
X110167Y153390*
X109986Y153171*
X109804Y153062*
X109440*
X109258Y153171*
X109076Y153390*
X108986Y153609*
X108895Y153937*
Y154484*
X108986Y154812*
X109076Y155031*
X109258Y155250*
X109440Y155359*
X109804*
X107895D02*
X106895D01*
X107440Y154484*
X107167*
X106986Y154375*
X106895Y154265*
X106804Y153937*
Y153718*
X106895Y153390*
X107076Y153171*
X107349Y153062*
X107622*
X107895Y153171*
X107986Y153281*
X108076Y153500*
X105804Y155359D02*
X104804D01*
X105349Y154484*
X105076*
X104895Y154375*
X104804Y154265*
X104713Y153937*
Y153718*
X104804Y153390*
X104986Y153171*
X105258Y153062*
X105531*
X105804Y153171*
X105895Y153281*
X105986Y153500*
X111207Y150359D02*
Y148062D01*
X109843Y150359D02*
X110025Y150250D01*
X110207Y150031*
X110298Y149812*
X110389Y149484*
Y148937*
X110298Y148609*
X110207Y148390*
X110025Y148171*
X109843Y148062*
X109479*
X109298Y148171*
X109116Y148390*
X109025Y148609*
X108934Y148937*
Y149484*
X109025Y149812*
X109116Y150031*
X109298Y150250*
X109479Y150359*
X109843*
X108025Y149812D02*
Y149921D01*
X107934Y150140*
X107843Y150250*
X107661Y150359*
X107298*
X107116Y150250*
X107025Y150140*
X106934Y149921*
Y149703*
X107025Y149484*
X107207Y149156*
X108116Y148062*
X106843*
X104843Y150359D02*
X105752D01*
X105843Y149375*
X105752Y149484*
X105479Y149593*
X105207*
X104934Y149484*
X104752Y149265*
X104661Y148937*
X104752Y148718*
X104843Y148390*
X105025Y148171*
X105298Y148062*
X105570*
X105843Y148171*
X105934Y148281*
X106025Y148500*
X111049Y145359D02*
Y143062D01*
X109686Y145359D02*
X109867Y145250D01*
X110049Y145031*
X110140Y144812*
X110231Y144484*
Y143937*
X110140Y143609*
X110049Y143390*
X109867Y143171*
X109686Y143062*
X109322*
X109140Y143171*
X108958Y143390*
X108867Y143609*
X108776Y143937*
Y144484*
X108867Y144812*
X108958Y145031*
X109140Y145250*
X109322Y145359*
X109686*
X107867Y144812D02*
Y144921D01*
X107776Y145140*
X107686Y145250*
X107504Y145359*
X107140*
X106958Y145250*
X106867Y145140*
X106776Y144921*
Y144703*
X106867Y144484*
X107049Y144156*
X107958Y143062*
X106686*
X104776Y145031D02*
X104867Y145250D01*
X105140Y145359*
X105322*
X105595Y145250*
X105776Y144921*
X105867Y144375*
Y143828*
X105776Y143390*
X105595Y143171*
X105322Y143062*
X105231*
X104958Y143171*
X104776Y143390*
X104686Y143718*
Y143828*
X104776Y144156*
X104958Y144375*
X105231Y144484*
X105322*
X105595Y144375*
X105776Y144156*
X105867Y143828*
X111167Y140359D02*
Y138062D01*
X109804Y140359D02*
X109986Y140250D01*
X110167Y140031*
X110258Y139812*
X110349Y139484*
Y138937*
X110258Y138609*
X110167Y138390*
X109986Y138171*
X109804Y138062*
X109440*
X109258Y138171*
X109076Y138390*
X108986Y138609*
X108895Y138937*
Y139484*
X108986Y139812*
X109076Y140031*
X109258Y140250*
X109440Y140359*
X109804*
X107986Y139812D02*
Y139921D01*
X107895Y140140*
X107804Y140250*
X107622Y140359*
X107258*
X107076Y140250*
X106986Y140140*
X106895Y139921*
Y139703*
X106986Y139484*
X107167Y139156*
X108076Y138062*
X106804*
X104713Y140359D02*
X105622Y138062D01*
X105986Y140359D02*
X104713D01*
X110380Y135359D02*
Y133062D01*
X109016Y135359D02*
X109198Y135250D01*
X109380Y135031*
X109471Y134812*
X109562Y134484*
Y133937*
X109471Y133609*
X109380Y133390*
X109198Y133171*
X109016Y133062*
X108653*
X108471Y133171*
X108289Y133390*
X108198Y133609*
X108107Y133937*
Y134484*
X108198Y134812*
X108289Y135031*
X108471Y135250*
X108653Y135359*
X109016*
X107289Y134921D02*
X107107Y135031D01*
X106834Y135359*
Y133062*
X105107Y135359D02*
X106016Y133828D01*
X104653*
X105107Y135359D02*
Y133062D01*
X110341Y130359D02*
Y128062D01*
X108977Y130359D02*
X109159Y130250D01*
X109341Y130031*
X109431Y129812*
X109522Y129484*
Y128937*
X109431Y128609*
X109341Y128390*
X109159Y128171*
X108977Y128062*
X108613*
X108431Y128171*
X108250Y128390*
X108159Y128609*
X108068Y128937*
Y129484*
X108159Y129812*
X108250Y130031*
X108431Y130250*
X108613Y130359*
X108977*
X107250Y129921D02*
X107068Y130031D01*
X106795Y130359*
Y128062*
X105886Y129812D02*
Y129921D01*
X105795Y130140*
X105704Y130250*
X105522Y130359*
X105159*
X104977Y130250*
X104886Y130140*
X104795Y129921*
Y129703*
X104886Y129484*
X105068Y129156*
X105977Y128062*
X104704*
X110301Y120279D02*
Y117982D01*
X108938Y120279D02*
X109119Y120170D01*
X109301Y119951*
X109392Y119732*
X109483Y119404*
Y118857*
X109392Y118529*
X109301Y118310*
X109119Y118091*
X108938Y117982*
X108574*
X108392Y118091*
X108210Y118310*
X108119Y118529*
X108028Y118857*
Y119404*
X108119Y119732*
X108210Y119951*
X108392Y120170*
X108574Y120279*
X108938*
X107210Y119841D02*
X107028Y119951D01*
X106756Y120279*
Y117982*
X105756Y120279D02*
X104756D01*
X105301Y119404*
X105028*
X104847Y119295*
X104756Y119185*
X104665Y118857*
Y118638*
X104756Y118310*
X104938Y118091*
X105210Y117982*
X105483*
X105756Y118091*
X105847Y118201*
X105938Y118420*
X108136Y115299D02*
Y113002D01*
Y115299D02*
X106863Y113002D01*
Y115299D02*
Y113002D01*
X104681Y114752D02*
X104772Y114971D01*
X104954Y115190*
X105136Y115299*
X105499*
X105681Y115190*
X105863Y114971*
X105954Y114752*
X106045Y114424*
Y113877*
X105954Y113549*
X105863Y113330*
X105681Y113111*
X105499Y113002*
X105136*
X104954Y113111*
X104772Y113330*
X104681Y113549*
X108136Y110319D02*
Y108022D01*
Y110319D02*
X106863Y108022D01*
Y110319D02*
Y108022D01*
X104681Y109772D02*
X104772Y109991D01*
X104954Y110210*
X105136Y110319*
X105499*
X105681Y110210*
X105863Y109991*
X105954Y109772*
X106045Y109444*
Y108897*
X105954Y108569*
X105863Y108350*
X105681Y108131*
X105499Y108022*
X105136*
X104954Y108131*
X104772Y108350*
X104681Y108569*
X108136Y105359D02*
Y103062D01*
Y105359D02*
X106863Y103062D01*
Y105359D02*
Y103062D01*
X104681Y104812D02*
X104772Y105031D01*
X104954Y105250*
X105136Y105359*
X105499*
X105681Y105250*
X105863Y105031*
X105954Y104812*
X106045Y104484*
Y103937*
X105954Y103609*
X105863Y103390*
X105681Y103171*
X105499Y103062*
X105136*
X104954Y103171*
X104772Y103390*
X104681Y103609*
X166207Y105802D02*
Y103505D01*
Y105802D02*
X164934Y103505D01*
Y105802D02*
Y103505D01*
X162752Y105255D02*
X162843Y105474D01*
X163025Y105692*
X163207Y105802*
X163570*
X163752Y105692*
X163934Y105474*
X164025Y105255*
X164116Y104927*
Y104380*
X164025Y104052*
X163934Y103833*
X163752Y103614*
X163570Y103505*
X163207*
X163025Y103614*
X162843Y103833*
X162752Y104052*
X166207Y110772D02*
Y108475D01*
Y110772D02*
X164934Y108475D01*
Y110772D02*
Y108475D01*
X162752Y110225D02*
X162843Y110444D01*
X163025Y110662*
X163207Y110772*
X163570*
X163752Y110662*
X163934Y110444*
X164025Y110225*
X164116Y109897*
Y109350*
X164025Y109022*
X163934Y108803*
X163752Y108584*
X163570Y108475*
X163207*
X163025Y108584*
X162843Y108803*
X162752Y109022*
X166207Y115702D02*
Y113405D01*
Y115702D02*
X164934Y113405D01*
Y115702D02*
Y113405D01*
X162752Y115155D02*
X162843Y115374D01*
X163025Y115592*
X163207Y115702*
X163570*
X163752Y115592*
X163934Y115374*
X164025Y115155*
X164116Y114827*
Y114280*
X164025Y113952*
X163934Y113733*
X163752Y113514*
X163570Y113405*
X163207*
X163025Y113514*
X162843Y113733*
X162752Y113952*
X166207Y120712D02*
Y118415D01*
X164843Y120712D02*
X165025Y120602D01*
X165207Y120384*
X165298Y120165*
X165389Y119837*
Y119290*
X165298Y118962*
X165207Y118743*
X165025Y118524*
X164843Y118415*
X164479*
X164298Y118524*
X164116Y118743*
X164025Y118962*
X163934Y119290*
Y119837*
X164025Y120165*
X164116Y120384*
X164298Y120602*
X164479Y120712*
X164843*
X163116Y120274D02*
X162934Y120384D01*
X162661Y120712*
Y118415*
X160661Y120712D02*
X161570D01*
X161661Y119727*
X161570Y119837*
X161298Y119946*
X161025*
X160752Y119837*
X160570Y119618*
X160479Y119290*
X160570Y119071*
X160661Y118743*
X160843Y118524*
X161116Y118415*
X161389*
X161661Y118524*
X161752Y118634*
X161843Y118852*
X166207Y125482D02*
Y123185D01*
X164843Y125482D02*
X165025Y125372D01*
X165207Y125154*
X165298Y124935*
X165389Y124607*
Y124060*
X165298Y123732*
X165207Y123513*
X165025Y123294*
X164843Y123185*
X164479*
X164298Y123294*
X164116Y123513*
X164025Y123732*
X163934Y124060*
Y124607*
X164025Y124935*
X164116Y125154*
X164298Y125372*
X164479Y125482*
X164843*
X163025Y124935D02*
Y125044D01*
X162934Y125263*
X162843Y125372*
X162661Y125482*
X162298*
X162116Y125372*
X162025Y125263*
X161934Y125044*
Y124825*
X162025Y124607*
X162207Y124279*
X163116Y123185*
X161843*
X166207Y130642D02*
Y128345D01*
X164843Y130642D02*
X165025Y130532D01*
X165207Y130314*
X165298Y130095*
X165389Y129767*
Y129220*
X165298Y128892*
X165207Y128673*
X165025Y128454*
X164843Y128345*
X164479*
X164298Y128454*
X164116Y128673*
X164025Y128892*
X163934Y129220*
Y129767*
X164025Y130095*
X164116Y130314*
X164298Y130532*
X164479Y130642*
X164843*
X162570D02*
X162843Y130532D01*
X163025Y130204*
X163116Y129657*
Y129329*
X163025Y128782*
X162843Y128454*
X162570Y128345*
X162389*
X162116Y128454*
X161934Y128782*
X161843Y129329*
Y129657*
X161934Y130204*
X162116Y130532*
X162389Y130642*
X162570*
X166207Y135642D02*
Y133345D01*
X164843Y135642D02*
X165025Y135532D01*
X165207Y135314*
X165298Y135095*
X165389Y134767*
Y134220*
X165298Y133892*
X165207Y133673*
X165025Y133454*
X164843Y133345*
X164479*
X164298Y133454*
X164116Y133673*
X164025Y133892*
X163934Y134220*
Y134767*
X164025Y135095*
X164116Y135314*
X164298Y135532*
X164479Y135642*
X164843*
X162207D02*
X163116Y134110D01*
X161752*
X162207Y135642D02*
Y133345D01*
X166189Y150512D02*
Y148215D01*
X164825Y150512D02*
X165007Y150402D01*
X165189Y150184*
X165280Y149965*
X165370Y149637*
Y149090*
X165280Y148762*
X165189Y148543*
X165007Y148324*
X164825Y148215*
X164461*
X164280Y148324*
X164098Y148543*
X164007Y148762*
X163916Y149090*
Y149637*
X164007Y149965*
X164098Y150184*
X164280Y150402*
X164461Y150512*
X164825*
X161916D02*
X162825D01*
X162916Y149527*
X162825Y149637*
X162552Y149746*
X162280*
X162007Y149637*
X161825Y149418*
X161734Y149090*
X161825Y148871*
X161916Y148543*
X162098Y148324*
X162370Y148215*
X162643*
X162916Y148324*
X163007Y148434*
X163098Y148652*
X166207Y140642D02*
Y138345D01*
Y140642D02*
X164934Y138345D01*
Y140642D02*
Y138345D01*
X162752Y140095D02*
X162843Y140314D01*
X163025Y140532*
X163207Y140642*
X163570*
X163752Y140532*
X163934Y140314*
X164025Y140095*
X164116Y139767*
Y139220*
X164025Y138892*
X163934Y138673*
X163752Y138454*
X163570Y138345*
X163207*
X163025Y138454*
X162843Y138673*
X162752Y138892*
X166200Y145512D02*
Y143215D01*
Y145512D02*
X164928Y143215D01*
Y145512D02*
Y143215D01*
X162746Y144965D02*
X162837Y145184D01*
X163019Y145402*
X163200Y145512*
X163564*
X163746Y145402*
X163928Y145184*
X164019Y144965*
X164110Y144637*
Y144090*
X164019Y143762*
X163928Y143543*
X163746Y143324*
X163564Y143215*
X163200*
X163019Y143324*
X162837Y143543*
X162746Y143762*
X166228Y155242D02*
Y152945D01*
X164865Y155242D02*
X165047Y155132D01*
X165228Y154914*
X165319Y154695*
X165410Y154367*
Y153820*
X165319Y153492*
X165228Y153273*
X165047Y153054*
X164865Y152945*
X164501*
X164319Y153054*
X164137Y153273*
X164047Y153492*
X163956Y153820*
Y154367*
X164047Y154695*
X164137Y154914*
X164319Y155132*
X164501Y155242*
X164865*
X163137Y154804D02*
X162956Y154914D01*
X162683Y155242*
Y152945*
X161410Y155242D02*
X161683Y155132D01*
X161774Y154914*
Y154695*
X161683Y154476*
X161501Y154367*
X161137Y154257*
X160865Y154148*
X160683Y153929*
X160592Y153710*
Y153382*
X160683Y153164*
X160774Y153054*
X161047Y152945*
X161410*
X161683Y153054*
X161774Y153164*
X161865Y153382*
Y153710*
X161774Y153929*
X161592Y154148*
X161319Y154257*
X160956Y154367*
X160774Y154476*
X160683Y154695*
Y154914*
X160774Y155132*
X161047Y155242*
X161410*
X165562Y180242D02*
Y177945D01*
X166199Y180242D02*
X164926D01*
X164108D02*
X162835Y177945D01*
Y180242D02*
X164108Y177945D01*
X162017Y180242D02*
Y177945D01*
Y180242D02*
X161380D01*
X161108Y180132*
X160926Y179914*
X160835Y179695*
X160744Y179367*
Y178820*
X160835Y178492*
X160926Y178273*
X161108Y178054*
X161380Y177945*
X162017*
X159380Y180242D02*
X159653Y180132D01*
X159835Y179804*
X159926Y179257*
Y178929*
X159835Y178382*
X159653Y178054*
X159380Y177945*
X159199*
X158926Y178054*
X158744Y178382*
X158653Y178929*
Y179257*
X158744Y179804*
X158926Y180132*
X159199Y180242*
X159380*
X166199Y175242D02*
Y172945D01*
Y175242D02*
X165380D01*
X165108Y175132*
X165017Y175023*
X164926Y174804*
Y174585*
X165017Y174367*
X165108Y174257*
X165380Y174148*
X166199*
X165562D02*
X164926Y172945D01*
X164108Y175242D02*
X162835Y172945D01*
Y175242D02*
X164108Y172945D01*
X162017Y175242D02*
Y172945D01*
Y175242D02*
X161380D01*
X161108Y175132*
X160926Y174914*
X160835Y174695*
X160744Y174367*
Y173820*
X160835Y173492*
X160926Y173273*
X161108Y173054*
X161380Y172945*
X162017*
X159380Y175242D02*
X159653Y175132D01*
X159835Y174804*
X159926Y174257*
Y173929*
X159835Y173382*
X159653Y173054*
X159380Y172945*
X159199*
X158926Y173054*
X158744Y173382*
X158653Y173929*
Y174257*
X158744Y174804*
X158926Y175132*
X159199Y175242*
X159380*
X166204Y185242D02*
Y182945D01*
X164841Y185242D02*
X165023Y185132D01*
X165204Y184914*
X165295Y184695*
X165386Y184367*
Y183820*
X165295Y183492*
X165204Y183273*
X165023Y183054*
X164841Y182945*
X164477*
X164295Y183054*
X164113Y183273*
X164023Y183492*
X163932Y183820*
Y184367*
X164023Y184695*
X164113Y184914*
X164295Y185132*
X164477Y185242*
X164841*
X163023Y184695D02*
Y184804D01*
X162932Y185023*
X162841Y185132*
X162659Y185242*
X162295*
X162113Y185132*
X162023Y185023*
X161932Y184804*
Y184585*
X162023Y184367*
X162204Y184039*
X163113Y182945*
X161841*
X160932Y184695D02*
Y184804D01*
X160841Y185023*
X160750Y185132*
X160568Y185242*
X160204*
X160023Y185132*
X159932Y185023*
X159841Y184804*
Y184585*
X159932Y184367*
X160113Y184039*
X161023Y182945*
X159750*
X166189Y170242D02*
Y167945D01*
X164825Y170242D02*
X165007Y170132D01*
X165189Y169914*
X165280Y169695*
X165371Y169367*
Y168820*
X165280Y168492*
X165189Y168273*
X165007Y168054*
X164825Y167945*
X164462*
X164280Y168054*
X164098Y168273*
X164007Y168492*
X163916Y168820*
Y169367*
X164007Y169695*
X164098Y169914*
X164280Y170132*
X164462Y170242*
X164825*
X163007Y169695D02*
Y169804D01*
X162916Y170023*
X162825Y170132*
X162644Y170242*
X162280*
X162098Y170132*
X162007Y170023*
X161916Y169804*
Y169585*
X162007Y169367*
X162189Y169039*
X163098Y167945*
X161825*
X161007Y169804D02*
X160825Y169914D01*
X160553Y170242*
Y167945*
X166200Y165292D02*
Y162995D01*
Y165292D02*
X164928Y162995D01*
Y165292D02*
Y162995D01*
X162746Y164745D02*
X162837Y164964D01*
X163019Y165182*
X163200Y165292*
X163564*
X163746Y165182*
X163928Y164964*
X164019Y164745*
X164110Y164417*
Y163870*
X164019Y163542*
X163928Y163323*
X163746Y163104*
X163564Y162995*
X163200*
X163019Y163104*
X162837Y163323*
X162746Y163542*
X166222Y160242D02*
Y157945D01*
X164859Y160242D02*
X165040Y160132D01*
X165222Y159914*
X165313Y159695*
X165404Y159367*
Y158820*
X165313Y158492*
X165222Y158273*
X165040Y158054*
X164859Y157945*
X164495*
X164313Y158054*
X164131Y158273*
X164040Y158492*
X163950Y158820*
Y159367*
X164040Y159695*
X164131Y159914*
X164313Y160132*
X164495Y160242*
X164859*
X163131Y159804D02*
X162950Y159914D01*
X162677Y160242*
Y157945*
X160677Y159476D02*
X160768Y159148D01*
X160950Y158929*
X161222Y158820*
X161313*
X161586Y158929*
X161768Y159148*
X161859Y159476*
Y159585*
X161768Y159914*
X161586Y160132*
X161313Y160242*
X161222*
X160950Y160132*
X160768Y159914*
X160677Y159476*
Y158929*
X160768Y158382*
X160950Y158054*
X161222Y157945*
X161404*
X161677Y158054*
X161768Y158273*
X164819Y194755D02*
X164910Y194974D01*
X165092Y195192*
X165274Y195302*
X165637*
X165819Y195192*
X166001Y194974*
X166092Y194755*
X166183Y194427*
Y193880*
X166092Y193552*
X166001Y193333*
X165819Y193114*
X165637Y193005*
X165274*
X165092Y193114*
X164910Y193333*
X164819Y193552*
Y193880*
X165274D02*
X164819D01*
X164001Y195302D02*
Y193005D01*
Y195302D02*
X162728Y193005D01*
Y195302D02*
Y193005D01*
X161910Y195302D02*
Y193005D01*
Y195302D02*
X161274D01*
X161001Y195192*
X160819Y194974*
X160728Y194755*
X160637Y194427*
Y193880*
X160728Y193552*
X160819Y193333*
X161001Y193114*
X161274Y193005*
X161910*
X122060Y175031D02*
X122242Y175250D01*
X122514Y175359*
X122878*
X123151Y175250*
X123333Y175031*
Y174812*
X123242Y174593*
X123151Y174484*
X122969Y174375*
X122424Y174156*
X122242Y174046*
X122151Y173937*
X122060Y173718*
Y173390*
X122242Y173171*
X122514Y173062*
X122878*
X123151Y173171*
X123333Y173390*
X121242Y175359D02*
Y173062D01*
Y175359D02*
X120060D01*
X121242Y174265D02*
X120514D01*
X121242Y173062D02*
X120060D01*
X119242Y175359D02*
Y173062D01*
Y175359D02*
X117969Y173062D01*
Y175359D02*
Y173062D01*
X115878Y175031D02*
X116060Y175250D01*
X116333Y175359*
X116696*
X116969Y175250*
X117151Y175031*
Y174812*
X117060Y174593*
X116969Y174484*
X116787Y174375*
X116242Y174156*
X116060Y174046*
X115969Y173937*
X115878Y173718*
Y173390*
X116060Y173171*
X116333Y173062*
X116696*
X116969Y173171*
X117151Y173390*
X114514Y175359D02*
X114696Y175250D01*
X114878Y175031*
X114969Y174812*
X115060Y174484*
Y173937*
X114969Y173609*
X114878Y173390*
X114696Y173171*
X114514Y173062*
X114151*
X113969Y173171*
X113787Y173390*
X113696Y173609*
X113605Y173937*
Y174484*
X113696Y174812*
X113787Y175031*
X113969Y175250*
X114151Y175359*
X114514*
X112787D02*
Y173062D01*
Y175359D02*
X111969D01*
X111696Y175250*
X111605Y175140*
X111514Y174921*
Y174703*
X111605Y174484*
X111696Y174375*
X111969Y174265*
X112787*
X112151D02*
X111514Y173062D01*
X110696Y172625D02*
X108787D01*
X108242Y175359D02*
X107514Y173062D01*
X106787Y175359D02*
X107514Y173062D01*
X105969Y175359D02*
Y173062D01*
Y175359D02*
X104696Y173062D01*
Y175359D02*
Y173062D01*
X166204Y190242D02*
Y187945D01*
X164841Y190242D02*
X165023Y190132D01*
X165204Y189914*
X165295Y189695*
X165386Y189367*
Y188820*
X165295Y188492*
X165204Y188273*
X165023Y188054*
X164841Y187945*
X164477*
X164295Y188054*
X164113Y188273*
X164023Y188492*
X163932Y188820*
Y189367*
X164023Y189695*
X164113Y189914*
X164295Y190132*
X164477Y190242*
X164841*
X163023Y189695D02*
Y189804D01*
X162932Y190023*
X162841Y190132*
X162659Y190242*
X162295*
X162113Y190132*
X162023Y190023*
X161932Y189804*
Y189585*
X162023Y189367*
X162204Y189039*
X163113Y187945*
X161841*
X160841Y190242D02*
X159841D01*
X160386Y189367*
X160113*
X159932Y189257*
X159841Y189148*
X159750Y188820*
Y188601*
X159841Y188273*
X160023Y188054*
X160295Y187945*
X160568*
X160841Y188054*
X160932Y188164*
X161023Y188382*
X108859Y124952D02*
X108950Y125171D01*
X109132Y125390*
X109313Y125499*
X109677*
X109859Y125390*
X110041Y125171*
X110132Y124952*
X110222Y124624*
Y124077*
X110132Y123749*
X110041Y123530*
X109859Y123311*
X109677Y123202*
X109313*
X109132Y123311*
X108950Y123530*
X108859Y123749*
Y124077*
X109313D02*
X108859D01*
X108041Y125499D02*
Y123202D01*
Y125499D02*
X106768Y123202D01*
Y125499D02*
Y123202D01*
X105950Y125499D02*
Y123202D01*
Y125499D02*
X105313D01*
X105041Y125390*
X104859Y125171*
X104768Y124952*
X104677Y124624*
Y124077*
X104768Y123749*
X104859Y123530*
X105041Y123311*
X105313Y123202*
X105950*
X153729Y195709D02*
Y193412D01*
Y195709D02*
X152547D01*
X153729Y194615D02*
X153002D01*
X153729Y193412D02*
X152547D01*
X150456Y195381D02*
X150638Y195600D01*
X150638D02*
X150911Y195709D01*
X151274*
X151547Y195600*
X151547D02*
X151729Y195381D01*
Y195162*
X151638Y194943*
X151547Y194834*
X151365Y194725*
X151365D02*
X150820Y194506D01*
X150638Y194396*
X150547Y194287*
X150456Y194068*
Y193740*
X150638Y193521*
X150911Y193412*
X151274*
X151547Y193521*
X151729Y193740*
X149638Y195709D02*
Y193412D01*
Y195709D02*
X148820D01*
X148547Y195600*
X148547D02*
X148456Y195490D01*
X148365Y195271*
Y194943*
X148456Y194725*
X148456D02*
X148547Y194615D01*
X148820Y194506*
X149638*
X147365Y195709D02*
X146365D01*
X146911Y194834*
X146638*
X146456Y194725*
X146456D02*
X146365Y194615D01*
X146274Y194287*
Y194068*
X146365Y193740*
X146547Y193521*
X146820Y193412*
X147093*
X147365Y193521*
X147456Y193631*
X147547Y193850*
X145365Y195162D02*
Y195271D01*
X145274Y195490*
X145184Y195600*
X145184D02*
X145002Y195709D01*
X144638*
X144456Y195600*
X144456D02*
X144365Y195490D01*
X144274Y195271*
Y195053*
X144365Y194834*
X144547Y194506*
X145456Y193412*
X144184*
X143365Y194396D02*
X141729D01*
X140911Y195709D02*
X140456Y193412D01*
X140002Y195709D02*
X140456Y193412D01*
X140002Y195709D02*
X139547Y193412D01*
X139093Y195709D02*
X139547Y193412D01*
X138274Y195709D02*
Y193412D01*
Y195709D02*
X137456D01*
X137184Y195600*
X137184D02*
X137093Y195490D01*
X137002Y195271*
Y195053*
X137093Y194834*
X137184Y194725*
X137184D02*
X137456Y194615D01*
X138274*
X137638D02*
X137002Y193412D01*
X135638Y195709D02*
X135820Y195600D01*
X135820D02*
X136002Y195381D01*
X136093Y195162*
X136184Y194834*
Y194287*
X136093Y193959*
X136002Y193740*
X135820Y193521*
X135638Y193412*
X135274*
X135093Y193521*
X134911Y193740*
X134820Y193959*
X134729Y194287*
Y194834*
X134820Y195162*
X134911Y195381*
X135093Y195600*
X135093D02*
X135274Y195709D01*
X135638*
X133911D02*
X133184Y193412D01*
X132456Y195709D02*
X133184Y193412D01*
X131638Y195709D02*
Y193412D01*
Y195709D02*
X130456D01*
X131638Y194615D02*
X130911D01*
X131638Y193412D02*
X130456D01*
X129638Y195709D02*
Y193412D01*
Y195709D02*
X128820D01*
X128547Y195600*
X128547D02*
X128456Y195490D01*
X128365Y195271*
Y195053*
X128456Y194834*
X128547Y194725*
X128547D02*
X128820Y194615D01*
X129638*
X129002D02*
X128365Y193412D01*
X127547Y194396D02*
X125911D01*
X125093Y195709D02*
Y193412D01*
Y195709D02*
X123911D01*
X125093Y194615D02*
X124365D01*
X125093Y193412D02*
X123911D01*
X121002Y195709D02*
X120274Y193412D01*
X119547Y195709D02*
X120274Y193412D01*
X118729Y195271D02*
X118547Y195381D01*
X118274Y195709*
Y193412*
X117365Y193631D02*
X117456Y193521D01*
X117365Y193412*
X117274Y193521*
X117365Y193631*
X116365Y195162D02*
Y195271D01*
X116274Y195490*
X116184Y195600*
X116184D02*
X116002Y195709D01*
X115638*
X115456Y195600*
X115456D02*
X115365Y195490D01*
X115274Y195271*
Y195053*
X115365Y194834*
X115547Y194506*
X116456Y193412*
X115184*
X116576Y202599D02*
X105236D01*
Y200229*
X116576*
Y202599*
X105236Y202478D02*
X116576D01*
X105236Y202028D02*
X116576D01*
X105236Y201578D02*
X116576D01*
X105236Y201128D02*
X116576D01*
X105236Y200678D02*
X116576D01*
X107256Y217209D02*
X108336Y208979D01*
X114216Y217329D02*
X107066D01*
X110086Y207589D02*
X113666D01*
X114556Y217489*
X165737Y208113D02*
Y200239D01*
X149989*
Y208113*
X165737*
G54D38*
X132580Y217966D02*
X129219Y211974D01*
X129741Y211474*
X130754Y211171*
X134242Y210823*
X135837Y210448*
X136216Y209565*
X137088Y210188*
X132580Y217966*
X123845Y202656D02*
X127113Y208457D01*
X127655Y207541*
X127946Y206921*
X128263Y206629*
X129343Y205884*
X123845Y202656*
X138384Y207922D02*
X137790Y207658D01*
X138887Y205707*
X138272Y202377*
X136901Y200980*
X136236Y200931*
X135806Y201473*
X135857Y202998*
X136285Y203626*
X136441Y205912*
X135890Y206716*
X133745Y205435*
X134677Y204412*
X135278Y203642*
X135619Y203170*
X135635Y201834*
X135535Y201453*
X135147Y200986*
X134305Y201005*
X131614Y204152*
X124808Y200263*
X143023Y200181*
X138384Y207922*
X135907Y210284D02*
X137032D01*
X135004Y210644D02*
X136823D01*
X136062Y209924D02*
X136718D01*
X132434Y211004D02*
X136615D01*
X130110Y211364D02*
X136406D01*
X129480Y211724D02*
X136197D01*
X129280Y212084D02*
X135989D01*
X129482Y212444D02*
X135780D01*
X129684Y212804D02*
X135572D01*
X129886Y213164D02*
X135363D01*
X130088Y213524D02*
X135154D01*
X130290Y213884D02*
X134946D01*
X130492Y214244D02*
X134737D01*
X130694Y214604D02*
X134529D01*
X130896Y214964D02*
X134320D01*
X131098Y215324D02*
X134111D01*
X131300Y215684D02*
X133903D01*
X131502Y216044D02*
X133694D01*
X131704Y216404D02*
X133485D01*
X131906Y216764D02*
X133277D01*
X132108Y217124D02*
X133068D01*
X132310Y217484D02*
X132860D01*
X132512Y217844D02*
X132651D01*
X125670Y205895D02*
X129328D01*
X125872Y206255D02*
X128806D01*
X125467Y205535D02*
X128748D01*
X126075Y206615D02*
X128284D01*
X125264Y205175D02*
X128135D01*
X126278Y206975D02*
X127921D01*
X126481Y207335D02*
X127752D01*
X126684Y207695D02*
X127564D01*
X125061Y204815D02*
X127522D01*
X126886Y208055D02*
X127351D01*
X127089Y208415D02*
X127138D01*
X124858Y204455D02*
X126909D01*
X124656Y204095D02*
X126296D01*
X124453Y203735D02*
X125682D01*
X124250Y203375D02*
X125069D01*
X124047Y203015D02*
X124456D01*
X125293Y200540D02*
X142808D01*
X125923Y200900D02*
X142592D01*
X137176Y201260D02*
X142376D01*
X137529Y201620D02*
X142161D01*
X137883Y201980D02*
X141945D01*
X138236Y202340D02*
X141729D01*
X138332Y202700D02*
X141513D01*
X138398Y203060D02*
X141298D01*
X138465Y203420D02*
X141082D01*
X138531Y203780D02*
X140866D01*
X138598Y204140D02*
X140650D01*
X138664Y204500D02*
X140435D01*
X138731Y204860D02*
X140219D01*
X138797Y205220D02*
X140003D01*
X138863Y205580D02*
X139787D01*
X138756Y205940D02*
X139572D01*
X138554Y206300D02*
X139356D01*
X138351Y206660D02*
X139140D01*
X138149Y207020D02*
X138925D01*
X137946Y207380D02*
X138709D01*
X137975Y207740D02*
X138493D01*
X134591Y205940D02*
X136422D01*
X133988Y205580D02*
X136419D01*
X133940Y205220D02*
X136394D01*
X134268Y204860D02*
X136369D01*
X134596Y204500D02*
X136344D01*
X134889Y204140D02*
X136320D01*
X135170Y203780D02*
X136295D01*
X135194Y206300D02*
X136175D01*
X135439Y203420D02*
X136144D01*
X135375Y201260D02*
X135975D01*
X135797Y206660D02*
X135928D01*
X135621Y203060D02*
X135899D01*
X135625Y202700D02*
X135847D01*
X135629Y202340D02*
X135835D01*
X135633Y201980D02*
X135823D01*
X135579Y201620D02*
X135811D01*
X126553Y201260D02*
X134087D01*
X127183Y201620D02*
X133779D01*
X127813Y201980D02*
X133471D01*
X128443Y202340D02*
X133164D01*
X129073Y202700D02*
X132856D01*
X129703Y203060D02*
X132548D01*
X130333Y203420D02*
X132240D01*
X130964Y203780D02*
X131932D01*
X131594Y204140D02*
X131624D01*
X114586Y217489D02*
X113916Y217899D01*
X113416Y218149*
X112866Y218299*
X112276Y218439*
X111506Y218549*
X110926Y218599*
X110166Y218579*
X109436Y218529*
X108696Y218409*
X108076Y218269*
X107426Y218059*
X106856Y217789*
X106736Y217709*
X138000Y202629D02*
X137804Y202692D01*
X137373Y202707*
X136903Y202251*
X136769Y201787*
X136789Y201498*
X136874Y201297*
X133517Y202334D02*
X133721Y202779D01*
X134089Y203018*
X134476Y202942*
X135018Y202280*
X135181Y201868*
X135219Y201547*
X135138Y201207*
G54D95*
X160891Y214859D02*
X159788D01*
Y217709D02*
G03Y214859I-0J-1425D01*
G01Y217709D02*
X160891D01*
Y214859*
X156856Y217709D02*
Y215419D01*
Y215444D02*
G03X155152Y215426I-827J-2350D01*
Y212659I805J-1383*
G01X156856*
Y215444*
X160891Y212659D02*
Y214859D01*
G54D96*
X161635Y218415D02*
X153737Y210586D01*
G54D97*
X111726Y218639D02*
X111696Y218939D01*
X111556Y219059*
X110746Y219099*
X110166*
X109896Y218979*
X109786Y218879*
Y218579*
X106376Y218159D02*
X106486Y218369D01*
X106626Y218449*
X106836Y218439*
X106936Y218349*
X107016Y218259*
X107026Y218149*
Y217939*
X107256Y215929D02*
X106596D01*
G03Y215219I155J-355*
G01X107326*
X113346Y207359D02*
Y206679D01*
X112576*
Y207389*
G54D98*
X109036Y207759D02*
G03X109036I-260J0D01*
G54D99*
G01X111336Y214519D02*
G03X111386Y214979I-7J234D01*
G01X111336Y214519D02*
X109750D01*
X109810Y215029D02*
G03X109750Y214519I-45J-253D01*
G01X109810Y215029D02*
X111376D01*
G74*
X0Y0D02*
M02*
