*
*
G04 PADS VX.2 Build Number: 5060570 generated Gerber (RS-274-X) file*
G04 PC Version=2.1*
*
%IN "PCB_#30823_ESP32-WROVER"*%
*
%MOIN*%
*
%FSLAX35Y35*%
*
*
*
*
G04 PC Standard Apertures*
*
*
G04 Thermal Relief Aperture macro.*
%AMTER*
1,1,$1,0,0*
1,0,$1-$2,0,0*
21,0,$3,$4,0,0,45*
21,0,$3,$4,0,0,135*
%
*
*
G04 Annular Aperture macro.*
%AMANN*
1,1,$1,0,0*
1,0,$2,0,0*
%
*
*
G04 Odd Aperture macro.*
%AMODD*
1,1,$1,0,0*
1,0,$1-0.005,0,0*
%
*
*
G04 PC Custom Aperture Macros*
*
*
*
*
*
*
G04 PC Aperture Table*
*
%ADD010C,0.001*%
%ADD030C,0.01*%
%ADD036C,0.006*%
%ADD130R,0.06893X0.03743*%
*
*
*
*
G04 PC Circuitry*
G04 Layer Name PCB_#30823_ESP32-WROVER - circuitry*
%LPD*%
*
*
G04 PC Custom Flashes*
G04 Layer Name PCB_#30823_ESP32-WROVER - flashes*
%LPD*%
*
*
G04 PC Circuitry*
G04 Layer Name PCB_#30823_ESP32-WROVER - circuitry*
%LPD*%
*
G54D10*
G01X171220Y99912D02*
X171223D01*
X170866Y223622D02*
X170869D01*
G54D30*
X100000D02*
X170866D01*
Y100000*
X100000*
Y223622*
G54D36*
X136491Y170586D02*
Y167643D01*
X133548*
Y170586*
X136491*
Y165074D02*
Y162131D01*
X133548*
Y165074*
X136491*
Y159562D02*
Y156619D01*
X133548*
Y159562*
X136491*
X130999Y159582D02*
Y156639D01*
X128056*
Y159582*
X130999*
Y165094D02*
Y162150D01*
X128056*
Y165094*
X130999*
Y170606D02*
Y167662D01*
X128056*
Y170606*
X130999*
X125488Y170586D02*
Y167643D01*
X122544*
Y170586*
X125488*
Y165074D02*
Y162131D01*
X122544*
Y165074*
X125488*
Y159562D02*
Y156619D01*
X122544*
Y159562*
X125488*
X133548Y170341D02*
X136491D01*
X133548Y169801D02*
X136491D01*
X133548Y169261D02*
X136491D01*
X133548Y168721D02*
X136491D01*
X133548Y168181D02*
X136491D01*
X133548Y164829D02*
X136491D01*
X133548Y164289D02*
X136491D01*
X133548Y163749D02*
X136491D01*
X133548Y163209D02*
X136491D01*
X133548Y162669D02*
X136491D01*
X133548Y159318D02*
X136491D01*
X133548Y158778D02*
X136491D01*
X133548Y158238D02*
X136491D01*
X133548Y157698D02*
X136491D01*
X133548Y157158D02*
X136491D01*
X128056Y159337D02*
X130999D01*
X128056Y158797D02*
X130999D01*
X128056Y158257D02*
X130999D01*
X128056Y157717D02*
X130999D01*
X128056Y157177D02*
X130999D01*
X128056Y164849D02*
X130999D01*
X128056Y164309D02*
X130999D01*
X128056Y163769D02*
X130999D01*
X128056Y163229D02*
X130999D01*
X128056Y162689D02*
X130999D01*
X128056Y170361D02*
X130999D01*
X128056Y169821D02*
X130999D01*
X128056Y169281D02*
X130999D01*
X128056Y168741D02*
X130999D01*
X128056Y168201D02*
X130999D01*
X122544Y170341D02*
X125488D01*
X122544Y169801D02*
X125488D01*
X122544Y169261D02*
X125488D01*
X122544Y168721D02*
X125488D01*
X122544Y168181D02*
X125488D01*
X122544Y164829D02*
X125488D01*
X122544Y164289D02*
X125488D01*
X122544Y163749D02*
X125488D01*
X122544Y163209D02*
X125488D01*
X122544Y162669D02*
X125488D01*
X122544Y159318D02*
X125488D01*
X122544Y158778D02*
X125488D01*
X122544Y158238D02*
X125488D01*
X122544Y157698D02*
X125488D01*
X122544Y157158D02*
X125488D01*
G54D130*
X100000Y194312D03*
Y114312D03*
Y174312D03*
X170866Y169312D03*
X100000Y109312D03*
X170866Y164312D03*
X100000Y104312D03*
Y164312D03*
X170866Y159312D03*
X170880Y104312D03*
X170866Y189312D03*
X100000Y159312D03*
X170866Y154312D03*
X170880Y109312D03*
X100000Y154312D03*
X170866Y139312D03*
X170880Y114312D03*
X100000Y149312D03*
X170866D03*
Y194312D03*
X100000Y144312D03*
X170866D03*
X100000Y139312D03*
X170866Y134312D03*
X100000D03*
X170880Y129312D03*
X100000D03*
X170880Y124312D03*
X100000Y119312D03*
X170880D03*
X170866Y184312D03*
X100000Y124312D03*
Y184312D03*
X170866Y179312D03*
X100000D03*
X170866Y174312D03*
X100000Y169312D03*
Y189312D03*
X0Y0D02*
M02*
