*
*
G04 PADS VX.2 Build Number: 5060570 generated Gerber (RS-274-X) file*
G04 PC Version=2.1*
*
%IN "PCB_#30823_ESP32-WROVER"*%
*
%MOIN*%
*
%FSLAX35Y35*%
*
*
*
*
G04 PC Standard Apertures*
*
*
G04 Thermal Relief Aperture macro.*
%AMTER*
1,1,$1,0,0*
1,0,$1-$2,0,0*
21,0,$3,$4,0,0,45*
21,0,$3,$4,0,0,135*
%
*
*
G04 Annular Aperture macro.*
%AMANN*
1,1,$1,0,0*
1,0,$2,0,0*
%
*
*
G04 Odd Aperture macro.*
%AMODD*
1,1,$1,0,0*
1,0,$1-0.005,0,0*
%
*
*
G04 PC Custom Aperture Macros*
*
*
*
*
*
*
G04 PC Aperture Table*
*
%ADD010C,0.001*%
%ADD011R,0.02X0.02*%
%ADD027C,0.00394*%
%ADD028C,0.015*%
%ADD029C,0.008*%
%ADD030C,0.01*%
%ADD031C,0.012*%
%ADD032C,0.014*%
%ADD034C,0.03*%
%ADD036C,0.006*%
%ADD037C,0.005*%
%ADD095C,0.007*%
%ADD096C,0.009*%
%ADD100R,0.01181X0.01575*%
%ADD101R,0.03543X0.03543*%
%ADD102C,0.01575*%
%ADD103R,0.01575X0.01181*%
%ADD106R,0.00787X0.0315*%
%ADD107R,0.0315X0.00787*%
%ADD108R,0.01969X0.02362*%
%ADD109R,0.03937X0.04331*%
%ADD110R,0.02756X0.01575*%
%ADD111C,0.013*%
%ADD117C,0.02362*%
%ADD132R,0.024X0.10225*%
%ADD133O,0.024X0.10225*%
%ADD134R,0.02362X0.06102*%
%ADD135R,0.0374X0.0374*%
%ADD136R,0.08661X0.0374*%
%ADD137C,0.034*%
%ADD138C,0.01575*%
%ADD149C,0.0078*%
%ADD150C,0.0052*%
%ADD152C,0.0053*%
*
*
*
*
G04 PC Circuitry*
G04 Layer Name PCB_#30823_ESP32-WROVER - circuitry*
%LPD*%
*
*
G04 PC Custom Flashes*
G04 Layer Name PCB_#30823_ESP32-WROVER - flashes*
%LPD*%
*
*
G04 PC Circuitry*
G04 Layer Name PCB_#30823_ESP32-WROVER - circuitry*
%LPD*%
*
G54D10*
G54D11*
G01X118625Y188372D03*
Y192372D03*
G54D27*
X153506Y162456D02*
X154572Y163521D01*
Y166393*
X151028*
Y162456*
X153506*
X151028D02*
Y166393D01*
X151225Y162456D02*
Y166393D01*
X151422Y162456D02*
Y166393D01*
X151619Y162456D02*
Y166393D01*
X151816Y162456D02*
Y166393D01*
X152013Y162456D02*
Y166393D01*
X152209Y162456D02*
Y166393D01*
X152406Y162456D02*
Y166393D01*
X152603Y162456D02*
Y166393D01*
X152800Y162456D02*
Y166393D01*
X152997Y162456D02*
Y166393D01*
X153194Y162456D02*
Y166393D01*
X153391Y162456D02*
Y166393D01*
X153587Y162537D02*
Y166393D01*
X153784Y162734D02*
Y166393D01*
X153981Y162931D02*
Y166393D01*
X154178Y163128D02*
Y166393D01*
X154375Y163324D02*
Y166393D01*
G54D28*
X100000Y194312D02*
X100700Y193612D01*
X100711Y193623*
G54D29*
X120250Y149330D02*
Y150237D01*
X121929Y151916*
Y153780*
X134331Y173465D02*
Y175157D01*
Y176064*
X134493Y176226*
X133610Y176903D02*
Y176206D01*
X134331Y175485*
Y175157*
X141000Y174247D02*
X140932Y173987D01*
X141000Y174055*
X142748Y175803*
Y175912*
X142750Y175914*
X141000Y174055D02*
Y174247D01*
X145167Y171122D02*
X143546Y169501D01*
X143550Y169497*
X143300Y168722D02*
Y169247D01*
X143550Y169497*
X143625Y161747D02*
X144000Y161372D01*
X145167*
X131359Y180231D02*
Y179657D01*
X133610Y177406*
Y176903*
X139351Y167067D02*
X141645D01*
X143300Y168722*
X139351Y162933D02*
X141939D01*
X143125Y161747*
X143625*
X137087Y153780D02*
Y151916D01*
X138131Y150872*
X138375*
X137087Y173465D02*
X137087D01*
Y175727*
X138465Y173465D02*
Y172404D01*
X139349*
X140932Y173987*
G54D30*
X110210Y164311D02*
X112999D01*
X113000*
X145167Y161222D02*
Y161372D01*
X138125Y149455D02*
X138375Y149705D01*
Y150872*
X158500Y198622D02*
X166326D01*
X166325Y195010*
X158500*
Y198622*
Y198609D02*
X166326D01*
X158500Y197709D02*
X166326D01*
X158500Y196809D02*
X166325D01*
X158500Y195909D02*
X166325D01*
X151016Y200172D02*
X152985D01*
Y219463*
X159573*
Y200172*
X162040*
Y221432*
X142853*
Y210802*
X134936*
Y221432*
X123913*
Y210802*
X116039*
Y221432*
X105409*
Y205191*
X107377*
Y219463*
X114070*
Y208833*
X125881*
Y219463*
X132968*
Y208833*
X144822*
Y219463*
X151016*
Y200172*
X142853Y220871D02*
X162040D01*
X142853Y219971D02*
X162040D01*
X159573Y219071D02*
X162040D01*
X159573Y218171D02*
X162040D01*
X159573Y217271D02*
X162040D01*
X159573Y216371D02*
X162040D01*
X159573Y215471D02*
X162040D01*
X159573Y214571D02*
X162040D01*
X159573Y213671D02*
X162040D01*
X159573Y212771D02*
X162040D01*
X159573Y211871D02*
X162040D01*
X159573Y210971D02*
X162040D01*
X159573Y210071D02*
X162040D01*
X159573Y209171D02*
X162040D01*
X159573Y208271D02*
X162040D01*
X159573Y207371D02*
X162040D01*
X159573Y206471D02*
X162040D01*
X159573Y205571D02*
X162040D01*
X159573Y204671D02*
X162040D01*
X159573Y203771D02*
X162040D01*
X159573Y202871D02*
X162040D01*
X159573Y201971D02*
X162040D01*
X159573Y201071D02*
X162040D01*
X151016Y219071D02*
X152985D01*
X151016Y218171D02*
X152985D01*
X151016Y217271D02*
X152985D01*
X151016Y216371D02*
X152985D01*
X151016Y215471D02*
X152985D01*
X151016Y214571D02*
X152985D01*
X151016Y213671D02*
X152985D01*
X151016Y212771D02*
X152985D01*
X151016Y211871D02*
X152985D01*
X151016Y210971D02*
X152985D01*
X151016Y210071D02*
X152985D01*
X151016Y209171D02*
X152985D01*
X151016Y208271D02*
X152985D01*
X151016Y207371D02*
X152985D01*
X151016Y206471D02*
X152985D01*
X151016Y205571D02*
X152985D01*
X151016Y204671D02*
X152985D01*
X151016Y203771D02*
X152985D01*
X151016Y202871D02*
X152985D01*
X151016Y201971D02*
X152985D01*
X151016Y201071D02*
X152985D01*
X142853Y219071D02*
X144822D01*
X142853Y218171D02*
X144822D01*
X142853Y217271D02*
X144822D01*
X142853Y216371D02*
X144822D01*
X142853Y215471D02*
X144822D01*
X142853Y214571D02*
X144822D01*
X142853Y213671D02*
X144822D01*
X142853Y212771D02*
X144822D01*
X142853Y211871D02*
X144822D01*
X142853Y210971D02*
X144822D01*
X132968Y210071D02*
X144822D01*
X132968Y209171D02*
X144822D01*
X123913Y220871D02*
X134936D01*
X123913Y219971D02*
X134936D01*
X132968Y219071D02*
X134936D01*
X132968Y218171D02*
X134936D01*
X132968Y217271D02*
X134936D01*
X132968Y216371D02*
X134936D01*
X132968Y215471D02*
X134936D01*
X132968Y214571D02*
X134936D01*
X132968Y213671D02*
X134936D01*
X132968Y212771D02*
X134936D01*
X132968Y211871D02*
X134936D01*
X132968Y210971D02*
X134936D01*
X123913Y219071D02*
X125881D01*
X123913Y218171D02*
X125881D01*
X123913Y217271D02*
X125881D01*
X123913Y216371D02*
X125881D01*
X123913Y215471D02*
X125881D01*
X123913Y214571D02*
X125881D01*
X123913Y213671D02*
X125881D01*
X123913Y212771D02*
X125881D01*
X123913Y211871D02*
X125881D01*
X123913Y210971D02*
X125881D01*
X114070Y210071D02*
X125881D01*
X114070Y209171D02*
X125881D01*
X105409Y220871D02*
X116039D01*
X105409Y219971D02*
X116039D01*
X114070Y219071D02*
X116039D01*
X114070Y218171D02*
X116039D01*
X114070Y217271D02*
X116039D01*
X114070Y216371D02*
X116039D01*
X114070Y215471D02*
X116039D01*
X114070Y214571D02*
X116039D01*
X114070Y213671D02*
X116039D01*
X114070Y212771D02*
X116039D01*
X114070Y211871D02*
X116039D01*
X114070Y210971D02*
X116039D01*
X105409Y219071D02*
X107377D01*
X105409Y218171D02*
X107377D01*
X105409Y217271D02*
X107377D01*
X105409Y216371D02*
X107377D01*
X105409Y215471D02*
X107377D01*
X105409Y214571D02*
X107377D01*
X105409Y213671D02*
X107377D01*
X105409Y212771D02*
X107377D01*
X105409Y211871D02*
X107377D01*
X105409Y210971D02*
X107377D01*
X105409Y210071D02*
X107377D01*
X105409Y209171D02*
X107377D01*
X105409Y208271D02*
X107377D01*
X105409Y207371D02*
X107377D01*
X105409Y206471D02*
X107377D01*
X105409Y205571D02*
X107377D01*
X100000Y223622D02*
X170866D01*
Y100000*
X100000*
Y223622*
G54D31*
X117125Y141497D02*
Y141747D01*
X118083Y142705*
Y143522*
X117125Y141497D02*
Y141372D01*
X117000Y141497*
X117125*
Y136252D02*
Y141372D01*
X118083Y143522D02*
Y149122D01*
X140100Y140522D02*
X142234D01*
X142500Y140256*
Y136516*
X113000Y164311D02*
X114299D01*
X114985Y164997*
X115625*
X118083Y149122D02*
X118085Y149125D01*
X120310*
X137087Y182270D02*
Y182539D01*
G54D32*
X152000Y195412D02*
X152000D01*
Y200122*
Y191792D02*
X155269D01*
X155799Y190762*
G54D34*
X100000Y189312D02*
X102016D01*
G54D36*
X136491Y167643D02*
Y170606D01*
X133528*
Y167643*
X136491*
X133708D02*
Y170606D01*
X134008Y167643D02*
Y170606D01*
X134308Y167643D02*
Y170606D01*
X134608Y167643D02*
Y170606D01*
X134908Y167643D02*
Y170606D01*
X135208Y167643D02*
Y170606D01*
X135508Y167643D02*
Y170606D01*
X135808Y167643D02*
Y170606D01*
X136108Y167643D02*
Y170606D01*
X136408Y167643D02*
Y170606D01*
X136491Y162131D02*
Y165074D01*
X133528*
Y162131*
X136491*
X133708D02*
Y165074D01*
X134008Y162131D02*
Y165074D01*
X134308Y162131D02*
Y165074D01*
X134608Y162131D02*
Y165074D01*
X134908Y162131D02*
Y165074D01*
X135208Y162131D02*
Y165074D01*
X135508Y162131D02*
Y165074D01*
X135808Y162131D02*
Y165074D01*
X136108Y162131D02*
Y165074D01*
X136408Y162131D02*
Y165074D01*
X136491Y156639D02*
Y159562D01*
X133528*
Y156639*
X136491*
X133708D02*
Y159562D01*
X134008Y156639D02*
Y159562D01*
X134308Y156639D02*
Y159562D01*
X134608Y156639D02*
Y159562D01*
X134908Y156639D02*
Y159562D01*
X135208Y156639D02*
Y159562D01*
X135508Y156639D02*
Y159562D01*
X135808Y156639D02*
Y159562D01*
X136108Y156639D02*
Y159562D01*
X136408Y156639D02*
Y159562D01*
X130980Y156639D02*
Y159582D01*
X128036*
Y156639*
X130980*
X128308D02*
Y159582D01*
X128608Y156639D02*
Y159582D01*
X128908Y156639D02*
Y159582D01*
X129208Y156639D02*
Y159582D01*
X129508Y156639D02*
Y159582D01*
X129808Y156639D02*
Y159582D01*
X130108Y156639D02*
Y159582D01*
X130408Y156639D02*
Y159582D01*
X130708Y156639D02*
Y159582D01*
X125468Y156639D02*
Y159562D01*
X122525*
Y156639*
X125468*
X122608D02*
Y159562D01*
X122908Y156639D02*
Y159562D01*
X123208Y156639D02*
Y159562D01*
X123508Y156639D02*
Y159562D01*
X123808Y156639D02*
Y159562D01*
X124108Y156639D02*
Y159562D01*
X124408Y156639D02*
Y159562D01*
X124708Y156639D02*
Y159562D01*
X125008Y156639D02*
Y159562D01*
X125308Y156639D02*
Y159562D01*
X125468Y162131D02*
Y165074D01*
X122525*
Y162131*
X125468*
X122608D02*
Y165074D01*
X122908Y162131D02*
Y165074D01*
X123208Y162131D02*
Y165074D01*
X123508Y162131D02*
Y165074D01*
X123808Y162131D02*
Y165074D01*
X124108Y162131D02*
Y165074D01*
X124408Y162131D02*
Y165074D01*
X124708Y162131D02*
Y165074D01*
X125008Y162131D02*
Y165074D01*
X125308Y162131D02*
Y165074D01*
X125468Y167643D02*
Y170586D01*
X122525*
Y167643*
X125468*
X122608D02*
Y170586D01*
X122908Y167643D02*
Y170586D01*
X123208Y167643D02*
Y170586D01*
X123508Y167643D02*
Y170586D01*
X123808Y167643D02*
Y170586D01*
X124108Y167643D02*
Y170586D01*
X124408Y167643D02*
Y170586D01*
X124708Y167643D02*
Y170586D01*
X125008Y167643D02*
Y170586D01*
X125308Y167643D02*
Y170586D01*
X130980Y167662D02*
Y170606D01*
X128036*
Y167662*
X130980*
X128308D02*
Y170606D01*
X128608Y167662D02*
Y170606D01*
X128908Y167662D02*
Y170606D01*
X129208Y167662D02*
Y170606D01*
X129508Y167662D02*
Y170606D01*
X129808Y167662D02*
Y170606D01*
X130108Y167662D02*
Y170606D01*
X130408Y167662D02*
Y170606D01*
X130708Y167662D02*
Y170606D01*
G54D37*
X129501Y181111D02*
X130261Y181871D01*
X129780Y182352*
X129020Y181592*
X129501Y181111*
X129112Y181500D02*
X129891D01*
X129427Y182000D02*
X130132D01*
X129500Y181112D02*
Y182073D01*
X130000Y181609D02*
Y182132D01*
X127970Y182642D02*
X128730Y183402D01*
X128249Y183883*
X127489Y183123*
X127970Y182642*
X127612Y183000D02*
X128328D01*
X127865Y183500D02*
X128632D01*
X127500Y183112D02*
Y183135D01*
X128000Y182672D02*
Y183635D01*
X128500Y183172D02*
Y183632D01*
X152000Y191032D02*
X152760Y191792D01*
X152000Y192552*
X151240Y191792*
X152000Y191032*
X151532Y191500D02*
X152467D01*
X151447Y192000D02*
X152552D01*
X151947Y192500D02*
X152052D01*
X151500Y191532D02*
Y192053D01*
X152000Y191033D02*
Y192552D01*
X152500Y191533D02*
Y192052D01*
X150190Y192842D02*
X150950Y193602D01*
X150190Y194362*
X149430Y193602*
X150190Y192842*
X150032Y193000D02*
X150348D01*
X149532Y193500D02*
X150848D01*
X149828Y194000D02*
X150552D01*
X149500Y193532D02*
Y193672D01*
X150000Y193032D02*
Y194172D01*
X150500Y193152D02*
Y194052D01*
X149430Y193602D02*
X150190Y192842D01*
X150950Y193602*
X150190Y194362*
X149430Y193602*
X150033Y193000D02*
X150348D01*
X149533Y193500D02*
X150848D01*
X149828Y194000D02*
X150553D01*
X149500Y193533D02*
Y193672D01*
X150000Y193033D02*
Y194172D01*
X150500Y193152D02*
Y194053D01*
X151240Y195412D02*
X152000Y194652D01*
X152760Y195412*
X152000Y196172*
X151240Y195412*
X151652Y195000D02*
X152348D01*
X151328Y195500D02*
X152672D01*
X151828Y196000D02*
X152172D01*
X151500Y195152D02*
Y195672D01*
X152000Y194652D02*
Y196172D01*
X152500Y195152D02*
Y195672D01*
X126239Y185246D02*
X126999Y184486D01*
X127480Y184967*
X126720Y185727*
X126239Y185246*
X126984Y184500D02*
X127013D01*
X126484Y185000D02*
X127448D01*
X126493Y185500D02*
X126948D01*
X126500Y184984D02*
Y185507D01*
X127000Y184487D02*
Y185448D01*
X127770Y186777D02*
X128530Y186017D01*
X129011Y186498*
X128251Y187258*
X127770Y186777*
X128047Y186500D02*
X129010D01*
X127993Y187000D02*
X128510D01*
X128000Y186547D02*
Y187007D01*
X128500Y186047D02*
Y187010D01*
X129000Y186487D02*
Y186510D01*
X130739Y180371D02*
X131499Y179611D01*
X131980Y180092*
X131220Y180852*
X130739Y180371*
X131109Y180000D02*
X131888D01*
X130868Y180500D02*
X131573D01*
X131000Y180109D02*
Y180632D01*
X131500Y179612D02*
Y180573D01*
X132270Y181902D02*
X133030Y181142D01*
X133511Y181623*
X132751Y182383*
X132270Y181902*
X132672Y181500D02*
X133388D01*
X132368Y182000D02*
X133135D01*
X132500Y181672D02*
Y182132D01*
X133000Y181172D02*
Y182135D01*
X133500Y181612D02*
Y181635D01*
X120125Y117747D02*
X121270D01*
X122125Y116892*
Y114992*
X114625Y117997D02*
X114875Y117747D01*
X116375*
X117125Y116997*
Y114992*
X122125Y136252D02*
Y129965D01*
X125118Y126973*
X125250Y126872*
X127125Y114992D02*
Y121622D01*
X127250Y121747*
X126187Y143002D02*
Y142015D01*
X127125Y141077*
Y136252*
X126050Y145269D02*
X126187Y145132D01*
Y143002*
X146500Y130497D02*
X147500Y131497D01*
Y136516*
X157500Y130372D02*
Y136516D01*
X141700Y118372D02*
Y111291D01*
X142500Y110491*
X152500Y130497D02*
Y136516D01*
X132125Y136252D02*
Y137997D01*
X133250Y139122*
X134500*
X128353Y143002D02*
X128500D01*
X129860Y141642*
X128353Y143002D02*
Y145092D01*
X128550Y145289*
X152500Y110491D02*
Y116747D01*
X147500Y110491D02*
Y116797D01*
X121875Y150223D02*
X123307Y151655D01*
Y153780*
X121875Y150223D02*
Y148198D01*
X122951Y147122*
X124125*
X124438Y147435*
X126050*
X128109Y183263D02*
X126750Y184622D01*
Y184997*
X126859Y185106*
X115000Y174822D02*
X115967Y175789D01*
X121256*
X121821Y175224*
Y173573*
X121929Y173465*
X110800Y175978D02*
X113926D01*
X114738Y176790*
X121670*
X123250Y175210*
Y173522*
X123307Y173465*
X117260Y151622D02*
X117375Y151747D01*
X120051*
X120551Y152247*
Y153780*
X112800Y177722D02*
Y177791D01*
X122083*
X124685Y175189*
Y173465*
X115000Y171572D02*
X116716D01*
X118465Y169823*
X119665*
X112500Y173222D02*
X116804D01*
X118178Y171849*
X119977*
X120551Y172423*
Y173465*
X110500Y183672D02*
X111863Y182719D01*
X114642Y179940*
X122762*
X127441Y175261*
Y173465*
X113500Y184012D02*
X115610D01*
X117500Y182122*
X123409*
X129659Y175872*
X132198*
X132834Y175236*
Y173583*
X132953Y173465*
X115000Y182422D02*
X116400Y181022D01*
X123094*
X128819Y175297*
Y173465*
X125250Y149872D02*
X125625Y150247D01*
Y151556*
X126063Y151994*
Y153780*
X123500Y148747D02*
X123625Y148812D01*
Y150546*
X124541Y151463*
Y153780*
X124685*
X127250Y150872D02*
X127375D01*
X127441Y150938*
Y153780*
X115875Y154872D02*
X116104Y155096D01*
X118430Y157421*
X119665*
X113000Y169922D02*
X116125D01*
X117602Y168445*
X119665*
X115000Y168272D02*
X116157D01*
X117362Y167067*
X119665*
X115625Y162872D02*
X115686Y162933D01*
X119665*
X113700Y166477D02*
Y166622D01*
X116284*
X117217Y165689*
X119665*
X116750Y157997D02*
X117579Y158799D01*
X119665*
X109981Y179293D02*
X113875D01*
X114311Y178857*
X122431*
X126063Y175225*
Y173465*
X114676Y158183D02*
X116670Y160177D01*
X119665*
X114750Y160622D02*
X115500D01*
X116433Y161555*
X119665*
X110210Y166477D02*
X113700D01*
X113700*
X115917Y149122D02*
Y150312D01*
X117227Y151622*
X117260*
X130197Y153780D02*
X130171Y153754D01*
Y151326*
X130625Y150872*
X144500Y152247D02*
Y153914D01*
X142500Y152872D02*
X142875Y153247D01*
X140250Y156222D02*
X140650Y156622D01*
X145625Y174464D02*
X146006D01*
X148171Y176630*
X148475*
X139351Y169823D02*
X140538D01*
Y170506*
X144496Y174464*
X145625*
X139351Y168445D02*
X141179D01*
X141677Y168943*
Y170113*
X144520Y172956*
X146770*
X148278Y174464*
X148475*
X139351Y165689D02*
X144534D01*
X145167Y166322*
X139351Y164311D02*
X139870D01*
X139911Y164352*
X148242*
X149486Y163108*
Y161826*
X150375Y160937*
X155046*
X158645Y157337*
X158706*
X139351Y161555D02*
X141577D01*
X144010Y159122*
X144500*
X139351Y160177D02*
X141250D01*
X144500Y156927*
Y156080*
X139351Y158799D02*
X139478Y158672D01*
X141129*
X142875Y156926*
Y153247*
X139351Y157421D02*
X140511D01*
X140650Y157282*
Y156622*
X138465Y153780D02*
X138500D01*
Y152459*
X139023*
X142109Y149373*
Y147983*
X144170Y145922*
X162550*
X166750Y150122*
Y155321*
X170741Y159312*
X170866*
X135709Y153780D02*
Y151663D01*
X136250Y151122*
Y146622*
X137000Y145872*
X139750*
X140375Y146497*
X134331Y153780D02*
Y151541D01*
X135250Y150622*
Y146208*
X136586Y144872*
X162914*
X168000Y149958*
Y151747*
X170565Y154312*
X170866*
X132953Y153780D02*
X133080Y153652D01*
Y152065*
X133250Y151895*
Y151002*
X134125Y150127*
Y145919*
X136172Y143872*
X163750*
X166301Y146423*
X167977*
X170866Y149312*
X131575Y153780D02*
Y153562D01*
X131700Y153437*
Y151982*
X132206Y151476*
Y149666*
X132375Y149497*
X128819Y153780D02*
X128963D01*
X158706Y157337D02*
X158708D01*
Y152122*
X152800Y164424D02*
X153544D01*
Y164425*
Y169622*
X148475Y176630D02*
X151075D01*
X148475Y174464D02*
X151075D01*
X128550Y147455D02*
Y147572D01*
X128963Y147985*
Y153780*
X147333Y166322D02*
X147865Y165789D01*
X148708*
X150073Y164424*
X152800*
X122000Y188414D02*
X123000D01*
Y188372*
X123750Y187622*
X100625Y190872D02*
X109396D01*
X110959Y189310*
X123146*
X128865Y183591*
X127628Y182354*
X122797Y187185*
X109979*
X109072Y188091*
X100625*
Y190872*
X133534Y176070D02*
X135020D01*
Y176696*
X132320Y179396*
Y179836*
X129790Y182366*
X128697Y181273*
X131240Y178730*
Y178364*
X133534Y176070*
X126279Y183702D02*
X128754D01*
X126729Y183252D02*
X128527D01*
X125829Y184152D02*
X128304D01*
X127179Y182802D02*
X128077D01*
X125379Y184602D02*
X127854D01*
X124929Y185052D02*
X127404D01*
X124479Y185502D02*
X126954D01*
X124029Y185952D02*
X126504D01*
X123579Y186402D02*
X126054D01*
X123129Y186852D02*
X125604D01*
X109861Y187302D02*
X125154D01*
X109411Y187752D02*
X124704D01*
X100625Y188202D02*
X124254D01*
X100625Y188652D02*
X123804D01*
X100625Y189102D02*
X123354D01*
X100625Y189552D02*
X110716D01*
X100625Y190002D02*
X110266D01*
X100625Y190452D02*
X109816D01*
X133085Y176519D02*
X135020D01*
X132635Y176969D02*
X134748D01*
X132185Y177419D02*
X134298D01*
X131735Y177869D02*
X133848D01*
X131285Y178319D02*
X133398D01*
X131201Y178769D02*
X132948D01*
X130751Y179219D02*
X132498D01*
X130301Y179669D02*
X132320D01*
X129851Y180119D02*
X132038D01*
X129401Y180569D02*
X131588D01*
X128951Y181019D02*
X131138D01*
X128892Y181469D02*
X130688D01*
X129342Y181919D02*
X130238D01*
X167751Y101400D02*
G75*
G03X167750Y101408I-150J0D01*
G01Y101422D02*
G03Y101408I250J0D01*
G01Y101422D02*
Y145273D01*
G03X167600Y145423I-150J0*
G01X166778*
G03X166672Y145379I-0J-150*
G01X164457Y143165*
X163750Y142872D02*
G03X164457Y143165I-0J1000D01*
G01X163750Y142872D02*
X136172D01*
X135464Y143165D02*
G03X136172Y142872I708J707D01*
G01X135464Y143165D02*
X133418Y145212D01*
X133125Y145919D02*
G03X133418Y145212I1000J-0D01*
G01X133125Y145919D02*
Y147920D01*
G03X132922Y148060I-150J-0*
G01X130864Y149215D02*
G03X132922Y148060I1511J282D01*
G01X130864Y149215D02*
G03X130708Y149337I-148J-28D01*
G01X130158Y149407D02*
G03X130708Y149337I467J1465D01*
G01X130158Y149407D02*
G03X129963Y149264I-45J-143D01*
G01Y148502*
G03X129984Y148426I150J0*
G01X130087Y148045D02*
G03X129984Y148426I-750J0D01*
G01X130087Y148045D02*
Y146864D01*
X129965Y146454D02*
G03X130087Y146864I-628J410D01*
G01X129965Y146454D02*
G03X129941Y146372I126J-82D01*
X129965Y146290I150J0*
G01X130087Y145880D02*
G03X129965Y146290I-750J-0D01*
G01X130087Y145880D02*
Y144699D01*
X129748Y144071D02*
G03X130087Y144699I-411J628D01*
G01X129748Y144071D02*
G03X129680Y143945I82J-126D01*
X129682Y143919I150J0*
G01X129693Y143789D02*
G03X129682Y143919I-750J0D01*
G01X129693Y143789D02*
Y143329D01*
G03X129845Y143179I150J0*
G01X131398Y141642D02*
G03X129845Y143179I-1538J0D01*
G01X130593Y140291D02*
G03X131398Y141642I-733J1351D01*
G01X130593Y140291D02*
G03X130524Y140210I72J-132D01*
X130417Y140209I-53J-141*
G01X128871Y140464D02*
G03X130417Y140209I989J1178D01*
G01X128871Y140464D02*
G03X128625Y140350I-96J-114D01*
G01Y140186*
G03X128705Y140054I150J0*
G01X129156Y139303D02*
G03X128705Y140054I-850J0D01*
G01X129156Y139303D02*
Y133201D01*
X128306Y132351D02*
G03X129156Y133201I0J850D01*
G01X128306Y132351D02*
X125944D01*
X125094Y133201D02*
G03X125944Y132351I850J-0D01*
G01X125094Y133201D02*
Y139303D01*
X125545Y140054D02*
G03X125094Y139303I399J-751D01*
G01X125545Y140054D02*
G03X125625Y140186I-70J132D01*
G01Y140394*
G03X125581Y140500I-150J-0*
G01X125127Y140954*
X124687Y142015D02*
G03X125127Y140954I1500J-0D01*
G01X124687Y142015D02*
Y143990D01*
G03X124646Y144094I-150J0*
G01X124413Y144679D02*
G03X124646Y144094I850J-0D01*
G01X124413Y144679D02*
Y145860D01*
X124419Y145963D02*
G03X124413Y145860I844J-103D01*
G01X124419Y145963D02*
G03X124420Y145981I-149J18D01*
X124251Y146130I-150J0*
G01X124125Y146122D02*
G03X124251Y146130I-0J1000D01*
G01X124125Y146122D02*
X122951D01*
X122244Y146415D02*
G03X122951Y146122I707J707D01*
G01X122244Y146415D02*
X121168Y147491D01*
X121003Y147708D02*
G03X121168Y147491I872J490D01*
G01X121003Y147708D02*
G03X120873Y147784I-130J-74D01*
G01X120478*
G03X120461Y147783I0J-150*
G01X120310Y147775D02*
G03X120461Y147783I0J1350D01*
G01X120310Y147775D02*
X119583D01*
G03X119433Y147625I-0J-150*
G01Y142705*
X119037Y141750D02*
G03X119433Y142705I-954J955D01*
G01X119037Y141750D02*
X118546Y141259D01*
G03X118505Y141183I106J-106*
G01X118481Y141082D02*
G03X118505Y141183I-1481J415D01*
G01X118481Y141082D02*
G03X118475Y141042I144J-40D01*
G01Y140145*
G03X118572Y140005I150J-0*
G01X119056Y139303D02*
G03X118572Y140005I-750J0D01*
G01X119056Y139303D02*
Y133201D01*
X118306Y132451D02*
G03X119056Y133201I0J750D01*
G01X118306Y132451D02*
X115944D01*
X115194Y133201D02*
G03X115944Y132451I750J-0D01*
G01X115194Y133201D02*
Y139303D01*
X115678Y140005D02*
G03X115194Y139303I266J-702D01*
G01X115678Y140005D02*
G03X115775Y140145I-53J140D01*
G01Y140519*
G03X115747Y140606I-150J-0*
G01X115462Y141497D02*
G03X115747Y140606I1538J0D01*
G01X116344Y142887D02*
G03X115462Y141497I656J-1390D01*
G01X116344Y142887D02*
G03X116386Y142917I-64J136D01*
G01X116689Y143220*
G03X116733Y143326I-106J106*
G01Y147438*
G03X116570Y147587I-150J-0*
G01X116508Y147585D02*
G03X116570Y147587I-0J750D01*
G01X116508Y147585D02*
X115327D01*
X114577Y148335D02*
G03X115327Y147585I750J-0D01*
G01X114577Y148335D02*
Y149909D01*
X114903Y150529D02*
G03X114577Y149909I424J-620D01*
G01X114903Y150529D02*
G03X114962Y150608I-84J123D01*
G01X115210Y151019D02*
G03X114962Y150608I707J-707D01*
G01X115210Y151019D02*
X115679Y151488D01*
G03X115723Y151594I-106J106*
Y151596I-150J-0*
G01X115722Y151622D02*
G03X115723Y151596I1538J0D01*
G01X118267Y152784D02*
G03X115722Y151622I-1007J-1162D01*
G01X118267Y152784D02*
G03X118365Y152747I98J113D01*
G01X119258*
G03X119408Y152897I-0J150*
G01Y155354*
X119774Y155999D02*
G03X119408Y155354I384J-645D01*
G01X119774Y155999D02*
G03X119847Y156128I-77J129D01*
X119697Y156278I-150J-0*
G01X118762*
G03X118656Y156234I0J-150*
G01X117456Y155033*
G03X117412Y154927I106J-106*
Y154922I150J-0*
G01X117413Y154872D02*
G03X117412Y154922I-1538J0D01*
G01X117413Y154872D02*
X117413D01*
X114337D02*
G03X117413I1538J0D01*
G01X115867Y156410D02*
G03X114337Y154872I8J-1538D01*
G01X115867Y156410D02*
G03X116016Y156560I-1J150D01*
X115945Y156687I-150J-0*
G01X115697Y156877D02*
G03X115945Y156687I1053J1120D01*
G01X115697Y156877D02*
G03X115513Y156893I-103J-110D01*
G01X113138Y158183D02*
G03X115513Y156893I1538J-0D01*
G01X113648Y159326D02*
G03X113138Y158183I1028J-1143D01*
G01X113648Y159326D02*
G03X113698Y159438I-100J112D01*
X113654Y159543I-150J0*
G01X113212Y160622D02*
G03X113654Y159543I1538J0D01*
G01X114147Y162036D02*
G03X113212Y160622I603J-1414D01*
G01X114147Y162036D02*
G03X114238Y162174I-59J138D01*
X114225Y162236I-150J0*
G01X114088Y162816D02*
G03X114225Y162236I1537J56D01*
G01X114088Y162816D02*
G03X113939Y162961I-149J-5D01*
G01X113000*
X112849Y162969D02*
G03X113000Y162961I151J1342D01*
G01X112849Y162969D02*
G03X112832Y162970I-17J-149D01*
G01X112213*
X111884Y163046D02*
G03X112213Y162970I329J674D01*
G01X111884Y163046D02*
G03X111818Y163061I-66J-135D01*
G01X111391*
G03X111325Y163046I-0J-150*
G01X110997Y162971D02*
G03X111325Y163046I0J750D01*
G01X110997Y162971D02*
X109423D01*
X108673Y163721D02*
G03X109423Y162971I750J-0D01*
G01X108673Y163721D02*
Y164902D01*
X108795Y165312D02*
G03X108673Y164902I628J-410D01*
G01X108795Y165312D02*
G03X108819Y165394I-126J82D01*
X108795Y165476I-150J0*
G01X108673Y165886D02*
G03X108795Y165476I750J0D01*
G01X108673Y165886D02*
Y167067D01*
X109423Y167817D02*
G03X108673Y167067I-0J-750D01*
G01X109423Y167817D02*
X110997D01*
X111585Y167534D02*
G03X110997Y167817I-588J-467D01*
G01X111585Y167534D02*
G03X111702Y167477I117J93D01*
G01X112465*
G03X112575Y167525I-0J150*
G01X113353Y167975D02*
G03X112575Y167525I347J-1498D01*
G01X113353Y167975D02*
G03X113469Y168121I-34J146D01*
G01X113469*
G03Y168134I-150J0*
G01X113463Y168264D02*
G03X113469Y168134I1537J8D01*
G01X113462Y168264D02*
G03X113285Y168411I-149J-0D01*
G01X111462Y169922D02*
G03X113285Y168411I1538J0D01*
G01X112547Y171391D02*
G03X111462Y169922I453J-1469D01*
G01X112547Y171391D02*
G03X112652Y171535I-45J144D01*
X112502Y171685I-150J-0*
G01X110962Y173222D02*
G03X112502Y171685I1538J0D01*
G01X111357Y174250D02*
G03X110962Y173222I1143J-1028D01*
G01X111357Y174250D02*
G03X111395Y174350I-112J100D01*
X111206Y174495I-150J0*
G01X109262Y175978D02*
G03X111206Y174495I1538J0D01*
G01X111087Y177489D02*
G03X109262Y175978I-287J-1511D01*
G01X111087Y177489D02*
G03X111265Y177636I28J147D01*
G01X111265*
G03X111264Y177644I-150J-0*
G01X111262Y177722D02*
G03X111264Y177644I1538J0D01*
G01X111262Y177722D02*
X111262D01*
X111297Y178044D02*
G03X111262Y177722I1503J-322D01*
G01X111297Y178044D02*
G03X111300Y178076I-147J32D01*
X111046Y178184I-150J-0*
G01X108443Y179293D02*
G03X111046Y178184I1538J-0D01*
G01X111106Y180340D02*
G03X108443Y179293I-1125J-1047D01*
G01X111106Y180340D02*
G03X111216Y180293I110J103D01*
G01X112513*
G03X112663Y180443I-0J150*
X112619Y180549I-150J-0*
G01X111227Y181941*
G03X111207Y181957I-106J-107*
G01X110939Y182145*
G03X110822Y182169I-86J-123*
G01X108962Y183672D02*
G03X110822Y182169I1538J0D01*
G01X111789Y184510D02*
G03X108962Y183672I-1289J-838D01*
G01X111789Y184510D02*
G03X112056Y184540I126J81D01*
G01X114625Y185060D02*
G03X112056Y184540I-1125J-1048D01*
G01X114625Y185060D02*
G03X114735Y185012I110J102D01*
G01X115610*
X116317Y184719D02*
G03X115610Y185012I-707J-707D01*
G01X116317Y184719D02*
X117870Y183166D01*
G03X117976Y183122I106J106*
G01X123409*
X124116Y182829D02*
G03X123409Y183122I-707J-707D01*
G01X124116Y182829D02*
X130029Y176916D01*
G03X130135Y176872I106J106*
G01X130955*
G03X131105Y177022I0J150*
X131061Y177128I-150J0*
G01X130533Y177656*
X130245Y178262D02*
G03X130533Y177656I995J102D01*
G01X130245Y178262D02*
G03X130202Y178353I-149J-15D01*
G01X127989Y180566*
X127698Y181215D02*
G03X127989Y180566I999J58D01*
G01X127698Y181215D02*
G03X127559Y181356I-150J-9D01*
G01X126921Y181646D02*
G03X127559Y181356I707J708D01*
G01X126921Y181646D02*
X122427Y186141D01*
G03X122321Y186185I-106J-106*
G01X109979*
X109271Y186477D02*
G03X109979Y186185I708J708D01*
G01X109271Y186477D02*
X108702Y187047D01*
G03X108596Y187091I-106J-106*
G01X103230*
G03X103080Y186941I0J-150*
G01Y126422*
X102830Y126172D02*
G03X103080Y126422I0J250D01*
G01X102830Y126172D02*
X101400D01*
G03X101250Y126022I0J-150*
G01Y122602*
G03X101400Y122452I150J0*
G01X102750*
X103000Y122202D02*
G03X102750Y122452I-250J0D01*
G01X103000Y122202D02*
Y101422D01*
Y101408D02*
G03Y101422I-250J14D01*
G01Y101408D02*
G03X102999Y101400I149J-8D01*
X103149Y101250I150J0*
G01X167601*
G03X167751Y101400I-0J150*
G01X169616Y198722D02*
G03X169466Y198872I-150J0D01*
G01X154200*
G03X154050Y198722I0J-150*
G01Y196446*
G03X154091Y196342I150J-0*
G01X154463Y195412D02*
G03X154091Y196342I-1350J-0D01*
G01X154227Y194649D02*
G03X154463Y195412I-1114J763D01*
G01X154227Y194649D02*
G03X154201Y194565I124J-84D01*
X154245Y194459I150J-0*
G01X154678Y194026*
G03X154784Y193982I106J106*
G01X157669*
X158147Y193895D02*
G03X157669Y193982I-478J-1263D01*
G01X158147Y193895D02*
G03X158350Y194035I53J140D01*
G01Y194480*
X158600Y194730D02*
G03X158350Y194480I0J-250D01*
G01X158600Y194730D02*
X165500D01*
X165750Y194480D02*
G03X165500Y194730I-250J-0D01*
G01X165750Y194480D02*
Y187050D01*
X165500Y186800D02*
G03X165750Y187050I0J250D01*
G01X165500Y186800D02*
X158600D01*
X158350Y187050D02*
G03X158600Y186800I250J-0D01*
G01X158350Y187050D02*
Y187489D01*
G03X158147Y187629I-150J0*
G01X157669Y187542D02*
G03X158147Y187629I0J1350D01*
G01X157669Y187542D02*
X153929D01*
X152579Y188892D02*
G03X153929Y187542I1350J-0D01*
G01X152579Y188892D02*
Y189241D01*
G03X152386Y189385I-150J0*
G01X151045Y189724D02*
G03X152386Y189385I955J955D01*
G01X151045Y189724D02*
X149932Y190838D01*
X149743Y191075D02*
G03X149932Y190838I1143J717D01*
G01X149743Y191075D02*
G03X149670Y191135I-127J-80D01*
G01X149169Y191459D02*
G03X149670Y191135I1021J1029D01*
G01X149169Y191459D02*
G03X149064Y191502I-105J-107D01*
G01X142889*
G03X142882I0J-150*
X139187Y187622I190J-3880*
G01Y185943*
G03X139200Y185883I150J0*
G01X139324Y185295D02*
G03X139200Y185882I-1450J0D01*
G01X139324Y185295D02*
Y184114D01*
X139157Y183438D02*
G03X139324Y184114I-1283J676D01*
G01X139157Y183438D02*
G03X139140Y183368I133J-70D01*
G01Y175829*
G03X139218Y175698I150J0*
G01X139567Y175285D02*
G03X139218Y175698I-709J-246D01*
G01X139567Y175285D02*
G03X139824Y175237I142J49D01*
G01X141037Y175784D02*
G03X139824Y175237I-37J-1537D01*
G01X141037Y175784D02*
G03X141147Y175828I4J150D01*
G01X141169Y175850*
G03X141213Y175956I-106J106*
G01Y176505*
X141963Y177255D02*
G03X141213Y176505I-0J-750D01*
G01X141963Y177255D02*
X143537D01*
X144287Y176505D02*
G03X143537Y177255I-750J-0D01*
G01X144287Y176505D02*
Y175861D01*
G03X144504Y175727I150J0*
G01X144838Y175805D02*
G03X144504Y175727I-0J-750D01*
G01X144838Y175805D02*
X145870D01*
G03X145976Y175849I0J150*
G01X146894Y176766*
G03X146938Y176872I-106J106*
G01Y177220*
X147688Y177970D02*
G03X146938Y177220I-0J-750D01*
G01X147688Y177970D02*
X149262D01*
X149690Y177837D02*
G03X149262Y177970I-428J-617D01*
G01X149690Y177837D02*
G03X149860I85J123D01*
G01X150288Y177970D02*
G03X149860Y177837I-0J-750D01*
G01X150288Y177970D02*
X151862D01*
X152612Y177220D02*
G03X151862Y177970I-750J0D01*
G01X152612Y177220D02*
Y176039D01*
X152490Y175629D02*
G03X152612Y176039I-628J410D01*
G01X152490Y175629D02*
G03X152466Y175547I126J-82D01*
X152490Y175465I150J0*
G01X152612Y175055D02*
G03X152490Y175465I-750J-0D01*
G01X152612Y175055D02*
Y173874D01*
X151862Y173124D02*
G03X152612Y173874I0J750D01*
G01X151862Y173124D02*
X150288D01*
X149860Y173257D02*
G03X150288Y173124I428J617D01*
G01X149860Y173257D02*
G03X149690I-85J-123D01*
G01X149262Y173124D02*
G03X149690Y173257I0J750D01*
G01X149262Y173124D02*
X148414D01*
G03X148308Y173080I-0J-150*
G01X147477Y172249*
X146770Y171956D02*
G03X147477Y172249I-0J1000D01*
G01X146770Y171956D02*
X146658D01*
G03X146508Y171806I-0J-150*
G01Y170335*
X145758Y169585D02*
G03X146508Y170335I-0J750D01*
G01X145758Y169585D02*
X145318D01*
G03X145212Y169541I0J-150*
G01X144846Y169174*
G03X144802Y169068I106J-106*
X144805Y169037I150J-0*
G01X144838Y168722D02*
G03X144805Y169037I-1538J0D01*
G01X144694Y168073D02*
G03X144838Y168722I-1394J649D01*
G01X144694Y168073D02*
G03X144680Y168009I136J-64D01*
X144830Y167859I150J0*
G01X145758*
X146168Y167737D02*
G03X145758Y167859I-410J-628D01*
G01X146168Y167737D02*
G03X146332I82J126D01*
G01X146742Y167859D02*
G03X146332Y167737I0J-750D01*
G01X146742Y167859D02*
X147923D01*
X148599Y167436D02*
G03X147923Y167859I-676J-327D01*
G01X148599Y167436D02*
G03X148734Y167351I135J65D01*
G01X151525*
X151585Y167344D02*
G03X151525Y167351I-60J-243D01*
G01X151585Y167344D02*
G03X151621Y167339I36J145D01*
G01X152394*
G03X152544Y167489I0J150*
G01Y168130*
G03X152488Y168247I-150J-0*
G01X152204Y168835D02*
G03X152488Y168247I750J-0D01*
G01X152204Y168835D02*
Y170409D01*
X152954Y171159D02*
G03X152204Y170409I-0J-750D01*
G01X152954Y171159D02*
X154135D01*
X154885Y170409D02*
G03X154135Y171159I-750J0D01*
G01X154885Y170409D02*
Y168835D01*
X154601Y168247D02*
G03X154885Y168835I-466J588D01*
G01X154601Y168247D02*
G03X154544Y168130I93J-117D01*
G01Y167489*
G03X154694Y167339I150J0*
G01X154769*
X155519Y166589D02*
G03X154769Y167339I-750J0D01*
G01X155519Y166589D02*
Y163440D01*
X155503Y163288D02*
G03X155519Y163440I-735J152D01*
G01X155503Y163288D02*
G03X155500Y163258I147J-30D01*
G01Y161915*
G03X155571Y161788I150J0*
G01X155753Y161644D02*
G03X155571Y161788I-707J-707D01*
G01X155753Y161644D02*
X157100Y160297D01*
G03X157206Y160253I106J106*
G01X160674*
X161424Y159503D02*
G03X160674Y160253I-750J-0D01*
G01X161424Y159503D02*
Y155172D01*
X160674Y154422D02*
G03X161424Y155172I0J750D01*
G01X160674Y154422D02*
X159858D01*
G03X159708Y154272I-0J-150*
G01Y153614*
G03X159764Y153497I150J0*
G01X160048Y152909D02*
G03X159764Y153497I-750J0D01*
G01X160048Y152909D02*
Y151335D01*
X159298Y150585D02*
G03X160048Y151335I0J750D01*
G01X159298Y150585D02*
X158117D01*
X157367Y151335D02*
G03X158117Y150585I750J-0D01*
G01X157367Y151335D02*
Y152909D01*
X157651Y153497D02*
G03X157367Y152909I466J-588D01*
G01X157651Y153497D02*
G03X157708Y153614I-93J117D01*
G01Y154272*
G03X157558Y154422I-150J0*
G01X156737*
X155987Y155172D02*
G03X156737Y154422I750J0D01*
G01X155987Y155172D02*
Y158519D01*
G03X155943Y158625I-150J0*
G01X154676Y159893*
G03X154570Y159937I-106J-106*
G01X150375*
X149668Y160230D02*
G03X150375Y159937I707J707D01*
G01X149668Y160230D02*
X148779Y161118D01*
X148486Y161826D02*
G03X148779Y161118I1000J-0D01*
G01X148486Y161826D02*
Y162632D01*
G03X148442Y162738I-150J-0*
G01X147872Y163308*
G03X147766Y163352I-106J-106*
G01X144480*
G03X144330Y163202I-0J-150*
X144404Y163073I150J0*
G01X144740Y162806D02*
G03X144404Y163073I-1115J-1059D01*
G01X144740Y162806D02*
G03X144848Y162759I108J103D01*
G01X145758*
X146508Y162009D02*
G03X145758Y162759I-750J0D01*
G01X146508Y162009D02*
Y160435D01*
X146056Y159746D02*
G03X146508Y160435I-298J689D01*
G01X146056Y159746D02*
G03X145966Y159609I60J-137D01*
X145972Y159566I150J-0*
G01X146038Y159122D02*
G03X145972Y159566I-1538J0D01*
G01X145294Y157806D02*
G03X146038Y159122I-794J1316D01*
G01X145294Y157806D02*
G03X145222Y157677I78J-129D01*
X145258Y157579I150J0*
G01X145339Y157471D02*
G03X145258Y157579I-839J-544D01*
G01X145339Y157471D02*
G03X145435Y157406I126J82D01*
G01X146037Y156670D02*
G03X145435Y157406I-750J0D01*
G01X146037Y156670D02*
Y155489D01*
X145915Y155079D02*
G03X146037Y155489I-628J410D01*
G01X145915Y155079D02*
G03X145891Y154997I126J-82D01*
X145915Y154915I150J0*
G01X146037Y154505D02*
G03X145915Y154915I-750J-0D01*
G01X146037Y154505D02*
Y153324D01*
X145937Y152949D02*
G03X146037Y153324I-650J375D01*
G01X145937Y152949D02*
G03X145917Y152874I130J-75D01*
X145928Y152818I150J-0*
G01X146038Y152247D02*
G03X145928Y152818I-1538J0D01*
G01X143229Y151381D02*
G03X146038Y152247I1271J866D01*
G01X143229Y151381D02*
G03X143052Y151437I-124J-84D01*
G01X141813Y151496D02*
G03X143052Y151437I687J1376D01*
G01X141813Y151496D02*
G03X141596Y151362I-67J-134D01*
X141640Y151256I150J0*
G01X142816Y150080*
X143109Y149373D02*
G03X142816Y150080I-1000J0D01*
G01X143109Y149373D02*
Y148459D01*
G03X143153Y148353I150J0*
G01X144540Y146966*
G03X144646Y146922I106J106*
G01X162074*
G03X162180Y146966I-0J150*
G01X165706Y150492*
G03X165750Y150598I-106J106*
G01Y155321*
X166043Y156028D02*
G03X165750Y155321I707J-707D01*
G01X166043Y156028D02*
X167706Y157691D01*
G03X167750Y157797I-106J106*
G01Y192202*
X168000Y192452D02*
G03X167750Y192202I0J-250D01*
G01X168000Y192452D02*
X169466D01*
G03X169616Y192602I0J150*
G01Y198722*
X141109Y148897D02*
G03X141065Y149003I-150J-0D01*
G01X139939Y150129*
G03X139704Y150098I-106J-106*
G01X139685Y150067D02*
G03X139704Y150098I-1310J805D01*
G01X139685Y150067D02*
G03X139662Y149988I127J-79D01*
G01Y148864*
X138912Y148114D02*
G03X139662Y148864I0J750D01*
G01X138912Y148114D02*
X137400D01*
G03X137250Y147964I0J-150*
G01Y147098*
G03X137294Y146992I150J0*
G01X137370Y146916*
G03X137476Y146872I106J106*
G01X138771*
G03X138914Y146975I0J150*
G01X140907Y147940D02*
G03X138914Y146975I-532J-1443D01*
G01X140907Y147940D02*
G03X141109Y148080I52J140D01*
G01Y148897*
X141875Y155402D02*
G03X141594Y155475I-150J0D01*
G01X139802Y154751D02*
G03X141594Y155475I448J1471D01*
G01X139802Y154751D02*
G03X139608Y154608I-44J-143D01*
G01Y153343*
G03X139662Y153228I150J0*
G01X139730Y153166D02*
G03X139662Y153228I-707J-707D01*
G01X139730Y153166D02*
X140884Y152012D01*
G03X141140Y152118I106J106*
X141124Y152185I-150J0*
G01X140962Y152872D02*
G03X141124Y152185I1538J0D01*
G01X141794Y154238D02*
G03X140962Y152872I706J-1366D01*
G01X141794Y154238D02*
G03X141875Y154371I-69J133D01*
G01Y155402*
X113472Y171748D02*
G03X113249Y171879I-150J0D01*
G01X112953Y171753D02*
G03X113249Y171879I-453J1469D01*
G01X112953Y171753D02*
G03X112848Y171610I45J-143D01*
X112998Y171460I150J-0*
G01X113285Y171433D02*
G03X112998Y171460I-285J-1511D01*
G01X113285Y171433D02*
G03X113462Y171580I28J147D01*
G01X113471Y171732D02*
G03X113463Y171580I1529J-160D01*
G01X113471Y171732D02*
G03X113472Y171748I-149J16D01*
G01X149950Y198722D02*
G03X149800Y198872I-150J0D01*
G01X101400*
G03X101250Y198722I0J-150*
G01Y192602*
G03X101400Y192452I150J0*
G01X102830*
X103080Y192202D02*
G03X102830Y192452I-250J0D01*
G01X103080Y192202D02*
Y192022D01*
G03X103230Y191872I150J0*
G01X109396*
X110104Y191579D02*
G03X109396Y191872I-708J-707D01*
G01X110104Y191579D02*
X111329Y190354D01*
G03X111435Y190310I106J106*
G01X123146*
X123854Y190017D02*
G03X123146Y190310I-708J-707D01*
G01X123854Y190017D02*
X129572Y184298D01*
X129865Y183577D02*
G03X129572Y184298I-1000J14D01*
G01X129865Y183577D02*
Y183575D01*
G03X129976Y183430I150J-0*
G01X130310Y183236D02*
G03X129976Y183430I-530J-530D01*
G01X130310Y183236D02*
X130345Y183202D01*
G03X130364Y183185I106J106*
G01X130497Y183074D02*
G03X130364Y183185I-707J-708D01*
G01X130497Y183074D02*
X133027Y180544D01*
X133320Y179869D02*
G03X133027Y180544I-1000J-33D01*
G01X133320Y179869D02*
G03X133363Y179767I149J4D01*
G01X134784Y178347*
G03X135040Y178453I106J106*
G01Y183357*
G03X135022Y183428I-150J0*
G01X134850Y184114D02*
G03X135022Y183428I1450J0D01*
G01X134850Y184114D02*
Y185295D01*
X134974Y185884D02*
G03X134850Y185295I1326J-589D01*
G01X134974Y185884D02*
G03X134987Y185945I-137J61D01*
G01Y187584*
G03Y187586I-150J-0*
G01Y187622D02*
G03Y187586I2100J-0D01*
G01Y187622D02*
X134987D01*
Y187663D02*
G03Y187622I2100J-41D01*
G01Y187663D02*
Y187666D01*
X142758Y195700D02*
G03X134987Y187666I314J-8078D01*
G01X142758Y195700D02*
X142758D01*
X142841Y195702D02*
G03X142758Y195700I-0J-2100D01*
G01X142841Y195702D02*
X149064D01*
G03X149169Y195746I-0J150*
G01X149670Y196069D02*
G03X149169Y195746I520J-1353D01*
G01X149670Y196069D02*
G03X149743Y196129I-54J140D01*
G01X149909Y196343D02*
G03X149743Y196129I977J-931D01*
G01X149909Y196343D02*
G03X149950Y196446I-109J103D01*
G01Y198722*
X159450Y140429D02*
Y132604D01*
X158896Y131243D02*
G03X159450Y132604I-1396J1361D01*
G01X158896Y131243D02*
G03X158854Y131138I108J-105D01*
X158870Y131070I150J-0*
G01X159038Y130372D02*
G03X158870Y131070I-1538J0D01*
G01X155962Y130372D02*
G03X159038I1538J0D01*
G01X156130Y131070D02*
G03X155962Y130372I1370J-698D01*
G01X156130Y131070D02*
G03X156146Y131138I-134J68D01*
X156104Y131243I-150J-0*
G01X155550Y132604D02*
G03X156104Y131243I1950J-0D01*
G01X155550Y132604D02*
Y140429D01*
X159450D02*
G03X155550I-1950J-0D01*
G01X154450Y114404D02*
Y106579D01*
X150550D02*
G03X154450I1950J-0D01*
G01X150550D02*
Y114404D01*
X151140Y115801D02*
G03X150550Y114404I1360J-1397D01*
G01X151140Y115801D02*
G03X151185Y115909I-105J108D01*
X151166Y115983I-150J-0*
G01X150962Y116747D02*
G03X151166Y115983I1538J0D01*
G01X154038Y116747D02*
G03X150962I-1538J0D01*
G01X153834Y115983D02*
G03X154038Y116747I-1334J764D01*
G01X153834Y115983D02*
G03X153815Y115909I131J-74D01*
X153860Y115801I150J-0*
G01X154450Y114404D02*
G03X153860Y115801I-1950J-0D01*
G01X154450Y140429D02*
Y132604D01*
X153933Y131281D02*
G03X154450Y132604I-1433J1323D01*
G01X153933Y131281D02*
G03X153893Y131180I110J-101D01*
X153906Y131119I150J-0*
G01X154038Y130497D02*
G03X153906Y131119I-1538J0D01*
G01X150962Y130497D02*
G03X154038I1538J0D01*
G01X151094Y131119D02*
G03X150962Y130497I1406J-622D01*
G01X151094Y131119D02*
G03X151067Y131281I-137J61D01*
G01X150550Y132604D02*
G03X151067Y131281I1950J-0D01*
G01X150550Y132604D02*
Y140429D01*
X154450D02*
G03X150550I-1950J-0D01*
G01X149450Y114404D02*
Y106579D01*
X145550D02*
G03X149450I1950J-0D01*
G01X145550D02*
Y114404D01*
X146157Y115818D02*
G03X145550Y114404I1343J-1414D01*
G01X146157Y115818D02*
G03X146204Y115927I-103J109D01*
X146183Y116004I-150J-0*
G01X145962Y116797D02*
G03X146183Y116004I1538J0D01*
G01X149038Y116797D02*
G03X145962I-1538J0D01*
G01X148817Y116004D02*
G03X149038Y116797I-1317J793D01*
G01X148817Y116004D02*
G03X148796Y115927I129J-77D01*
X148843Y115818I150J-0*
G01X149450Y114404D02*
G03X148843Y115818I-1950J-0D01*
G01X149450Y140429D02*
Y132604D01*
X148229Y130795D02*
G03X149450Y132604I-729J1809D01*
G01X148229Y130795D02*
G03X148179Y130762I56J-139D01*
G01X148080Y130663*
G03X148036Y130557I106J-106*
G01X148036*
G03X148037Y130552I150J0*
G01X148038Y130497D02*
G03X148037Y130552I-1538J0D01*
G01X144962Y130497D02*
G03X148038I1538J0D01*
G01X145616Y131755D02*
G03X144962Y130497I884J-1258D01*
G01X145616Y131755D02*
G03X145680Y131878I-86J123D01*
X145670Y131929I-150J-0*
G01X145550Y132604D02*
G03X145670Y131929I1950J-0D01*
G01X145550Y132604D02*
Y140429D01*
X149450D02*
G03X145550I-1950J-0D01*
G01X144450Y115604D02*
Y105379D01*
X143700Y104628D02*
G03X144450Y105379I0J751D01*
G01X143700Y104628D02*
X141300D01*
X140550Y105379D02*
G03X141300Y104628I750J-0D01*
G01X140550Y105379D02*
Y115604D01*
X140675Y116018D02*
G03X140550Y115604I625J-414D01*
G01X140675Y116018D02*
G03X140700Y116101I-125J83D01*
G01Y117137*
G03X140652Y117247I-150J0*
G01X140162Y118372D02*
G03X140652Y117247I1538J0D01*
G01X143238Y118372D02*
G03X140162I-1538J0D01*
G01X142748Y117247D02*
G03X143238Y118372I-1048J1125D01*
G01X142748Y117247D02*
G03X142700Y117137I102J-110D01*
G01Y116504*
G03X142850Y116354I150J-0*
G01X143700*
X144450Y115604D02*
G03X143700Y116354I-750J-0D01*
G01X144450Y140429D02*
Y132604D01*
X140550D02*
G03X144450I1950J-0D01*
G01X140550D02*
Y138861D01*
G03X140373Y139009I-150J0*
G01X138562Y140522D02*
G03X140373Y139009I1538J0D01*
G01X140804Y141889D02*
G03X138562Y140522I-704J-1367D01*
G01X140804Y141889D02*
G03X140873Y141872I69J133D01*
G01X141132*
G03X141230Y141908I-0J150*
G01X144450Y140429D02*
G03X141230Y141908I-1950J-0D01*
G01X134232Y137608D02*
G03X136038Y139122I268J1514D01*
G01X134232Y137608D02*
G03X134056Y137460I-26J-148D01*
G01Y133201*
X133306Y132451D02*
G03X134056Y133201I0J750D01*
G01X133306Y132451D02*
X130944D01*
X130194Y133201D02*
G03X130944Y132451I750J-0D01*
G01X130194Y133201D02*
Y139303D01*
X130550Y139942D02*
G03X130194Y139303I394J-639D01*
G01X130550Y139942D02*
G03X130613Y140018I-79J127D01*
X130711Y140016I52J141*
G01X130944Y140053D02*
G03X130711Y140016I-0J-750D01*
G01X130944Y140053D02*
X132858D01*
G03X132909Y140062I-0J150*
G01X133250Y140122D02*
G03X132909Y140062I0J-1000D01*
G01X133250Y140122D02*
X133265D01*
G03X133375Y140170I0J150*
G01X136038Y139122D02*
G03X133375Y140170I-1538J0D01*
G01X129056Y118043D02*
Y111941D01*
X128306Y111191D02*
G03X129056Y111941I0J750D01*
G01X128306Y111191D02*
X125944D01*
X125194Y111941D02*
G03X125944Y111191I750J-0D01*
G01X125194Y111941D02*
Y118043D01*
X125944Y118793D02*
G03X125194Y118043I-0J-750D01*
G01X125944Y118793D02*
X125975D01*
G03X126125Y118943I-0J150*
G01Y120642*
G03X126088Y120740I-150J-0*
G01X125712Y121747D02*
G03X126088Y120740I1538J0D01*
G01X128788Y121747D02*
G03X125712I-1538J0D01*
G01X128184Y120526D02*
G03X128788Y121747I-934J1221D01*
G01X128184Y120526D02*
G03X128125Y120407I91J-120D01*
G01X128125D02*
Y118943D01*
G03X128275Y118793I150J0*
G01X128306*
X129056Y118043D02*
G03X128306Y118793I-750J0D01*
G01X124056Y118043D02*
Y111941D01*
X123306Y111191D02*
G03X124056Y111941I0J750D01*
G01X123306Y111191D02*
X120944D01*
X120194Y111941D02*
G03X120944Y111191I750J-0D01*
G01X120194Y111941D02*
Y116061D01*
G03X120051Y116211I-150J0*
G01X119288Y116457D02*
G03X120051Y116211I837J1290D01*
G01X119288Y116457D02*
G03X119056Y116332I-82J-125D01*
G01Y111941*
X118306Y111191D02*
G03X119056Y111941I0J750D01*
G01X118306Y111191D02*
X115944D01*
X115194Y111941D02*
G03X115944Y111191I750J-0D01*
G01X115194Y111941D02*
Y116362D01*
G03X115007Y116508I-150J0*
G01X113087Y117997D02*
G03X115007Y116508I1538J0D01*
G01X115898Y118859D02*
G03X113087Y117997I-1273J-862D01*
G01X115898Y118859D02*
G03X116022Y118793I124J84D01*
G01X118306*
X118719Y118669D02*
G03X118306Y118793I-413J-626D01*
G01X118719Y118669D02*
G03X118919Y118701I83J125D01*
G01X121209Y118837D02*
G03X118919Y118701I-1084J-1090D01*
G01X121209Y118837D02*
G03X121315Y118793I106J106D01*
G01X123306*
X124056Y118043D02*
G03X123306Y118793I-750J0D01*
G01X123712Y126872D02*
G03X126788I1538J0D01*
G01X123713Y126899D02*
G03X123712Y126872I1537J-27D01*
G01X123713Y126899D02*
G03Y126901I-150J2D01*
X123669Y127007I-150J0*
G01X121418Y129258*
X121125Y129965D02*
G03X121418Y129258I1000J0D01*
G01X121125Y129965D02*
Y132301D01*
G03X120975Y132451I-150J-0*
G01X120944*
X120194Y133201D02*
G03X120944Y132451I750J-0D01*
G01X120194Y133201D02*
Y139303D01*
X120944Y140053D02*
G03X120194Y139303I-0J-750D01*
G01X120944Y140053D02*
X123306D01*
X124056Y139303D02*
G03X123306Y140053I-750J0D01*
G01X124056Y139303D02*
Y133201D01*
X123306Y132451D02*
G03X124056Y133201I0J750D01*
G01X123306Y132451D02*
X123275D01*
G03X123125Y132301I0J-150*
G01Y130442*
G03X123169Y130336I150J-0*
G01X125053Y128451*
G03X125168Y128407I106J106*
G01X126788Y126872D02*
G03X125168Y128407I-1538J0D01*
G01X166191Y144899D02*
X167750D01*
X165741Y144449D02*
X167750D01*
X165291Y143999D02*
X167750D01*
X164841Y143549D02*
X167750D01*
X164384Y143099D02*
X167750D01*
X131022Y142649D02*
X167750D01*
X158319Y142199D02*
X167750D01*
X158936Y141749D02*
X167750D01*
X159245Y141299D02*
X167750D01*
X159404Y140849D02*
X167750D01*
X159450Y140399D02*
X167750D01*
X159450Y139949D02*
X167750D01*
X159450Y139499D02*
X167750D01*
X159450Y139049D02*
X167750D01*
X159450Y138599D02*
X167750D01*
X159450Y138149D02*
X167750D01*
X159450Y137699D02*
X167750D01*
X159450Y137249D02*
X167750D01*
X159450Y136799D02*
X167750D01*
X159450Y136349D02*
X167750D01*
X159450Y135899D02*
X167750D01*
X159450Y135449D02*
X167750D01*
X159450Y134999D02*
X167750D01*
X159450Y134549D02*
X167750D01*
X159450Y134099D02*
X167750D01*
X159450Y133649D02*
X167750D01*
X159450Y133199D02*
X167750D01*
X159450Y132749D02*
X167750D01*
X159426Y132299D02*
X167750D01*
X159298Y131849D02*
X167750D01*
X159033Y131399D02*
X167750D01*
X158925Y130949D02*
X167750D01*
X159032Y130499D02*
X167750D01*
X159003Y130049D02*
X167750D01*
X158829Y129599D02*
X167750D01*
X158431Y129149D02*
X167750D01*
X124806Y128699D02*
X167750D01*
X125935Y128249D02*
X167750D01*
X126477Y127799D02*
X167750D01*
X126712Y127349D02*
X167750D01*
X126787Y126899D02*
X167750D01*
X126728Y126449D02*
X167750D01*
X126515Y125999D02*
X167750D01*
X126033Y125549D02*
X167750D01*
X101250Y125099D02*
X167750D01*
X101250Y124649D02*
X167750D01*
X101250Y124199D02*
X167750D01*
X101250Y123749D02*
X167750D01*
X101250Y123299D02*
X167750D01*
X128323Y122849D02*
X167750D01*
X128643Y122399D02*
X167750D01*
X128774Y121949D02*
X167750D01*
X128767Y121499D02*
X167750D01*
X128620Y121049D02*
X167750D01*
X128272Y120599D02*
X167750D01*
X128125Y120149D02*
X167750D01*
X142477Y119699D02*
X167750D01*
X142963Y119249D02*
X167750D01*
X143177Y118799D02*
X167750D01*
X143237Y118349D02*
X167750D01*
X153519Y117899D02*
X167750D01*
X153868Y117449D02*
X167750D01*
X154017Y116999D02*
X167750D01*
X154025Y116549D02*
X167750D01*
X153894Y116099D02*
X167750D01*
X154001Y115649D02*
X167750D01*
X154281Y115199D02*
X167750D01*
X154419Y114749D02*
X167750D01*
X154450Y114299D02*
X167750D01*
X154450Y113849D02*
X167750D01*
X154450Y113399D02*
X167750D01*
X154450Y112949D02*
X167750D01*
X154450Y112499D02*
X167750D01*
X154450Y112049D02*
X167750D01*
X154450Y111599D02*
X167750D01*
X154450Y111149D02*
X167750D01*
X154450Y110699D02*
X167750D01*
X154450Y110249D02*
X167750D01*
X154450Y109799D02*
X167750D01*
X154450Y109349D02*
X167750D01*
X154450Y108899D02*
X167750D01*
X154450Y108449D02*
X167750D01*
X154450Y107999D02*
X167750D01*
X154450Y107549D02*
X167750D01*
X154450Y107099D02*
X167750D01*
X154450Y106649D02*
X167750D01*
X154413Y106199D02*
X167750D01*
X154265Y105749D02*
X167750D01*
X153971Y105299D02*
X167750D01*
X153400Y104849D02*
X167750D01*
X103000Y104399D02*
X167750D01*
X103000Y103949D02*
X167750D01*
X103000Y103499D02*
X167750D01*
X103000Y103049D02*
X167750D01*
X103000Y102599D02*
X167750D01*
X103000Y102149D02*
X167750D01*
X103000Y101699D02*
X167750D01*
X166641Y145349D02*
X167730D01*
X153319Y142199D02*
X156681D01*
X153239Y129149D02*
X156569D01*
X153748Y129599D02*
X156171D01*
X153970Y130949D02*
X156075D01*
X153936Y141749D02*
X156064D01*
X153971Y130049D02*
X155997D01*
X154038Y130499D02*
X155968D01*
X154033Y131399D02*
X155967D01*
X154245Y141299D02*
X155755D01*
X154298Y131849D02*
X155702D01*
X154404Y140849D02*
X155596D01*
X154426Y132299D02*
X155574D01*
X154450Y140399D02*
X155550D01*
X154450Y139949D02*
X155550D01*
X154450Y139499D02*
X155550D01*
X154450Y139049D02*
X155550D01*
X154450Y138599D02*
X155550D01*
X154450Y138149D02*
X155550D01*
X154450Y137699D02*
X155550D01*
X154450Y137249D02*
X155550D01*
X154450Y136799D02*
X155550D01*
X154450Y136349D02*
X155550D01*
X154450Y135899D02*
X155550D01*
X154450Y135449D02*
X155550D01*
X154450Y134999D02*
X155550D01*
X154450Y134549D02*
X155550D01*
X154450Y134099D02*
X155550D01*
X154450Y133649D02*
X155550D01*
X154450Y133199D02*
X155550D01*
X154450Y132749D02*
X155550D01*
X147239Y129149D02*
X151761D01*
X148319Y142199D02*
X151681D01*
X148400Y104849D02*
X151600D01*
X148573Y117899D02*
X151481D01*
X147748Y129599D02*
X151252D01*
X148893Y117449D02*
X151132D01*
X148870Y116099D02*
X151106D01*
X148936Y141749D02*
X151064D01*
X148531Y130949D02*
X151030D01*
X147971Y130049D02*
X151029D01*
X148971Y105299D02*
X151029D01*
X149001Y115649D02*
X150999D01*
X149024Y116999D02*
X150983D01*
X149017Y116549D02*
X150975D01*
X149033Y131399D02*
X150967D01*
X148038Y130499D02*
X150962D01*
X149245Y141299D02*
X150755D01*
X149265Y105749D02*
X150735D01*
X149281Y115199D02*
X150719D01*
X149298Y131849D02*
X150702D01*
X149404Y140849D02*
X150596D01*
X149413Y106199D02*
X150587D01*
X149419Y114749D02*
X150581D01*
X149426Y132299D02*
X150574D01*
X149450Y140399D02*
X150550D01*
X149450Y139949D02*
X150550D01*
X149450Y139499D02*
X150550D01*
X149450Y139049D02*
X150550D01*
X149450Y138599D02*
X150550D01*
X149450Y138149D02*
X150550D01*
X149450Y137699D02*
X150550D01*
X149450Y137249D02*
X150550D01*
X149450Y136799D02*
X150550D01*
X149450Y136349D02*
X150550D01*
X149450Y135899D02*
X150550D01*
X149450Y135449D02*
X150550D01*
X149450Y134999D02*
X150550D01*
X149450Y134549D02*
X150550D01*
X149450Y134099D02*
X150550D01*
X149450Y133649D02*
X150550D01*
X149450Y133199D02*
X150550D01*
X149450Y132749D02*
X150550D01*
X149450Y114299D02*
X150550D01*
X149450Y113849D02*
X150550D01*
X149450Y113399D02*
X150550D01*
X149450Y112949D02*
X150550D01*
X149450Y112499D02*
X150550D01*
X149450Y112049D02*
X150550D01*
X149450Y111599D02*
X150550D01*
X149450Y111149D02*
X150550D01*
X149450Y110699D02*
X150550D01*
X149450Y110249D02*
X150550D01*
X149450Y109799D02*
X150550D01*
X149450Y109349D02*
X150550D01*
X149450Y108899D02*
X150550D01*
X149450Y108449D02*
X150550D01*
X149450Y107999D02*
X150550D01*
X149450Y107549D02*
X150550D01*
X149450Y107099D02*
X150550D01*
X149450Y106649D02*
X150550D01*
X143319Y142199D02*
X146681D01*
X144231Y104849D02*
X146600D01*
X143163Y117899D02*
X146427D01*
X144263Y116099D02*
X146130D01*
X142929Y117449D02*
X146107D01*
X143936Y141749D02*
X146064D01*
X144446Y105299D02*
X146029D01*
X144449Y115649D02*
X145999D01*
X142700Y116549D02*
X145983D01*
X142700Y116999D02*
X145976D01*
X124356Y129149D02*
X145761D01*
X144245Y141299D02*
X145755D01*
X144450Y105749D02*
X145735D01*
X144450Y115199D02*
X145719D01*
X144298Y131849D02*
X145677D01*
X144404Y140849D02*
X145596D01*
X144450Y106199D02*
X145587D01*
X144450Y114749D02*
X145581D01*
X144426Y132299D02*
X145574D01*
X144450Y140399D02*
X145550D01*
X144450Y139949D02*
X145550D01*
X144450Y139499D02*
X145550D01*
X144450Y139049D02*
X145550D01*
X144450Y138599D02*
X145550D01*
X144450Y138149D02*
X145550D01*
X144450Y137699D02*
X145550D01*
X144450Y137249D02*
X145550D01*
X144450Y136799D02*
X145550D01*
X144450Y136349D02*
X145550D01*
X144450Y135899D02*
X145550D01*
X144450Y135449D02*
X145550D01*
X144450Y134999D02*
X145550D01*
X144450Y134549D02*
X145550D01*
X144450Y134099D02*
X145550D01*
X144450Y133649D02*
X145550D01*
X144450Y133199D02*
X145550D01*
X144450Y132749D02*
X145550D01*
X144450Y114299D02*
X145550D01*
X144450Y113849D02*
X145550D01*
X144450Y113399D02*
X145550D01*
X144450Y112949D02*
X145550D01*
X144450Y112499D02*
X145550D01*
X144450Y112049D02*
X145550D01*
X144450Y111599D02*
X145550D01*
X144450Y111149D02*
X145550D01*
X144450Y110699D02*
X145550D01*
X144450Y110249D02*
X145550D01*
X144450Y109799D02*
X145550D01*
X144450Y109349D02*
X145550D01*
X144450Y108899D02*
X145550D01*
X144450Y108449D02*
X145550D01*
X144450Y107999D02*
X145550D01*
X144450Y107549D02*
X145550D01*
X144450Y107099D02*
X145550D01*
X144450Y106649D02*
X145550D01*
X144033Y131399D02*
X145255D01*
X123906Y129599D02*
X145252D01*
X143531Y130949D02*
X145030D01*
X123456Y130049D02*
X145029D01*
X123125Y130499D02*
X144962D01*
X131293Y142199D02*
X141681D01*
X123125Y130949D02*
X141469D01*
X123125Y131399D02*
X140967D01*
X128125Y119699D02*
X140923D01*
X103000Y104849D02*
X140769D01*
X123125Y131849D02*
X140702D01*
X129056Y116999D02*
X140700D01*
X129056Y116549D02*
X140700D01*
X129056Y116099D02*
X140700D01*
X123125Y132299D02*
X140574D01*
X103000Y105299D02*
X140554D01*
X129056Y115649D02*
X140551D01*
X135946Y138599D02*
X140550D01*
X135690Y138149D02*
X140550D01*
X135081Y137699D02*
X140550D01*
X134056Y137249D02*
X140550D01*
X134056Y136799D02*
X140550D01*
X134056Y136349D02*
X140550D01*
X134056Y135899D02*
X140550D01*
X134056Y135449D02*
X140550D01*
X134056Y134999D02*
X140550D01*
X134056Y134549D02*
X140550D01*
X134056Y134099D02*
X140550D01*
X134056Y133649D02*
X140550D01*
X134056Y133199D02*
X140550D01*
X133905Y132749D02*
X140550D01*
X129056Y115199D02*
X140550D01*
X129056Y114749D02*
X140550D01*
X129056Y114299D02*
X140550D01*
X129056Y113849D02*
X140550D01*
X129056Y113399D02*
X140550D01*
X129056Y112949D02*
X140550D01*
X129056Y112499D02*
X140550D01*
X129056Y112049D02*
X140550D01*
X128973Y111599D02*
X140550D01*
X103000Y111149D02*
X140550D01*
X103000Y110699D02*
X140550D01*
X103000Y110249D02*
X140550D01*
X103000Y109799D02*
X140550D01*
X103000Y109349D02*
X140550D01*
X103000Y108899D02*
X140550D01*
X103000Y108449D02*
X140550D01*
X103000Y107999D02*
X140550D01*
X103000Y107549D02*
X140550D01*
X103000Y107099D02*
X140550D01*
X103000Y106649D02*
X140550D01*
X103000Y106199D02*
X140550D01*
X103000Y105749D02*
X140550D01*
X129056Y117449D02*
X140471D01*
X128125Y119249D02*
X140437D01*
X129056Y117899D02*
X140237D01*
X128235Y118799D02*
X140223D01*
X128991Y118349D02*
X140163D01*
X136036Y139049D02*
X139660D01*
X131394Y141749D02*
X139173D01*
X135991Y139499D02*
X138953D01*
X131359Y141299D02*
X138773D01*
X135796Y139949D02*
X138673D01*
X131177Y140849D02*
X138598D01*
X135357Y140399D02*
X138567D01*
X130352Y143099D02*
X135538D01*
X129693Y143549D02*
X135081D01*
X129689Y143999D02*
X134631D01*
X130044Y144449D02*
X134181D01*
X130087Y144899D02*
X133731D01*
X130764Y140399D02*
X133643D01*
X130087Y145349D02*
X133303D01*
X130087Y145799D02*
X133132D01*
X130087Y147599D02*
X133125D01*
X130087Y147149D02*
X133125D01*
X130069Y146699D02*
X133125D01*
X129990Y146249D02*
X133125D01*
X132891Y148049D02*
X133052D01*
X130087D02*
X131859D01*
X129963Y148499D02*
X131206D01*
X129963Y148949D02*
X130939D01*
X129647Y177299D02*
X130891D01*
X128859Y139949D02*
X130561D01*
X129197Y177749D02*
X130451D01*
X129026Y132749D02*
X130345D01*
X128747Y178199D02*
X130254D01*
X129133Y139499D02*
X130220D01*
X129156Y133199D02*
X130194D01*
X129156Y139049D02*
X130194D01*
X129156Y138599D02*
X130194D01*
X129156Y138149D02*
X130194D01*
X129156Y137699D02*
X130194D01*
X129156Y137249D02*
X130194D01*
X129156Y136799D02*
X130194D01*
X129156Y136349D02*
X130194D01*
X129156Y135899D02*
X130194D01*
X129156Y135449D02*
X130194D01*
X129156Y134999D02*
X130194D01*
X129156Y134549D02*
X130194D01*
X129156Y134099D02*
X130194D01*
X129156Y133649D02*
X130194D01*
X130046Y149399D02*
X130185D01*
X128297Y178649D02*
X129907D01*
X127847Y179099D02*
X129457D01*
X127397Y179549D02*
X129007D01*
X128633Y140399D02*
X128956D01*
X126947Y179999D02*
X128557D01*
X126497Y180449D02*
X128107D01*
X126047Y180899D02*
X127769D01*
X125597Y181349D02*
X127596D01*
X125147Y181799D02*
X126769D01*
X124697Y182249D02*
X126319D01*
X101250Y122849D02*
X126177D01*
X103000Y120599D02*
X126125D01*
X103000Y120149D02*
X126125D01*
X103000Y119699D02*
X126125D01*
X120455Y119249D02*
X126125D01*
X121275Y118799D02*
X126015D01*
X103000Y121049D02*
X125880D01*
X124247Y182699D02*
X125869D01*
X102904Y122399D02*
X125857D01*
X103000Y121499D02*
X125733D01*
X103000Y121949D02*
X125726D01*
X118475Y140399D02*
X125625D01*
X117891Y183149D02*
X125419D01*
X123688Y139949D02*
X125391D01*
X123973Y111599D02*
X125277D01*
X123991Y118349D02*
X125259D01*
X118475Y140849D02*
X125232D01*
X123905Y132749D02*
X125224D01*
X124056Y117899D02*
X125194D01*
X124056Y117449D02*
X125194D01*
X124056Y116999D02*
X125194D01*
X124056Y116549D02*
X125194D01*
X124056Y116099D02*
X125194D01*
X124056Y115649D02*
X125194D01*
X124056Y115199D02*
X125194D01*
X124056Y114749D02*
X125194D01*
X124056Y114299D02*
X125194D01*
X124056Y113849D02*
X125194D01*
X124056Y113399D02*
X125194D01*
X124056Y112949D02*
X125194D01*
X124056Y112499D02*
X125194D01*
X124056Y112049D02*
X125194D01*
X124030Y139499D02*
X125117D01*
X124056Y133199D02*
X125094D01*
X124056Y139049D02*
X125094D01*
X124056Y138599D02*
X125094D01*
X124056Y138149D02*
X125094D01*
X124056Y137699D02*
X125094D01*
X124056Y137249D02*
X125094D01*
X124056Y136799D02*
X125094D01*
X124056Y136349D02*
X125094D01*
X124056Y135899D02*
X125094D01*
X124056Y135449D02*
X125094D01*
X124056Y134999D02*
X125094D01*
X124056Y134549D02*
X125094D01*
X124056Y134099D02*
X125094D01*
X124056Y133649D02*
X125094D01*
X117438Y183599D02*
X124969D01*
X118586Y141299D02*
X124869D01*
X119036Y141749D02*
X124711D01*
X119433Y143549D02*
X124687D01*
X119433Y143099D02*
X124687D01*
X119432Y142649D02*
X124687D01*
X119334Y142199D02*
X124687D01*
X119433Y143999D02*
X124687D01*
X116988Y184049D02*
X124519D01*
X101250Y125549D02*
X124467D01*
X119433Y144449D02*
X124444D01*
X119433Y145799D02*
X124413D01*
X119433Y145349D02*
X124413D01*
X119433Y144899D02*
X124413D01*
X116538Y184499D02*
X124069D01*
X101250Y125999D02*
X123985D01*
X103080Y126449D02*
X123772D01*
X103080Y126899D02*
X123713D01*
X115960Y184949D02*
X123619D01*
X103080Y127349D02*
X123327D01*
X114164Y185399D02*
X123169D01*
X103080Y127799D02*
X122877D01*
X103080Y185849D02*
X122719D01*
X119433Y146249D02*
X122463D01*
X103080Y128249D02*
X122427D01*
X103080Y128699D02*
X121977D01*
X119433Y146699D02*
X121960D01*
X103080Y129149D02*
X121527D01*
X119433Y147149D02*
X121510D01*
X103080Y129599D02*
X121195D01*
X103080Y132299D02*
X121125D01*
X103080Y131849D02*
X121125D01*
X103080Y131399D02*
X121125D01*
X103080Y130949D02*
X121125D01*
X103080Y130499D02*
X121125D01*
X103080Y130049D02*
X121125D01*
X119433Y147599D02*
X121074D01*
X118688Y139949D02*
X120562D01*
X118905Y132749D02*
X120345D01*
X118973Y111599D02*
X120277D01*
X119030Y139499D02*
X120220D01*
X119056Y133199D02*
X120194D01*
X119056Y139049D02*
X120194D01*
X119056Y138599D02*
X120194D01*
X119056Y138149D02*
X120194D01*
X119056Y137699D02*
X120194D01*
X119056Y137249D02*
X120194D01*
X119056Y136799D02*
X120194D01*
X119056Y136349D02*
X120194D01*
X119056Y135899D02*
X120194D01*
X119056Y135449D02*
X120194D01*
X119056Y134999D02*
X120194D01*
X119056Y134549D02*
X120194D01*
X119056Y134099D02*
X120194D01*
X119056Y133649D02*
X120194D01*
X119056Y115649D02*
X120194D01*
X119056Y115199D02*
X120194D01*
X119056Y114749D02*
X120194D01*
X119056Y114299D02*
X120194D01*
X119056Y113849D02*
X120194D01*
X119056Y113399D02*
X120194D01*
X119056Y112949D02*
X120194D01*
X119056Y112499D02*
X120194D01*
X119056Y112049D02*
X120194D01*
X119056Y116099D02*
X120189D01*
X118572Y156149D02*
X119845D01*
X115518Y119249D02*
X119795D01*
X118122Y155699D02*
X119491D01*
X117672Y155249D02*
X119408D01*
X117411Y154799D02*
X119408D01*
X117321Y154349D02*
X119408D01*
X117065Y153899D02*
X119408D01*
X116456Y153449D02*
X119408D01*
X117945Y152999D02*
X119408D01*
X115982Y118799D02*
X119003D01*
X103080Y147149D02*
X116733D01*
X103080Y146699D02*
X116733D01*
X103080Y146249D02*
X116733D01*
X103080Y145799D02*
X116733D01*
X103080Y145349D02*
X116733D01*
X103080Y144899D02*
X116733D01*
X103080Y144449D02*
X116733D01*
X103080Y143999D02*
X116733D01*
X103080Y143549D02*
X116733D01*
X103080Y152999D02*
X116575D01*
X103080Y143099D02*
X116567D01*
X103080Y152549D02*
X116033D01*
X103080Y156599D02*
X116011D01*
X103080Y142649D02*
X115981D01*
X103080Y152099D02*
X115798D01*
X103080Y140399D02*
X115775D01*
X103080Y151649D02*
X115723D01*
X103080Y142199D02*
X115632D01*
X103080Y140849D02*
X115606D01*
X103080Y139949D02*
X115562D01*
X103080Y141749D02*
X115483D01*
X103080Y141299D02*
X115475D01*
X103080Y151199D02*
X115390D01*
X103080Y132749D02*
X115345D01*
X103080Y153449D02*
X115294D01*
X103000Y111599D02*
X115277D01*
X103080Y139499D02*
X115220D01*
X103080Y133199D02*
X115194D01*
X103080Y139049D02*
X115194D01*
X103080Y138599D02*
X115194D01*
X103080Y138149D02*
X115194D01*
X103080Y137699D02*
X115194D01*
X103080Y137249D02*
X115194D01*
X103080Y136799D02*
X115194D01*
X103080Y136349D02*
X115194D01*
X103080Y135899D02*
X115194D01*
X103080Y135449D02*
X115194D01*
X103080Y134999D02*
X115194D01*
X103080Y134549D02*
X115194D01*
X103080Y134099D02*
X115194D01*
X103080Y133649D02*
X115194D01*
X103000Y116099D02*
X115194D01*
X103000Y115649D02*
X115194D01*
X103000Y115199D02*
X115194D01*
X103000Y114749D02*
X115194D01*
X103000Y114299D02*
X115194D01*
X103000Y113849D02*
X115194D01*
X103000Y113399D02*
X115194D01*
X103000Y112949D02*
X115194D01*
X103000Y112499D02*
X115194D01*
X103000Y112049D02*
X115194D01*
X103080Y147599D02*
X115182D01*
X103080Y156149D02*
X115018D01*
X103080Y150749D02*
X115018D01*
X103080Y150299D02*
X114686D01*
X103080Y153899D02*
X114685D01*
X103080Y148049D02*
X114633D01*
X103080Y155699D02*
X114579D01*
X103080Y149849D02*
X114577D01*
X103080Y149399D02*
X114577D01*
X103080Y148949D02*
X114577D01*
X103080Y148499D02*
X114577D01*
X103080Y154349D02*
X114429D01*
X103080Y155249D02*
X114384D01*
X103080Y154799D02*
X114339D01*
X103080Y162449D02*
X114147D01*
X103000Y116549D02*
X114109D01*
X103080Y161999D02*
X114065D01*
X103080Y162899D02*
X114060D01*
X103000Y119249D02*
X113732D01*
X103080Y157049D02*
X113637D01*
X103080Y159299D02*
X113618D01*
X103080Y161549D02*
X113523D01*
X103080Y159749D02*
X113485D01*
X103080Y168299D02*
X113458D01*
X103000Y116999D02*
X113456D01*
X103000Y118799D02*
X113313D01*
X103080Y157499D02*
X113299D01*
X103080Y158849D02*
X113290D01*
X103080Y161099D02*
X113288D01*
X103080Y160199D02*
X113272D01*
X103080Y160649D02*
X113213D01*
X103000Y117449D02*
X113189D01*
X103080Y157949D02*
X113156D01*
X103080Y158399D02*
X113153D01*
X103000Y118349D02*
X113128D01*
X103000Y117899D02*
X113091D01*
X103080Y167849D02*
X113005D01*
X103080Y185399D02*
X112836D01*
X110995Y180449D02*
X112663D01*
X103080Y171449D02*
X112625D01*
X111357Y184949D02*
X112281D01*
X103080Y180899D02*
X112269D01*
X111797Y184499D02*
X112033D01*
X103080Y168749D02*
X112006D01*
X103080Y170999D02*
X111902D01*
X103080Y181349D02*
X111819D01*
X103080Y171899D02*
X111717D01*
X103080Y169199D02*
X111643D01*
X103080Y170549D02*
X111596D01*
X103080Y169649D02*
X111487D01*
X103080Y170099D02*
X111473D01*
X103080Y181799D02*
X111369D01*
X103080Y174149D02*
X111273D01*
X103080Y177749D02*
X111263D01*
X111064Y178199D02*
X111236D01*
X103080Y172349D02*
X111235D01*
X103080Y173699D02*
X111038D01*
X103080Y172799D02*
X111022D01*
X103080Y173249D02*
X110963D01*
X103080Y174599D02*
X110121D01*
X103080Y177299D02*
X110013D01*
X103080Y182249D02*
X109919D01*
X103080Y184949D02*
X109643D01*
X103080Y175049D02*
X109575D01*
X103080Y176849D02*
X109533D01*
X103080Y186299D02*
X109515D01*
X103080Y175499D02*
X109339D01*
X103080Y176399D02*
X109321D01*
X103080Y182699D02*
X109310D01*
X103080Y175949D02*
X109263D01*
X103080Y184499D02*
X109204D01*
X103080Y183149D02*
X109054D01*
X103080Y184049D02*
X109009D01*
X103080Y186749D02*
X109000D01*
X103080Y180449D02*
X108967D01*
X103080Y183599D02*
X108964D01*
X103080Y178199D02*
X108901D01*
X103080Y163349D02*
X108771D01*
X103080Y167399D02*
X108750D01*
X103080Y165599D02*
X108730D01*
X103080Y165149D02*
X108714D01*
X103080Y166949D02*
X108673D01*
X103080Y166499D02*
X108673D01*
X103080Y166049D02*
X108673D01*
X103080Y164699D02*
X108673D01*
X103080Y164249D02*
X108673D01*
X103080Y163799D02*
X108673D01*
X103080Y179999D02*
X108615D01*
X103080Y178649D02*
X108585D01*
X103080Y179549D02*
X108465D01*
X103080Y179099D02*
X108456D01*
X154050Y198671D02*
X169616D01*
X154050Y198221D02*
X169616D01*
X154050Y197771D02*
X169616D01*
X154050Y197321D02*
X169616D01*
X154050Y196871D02*
X169616D01*
X154052Y196421D02*
X169616D01*
X154342Y195971D02*
X169616D01*
X154459Y195521D02*
X169616D01*
X154420Y195071D02*
X169616D01*
X165706Y194621D02*
X169616D01*
X165750Y194171D02*
X169616D01*
X165750Y193721D02*
X169616D01*
X165750Y193271D02*
X169616D01*
X165750Y192821D02*
X169616D01*
X165750Y192371D02*
X167815D01*
X165750Y191921D02*
X167750D01*
X165750Y191471D02*
X167750D01*
X165750Y191021D02*
X167750D01*
X165750Y190571D02*
X167750D01*
X165750Y190121D02*
X167750D01*
X165750Y189671D02*
X167750D01*
X165750Y189221D02*
X167750D01*
X165750Y188771D02*
X167750D01*
X165750Y188321D02*
X167750D01*
X165750Y187871D02*
X167750D01*
X165750Y187421D02*
X167750D01*
X165737Y186971D02*
X167750D01*
X139187Y186521D02*
X167750D01*
X139187Y186071D02*
X167750D01*
X139287Y185621D02*
X167750D01*
X139324Y185171D02*
X167750D01*
X139324Y184721D02*
X167750D01*
X139324Y184271D02*
X167750D01*
X139294Y183821D02*
X167750D01*
X139140Y183371D02*
X167750D01*
X139140Y182921D02*
X167750D01*
X139140Y182471D02*
X167750D01*
X139140Y182021D02*
X167750D01*
X139140Y181571D02*
X167750D01*
X139140Y181121D02*
X167750D01*
X139140Y180671D02*
X167750D01*
X139140Y180221D02*
X167750D01*
X139140Y179771D02*
X167750D01*
X139140Y179321D02*
X167750D01*
X139140Y178871D02*
X167750D01*
X139140Y178421D02*
X167750D01*
X139140Y177971D02*
X167750D01*
X152550Y177521D02*
X167750D01*
X152612Y177071D02*
X167750D01*
X152612Y176621D02*
X167750D01*
X152612Y176171D02*
X167750D01*
X152541Y175721D02*
X167750D01*
X152581Y175271D02*
X167750D01*
X152612Y174821D02*
X167750D01*
X152612Y174371D02*
X167750D01*
X152612Y173921D02*
X167750D01*
X152495Y173471D02*
X167750D01*
X148249Y173021D02*
X167750D01*
X147799Y172571D02*
X167750D01*
X147320Y172121D02*
X167750D01*
X146508Y171671D02*
X167750D01*
X146508Y171221D02*
X167750D01*
X154792Y170771D02*
X167750D01*
X154885Y170321D02*
X167750D01*
X154885Y169871D02*
X167750D01*
X154885Y169421D02*
X167750D01*
X154885Y168971D02*
X167750D01*
X154816Y168521D02*
X167750D01*
X154544Y168071D02*
X167750D01*
X154544Y167621D02*
X167750D01*
X155242Y167171D02*
X167750D01*
X155507Y166721D02*
X167750D01*
X155519Y166271D02*
X167750D01*
X155519Y165821D02*
X167750D01*
X155519Y165371D02*
X167750D01*
X155519Y164921D02*
X167750D01*
X155519Y164471D02*
X167750D01*
X155519Y164021D02*
X167750D01*
X155519Y163571D02*
X167750D01*
X155500Y163121D02*
X167750D01*
X155500Y162671D02*
X167750D01*
X155500Y162221D02*
X167750D01*
X155598Y161771D02*
X167750D01*
X156076Y161321D02*
X167750D01*
X156526Y160871D02*
X167750D01*
X156976Y160421D02*
X167750D01*
X161260Y159971D02*
X167750D01*
X161424Y159521D02*
X167750D01*
X161424Y159071D02*
X167750D01*
X161424Y158621D02*
X167750D01*
X161424Y158171D02*
X167750D01*
X161424Y157721D02*
X167729D01*
X161424Y157271D02*
X167285D01*
X161424Y156821D02*
X166835D01*
X161424Y156371D02*
X166385D01*
X161424Y155921D02*
X165950D01*
X161424Y155471D02*
X165761D01*
X161409Y155021D02*
X165750D01*
X161122Y154571D02*
X165750D01*
X159708Y154121D02*
X165750D01*
X159708Y153671D02*
X165750D01*
X159981Y153221D02*
X165750D01*
X160048Y152771D02*
X165750D01*
X160048Y152321D02*
X165750D01*
X160048Y151871D02*
X165750D01*
X160048Y151421D02*
X165750D01*
X159954Y150971D02*
X165750D01*
X142376Y150521D02*
X165728D01*
X142825Y150071D02*
X165284D01*
X143078Y149621D02*
X164834D01*
X143109Y149171D02*
X164384D01*
X143109Y148721D02*
X163934D01*
X143236Y148271D02*
X163484D01*
X143686Y147821D02*
X163034D01*
X144136Y147371D02*
X162584D01*
X154212Y194621D02*
X158394D01*
X139187Y186971D02*
X158363D01*
X154533Y194171D02*
X158350D01*
X139187Y187421D02*
X158350D01*
X146037Y154121D02*
X157708D01*
X146037Y153671D02*
X157708D01*
X145357Y150971D02*
X157461D01*
X146030Y153221D02*
X157435D01*
X145946Y152771D02*
X157367D01*
X146036Y152321D02*
X157367D01*
X145991Y151871D02*
X157367D01*
X145797Y151421D02*
X157367D01*
X146035Y154571D02*
X156289D01*
X145893Y155021D02*
X156002D01*
X145708Y158171D02*
X155987D01*
X145228Y157721D02*
X155987D01*
X145737Y157271D02*
X155987D01*
X146022Y156821D02*
X155987D01*
X146037Y156371D02*
X155987D01*
X146037Y155921D02*
X155987D01*
X146037Y155471D02*
X155987D01*
X145954Y158621D02*
X155947D01*
X146037Y159071D02*
X155498D01*
X145985Y159521D02*
X155048D01*
X139195Y187871D02*
X153046D01*
X139251Y188321D02*
X152706D01*
X139361Y188771D02*
X152585D01*
X139532Y189221D02*
X152579D01*
X144693Y168071D02*
X152544D01*
X148472Y167621D02*
X152544D01*
X146508Y170771D02*
X152297D01*
X144824Y168521D02*
X152273D01*
X146508Y170321D02*
X152204D01*
X146347Y169871D02*
X152204D01*
X145092Y169421D02*
X152204D01*
X144817Y168971D02*
X152204D01*
X139772Y189671D02*
X151102D01*
X140098Y190121D02*
X150649D01*
X140543Y190571D02*
X150199D01*
X146347Y159971D02*
X150116D01*
X141191Y191021D02*
X149778D01*
X146508Y160421D02*
X149477D01*
X142546Y191471D02*
X149155D01*
X146508Y160871D02*
X149027D01*
X146508Y161321D02*
X148623D01*
X146508Y161771D02*
X148488D01*
X146478Y162221D02*
X148486D01*
X146112Y162671D02*
X148481D01*
X144354Y163121D02*
X148060D01*
X139140Y177521D02*
X147000D01*
X144030Y177071D02*
X146938D01*
X144278Y176621D02*
X146748D01*
X144287Y176171D02*
X146298D01*
X144384Y175721D02*
X144490D01*
X141926Y150971D02*
X143643D01*
X143008Y151421D02*
X143190D01*
X141608D02*
X141992D01*
X139140Y177071D02*
X141470D01*
X139140Y176621D02*
X141222D01*
X139140Y176171D02*
X141213D01*
X139186Y175721D02*
X140562D01*
X139573Y175271D02*
X139853D01*
X139637Y148671D02*
X141109D01*
X139298Y148221D02*
X141109D01*
X139662Y149121D02*
X140947D01*
X139662Y149571D02*
X140497D01*
X139666Y150021D02*
X140047D01*
X137250Y147771D02*
X139514D01*
X137250Y147321D02*
X139077D01*
X141319Y155117D02*
X141875D01*
X139621Y154667D02*
X141875D01*
X139608Y154217D02*
X141755D01*
X139608Y153767D02*
X141250D01*
X140479Y152417D02*
X141031D01*
X139611Y153317D02*
X141028D01*
X140029Y152867D02*
X140962D01*
X113249Y171879D02*
X113395D01*
X101250Y198552D02*
X149950D01*
X101250Y198102D02*
X149950D01*
X101250Y197652D02*
X149950D01*
X101250Y197202D02*
X149950D01*
X101250Y196752D02*
X149950D01*
X101250Y196302D02*
X149871D01*
X101250Y195852D02*
X149289D01*
X101250Y195402D02*
X140872D01*
X101250Y194952D02*
X139660D01*
X101250Y194502D02*
X138825D01*
X101250Y194052D02*
X138171D01*
X101250Y193602D02*
X137631D01*
X101250Y193152D02*
X137174D01*
X101250Y192702D02*
X136782D01*
X103075Y192252D02*
X136444D01*
X109765Y191802D02*
X136151D01*
X110331Y191352D02*
X135899D01*
X110781Y190902D02*
X135682D01*
X111231Y190452D02*
X135499D01*
X123869Y190002D02*
X135345D01*
X124319Y189552D02*
X135221D01*
X124769Y189102D02*
X135124D01*
X125219Y188652D02*
X135053D01*
X130294Y183252D02*
X135040D01*
X130769Y182802D02*
X135040D01*
X131219Y182352D02*
X135040D01*
X131669Y181902D02*
X135040D01*
X132119Y181452D02*
X135040D01*
X132569Y181002D02*
X135040D01*
X133019Y180552D02*
X135040D01*
X133284Y180102D02*
X135040D01*
X133479Y179652D02*
X135040D01*
X133929Y179202D02*
X135040D01*
X134379Y178752D02*
X135040D01*
X125669Y188202D02*
X135008D01*
X126119Y187752D02*
X134988D01*
X126569Y187302D02*
X134987D01*
X127019Y186852D02*
X134987D01*
X127469Y186402D02*
X134987D01*
X127919Y185952D02*
X134987D01*
X129859Y183702D02*
X134910D01*
X128369Y185502D02*
X134864D01*
X128819Y185052D02*
X134850D01*
X129269Y184602D02*
X134850D01*
X129693Y184152D02*
X134850D01*
G54D95*
X140830Y154152D02*
Y152212D01*
X144700Y148342*
Y147662*
G54D96*
X115625Y164997D02*
X116084D01*
X116770Y164311*
X119665*
G54D100*
X145167Y171122D03*
X147333D03*
X118083Y143522D03*
X115917D03*
X147333Y166322D03*
X145167D03*
X128353Y143002D03*
X126187D03*
X118083Y149122D03*
X115917D03*
X153544Y169622D03*
X155710D03*
X139253Y187622D03*
X137087D03*
X158708Y152122D03*
X156542D03*
X139253Y179622D03*
X137087D03*
X145167Y161222D03*
X147333D03*
G54D101*
X100000Y194312D03*
Y114312D03*
Y174312D03*
X170866Y169312D03*
X100000Y109312D03*
X170866Y164312D03*
X100000Y104312D03*
Y164312D03*
X170866Y159312D03*
X170880Y104312D03*
X170866Y189312D03*
X100000Y159312D03*
X170866Y154312D03*
X170880Y109312D03*
X100000Y154312D03*
X170866Y139312D03*
X170880Y114312D03*
X100000Y149312D03*
X170866D03*
Y194312D03*
X100000Y144312D03*
X170866D03*
X100000Y139312D03*
X170866Y134312D03*
X100000D03*
X170880Y129312D03*
X100000D03*
X170880Y124312D03*
X100000Y119312D03*
X170880D03*
X170866Y184312D03*
X100000Y124312D03*
Y184312D03*
X170866Y179312D03*
X100000D03*
X170866Y174312D03*
X129508Y163622D03*
X100000Y169312D03*
Y189312D03*
G54D102*
X152000Y200122D03*
X160806D03*
G54D103*
X126050Y147435D03*
Y145269D03*
X128550Y147455D03*
Y145289D03*
X137087Y182539D03*
Y184705D03*
X148475Y174464D03*
Y176630D03*
X110210Y164311D03*
Y166477D03*
X144500Y156080D03*
Y153914D03*
X122000Y188914D03*
Y191080D03*
X138125Y149455D03*
Y147289D03*
X120310Y149125D03*
Y146959D03*
X113000Y164311D03*
Y162145D03*
X151075Y174464D03*
Y176630D03*
X145625Y174464D03*
Y176630D03*
X142750Y175914D03*
Y178080D03*
G54D106*
X138465Y173465D03*
X137087D03*
X135709D03*
X134331D03*
X132953D03*
X131575D03*
X130197D03*
X128819D03*
X127441D03*
X126063D03*
X124685D03*
X123307D03*
X121929D03*
X120551D03*
Y153780D03*
X121929D03*
X123307D03*
X124685D03*
X126063D03*
X127441D03*
X128819D03*
X130197D03*
X131575D03*
X132953D03*
X134331D03*
X135709D03*
X137087D03*
X138465D03*
G54D107*
X119665Y169823D03*
Y168445D03*
Y167067D03*
Y165689D03*
Y164311D03*
Y162933D03*
Y161555D03*
Y160177D03*
Y158799D03*
Y157421D03*
X139351D03*
Y158799D03*
Y160177D03*
Y161555D03*
Y162933D03*
Y164311D03*
Y165689D03*
Y167067D03*
Y168445D03*
Y169823D03*
G54D108*
X152800Y164424D03*
G54D109*
Y157337D03*
X158706D03*
Y164424D03*
G54D110*
X113125Y188494D03*
Y191250D03*
G54D111*
X137087Y182270D02*
X137087D01*
Y179784*
Y175727D02*
Y179784D01*
X137087*
Y179622D02*
Y179784D01*
Y184705D02*
Y185163D01*
X137087*
Y187622*
X142841Y193602D02*
X150190D01*
X150190*
X137087Y187622D02*
X137087D01*
X142841Y193602D02*
G03X137087Y187622I231J-5980D01*
G01X150190Y193602D02*
X150190D01*
G54D117*
X123414Y169716D02*
X135602D01*
Y157528*
X123414*
Y169716*
Y168156D02*
X135602D01*
X123414Y166030D02*
X135602D01*
X123414Y163904D02*
X135602D01*
X123414Y161778D02*
X135602D01*
X123414Y159653D02*
X135602D01*
G54D132*
X142500Y110491D03*
G54D133*
X147500D03*
X152500D03*
X157500D03*
Y136516D03*
X152500D03*
X147500D03*
X142500D03*
G54D134*
X117125Y114992D03*
X122125D03*
X127125D03*
X132125D03*
Y136252D03*
X127125D03*
X122125D03*
X117125D03*
G54D135*
X155799Y190762D03*
G54D136*
X162000Y185152D03*
Y196372D03*
G54D137*
X160806Y198622D02*
Y200122D01*
G54D138*
X108375Y102247D03*
X115780Y106512D03*
X118750Y102122D03*
X123375Y104872D03*
X126625Y102122D03*
X161625Y105747D03*
X165000Y101997D03*
X159250Y101872D03*
X129180Y106172D03*
X134500Y102122D03*
X142500D03*
X150350Y102072D03*
X150125Y105122D03*
X157480Y104331D03*
X120125Y117747D03*
X114625Y117997D03*
X117000Y141497D03*
X127250Y121747D03*
X125250Y126872D03*
X124960Y124792D03*
X105330Y129772D03*
X104875Y125497D03*
X105000Y123122D03*
X105330Y106792D03*
X105375Y112497D03*
X105350Y117272D03*
X112375Y137372D03*
X112250Y132622D03*
X112000Y127497D03*
X120125Y125122D03*
X116500Y123997D03*
X112750Y122497D03*
X109450Y119542D03*
X110600Y115822D03*
X112260Y111202D03*
X116190Y145747D03*
X121500Y145372D03*
X124875Y140372D03*
X145000Y142102D03*
X147500Y116797D03*
X140375Y146497D03*
X140100Y140522D03*
X152500Y116747D03*
X146500Y130497D03*
X134500Y139122D03*
X157500Y130372D03*
X141700Y118372D03*
X152500Y130497D03*
X129860Y141642D03*
X165625Y143247D03*
X161000Y131747D03*
X165625Y112747D03*
X149998Y142128D03*
X158750Y126747D03*
X155003Y142130D03*
X145250Y118902D03*
Y125747D03*
X129930Y123962D03*
X131987Y142112D03*
X136654Y139606D03*
X161000Y139747D03*
X165625Y138372D03*
Y134247D03*
Y127997D03*
X165670Y125202D03*
X165625Y119372D03*
X162000Y116622D03*
X157480Y116929D03*
X154760Y119532D03*
X154220Y125402D03*
X149750Y127122D03*
X149375Y130497D03*
X140970Y128632D03*
X137950Y123882D03*
X129930Y128302D03*
X132125Y120122D03*
X135875Y116747D03*
X139125Y112622D03*
X135500Y109247D03*
X132125Y110747D03*
X126752Y160866D03*
Y166378D03*
X115000Y174822D03*
X110800Y175978D03*
X117260Y151622D03*
X112800Y177722D03*
X115000Y171572D03*
X112500Y173222D03*
X110500Y183672D03*
X113500Y184012D03*
X115000Y182422D03*
X125250Y149872D03*
X123500Y148747D03*
X127250Y150872D03*
X115875Y154872D03*
X113000Y169922D03*
X115000Y168272D03*
X115625Y162872D03*
X113700Y166477D03*
X116750Y157997D03*
X109981Y179293D03*
X114676Y158183D03*
X114750Y160622D03*
X125125Y186247D03*
X115625Y164997D03*
X127569Y180172D03*
X109710Y149362D03*
X112830Y151492D03*
X118500Y154497D03*
X112860Y156322D03*
X112508Y160622D03*
X122750Y183997D03*
X118250Y183747D03*
X105180Y176842D03*
X107180Y178812D03*
X105665Y185231D03*
X108375Y185747D03*
X116625Y185497D03*
X126700Y158022D03*
X123996Y160866D03*
X126752Y163622D03*
X123996Y166378D03*
X126752Y169134D03*
X132264Y160866D03*
Y166378D03*
X144500Y152247D03*
X130625Y150872D03*
X144500Y159122D03*
X142500Y152872D03*
X140250Y156222D03*
X132375Y149497D03*
X143300Y168722D03*
X138375Y150872D03*
X143625Y161747D03*
X141000Y174247D03*
X161620Y150912D03*
X140830Y154152D03*
X144700Y147662D03*
X140375Y148747D03*
X129738Y177966D03*
X146980Y162802D03*
X149100Y159722D03*
X147000Y159122D03*
X154700Y153122D03*
X165710Y171882D03*
X156790Y184382D03*
X153000Y183997D03*
X150125Y184622D03*
X139780Y177272D03*
X155750Y171997D03*
X154000Y174222D03*
X152412Y171992D03*
X145625Y168497D03*
X151470Y168788D03*
X148609Y168489D03*
X149650Y171131D03*
X157750Y169622D03*
X144908Y185522D03*
X134470Y179682D03*
X134378Y183579D03*
X131200Y183322D03*
X132264Y169134D03*
X129508Y166378D03*
X135020D03*
X132264Y163622D03*
X129508Y160866D03*
X135020D03*
X132264Y158110D03*
X130649Y148166D03*
X149400Y155922D03*
X147000D03*
X163750Y181497D03*
X160038Y181561D03*
X162100Y153522D03*
X162125Y157122D03*
Y161122D03*
Y164497D03*
X162100Y168022D03*
X159600D03*
X160800Y170922D03*
X159500Y174122D03*
X157375Y179997D03*
X155208Y181522D03*
X150923Y181507D03*
X148756Y180114D03*
X146433Y181564D03*
X145513Y178626D03*
X142765Y179949D03*
X139763Y181921D03*
X139938Y185213D03*
X132460Y185682D03*
X130000Y185372D03*
X147640Y152412D03*
X150900Y153122D03*
X149020Y149972D03*
X152500Y149962D03*
X155900Y150012D03*
X159290Y149932D03*
X123750Y187622D03*
X125150Y197766D03*
X114235Y197781D03*
X115375Y191372D03*
X127000Y188372D03*
X124000Y190997D03*
X121908Y193322D03*
X122472Y196096D03*
X119376Y197731D03*
X117115Y196062D03*
X116625Y193372D03*
X110000Y192747D03*
X112750Y193497D03*
X111232Y196131D03*
X108136Y197781D03*
X102188Y197662D03*
X104975Y196166D03*
X104750Y193497D03*
X154860Y194632D03*
X156880Y194792D03*
X156790Y186732D03*
X154420D03*
X150956Y188827D03*
X147455Y187428D03*
X145875Y198122D03*
X137208Y197622D03*
X131980Y192252D03*
X130298Y197696D03*
X128107Y196236D03*
X156880Y197562D03*
X154685Y197570D03*
X149308Y197545D03*
X141308Y187615D03*
X140380Y189652D03*
X142807Y190951D03*
X145008Y190222D03*
X147640Y190983D03*
X147602Y196317D03*
X144188Y196333D03*
X141750Y198122D03*
X140328Y195774D03*
X137362Y194068D03*
X134408Y195622D03*
X134990Y190812D03*
X134446Y187358D03*
X129750Y187997D03*
X127660Y191902D03*
X168500Y197497D03*
G54D149*
X135709Y174661D02*
Y173465D01*
G54D150*
X135577Y175088D02*
Y174793D01*
X135709Y174661*
X134051Y176070D02*
Y176253D01*
X134437Y176639*
X133610Y176903D02*
X134174D01*
X134483Y176594*
X134483*
X135577Y175500*
Y175088*
X134483Y176594D02*
X134437Y176639D01*
X134437D02*
X134760Y176943D01*
X135577Y176126*
Y175088*
G54D152*
X129641Y181731D02*
X129859D01*
X131359Y180231*
G74*
X0Y0D02*
M02*
