ISO-10303-21;
HEADER;
/* Generated by software containing ST-Developer
 * from STEP Tools, Inc. (www.steptools.com) 
 */

FILE_DESCRIPTION(
/* description */ ('Alibre Inc.'),
/* implementation_level */ '2;1');

FILE_NAME(
/* name */ 'export1',
/* time_stamp */ '2013-06-07T13:46:53-07:00',
/* author */ (''),
/* organization */ (''),
/* preprocessor_version */ 'ST-DEVELOPER v14',
/* originating_system */ 'Alibre',
/* authorisation */ '');

FILE_SCHEMA (('AUTOMOTIVE_DESIGN'));
ENDSEC;

DATA;
#10=CONTEXT_DEPENDENT_SHAPE_REPRESENTATION(#31,#91);
#11=CONTEXT_DEPENDENT_SHAPE_REPRESENTATION(#32,#92);
#12=CONTEXT_DEPENDENT_SHAPE_REPRESENTATION(#33,#93);
#13=CONTEXT_DEPENDENT_SHAPE_REPRESENTATION(#34,#94);
#14=CONTEXT_DEPENDENT_SHAPE_REPRESENTATION(#35,#95);
#15=CONTEXT_DEPENDENT_SHAPE_REPRESENTATION(#36,#96);
#16=CONTEXT_DEPENDENT_SHAPE_REPRESENTATION(#37,#97);
#17=NEXT_ASSEMBLY_USAGE_OCCURRENCE('NAUO_ID9','NAUO_NAME9',$,#101,#98,$);
#18=NEXT_ASSEMBLY_USAGE_OCCURRENCE('NAUO_ID19','NAUO_NAME19',$,#101,#99,
$);
#19=NEXT_ASSEMBLY_USAGE_OCCURRENCE('NAUO_ID29','NAUO_NAME29',$,#101,#99,
$);
#20=NEXT_ASSEMBLY_USAGE_OCCURRENCE('NAUO_ID39','NAUO_NAME39',$,#101,#99,
$);
#21=NEXT_ASSEMBLY_USAGE_OCCURRENCE('NAUO_ID49','NAUO_NAME49',$,#101,#99,
$);
#22=NEXT_ASSEMBLY_USAGE_OCCURRENCE('NAUO_ID59','NAUO_NAME59',$,#101,#99,
$);
#23=NEXT_ASSEMBLY_USAGE_OCCURRENCE('NAUO_ID69','NAUO_NAME69',$,#101,#100,
$);
#24=ITEM_DEFINED_TRANSFORMATION('ITD_NAME0',$,#952,#951);
#25=ITEM_DEFINED_TRANSFORMATION('ITD_NAME10',$,#954,#953);
#26=ITEM_DEFINED_TRANSFORMATION('ITD_NAME20',$,#956,#955);
#27=ITEM_DEFINED_TRANSFORMATION('ITD_NAME30',$,#958,#957);
#28=ITEM_DEFINED_TRANSFORMATION('ITD_NAME40',$,#960,#959);
#29=ITEM_DEFINED_TRANSFORMATION('ITD_NAME50',$,#962,#961);
#30=ITEM_DEFINED_TRANSFORMATION('ITD_NAME60',$,#964,#963);
#31=(
REPRESENTATION_RELATIONSHIP('BODY_MP06A',$,#120,#123)
REPRESENTATION_RELATIONSHIP_WITH_TRANSFORMATION(#24)
SHAPE_REPRESENTATION_RELATIONSHIP()
);
#32=(
REPRESENTATION_RELATIONSHIP('LEAD_MP06A',$,#121,#123)
REPRESENTATION_RELATIONSHIP_WITH_TRANSFORMATION(#25)
SHAPE_REPRESENTATION_RELATIONSHIP()
);
#33=(
REPRESENTATION_RELATIONSHIP('LEAD_MP06A',$,#121,#123)
REPRESENTATION_RELATIONSHIP_WITH_TRANSFORMATION(#26)
SHAPE_REPRESENTATION_RELATIONSHIP()
);
#34=(
REPRESENTATION_RELATIONSHIP('LEAD_MP06A',$,#121,#123)
REPRESENTATION_RELATIONSHIP_WITH_TRANSFORMATION(#27)
SHAPE_REPRESENTATION_RELATIONSHIP()
);
#35=(
REPRESENTATION_RELATIONSHIP('LEAD_MP06A',$,#121,#123)
REPRESENTATION_RELATIONSHIP_WITH_TRANSFORMATION(#28)
SHAPE_REPRESENTATION_RELATIONSHIP()
);
#36=(
REPRESENTATION_RELATIONSHIP('LEAD_MP06A',$,#121,#123)
REPRESENTATION_RELATIONSHIP_WITH_TRANSFORMATION(#29)
SHAPE_REPRESENTATION_RELATIONSHIP()
);
#37=(
REPRESENTATION_RELATIONSHIP('LEAD_WIDE_MP06A',$,#122,#123)
REPRESENTATION_RELATIONSHIP_WITH_TRANSFORMATION(#30)
SHAPE_REPRESENTATION_RELATIONSHIP()
);
#38=DRAUGHTING_PRE_DEFINED_COLOUR('white');
#39=DRAUGHTING_PRE_DEFINED_COLOUR('white');
#40=CIRCLE('',#908,0.15);
#41=CIRCLE('',#909,0.4544);
#42=CIRCLE('',#910,0.15);
#43=CIRCLE('',#911,0.4544);
#44=CIRCLE('',#915,0.15);
#45=CIRCLE('',#918,0.4544);
#46=CIRCLE('',#923,0.15);
#47=CIRCLE('',#926,0.4544);
#48=CIRCLE('',#930,0.15);
#49=CIRCLE('',#931,0.4544);
#50=CIRCLE('',#932,0.15);
#51=CIRCLE('',#933,0.4544);
#52=CIRCLE('',#937,0.15);
#53=CIRCLE('',#940,0.4544);
#54=CIRCLE('',#945,0.15);
#55=CIRCLE('',#948,0.4544);
#56=STYLED_ITEM('NAME_0',(#76),#1484);
#57=STYLED_ITEM('NAME_0',(#77),#1485);
#58=STYLED_ITEM('NAME_0',(#78),#1486);
#59=MECHANICAL_DESIGN_GEOMETRIC_PRESENTATION_REPRESENTATION('NAME_0',(#56,
#57,#58),#143);
#60=COLOUR_RGB('',0.274509803921569,0.274509803921569,0.274509803921569);
#61=FILL_AREA_STYLE_COLOUR('NAME_0',#60);
#62=FILL_AREA_STYLE_COLOUR('NAME_0',#38);
#63=FILL_AREA_STYLE_COLOUR('NAME_0',#39);
#64=FILL_AREA_STYLE('NAME_0',(#61));
#65=FILL_AREA_STYLE('NAME_0',(#62));
#66=FILL_AREA_STYLE('NAME_0',(#63));
#67=SURFACE_STYLE_FILL_AREA(#64);
#68=SURFACE_STYLE_FILL_AREA(#65);
#69=SURFACE_STYLE_FILL_AREA(#66);
#70=SURFACE_SIDE_STYLE('NAME_0',(#67));
#71=SURFACE_SIDE_STYLE('NAME_0',(#68));
#72=SURFACE_SIDE_STYLE('NAME_0',(#69));
#73=SURFACE_STYLE_USAGE(.POSITIVE.,#70);
#74=SURFACE_STYLE_USAGE(.POSITIVE.,#71);
#75=SURFACE_STYLE_USAGE(.POSITIVE.,#72);
#76=PRESENTATION_STYLE_ASSIGNMENT((#73));
#77=PRESENTATION_STYLE_ASSIGNMENT((#74));
#78=PRESENTATION_STYLE_ASSIGNMENT((#75));
#79=PRODUCT_DEFINITION_CONTEXT('part definition',#111,'design');
#80=PRODUCT_DEFINITION_CONTEXT('part definition',#111,'design');
#81=PRODUCT_DEFINITION_CONTEXT('part definition',#111,'design');
#82=PRODUCT_DEFINITION_CONTEXT('part definition',#111,'design');
#83=SHAPE_DEFINITION_REPRESENTATION(#87,#120);
#84=SHAPE_DEFINITION_REPRESENTATION(#88,#121);
#85=SHAPE_DEFINITION_REPRESENTATION(#89,#122);
#86=SHAPE_DEFINITION_REPRESENTATION(#90,#123);
#87=PRODUCT_DEFINITION_SHAPE('PRODUCT_VERSION_ID',
'PRODUCT_VERSION_DESCR',#98);
#88=PRODUCT_DEFINITION_SHAPE('PRODUCT_VERSION_ID',
'PRODUCT_VERSION_DESCR',#99);
#89=PRODUCT_DEFINITION_SHAPE('PRODUCT_VERSION_ID',
'PRODUCT_VERSION_DESCR',#100);
#90=PRODUCT_DEFINITION_SHAPE('PRODUCT_VERSION_ID',
'PRODUCT_VERSION_DESCR',#101);
#91=PRODUCT_DEFINITION_SHAPE('NAME_10',$,#17);
#92=PRODUCT_DEFINITION_SHAPE('NAME_20',$,#18);
#93=PRODUCT_DEFINITION_SHAPE('NAME_30',$,#19);
#94=PRODUCT_DEFINITION_SHAPE('NAME_40',$,#20);
#95=PRODUCT_DEFINITION_SHAPE('NAME_50',$,#21);
#96=PRODUCT_DEFINITION_SHAPE('NAME_60',$,#22);
#97=PRODUCT_DEFINITION_SHAPE('NAME_70',$,#23);
#98=PRODUCT_DEFINITION('BODY_MP06A','PRODUCT_VERSION_DESCR',#102,#79);
#99=PRODUCT_DEFINITION('LEAD_MP06A','PRODUCT_VERSION_DESCR',#103,#80);
#100=PRODUCT_DEFINITION('LEAD_WIDE_MP06A','PRODUCT_VERSION_DESCR',#104,#81);
#101=PRODUCT_DEFINITION('PRODUCT_VERSION_ID','PRODUCT_VERSION_DESCR',#105,
#82);
#102=PRODUCT_DEFINITION_FORMATION_WITH_SPECIFIED_SOURCE(
'PRODUCT_VERSION_ID','PRODUCT_VERSION_DESCR',#116,.MADE.);
#103=PRODUCT_DEFINITION_FORMATION_WITH_SPECIFIED_SOURCE(
'PRODUCT_VERSION_ID','PRODUCT_VERSION_DESCR',#117,.MADE.);
#104=PRODUCT_DEFINITION_FORMATION_WITH_SPECIFIED_SOURCE(
'PRODUCT_VERSION_ID','PRODUCT_VERSION_DESCR',#118,.MADE.);
#105=PRODUCT_DEFINITION_FORMATION_WITH_SPECIFIED_SOURCE(
'PRODUCT_VERSION_ID','PRODUCT_VERSION_DESCR',#119,.MADE.);
#106=PRODUCT_RELATED_PRODUCT_CATEGORY('part','part',(#116));
#107=PRODUCT_RELATED_PRODUCT_CATEGORY('part','part',(#117));
#108=PRODUCT_RELATED_PRODUCT_CATEGORY('part','part',(#118));
#109=PRODUCT_RELATED_PRODUCT_CATEGORY('part','part',(#119));
#110=APPLICATION_PROTOCOL_DEFINITION('Draft International Standard',
'automotive_design',1994,#111);
#111=APPLICATION_CONTEXT('automotive_Design');
#112=PRODUCT_CONTEXT('3D Mechanical Parts',#111,'mechanical');
#113=PRODUCT_CONTEXT('3D Mechanical Parts',#111,'mechanical');
#114=PRODUCT_CONTEXT('3D Mechanical Parts',#111,'mechanical');
#115=PRODUCT_CONTEXT('3D Mechanical Parts',#111,'mechanical');
#116=PRODUCT('','BODY_MP06A','',(#112));
#117=PRODUCT('','LEAD_MP06A','',(#113));
#118=PRODUCT('','LEAD_WIDE_MP06A','',(#114));
#119=PRODUCT('','MP06A_ASM','',(#115));
#120=SHAPE_REPRESENTATION('BODY_MP06A',(#952),#143);
#121=SHAPE_REPRESENTATION('LEAD_MP06A',(#954,#956,#958,#960,#962),#144);
#122=SHAPE_REPRESENTATION('LEAD_WIDE_MP06A',(#964),#145);
#123=SHAPE_REPRESENTATION('NAME_0',(#951,#953,#955,#957,#959,#961,#963),
#146);
#124=SHAPE_REPRESENTATION_RELATIONSHIP('NAME_0',$,#120,#1487);
#125=SHAPE_REPRESENTATION_RELATIONSHIP('NAME_0',$,#121,#1488);
#126=SHAPE_REPRESENTATION_RELATIONSHIP('NAME_0',$,#122,#1489);
#127=(
LENGTH_UNIT()
NAMED_UNIT(*)
SI_UNIT(.MILLI.,.METRE.)
);
#128=(
LENGTH_UNIT()
NAMED_UNIT(*)
SI_UNIT(.MILLI.,.METRE.)
);
#129=(
LENGTH_UNIT()
NAMED_UNIT(*)
SI_UNIT(.MILLI.,.METRE.)
);
#130=(
LENGTH_UNIT()
NAMED_UNIT(*)
SI_UNIT(.MILLI.,.METRE.)
);
#131=(
NAMED_UNIT(*)
PLANE_ANGLE_UNIT()
SI_UNIT($,.RADIAN.)
);
#132=(
NAMED_UNIT(*)
PLANE_ANGLE_UNIT()
SI_UNIT($,.RADIAN.)
);
#133=(
NAMED_UNIT(*)
PLANE_ANGLE_UNIT()
SI_UNIT($,.RADIAN.)
);
#134=(
NAMED_UNIT(*)
PLANE_ANGLE_UNIT()
SI_UNIT($,.RADIAN.)
);
#135=(
NAMED_UNIT(*)
SI_UNIT($,.STERADIAN.)
SOLID_ANGLE_UNIT()
);
#136=(
NAMED_UNIT(*)
SI_UNIT($,.STERADIAN.)
SOLID_ANGLE_UNIT()
);
#137=(
NAMED_UNIT(*)
SI_UNIT($,.STERADIAN.)
SOLID_ANGLE_UNIT()
);
#138=(
NAMED_UNIT(*)
SI_UNIT($,.STERADIAN.)
SOLID_ANGLE_UNIT()
);
#139=UNCERTAINTY_MEASURE_WITH_UNIT(LENGTH_MEASURE(1.E-006),#127,
'DISTANCE_ACCURACY_VALUE',
'Maximum model space distance between geometric entities at asserted co
nnectivities');
#140=UNCERTAINTY_MEASURE_WITH_UNIT(LENGTH_MEASURE(1.E-006),#128,
'DISTANCE_ACCURACY_VALUE',
'Maximum model space distance between geometric entities at asserted co
nnectivities');
#141=UNCERTAINTY_MEASURE_WITH_UNIT(LENGTH_MEASURE(1.E-006),#129,
'DISTANCE_ACCURACY_VALUE',
'Maximum model space distance between geometric entities at asserted co
nnectivities');
#142=UNCERTAINTY_MEASURE_WITH_UNIT(LENGTH_MEASURE(1.E-006),#130,
'DISTANCE_ACCURACY_VALUE',
'Maximum model space distance between geometric entities at asserted co
nnectivities');
#143=(
GEOMETRIC_REPRESENTATION_CONTEXT(3)
GLOBAL_UNCERTAINTY_ASSIGNED_CONTEXT((#139))
GLOBAL_UNIT_ASSIGNED_CONTEXT((#135,#131,#127))
REPRESENTATION_CONTEXT('ID1','3D')
);
#144=(
GEOMETRIC_REPRESENTATION_CONTEXT(3)
GLOBAL_UNCERTAINTY_ASSIGNED_CONTEXT((#140))
GLOBAL_UNIT_ASSIGNED_CONTEXT((#136,#132,#128))
REPRESENTATION_CONTEXT('ID1','3D')
);
#145=(
GEOMETRIC_REPRESENTATION_CONTEXT(3)
GLOBAL_UNCERTAINTY_ASSIGNED_CONTEXT((#141))
GLOBAL_UNIT_ASSIGNED_CONTEXT((#137,#133,#129))
REPRESENTATION_CONTEXT('ID1','3D')
);
#146=(
GEOMETRIC_REPRESENTATION_CONTEXT(3)
GLOBAL_UNCERTAINTY_ASSIGNED_CONTEXT((#142))
GLOBAL_UNIT_ASSIGNED_CONTEXT((#138,#134,#130))
REPRESENTATION_CONTEXT('ID1','3D')
);
#147=B_SPLINE_CURVE_WITH_KNOTS('',3,(#1181,#1182,#1183,#1184,#1185),
 .UNSPECIFIED.,.F.,.U.,(4,1,4),(0.,0.5,1.),.UNSPECIFIED.);
#148=B_SPLINE_CURVE_WITH_KNOTS('',3,(#1189,#1190,#1191,#1192,#1193),
 .UNSPECIFIED.,.F.,.U.,(4,1,4),(0.,0.5,1.),.UNSPECIFIED.);
#149=B_SPLINE_CURVE_WITH_KNOTS('',3,(#1198,#1199,#1200,#1201,#1202),
 .UNSPECIFIED.,.F.,.U.,(4,1,4),(0.,0.5,1.),.UNSPECIFIED.);
#150=B_SPLINE_CURVE_WITH_KNOTS('',3,(#1223,#1224,#1225,#1226,#1227),
 .UNSPECIFIED.,.F.,.U.,(4,1,4),(0.,0.5,1.),.UNSPECIFIED.);
#151=B_SPLINE_CURVE_WITH_KNOTS('',3,(#1247,#1248,#1249,#1250,#1251),
 .UNSPECIFIED.,.F.,.U.,(4,1,4),(0.,0.5,1.),.UNSPECIFIED.);
#152=B_SPLINE_CURVE_WITH_KNOTS('',3,(#1255,#1256,#1257,#1258,#1259),
 .UNSPECIFIED.,.F.,.U.,(4,1,4),(0.,0.5,1.),.UNSPECIFIED.);
#153=B_SPLINE_CURVE_WITH_KNOTS('',3,(#1267,#1268,#1269,#1270,#1271),
 .UNSPECIFIED.,.F.,.U.,(4,1,4),(0.,0.5,1.),.UNSPECIFIED.);
#154=B_SPLINE_CURVE_WITH_KNOTS('',3,(#1275,#1276,#1277,#1278,#1279),
 .UNSPECIFIED.,.F.,.U.,(4,1,4),(0.,0.5,1.),.UNSPECIFIED.);
#155=CYLINDRICAL_SURFACE('',#890,0.0762);
#156=CYLINDRICAL_SURFACE('',#895,0.0762);
#157=CYLINDRICAL_SURFACE('',#904,0.0762);
#158=CYLINDRICAL_SURFACE('',#906,0.0762);
#159=CYLINDRICAL_SURFACE('',#914,0.15);
#160=CYLINDRICAL_SURFACE('',#917,0.4544);
#161=CYLINDRICAL_SURFACE('',#922,0.15);
#162=CYLINDRICAL_SURFACE('',#927,0.4544);
#163=CYLINDRICAL_SURFACE('',#936,0.15);
#164=CYLINDRICAL_SURFACE('',#939,0.4544);
#165=CYLINDRICAL_SURFACE('',#944,0.15);
#166=CYLINDRICAL_SURFACE('',#949,0.4544);
#167=VERTEX_POINT('',#1173);
#168=VERTEX_POINT('',#1174);
#169=VERTEX_POINT('',#1176);
#170=VERTEX_POINT('',#1178);
#171=VERTEX_POINT('',#1186);
#172=VERTEX_POINT('',#1188);
#173=VERTEX_POINT('',#1196);
#174=VERTEX_POINT('',#1197);
#175=VERTEX_POINT('',#1204);
#176=VERTEX_POINT('',#1208);
#177=VERTEX_POINT('',#1210);
#178=VERTEX_POINT('',#1214);
#179=VERTEX_POINT('',#1216);
#180=VERTEX_POINT('',#1220);
#181=VERTEX_POINT('',#1230);
#182=VERTEX_POINT('',#1234);
#183=VERTEX_POINT('',#1242);
#184=VERTEX_POINT('',#1244);
#185=VERTEX_POINT('',#1252);
#186=VERTEX_POINT('',#1254);
#187=VERTEX_POINT('',#1260);
#188=VERTEX_POINT('',#1264);
#189=VERTEX_POINT('',#1272);
#190=VERTEX_POINT('',#1274);
#191=VERTEX_POINT('',#1287);
#192=VERTEX_POINT('',#1288);
#193=VERTEX_POINT('',#1290);
#194=VERTEX_POINT('',#1292);
#195=VERTEX_POINT('',#1294);
#196=VERTEX_POINT('',#1296);
#197=VERTEX_POINT('',#1298);
#198=VERTEX_POINT('',#1300);
#199=VERTEX_POINT('',#1302);
#200=VERTEX_POINT('',#1304);
#201=VERTEX_POINT('',#1306);
#202=VERTEX_POINT('',#1308);
#203=VERTEX_POINT('',#1312);
#204=VERTEX_POINT('',#1314);
#205=VERTEX_POINT('',#1318);
#206=VERTEX_POINT('',#1322);
#207=VERTEX_POINT('',#1326);
#208=VERTEX_POINT('',#1330);
#209=VERTEX_POINT('',#1334);
#210=VERTEX_POINT('',#1338);
#211=VERTEX_POINT('',#1342);
#212=VERTEX_POINT('',#1346);
#213=VERTEX_POINT('',#1350);
#214=VERTEX_POINT('',#1354);
#215=VERTEX_POINT('',#1361);
#216=VERTEX_POINT('',#1362);
#217=VERTEX_POINT('',#1364);
#218=VERTEX_POINT('',#1366);
#219=VERTEX_POINT('',#1368);
#220=VERTEX_POINT('',#1370);
#221=VERTEX_POINT('',#1372);
#222=VERTEX_POINT('',#1374);
#223=VERTEX_POINT('',#1376);
#224=VERTEX_POINT('',#1378);
#225=VERTEX_POINT('',#1380);
#226=VERTEX_POINT('',#1382);
#227=VERTEX_POINT('',#1386);
#228=VERTEX_POINT('',#1388);
#229=VERTEX_POINT('',#1392);
#230=VERTEX_POINT('',#1396);
#231=VERTEX_POINT('',#1400);
#232=VERTEX_POINT('',#1404);
#233=VERTEX_POINT('',#1408);
#234=VERTEX_POINT('',#1412);
#235=VERTEX_POINT('',#1416);
#236=VERTEX_POINT('',#1420);
#237=VERTEX_POINT('',#1424);
#238=VERTEX_POINT('',#1428);
#239=VECTOR('',#966,1.);
#240=VECTOR('',#967,1.);
#241=VECTOR('',#968,1.);
#242=VECTOR('',#969,1.);
#243=VECTOR('',#972,1.);
#244=VECTOR('',#974,1.);
#245=VECTOR('',#975,1.);
#246=VECTOR('',#976,1.);
#247=VECTOR('',#978,1.);
#248=VECTOR('',#979,1.);
#249=VECTOR('',#980,1.);
#250=VECTOR('',#982,1.);
#251=VECTOR('',#983,1.);
#252=VECTOR('',#984,1.);
#253=VECTOR('',#986,1.);
#254=VECTOR('',#987,1.);
#255=VECTOR('',#991,1.);
#256=VECTOR('',#992,1.);
#257=VECTOR('',#994,1.);
#258=VECTOR('',#995,1.);
#259=VECTOR('',#997,1.);
#260=VECTOR('',#998,1.);
#261=VECTOR('',#1001,1.);
#262=VECTOR('',#1002,1.);
#263=VECTOR('',#1003,1.);
#264=VECTOR('',#1005,1.);
#265=VECTOR('',#1006,1.);
#266=VECTOR('',#1008,1.);
#267=VECTOR('',#1009,1.);
#268=VECTOR('',#1011,1.);
#269=VECTOR('',#1014,1.);
#270=VECTOR('',#1016,1.);
#271=VECTOR('',#1020,1.);
#272=VECTOR('',#1023,1.);
#273=VECTOR('',#1026,1.);
#274=VECTOR('',#1027,1.);
#275=VECTOR('',#1028,1.);
#276=VECTOR('',#1031,1.);
#277=VECTOR('',#1034,1.);
#278=VECTOR('',#1035,1.);
#279=VECTOR('',#1037,1.);
#280=VECTOR('',#1038,1.);
#281=VECTOR('',#1039,1.);
#282=VECTOR('',#1041,1.);
#283=VECTOR('',#1042,1.);
#284=VECTOR('',#1047,1.);
#285=VECTOR('',#1049,1.);
#286=VECTOR('',#1050,1.);
#287=VECTOR('',#1055,1.);
#288=VECTOR('',#1057,1.);
#289=VECTOR('',#1058,1.);
#290=VECTOR('',#1060,1.);
#291=VECTOR('',#1061,1.);
#292=VECTOR('',#1063,1.);
#293=VECTOR('',#1064,1.);
#294=VECTOR('',#1069,1.);
#295=VECTOR('',#1071,1.);
#296=VECTOR('',#1072,1.);
#297=VECTOR('',#1074,1.);
#298=VECTOR('',#1079,1.);
#299=VECTOR('',#1082,1.);
#300=VECTOR('',#1085,1.);
#301=VECTOR('',#1088,1.);
#302=VECTOR('',#1089,1.);
#303=VECTOR('',#1090,1.);
#304=VECTOR('',#1093,1.);
#305=VECTOR('',#1096,1.);
#306=VECTOR('',#1097,1.);
#307=VECTOR('',#1099,1.);
#308=VECTOR('',#1100,1.);
#309=VECTOR('',#1101,1.);
#310=VECTOR('',#1103,1.);
#311=VECTOR('',#1104,1.);
#312=VECTOR('',#1109,1.);
#313=VECTOR('',#1111,1.);
#314=VECTOR('',#1112,1.);
#315=VECTOR('',#1117,1.);
#316=VECTOR('',#1119,1.);
#317=VECTOR('',#1120,1.);
#318=VECTOR('',#1122,1.);
#319=VECTOR('',#1123,1.);
#320=VECTOR('',#1125,1.);
#321=VECTOR('',#1126,1.);
#322=VECTOR('',#1131,1.);
#323=VECTOR('',#1133,1.);
#324=VECTOR('',#1134,1.);
#325=VECTOR('',#1136,1.);
#326=VECTOR('',#1141,1.);
#327=LINE('',#1172,#239);
#328=LINE('',#1175,#240);
#329=LINE('',#1177,#241);
#330=LINE('',#1179,#242);
#331=LINE('',#1187,#243);
#332=LINE('',#1195,#244);
#333=LINE('',#1203,#245);
#334=LINE('',#1205,#246);
#335=LINE('',#1207,#247);
#336=LINE('',#1209,#248);
#337=LINE('',#1211,#249);
#338=LINE('',#1213,#250);
#339=LINE('',#1215,#251);
#340=LINE('',#1217,#252);
#341=LINE('',#1219,#253);
#342=LINE('',#1221,#254);
#343=LINE('',#1229,#255);
#344=LINE('',#1231,#256);
#345=LINE('',#1233,#257);
#346=LINE('',#1235,#258);
#347=LINE('',#1237,#259);
#348=LINE('',#1238,#260);
#349=LINE('',#1241,#261);
#350=LINE('',#1243,#262);
#351=LINE('',#1245,#263);
#352=LINE('',#1253,#264);
#353=LINE('',#1261,#265);
#354=LINE('',#1263,#266);
#355=LINE('',#1265,#267);
#356=LINE('',#1273,#268);
#357=LINE('',#1281,#269);
#358=LINE('',#1283,#270);
#359=LINE('',#1286,#271);
#360=LINE('',#1291,#272);
#361=LINE('',#1295,#273);
#362=LINE('',#1297,#274);
#363=LINE('',#1299,#275);
#364=LINE('',#1303,#276);
#365=LINE('',#1307,#277);
#366=LINE('',#1309,#278);
#367=LINE('',#1311,#279);
#368=LINE('',#1313,#280);
#369=LINE('',#1315,#281);
#370=LINE('',#1317,#282);
#371=LINE('',#1319,#283);
#372=LINE('',#1323,#284);
#373=LINE('',#1325,#285);
#374=LINE('',#1327,#286);
#375=LINE('',#1331,#287);
#376=LINE('',#1333,#288);
#377=LINE('',#1335,#289);
#378=LINE('',#1337,#290);
#379=LINE('',#1339,#291);
#380=LINE('',#1341,#292);
#381=LINE('',#1343,#293);
#382=LINE('',#1347,#294);
#383=LINE('',#1349,#295);
#384=LINE('',#1351,#296);
#385=LINE('',#1353,#297);
#386=LINE('',#1357,#298);
#387=LINE('',#1360,#299);
#388=LINE('',#1365,#300);
#389=LINE('',#1369,#301);
#390=LINE('',#1371,#302);
#391=LINE('',#1373,#303);
#392=LINE('',#1377,#304);
#393=LINE('',#1381,#305);
#394=LINE('',#1383,#306);
#395=LINE('',#1385,#307);
#396=LINE('',#1387,#308);
#397=LINE('',#1389,#309);
#398=LINE('',#1391,#310);
#399=LINE('',#1393,#311);
#400=LINE('',#1397,#312);
#401=LINE('',#1399,#313);
#402=LINE('',#1401,#314);
#403=LINE('',#1405,#315);
#404=LINE('',#1407,#316);
#405=LINE('',#1409,#317);
#406=LINE('',#1411,#318);
#407=LINE('',#1413,#319);
#408=LINE('',#1415,#320);
#409=LINE('',#1417,#321);
#410=LINE('',#1421,#322);
#411=LINE('',#1423,#323);
#412=LINE('',#1425,#324);
#413=LINE('',#1427,#325);
#414=LINE('',#1431,#326);
#415=EDGE_CURVE('',#167,#168,#327,.T.);
#416=EDGE_CURVE('',#168,#169,#328,.T.);
#417=EDGE_CURVE('',#169,#170,#329,.T.);
#418=EDGE_CURVE('',#170,#167,#330,.T.);
#419=EDGE_CURVE('',#170,#171,#147,.T.);
#420=EDGE_CURVE('',#171,#172,#331,.T.);
#421=EDGE_CURVE('',#167,#172,#148,.T.);
#422=EDGE_CURVE('',#173,#174,#332,.T.);
#423=EDGE_CURVE('',#168,#174,#149,.T.);
#424=EDGE_CURVE('',#175,#172,#333,.T.);
#425=EDGE_CURVE('',#175,#173,#334,.T.);
#426=EDGE_CURVE('',#175,#176,#335,.T.);
#427=EDGE_CURVE('',#177,#176,#336,.T.);
#428=EDGE_CURVE('',#173,#177,#337,.T.);
#429=EDGE_CURVE('',#177,#178,#338,.T.);
#430=EDGE_CURVE('',#179,#178,#339,.T.);
#431=EDGE_CURVE('',#173,#179,#340,.T.);
#432=EDGE_CURVE('',#179,#180,#341,.T.);
#433=EDGE_CURVE('',#174,#180,#342,.T.);
#434=EDGE_CURVE('',#169,#180,#150,.T.);
#435=EDGE_CURVE('',#181,#171,#343,.T.);
#436=EDGE_CURVE('',#181,#179,#344,.T.);
#437=EDGE_CURVE('',#178,#182,#345,.T.);
#438=EDGE_CURVE('',#181,#182,#346,.T.);
#439=EDGE_CURVE('',#176,#182,#347,.T.);
#440=EDGE_CURVE('',#175,#181,#348,.T.);
#441=EDGE_CURVE('',#182,#183,#349,.T.);
#442=EDGE_CURVE('',#184,#183,#350,.T.);
#443=EDGE_CURVE('',#176,#184,#351,.T.);
#444=EDGE_CURVE('',#185,#184,#151,.T.);
#445=EDGE_CURVE('',#186,#185,#352,.T.);
#446=EDGE_CURVE('',#186,#187,#152,.T.);
#447=EDGE_CURVE('',#177,#187,#353,.T.);
#448=EDGE_CURVE('',#188,#187,#354,.T.);
#449=EDGE_CURVE('',#178,#188,#355,.T.);
#450=EDGE_CURVE('',#189,#188,#153,.T.);
#451=EDGE_CURVE('',#190,#189,#356,.T.);
#452=EDGE_CURVE('',#190,#183,#154,.T.);
#453=EDGE_CURVE('',#185,#190,#357,.T.);
#454=EDGE_CURVE('',#189,#186,#358,.T.);
#455=EDGE_CURVE('',#191,#192,#359,.T.);
#456=EDGE_CURVE('',#191,#193,#40,.T.);
#457=EDGE_CURVE('',#193,#194,#360,.T.);
#458=EDGE_CURVE('',#194,#195,#41,.T.);
#459=EDGE_CURVE('',#196,#195,#361,.T.);
#460=EDGE_CURVE('',#197,#196,#362,.T.);
#461=EDGE_CURVE('',#198,#197,#363,.T.);
#462=EDGE_CURVE('',#198,#199,#42,.T.);
#463=EDGE_CURVE('',#199,#200,#364,.T.);
#464=EDGE_CURVE('',#200,#201,#43,.T.);
#465=EDGE_CURVE('',#202,#201,#365,.T.);
#466=EDGE_CURVE('',#202,#192,#366,.T.);
#467=EDGE_CURVE('',#202,#203,#367,.T.);
#468=EDGE_CURVE('',#203,#204,#368,.T.);
#469=EDGE_CURVE('',#192,#204,#369,.T.);
#470=EDGE_CURVE('',#205,#204,#370,.T.);
#471=EDGE_CURVE('',#191,#205,#371,.T.);
#472=EDGE_CURVE('',#205,#206,#44,.T.);
#473=EDGE_CURVE('',#193,#206,#372,.T.);
#474=EDGE_CURVE('',#207,#206,#373,.T.);
#475=EDGE_CURVE('',#194,#207,#374,.T.);
#476=EDGE_CURVE('',#207,#208,#45,.T.);
#477=EDGE_CURVE('',#195,#208,#375,.T.);
#478=EDGE_CURVE('',#209,#208,#376,.T.);
#479=EDGE_CURVE('',#196,#209,#377,.T.);
#480=EDGE_CURVE('',#210,#209,#378,.T.);
#481=EDGE_CURVE('',#197,#210,#379,.T.);
#482=EDGE_CURVE('',#211,#210,#380,.T.);
#483=EDGE_CURVE('',#198,#211,#381,.T.);
#484=EDGE_CURVE('',#211,#212,#46,.T.);
#485=EDGE_CURVE('',#199,#212,#382,.T.);
#486=EDGE_CURVE('',#200,#213,#383,.T.);
#487=EDGE_CURVE('',#213,#212,#384,.T.);
#488=EDGE_CURVE('',#203,#214,#385,.T.);
#489=EDGE_CURVE('',#213,#214,#47,.T.);
#490=EDGE_CURVE('',#201,#214,#386,.T.);
#491=EDGE_CURVE('',#215,#216,#387,.T.);
#492=EDGE_CURVE('',#215,#217,#48,.T.);
#493=EDGE_CURVE('',#217,#218,#388,.T.);
#494=EDGE_CURVE('',#218,#219,#49,.T.);
#495=EDGE_CURVE('',#220,#219,#389,.T.);
#496=EDGE_CURVE('',#221,#220,#390,.T.);
#497=EDGE_CURVE('',#222,#221,#391,.T.);
#498=EDGE_CURVE('',#222,#223,#50,.T.);
#499=EDGE_CURVE('',#223,#224,#392,.T.);
#500=EDGE_CURVE('',#224,#225,#51,.T.);
#501=EDGE_CURVE('',#226,#225,#393,.T.);
#502=EDGE_CURVE('',#226,#216,#394,.T.);
#503=EDGE_CURVE('',#226,#227,#395,.T.);
#504=EDGE_CURVE('',#227,#228,#396,.T.);
#505=EDGE_CURVE('',#216,#228,#397,.T.);
#506=EDGE_CURVE('',#229,#228,#398,.T.);
#507=EDGE_CURVE('',#215,#229,#399,.T.);
#508=EDGE_CURVE('',#229,#230,#52,.T.);
#509=EDGE_CURVE('',#217,#230,#400,.T.);
#510=EDGE_CURVE('',#231,#230,#401,.T.);
#511=EDGE_CURVE('',#218,#231,#402,.T.);
#512=EDGE_CURVE('',#231,#232,#53,.T.);
#513=EDGE_CURVE('',#219,#232,#403,.T.);
#514=EDGE_CURVE('',#233,#232,#404,.T.);
#515=EDGE_CURVE('',#220,#233,#405,.T.);
#516=EDGE_CURVE('',#234,#233,#406,.T.);
#517=EDGE_CURVE('',#221,#234,#407,.T.);
#518=EDGE_CURVE('',#235,#234,#408,.T.);
#519=EDGE_CURVE('',#222,#235,#409,.T.);
#520=EDGE_CURVE('',#235,#236,#54,.T.);
#521=EDGE_CURVE('',#223,#236,#410,.T.);
#522=EDGE_CURVE('',#224,#237,#411,.T.);
#523=EDGE_CURVE('',#237,#236,#412,.T.);
#524=EDGE_CURVE('',#227,#238,#413,.T.);
#525=EDGE_CURVE('',#237,#238,#55,.T.);
#526=EDGE_CURVE('',#225,#238,#414,.T.);
#527=ORIENTED_EDGE('',*,*,#415,.T.);
#528=ORIENTED_EDGE('',*,*,#416,.T.);
#529=ORIENTED_EDGE('',*,*,#417,.T.);
#530=ORIENTED_EDGE('',*,*,#418,.T.);
#531=ORIENTED_EDGE('',*,*,#419,.T.);
#532=ORIENTED_EDGE('',*,*,#420,.T.);
#533=ORIENTED_EDGE('',*,*,#421,.F.);
#534=ORIENTED_EDGE('',*,*,#418,.F.);
#535=ORIENTED_EDGE('',*,*,#422,.T.);
#536=ORIENTED_EDGE('',*,*,#423,.F.);
#537=ORIENTED_EDGE('',*,*,#415,.F.);
#538=ORIENTED_EDGE('',*,*,#421,.T.);
#539=ORIENTED_EDGE('',*,*,#424,.F.);
#540=ORIENTED_EDGE('',*,*,#425,.T.);
#541=ORIENTED_EDGE('',*,*,#426,.T.);
#542=ORIENTED_EDGE('',*,*,#427,.F.);
#543=ORIENTED_EDGE('',*,*,#428,.F.);
#544=ORIENTED_EDGE('',*,*,#425,.F.);
#545=ORIENTED_EDGE('',*,*,#428,.T.);
#546=ORIENTED_EDGE('',*,*,#429,.T.);
#547=ORIENTED_EDGE('',*,*,#430,.F.);
#548=ORIENTED_EDGE('',*,*,#431,.F.);
#549=ORIENTED_EDGE('',*,*,#432,.T.);
#550=ORIENTED_EDGE('',*,*,#433,.F.);
#551=ORIENTED_EDGE('',*,*,#422,.F.);
#552=ORIENTED_EDGE('',*,*,#431,.T.);
#553=ORIENTED_EDGE('',*,*,#423,.T.);
#554=ORIENTED_EDGE('',*,*,#433,.T.);
#555=ORIENTED_EDGE('',*,*,#434,.F.);
#556=ORIENTED_EDGE('',*,*,#416,.F.);
#557=ORIENTED_EDGE('',*,*,#435,.T.);
#558=ORIENTED_EDGE('',*,*,#419,.F.);
#559=ORIENTED_EDGE('',*,*,#417,.F.);
#560=ORIENTED_EDGE('',*,*,#434,.T.);
#561=ORIENTED_EDGE('',*,*,#432,.F.);
#562=ORIENTED_EDGE('',*,*,#436,.F.);
#563=ORIENTED_EDGE('',*,*,#430,.T.);
#564=ORIENTED_EDGE('',*,*,#437,.T.);
#565=ORIENTED_EDGE('',*,*,#438,.F.);
#566=ORIENTED_EDGE('',*,*,#436,.T.);
#567=ORIENTED_EDGE('',*,*,#438,.T.);
#568=ORIENTED_EDGE('',*,*,#439,.F.);
#569=ORIENTED_EDGE('',*,*,#426,.F.);
#570=ORIENTED_EDGE('',*,*,#440,.T.);
#571=ORIENTED_EDGE('',*,*,#424,.T.);
#572=ORIENTED_EDGE('',*,*,#420,.F.);
#573=ORIENTED_EDGE('',*,*,#435,.F.);
#574=ORIENTED_EDGE('',*,*,#440,.F.);
#575=ORIENTED_EDGE('',*,*,#441,.T.);
#576=ORIENTED_EDGE('',*,*,#442,.F.);
#577=ORIENTED_EDGE('',*,*,#443,.F.);
#578=ORIENTED_EDGE('',*,*,#439,.T.);
#579=ORIENTED_EDGE('',*,*,#443,.T.);
#580=ORIENTED_EDGE('',*,*,#444,.F.);
#581=ORIENTED_EDGE('',*,*,#445,.F.);
#582=ORIENTED_EDGE('',*,*,#446,.T.);
#583=ORIENTED_EDGE('',*,*,#447,.F.);
#584=ORIENTED_EDGE('',*,*,#427,.T.);
#585=ORIENTED_EDGE('',*,*,#447,.T.);
#586=ORIENTED_EDGE('',*,*,#448,.F.);
#587=ORIENTED_EDGE('',*,*,#449,.F.);
#588=ORIENTED_EDGE('',*,*,#429,.F.);
#589=ORIENTED_EDGE('',*,*,#449,.T.);
#590=ORIENTED_EDGE('',*,*,#450,.F.);
#591=ORIENTED_EDGE('',*,*,#451,.F.);
#592=ORIENTED_EDGE('',*,*,#452,.T.);
#593=ORIENTED_EDGE('',*,*,#441,.F.);
#594=ORIENTED_EDGE('',*,*,#437,.F.);
#595=ORIENTED_EDGE('',*,*,#444,.T.);
#596=ORIENTED_EDGE('',*,*,#442,.T.);
#597=ORIENTED_EDGE('',*,*,#452,.F.);
#598=ORIENTED_EDGE('',*,*,#453,.F.);
#599=ORIENTED_EDGE('',*,*,#445,.T.);
#600=ORIENTED_EDGE('',*,*,#453,.T.);
#601=ORIENTED_EDGE('',*,*,#451,.T.);
#602=ORIENTED_EDGE('',*,*,#454,.T.);
#603=ORIENTED_EDGE('',*,*,#450,.T.);
#604=ORIENTED_EDGE('',*,*,#448,.T.);
#605=ORIENTED_EDGE('',*,*,#446,.F.);
#606=ORIENTED_EDGE('',*,*,#454,.F.);
#607=ORIENTED_EDGE('',*,*,#455,.F.);
#608=ORIENTED_EDGE('',*,*,#456,.T.);
#609=ORIENTED_EDGE('',*,*,#457,.T.);
#610=ORIENTED_EDGE('',*,*,#458,.T.);
#611=ORIENTED_EDGE('',*,*,#459,.F.);
#612=ORIENTED_EDGE('',*,*,#460,.F.);
#613=ORIENTED_EDGE('',*,*,#461,.F.);
#614=ORIENTED_EDGE('',*,*,#462,.T.);
#615=ORIENTED_EDGE('',*,*,#463,.T.);
#616=ORIENTED_EDGE('',*,*,#464,.T.);
#617=ORIENTED_EDGE('',*,*,#465,.F.);
#618=ORIENTED_EDGE('',*,*,#466,.T.);
#619=ORIENTED_EDGE('',*,*,#467,.T.);
#620=ORIENTED_EDGE('',*,*,#468,.T.);
#621=ORIENTED_EDGE('',*,*,#469,.F.);
#622=ORIENTED_EDGE('',*,*,#466,.F.);
#623=ORIENTED_EDGE('',*,*,#470,.F.);
#624=ORIENTED_EDGE('',*,*,#471,.F.);
#625=ORIENTED_EDGE('',*,*,#455,.T.);
#626=ORIENTED_EDGE('',*,*,#469,.T.);
#627=ORIENTED_EDGE('',*,*,#472,.T.);
#628=ORIENTED_EDGE('',*,*,#473,.F.);
#629=ORIENTED_EDGE('',*,*,#456,.F.);
#630=ORIENTED_EDGE('',*,*,#471,.T.);
#631=ORIENTED_EDGE('',*,*,#473,.T.);
#632=ORIENTED_EDGE('',*,*,#474,.F.);
#633=ORIENTED_EDGE('',*,*,#475,.F.);
#634=ORIENTED_EDGE('',*,*,#457,.F.);
#635=ORIENTED_EDGE('',*,*,#476,.T.);
#636=ORIENTED_EDGE('',*,*,#477,.F.);
#637=ORIENTED_EDGE('',*,*,#458,.F.);
#638=ORIENTED_EDGE('',*,*,#475,.T.);
#639=ORIENTED_EDGE('',*,*,#477,.T.);
#640=ORIENTED_EDGE('',*,*,#478,.F.);
#641=ORIENTED_EDGE('',*,*,#479,.F.);
#642=ORIENTED_EDGE('',*,*,#459,.T.);
#643=ORIENTED_EDGE('',*,*,#479,.T.);
#644=ORIENTED_EDGE('',*,*,#480,.F.);
#645=ORIENTED_EDGE('',*,*,#481,.F.);
#646=ORIENTED_EDGE('',*,*,#460,.T.);
#647=ORIENTED_EDGE('',*,*,#481,.T.);
#648=ORIENTED_EDGE('',*,*,#482,.F.);
#649=ORIENTED_EDGE('',*,*,#483,.F.);
#650=ORIENTED_EDGE('',*,*,#461,.T.);
#651=ORIENTED_EDGE('',*,*,#484,.T.);
#652=ORIENTED_EDGE('',*,*,#485,.F.);
#653=ORIENTED_EDGE('',*,*,#462,.F.);
#654=ORIENTED_EDGE('',*,*,#483,.T.);
#655=ORIENTED_EDGE('',*,*,#486,.F.);
#656=ORIENTED_EDGE('',*,*,#463,.F.);
#657=ORIENTED_EDGE('',*,*,#485,.T.);
#658=ORIENTED_EDGE('',*,*,#487,.F.);
#659=ORIENTED_EDGE('',*,*,#488,.T.);
#660=ORIENTED_EDGE('',*,*,#489,.F.);
#661=ORIENTED_EDGE('',*,*,#487,.T.);
#662=ORIENTED_EDGE('',*,*,#484,.F.);
#663=ORIENTED_EDGE('',*,*,#482,.T.);
#664=ORIENTED_EDGE('',*,*,#480,.T.);
#665=ORIENTED_EDGE('',*,*,#478,.T.);
#666=ORIENTED_EDGE('',*,*,#476,.F.);
#667=ORIENTED_EDGE('',*,*,#474,.T.);
#668=ORIENTED_EDGE('',*,*,#472,.F.);
#669=ORIENTED_EDGE('',*,*,#470,.T.);
#670=ORIENTED_EDGE('',*,*,#468,.F.);
#671=ORIENTED_EDGE('',*,*,#489,.T.);
#672=ORIENTED_EDGE('',*,*,#490,.F.);
#673=ORIENTED_EDGE('',*,*,#464,.F.);
#674=ORIENTED_EDGE('',*,*,#486,.T.);
#675=ORIENTED_EDGE('',*,*,#465,.T.);
#676=ORIENTED_EDGE('',*,*,#490,.T.);
#677=ORIENTED_EDGE('',*,*,#488,.F.);
#678=ORIENTED_EDGE('',*,*,#467,.F.);
#679=ORIENTED_EDGE('',*,*,#491,.F.);
#680=ORIENTED_EDGE('',*,*,#492,.T.);
#681=ORIENTED_EDGE('',*,*,#493,.T.);
#682=ORIENTED_EDGE('',*,*,#494,.T.);
#683=ORIENTED_EDGE('',*,*,#495,.F.);
#684=ORIENTED_EDGE('',*,*,#496,.F.);
#685=ORIENTED_EDGE('',*,*,#497,.F.);
#686=ORIENTED_EDGE('',*,*,#498,.T.);
#687=ORIENTED_EDGE('',*,*,#499,.T.);
#688=ORIENTED_EDGE('',*,*,#500,.T.);
#689=ORIENTED_EDGE('',*,*,#501,.F.);
#690=ORIENTED_EDGE('',*,*,#502,.T.);
#691=ORIENTED_EDGE('',*,*,#503,.T.);
#692=ORIENTED_EDGE('',*,*,#504,.T.);
#693=ORIENTED_EDGE('',*,*,#505,.F.);
#694=ORIENTED_EDGE('',*,*,#502,.F.);
#695=ORIENTED_EDGE('',*,*,#506,.F.);
#696=ORIENTED_EDGE('',*,*,#507,.F.);
#697=ORIENTED_EDGE('',*,*,#491,.T.);
#698=ORIENTED_EDGE('',*,*,#505,.T.);
#699=ORIENTED_EDGE('',*,*,#508,.T.);
#700=ORIENTED_EDGE('',*,*,#509,.F.);
#701=ORIENTED_EDGE('',*,*,#492,.F.);
#702=ORIENTED_EDGE('',*,*,#507,.T.);
#703=ORIENTED_EDGE('',*,*,#509,.T.);
#704=ORIENTED_EDGE('',*,*,#510,.F.);
#705=ORIENTED_EDGE('',*,*,#511,.F.);
#706=ORIENTED_EDGE('',*,*,#493,.F.);
#707=ORIENTED_EDGE('',*,*,#512,.T.);
#708=ORIENTED_EDGE('',*,*,#513,.F.);
#709=ORIENTED_EDGE('',*,*,#494,.F.);
#710=ORIENTED_EDGE('',*,*,#511,.T.);
#711=ORIENTED_EDGE('',*,*,#513,.T.);
#712=ORIENTED_EDGE('',*,*,#514,.F.);
#713=ORIENTED_EDGE('',*,*,#515,.F.);
#714=ORIENTED_EDGE('',*,*,#495,.T.);
#715=ORIENTED_EDGE('',*,*,#515,.T.);
#716=ORIENTED_EDGE('',*,*,#516,.F.);
#717=ORIENTED_EDGE('',*,*,#517,.F.);
#718=ORIENTED_EDGE('',*,*,#496,.T.);
#719=ORIENTED_EDGE('',*,*,#517,.T.);
#720=ORIENTED_EDGE('',*,*,#518,.F.);
#721=ORIENTED_EDGE('',*,*,#519,.F.);
#722=ORIENTED_EDGE('',*,*,#497,.T.);
#723=ORIENTED_EDGE('',*,*,#520,.T.);
#724=ORIENTED_EDGE('',*,*,#521,.F.);
#725=ORIENTED_EDGE('',*,*,#498,.F.);
#726=ORIENTED_EDGE('',*,*,#519,.T.);
#727=ORIENTED_EDGE('',*,*,#522,.F.);
#728=ORIENTED_EDGE('',*,*,#499,.F.);
#729=ORIENTED_EDGE('',*,*,#521,.T.);
#730=ORIENTED_EDGE('',*,*,#523,.F.);
#731=ORIENTED_EDGE('',*,*,#524,.T.);
#732=ORIENTED_EDGE('',*,*,#525,.F.);
#733=ORIENTED_EDGE('',*,*,#523,.T.);
#734=ORIENTED_EDGE('',*,*,#520,.F.);
#735=ORIENTED_EDGE('',*,*,#518,.T.);
#736=ORIENTED_EDGE('',*,*,#516,.T.);
#737=ORIENTED_EDGE('',*,*,#514,.T.);
#738=ORIENTED_EDGE('',*,*,#512,.F.);
#739=ORIENTED_EDGE('',*,*,#510,.T.);
#740=ORIENTED_EDGE('',*,*,#508,.F.);
#741=ORIENTED_EDGE('',*,*,#506,.T.);
#742=ORIENTED_EDGE('',*,*,#504,.F.);
#743=ORIENTED_EDGE('',*,*,#525,.T.);
#744=ORIENTED_EDGE('',*,*,#526,.F.);
#745=ORIENTED_EDGE('',*,*,#500,.F.);
#746=ORIENTED_EDGE('',*,*,#522,.T.);
#747=ORIENTED_EDGE('',*,*,#501,.T.);
#748=ORIENTED_EDGE('',*,*,#526,.T.);
#749=ORIENTED_EDGE('',*,*,#524,.F.);
#750=ORIENTED_EDGE('',*,*,#503,.F.);
#751=EDGE_LOOP('',(#527,#528,#529,#530));
#752=EDGE_LOOP('',(#531,#532,#533,#534));
#753=EDGE_LOOP('',(#535,#536,#537,#538,#539,#540));
#754=EDGE_LOOP('',(#541,#542,#543,#544));
#755=EDGE_LOOP('',(#545,#546,#547,#548));
#756=EDGE_LOOP('',(#549,#550,#551,#552));
#757=EDGE_LOOP('',(#553,#554,#555,#556));
#758=EDGE_LOOP('',(#557,#558,#559,#560,#561,#562));
#759=EDGE_LOOP('',(#563,#564,#565,#566));
#760=EDGE_LOOP('',(#567,#568,#569,#570));
#761=EDGE_LOOP('',(#571,#572,#573,#574));
#762=EDGE_LOOP('',(#575,#576,#577,#578));
#763=EDGE_LOOP('',(#579,#580,#581,#582,#583,#584));
#764=EDGE_LOOP('',(#585,#586,#587,#588));
#765=EDGE_LOOP('',(#589,#590,#591,#592,#593,#594));
#766=EDGE_LOOP('',(#595,#596,#597,#598));
#767=EDGE_LOOP('',(#599,#600,#601,#602));
#768=EDGE_LOOP('',(#603,#604,#605,#606));
#769=EDGE_LOOP('',(#607,#608,#609,#610,#611,#612,#613,#614,#615,#616,#617,
#618));
#770=EDGE_LOOP('',(#619,#620,#621,#622));
#771=EDGE_LOOP('',(#623,#624,#625,#626));
#772=EDGE_LOOP('',(#627,#628,#629,#630));
#773=EDGE_LOOP('',(#631,#632,#633,#634));
#774=EDGE_LOOP('',(#635,#636,#637,#638));
#775=EDGE_LOOP('',(#639,#640,#641,#642));
#776=EDGE_LOOP('',(#643,#644,#645,#646));
#777=EDGE_LOOP('',(#647,#648,#649,#650));
#778=EDGE_LOOP('',(#651,#652,#653,#654));
#779=EDGE_LOOP('',(#655,#656,#657,#658));
#780=EDGE_LOOP('',(#659,#660,#661,#662,#663,#664,#665,#666,#667,#668,#669,
#670));
#781=EDGE_LOOP('',(#671,#672,#673,#674));
#782=EDGE_LOOP('',(#675,#676,#677,#678));
#783=EDGE_LOOP('',(#679,#680,#681,#682,#683,#684,#685,#686,#687,#688,#689,
#690));
#784=EDGE_LOOP('',(#691,#692,#693,#694));
#785=EDGE_LOOP('',(#695,#696,#697,#698));
#786=EDGE_LOOP('',(#699,#700,#701,#702));
#787=EDGE_LOOP('',(#703,#704,#705,#706));
#788=EDGE_LOOP('',(#707,#708,#709,#710));
#789=EDGE_LOOP('',(#711,#712,#713,#714));
#790=EDGE_LOOP('',(#715,#716,#717,#718));
#791=EDGE_LOOP('',(#719,#720,#721,#722));
#792=EDGE_LOOP('',(#723,#724,#725,#726));
#793=EDGE_LOOP('',(#727,#728,#729,#730));
#794=EDGE_LOOP('',(#731,#732,#733,#734,#735,#736,#737,#738,#739,#740,#741,
#742));
#795=EDGE_LOOP('',(#743,#744,#745,#746));
#796=EDGE_LOOP('',(#747,#748,#749,#750));
#797=FACE_BOUND('',#751,.T.);
#798=FACE_BOUND('',#752,.T.);
#799=FACE_BOUND('',#753,.T.);
#800=FACE_BOUND('',#754,.T.);
#801=FACE_BOUND('',#755,.T.);
#802=FACE_BOUND('',#756,.T.);
#803=FACE_BOUND('',#757,.T.);
#804=FACE_BOUND('',#758,.T.);
#805=FACE_BOUND('',#759,.T.);
#806=FACE_BOUND('',#760,.T.);
#807=FACE_BOUND('',#761,.T.);
#808=FACE_BOUND('',#762,.T.);
#809=FACE_BOUND('',#763,.T.);
#810=FACE_BOUND('',#764,.T.);
#811=FACE_BOUND('',#765,.T.);
#812=FACE_BOUND('',#766,.T.);
#813=FACE_BOUND('',#767,.T.);
#814=FACE_BOUND('',#768,.T.);
#815=FACE_BOUND('',#769,.T.);
#816=FACE_BOUND('',#770,.T.);
#817=FACE_BOUND('',#771,.T.);
#818=FACE_BOUND('',#772,.T.);
#819=FACE_BOUND('',#773,.T.);
#820=FACE_BOUND('',#774,.T.);
#821=FACE_BOUND('',#775,.T.);
#822=FACE_BOUND('',#776,.T.);
#823=FACE_BOUND('',#777,.T.);
#824=FACE_BOUND('',#778,.T.);
#825=FACE_BOUND('',#779,.T.);
#826=FACE_BOUND('',#780,.T.);
#827=FACE_BOUND('',#781,.T.);
#828=FACE_BOUND('',#782,.T.);
#829=FACE_BOUND('',#783,.T.);
#830=FACE_BOUND('',#784,.T.);
#831=FACE_BOUND('',#785,.T.);
#832=FACE_BOUND('',#786,.T.);
#833=FACE_BOUND('',#787,.T.);
#834=FACE_BOUND('',#788,.T.);
#835=FACE_BOUND('',#789,.T.);
#836=FACE_BOUND('',#790,.T.);
#837=FACE_BOUND('',#791,.T.);
#838=FACE_BOUND('',#792,.T.);
#839=FACE_BOUND('',#793,.T.);
#840=FACE_BOUND('',#794,.T.);
#841=FACE_BOUND('',#795,.T.);
#842=FACE_BOUND('',#796,.T.);
#843=ADVANCED_FACE('',(#797),#1447,.T.);
#844=ADVANCED_FACE('',(#798),#155,.T.);
#845=ADVANCED_FACE('',(#799),#1448,.T.);
#846=ADVANCED_FACE('',(#800),#1449,.T.);
#847=ADVANCED_FACE('',(#801),#1450,.T.);
#848=ADVANCED_FACE('',(#802),#1451,.T.);
#849=ADVANCED_FACE('',(#803),#156,.T.);
#850=ADVANCED_FACE('',(#804),#1452,.T.);
#851=ADVANCED_FACE('',(#805),#1453,.T.);
#852=ADVANCED_FACE('',(#806),#1454,.T.);
#853=ADVANCED_FACE('',(#807),#1455,.T.);
#854=ADVANCED_FACE('',(#808),#1456,.T.);
#855=ADVANCED_FACE('',(#809),#1457,.T.);
#856=ADVANCED_FACE('',(#810),#1458,.T.);
#857=ADVANCED_FACE('',(#811),#1459,.T.);
#858=ADVANCED_FACE('',(#812),#157,.T.);
#859=ADVANCED_FACE('',(#813),#1460,.T.);
#860=ADVANCED_FACE('',(#814),#158,.T.);
#861=ADVANCED_FACE('',(#815),#1461,.F.);
#862=ADVANCED_FACE('',(#816),#1462,.F.);
#863=ADVANCED_FACE('',(#817),#1463,.T.);
#864=ADVANCED_FACE('',(#818),#159,.F.);
#865=ADVANCED_FACE('',(#819),#1464,.T.);
#866=ADVANCED_FACE('',(#820),#160,.T.);
#867=ADVANCED_FACE('',(#821),#1465,.T.);
#868=ADVANCED_FACE('',(#822),#1466,.T.);
#869=ADVANCED_FACE('',(#823),#1467,.T.);
#870=ADVANCED_FACE('',(#824),#161,.F.);
#871=ADVANCED_FACE('',(#825),#1468,.T.);
#872=ADVANCED_FACE('',(#826),#1469,.T.);
#873=ADVANCED_FACE('',(#827),#162,.T.);
#874=ADVANCED_FACE('',(#828),#1470,.T.);
#875=ADVANCED_FACE('',(#829),#1471,.F.);
#876=ADVANCED_FACE('',(#830),#1472,.F.);
#877=ADVANCED_FACE('',(#831),#1473,.T.);
#878=ADVANCED_FACE('',(#832),#163,.F.);
#879=ADVANCED_FACE('',(#833),#1474,.T.);
#880=ADVANCED_FACE('',(#834),#164,.T.);
#881=ADVANCED_FACE('',(#835),#1475,.T.);
#882=ADVANCED_FACE('',(#836),#1476,.T.);
#883=ADVANCED_FACE('',(#837),#1477,.T.);
#884=ADVANCED_FACE('',(#838),#165,.F.);
#885=ADVANCED_FACE('',(#839),#1478,.T.);
#886=ADVANCED_FACE('',(#840),#1479,.T.);
#887=ADVANCED_FACE('',(#841),#166,.T.);
#888=ADVANCED_FACE('',(#842),#1480,.T.);
#889=AXIS2_PLACEMENT_3D('',#1171,#965,$);
#890=AXIS2_PLACEMENT_3D('',#1180,#970,#971);
#891=AXIS2_PLACEMENT_3D('',#1194,#973,$);
#892=AXIS2_PLACEMENT_3D('',#1206,#977,$);
#893=AXIS2_PLACEMENT_3D('',#1212,#981,$);
#894=AXIS2_PLACEMENT_3D('',#1218,#985,$);
#895=AXIS2_PLACEMENT_3D('',#1222,#988,#989);
#896=AXIS2_PLACEMENT_3D('',#1228,#990,$);
#897=AXIS2_PLACEMENT_3D('',#1232,#993,$);
#898=AXIS2_PLACEMENT_3D('',#1236,#996,$);
#899=AXIS2_PLACEMENT_3D('',#1239,#999,$);
#900=AXIS2_PLACEMENT_3D('',#1240,#1000,$);
#901=AXIS2_PLACEMENT_3D('',#1246,#1004,$);
#902=AXIS2_PLACEMENT_3D('',#1262,#1007,$);
#903=AXIS2_PLACEMENT_3D('',#1266,#1010,$);
#904=AXIS2_PLACEMENT_3D('',#1280,#1012,#1013);
#905=AXIS2_PLACEMENT_3D('',#1282,#1015,$);
#906=AXIS2_PLACEMENT_3D('',#1284,#1017,#1018);
#907=AXIS2_PLACEMENT_3D('',#1285,#1019,$);
#908=AXIS2_PLACEMENT_3D('',#1289,#1021,#1022);
#909=AXIS2_PLACEMENT_3D('',#1293,#1024,#1025);
#910=AXIS2_PLACEMENT_3D('',#1301,#1029,#1030);
#911=AXIS2_PLACEMENT_3D('',#1305,#1032,#1033);
#912=AXIS2_PLACEMENT_3D('',#1310,#1036,$);
#913=AXIS2_PLACEMENT_3D('',#1316,#1040,$);
#914=AXIS2_PLACEMENT_3D('',#1320,#1043,#1044);
#915=AXIS2_PLACEMENT_3D('',#1321,#1045,#1046);
#916=AXIS2_PLACEMENT_3D('',#1324,#1048,$);
#917=AXIS2_PLACEMENT_3D('',#1328,#1051,#1052);
#918=AXIS2_PLACEMENT_3D('',#1329,#1053,#1054);
#919=AXIS2_PLACEMENT_3D('',#1332,#1056,$);
#920=AXIS2_PLACEMENT_3D('',#1336,#1059,$);
#921=AXIS2_PLACEMENT_3D('',#1340,#1062,$);
#922=AXIS2_PLACEMENT_3D('',#1344,#1065,#1066);
#923=AXIS2_PLACEMENT_3D('',#1345,#1067,#1068);
#924=AXIS2_PLACEMENT_3D('',#1348,#1070,$);
#925=AXIS2_PLACEMENT_3D('',#1352,#1073,$);
#926=AXIS2_PLACEMENT_3D('',#1355,#1075,#1076);
#927=AXIS2_PLACEMENT_3D('',#1356,#1077,#1078);
#928=AXIS2_PLACEMENT_3D('',#1358,#1080,$);
#929=AXIS2_PLACEMENT_3D('',#1359,#1081,$);
#930=AXIS2_PLACEMENT_3D('',#1363,#1083,#1084);
#931=AXIS2_PLACEMENT_3D('',#1367,#1086,#1087);
#932=AXIS2_PLACEMENT_3D('',#1375,#1091,#1092);
#933=AXIS2_PLACEMENT_3D('',#1379,#1094,#1095);
#934=AXIS2_PLACEMENT_3D('',#1384,#1098,$);
#935=AXIS2_PLACEMENT_3D('',#1390,#1102,$);
#936=AXIS2_PLACEMENT_3D('',#1394,#1105,#1106);
#937=AXIS2_PLACEMENT_3D('',#1395,#1107,#1108);
#938=AXIS2_PLACEMENT_3D('',#1398,#1110,$);
#939=AXIS2_PLACEMENT_3D('',#1402,#1113,#1114);
#940=AXIS2_PLACEMENT_3D('',#1403,#1115,#1116);
#941=AXIS2_PLACEMENT_3D('',#1406,#1118,$);
#942=AXIS2_PLACEMENT_3D('',#1410,#1121,$);
#943=AXIS2_PLACEMENT_3D('',#1414,#1124,$);
#944=AXIS2_PLACEMENT_3D('',#1418,#1127,#1128);
#945=AXIS2_PLACEMENT_3D('',#1419,#1129,#1130);
#946=AXIS2_PLACEMENT_3D('',#1422,#1132,$);
#947=AXIS2_PLACEMENT_3D('',#1426,#1135,$);
#948=AXIS2_PLACEMENT_3D('',#1429,#1137,#1138);
#949=AXIS2_PLACEMENT_3D('',#1430,#1139,#1140);
#950=AXIS2_PLACEMENT_3D('',#1432,#1142,$);
#951=AXIS2_PLACEMENT_3D('AXIS_PLACEMENT_1',#1433,#1143,#1144);
#952=AXIS2_PLACEMENT_3D('AXIS_PLACEMENT_5',#1434,#1145,#1146);
#953=AXIS2_PLACEMENT_3D('AXIS_PLACEMENT_11',#1435,#1147,#1148);
#954=AXIS2_PLACEMENT_3D('AXIS_PLACEMENT_15',#1436,#1149,#1150);
#955=AXIS2_PLACEMENT_3D('AXIS_PLACEMENT_21',#1437,#1151,#1152);
#956=AXIS2_PLACEMENT_3D('AXIS_PLACEMENT_25',#1438,#1153,#1154);
#957=AXIS2_PLACEMENT_3D('AXIS_PLACEMENT_31',#1439,#1155,#1156);
#958=AXIS2_PLACEMENT_3D('AXIS_PLACEMENT_35',#1440,#1157,#1158);
#959=AXIS2_PLACEMENT_3D('AXIS_PLACEMENT_41',#1441,#1159,#1160);
#960=AXIS2_PLACEMENT_3D('AXIS_PLACEMENT_45',#1442,#1161,#1162);
#961=AXIS2_PLACEMENT_3D('AXIS_PLACEMENT_51',#1443,#1163,#1164);
#962=AXIS2_PLACEMENT_3D('AXIS_PLACEMENT_55',#1444,#1165,#1166);
#963=AXIS2_PLACEMENT_3D('AXIS_PLACEMENT_61',#1445,#1167,#1168);
#964=AXIS2_PLACEMENT_3D('AXIS_PLACEMENT_65',#1446,#1169,#1170);
#965=DIRECTION('',(0.,1.,0.));
#966=DIRECTION('',(1.,0.,0.));
#967=DIRECTION('',(0.,0.,-1.));
#968=DIRECTION('',(-1.,0.,0.));
#969=DIRECTION('',(0.,0.,1.));
#970=DIRECTION('',(0.,0.,1.));
#971=DIRECTION('',(0.,0.0762,0.));
#972=DIRECTION('',(0.,0.,1.));
#973=DIRECTION('',(0.,0.0871557427476639,0.996194698091745));
#974=DIRECTION('',(-0.0868265938642471,0.992432509138967,-0.0868265938642471));
#975=DIRECTION('',(0.0868265938642471,0.992432509138967,-0.0868265938642471));
#976=DIRECTION('',(1.,0.,0.));
#977=DIRECTION('',(0.,0.,1.));
#978=DIRECTION('',(0.,-1.,0.));
#979=DIRECTION('',(-1.,0.,0.));
#980=DIRECTION('',(0.,-1.,0.));
#981=DIRECTION('',(1.,0.,0.));
#982=DIRECTION('',(0.,0.,-1.));
#983=DIRECTION('',(0.,-1.,0.));
#984=DIRECTION('',(0.,0.,-1.));
#985=DIRECTION('',(0.996194698091745,0.0871557427476639,0.));
#986=DIRECTION('',(-0.0868265938642471,0.992432509138967,0.0868265938642471));
#987=DIRECTION('',(0.,0.,-1.));
#988=DIRECTION('',(0.,0.,-1.));
#989=DIRECTION('',(0.,0.0762,0.));
#990=DIRECTION('',(0.,0.0871557427476639,-0.996194698091745));
#991=DIRECTION('',(0.0868265938642471,0.992432509138967,0.0868265938642471));
#992=DIRECTION('',(1.,0.,0.));
#993=DIRECTION('',(0.,0.,-1.));
#994=DIRECTION('',(-1.,0.,0.));
#995=DIRECTION('',(0.,-1.,0.));
#996=DIRECTION('',(-1.,0.,0.));
#997=DIRECTION('',(0.,0.,-1.));
#998=DIRECTION('',(0.,0.,-1.));
#999=DIRECTION('',(-0.996194698091745,0.0871557427476639,0.));
#1000=DIRECTION('',(-0.996194698091745,-0.0871557427476639,0.));
#1001=DIRECTION('',(0.0868265938642471,-0.992432509138967,0.0868265938642471));
#1002=DIRECTION('',(0.,0.,-1.));
#1003=DIRECTION('',(0.0868265938642471,-0.992432509138967,-0.0868265938642471));
#1004=DIRECTION('',(0.,-0.0871557427476639,0.996194698091745));
#1005=DIRECTION('',(-1.,0.,0.));
#1006=DIRECTION('',(-0.0868265938642471,-0.992432509138967,-0.0868265938642471));
#1007=DIRECTION('',(0.996194698091745,-0.0871557427476639,0.));
#1008=DIRECTION('',(0.,0.,1.));
#1009=DIRECTION('',(-0.0868265938642471,-0.992432509138967,0.0868265938642471));
#1010=DIRECTION('',(0.,-0.0871557427476639,-0.996194698091745));
#1011=DIRECTION('',(1.,0.,0.));
#1012=DIRECTION('',(0.,0.,-1.));
#1013=DIRECTION('',(0.,-0.0762,0.));
#1014=DIRECTION('',(0.,0.,-1.));
#1015=DIRECTION('',(0.,-1.,0.));
#1016=DIRECTION('',(0.,0.,1.));
#1017=DIRECTION('',(0.,0.,1.));
#1018=DIRECTION('',(0.,-0.0762,0.));
#1019=DIRECTION('',(1.,0.,0.));
#1020=DIRECTION('',(0.,-0.0871557427476639,0.996194698091745));
#1021=DIRECTION('',(1.,0.,0.));
#1022=DIRECTION('',(0.,-0.149429204713762,-0.0130733614121496));
#1023=DIRECTION('',(0.,0.866025403784429,-0.500000000000017));
#1024=DIRECTION('',(-1.,0.,0.));
#1025=DIRECTION('',(0.,0.227200000000008,0.393521943479645));
#1026=DIRECTION('',(0.,0.,1.));
#1027=DIRECTION('',(0.,1.,0.));
#1028=DIRECTION('',(0.,0.,-1.));
#1029=DIRECTION('',(1.,0.,0.));
#1030=DIRECTION('',(0.,0.15,0.));
#1031=DIRECTION('',(0.,-0.866025403784429,0.500000000000017));
#1032=DIRECTION('',(-1.,0.,0.));
#1033=DIRECTION('',(0.,-0.227200000000008,-0.393521943479645));
#1034=DIRECTION('',(0.,0.0871557427476639,-0.996194698091745));
#1035=DIRECTION('',(0.,1.,0.));
#1036=DIRECTION('',(0.,0.,-1.));
#1037=DIRECTION('',(1.,0.,0.));
#1038=DIRECTION('',(0.,1.,0.));
#1039=DIRECTION('',(1.,0.,0.));
#1040=DIRECTION('',(0.,0.996194698091745,0.0871557427476639));
#1041=DIRECTION('',(0.,-0.0871557427476639,0.996194698091745));
#1042=DIRECTION('',(1.,0.,0.));
#1043=DIRECTION('',(1.,0.,0.));
#1044=DIRECTION('',(0.,-0.149429204713762,-0.0130733614121496));
#1045=DIRECTION('',(1.,0.,0.));
#1046=DIRECTION('',(0.,-0.149429204713762,-0.0130733614121496));
#1047=DIRECTION('',(1.,0.,0.));
#1048=DIRECTION('',(0.,0.500000000000017,0.866025403784429));
#1049=DIRECTION('',(0.,-0.866025403784429,0.500000000000017));
#1050=DIRECTION('',(1.,0.,0.));
#1051=DIRECTION('',(-1.,0.,0.));
#1052=DIRECTION('',(0.,0.227200000000008,0.393521943479645));
#1053=DIRECTION('',(-1.,0.,0.));
#1054=DIRECTION('',(0.,0.227200000000008,0.393521943479645));
#1055=DIRECTION('',(1.,0.,0.));
#1056=DIRECTION('',(0.,1.,0.));
#1057=DIRECTION('',(0.,0.,1.));
#1058=DIRECTION('',(1.,0.,0.));
#1059=DIRECTION('',(0.,0.,-1.));
#1060=DIRECTION('',(0.,1.,0.));
#1061=DIRECTION('',(1.,0.,0.));
#1062=DIRECTION('',(0.,-1.,0.));
#1063=DIRECTION('',(0.,0.,-1.));
#1064=DIRECTION('',(1.,0.,0.));
#1065=DIRECTION('',(1.,0.,0.));
#1066=DIRECTION('',(0.,0.15,0.));
#1067=DIRECTION('',(1.,0.,0.));
#1068=DIRECTION('',(0.,0.15,0.));
#1069=DIRECTION('',(1.,0.,0.));
#1070=DIRECTION('',(0.,-0.500000000000017,-0.866025403784429));
#1071=DIRECTION('',(1.,0.,0.));
#1072=DIRECTION('',(0.,0.866025403784429,-0.500000000000017));
#1073=DIRECTION('',(1.,0.,0.));
#1074=DIRECTION('',(0.,0.0871557427476639,-0.996194698091745));
#1075=DIRECTION('',(-1.,0.,0.));
#1076=DIRECTION('',(0.,-0.227200000000008,-0.393521943479645));
#1077=DIRECTION('',(-1.,0.,0.));
#1078=DIRECTION('',(0.,-0.227200000000008,-0.393521943479645));
#1079=DIRECTION('',(1.,0.,0.));
#1080=DIRECTION('',(0.,-0.996194698091745,-0.0871557427476639));
#1081=DIRECTION('',(1.,0.,0.));
#1082=DIRECTION('',(0.,-0.0871557427476639,0.996194698091745));
#1083=DIRECTION('',(1.,0.,0.));
#1084=DIRECTION('',(0.,-0.149429204713762,-0.0130733614121496));
#1085=DIRECTION('',(0.,0.866025403784429,-0.500000000000017));
#1086=DIRECTION('',(-1.,0.,0.));
#1087=DIRECTION('',(0.,0.227200000000008,0.393521943479645));
#1088=DIRECTION('',(0.,0.,1.));
#1089=DIRECTION('',(0.,1.,0.));
#1090=DIRECTION('',(0.,0.,-1.));
#1091=DIRECTION('',(1.,0.,0.));
#1092=DIRECTION('',(0.,0.15,0.));
#1093=DIRECTION('',(0.,-0.866025403784429,0.500000000000017));
#1094=DIRECTION('',(-1.,0.,0.));
#1095=DIRECTION('',(0.,-0.227200000000008,-0.393521943479645));
#1096=DIRECTION('',(0.,0.0871557427476639,-0.996194698091745));
#1097=DIRECTION('',(0.,1.,0.));
#1098=DIRECTION('',(0.,0.,-1.));
#1099=DIRECTION('',(1.,0.,0.));
#1100=DIRECTION('',(0.,1.,0.));
#1101=DIRECTION('',(1.,0.,0.));
#1102=DIRECTION('',(0.,0.996194698091745,0.0871557427476639));
#1103=DIRECTION('',(0.,-0.0871557427476639,0.996194698091745));
#1104=DIRECTION('',(1.,0.,0.));
#1105=DIRECTION('',(1.,0.,0.));
#1106=DIRECTION('',(0.,-0.149429204713762,-0.0130733614121496));
#1107=DIRECTION('',(1.,0.,0.));
#1108=DIRECTION('',(0.,-0.149429204713762,-0.0130733614121496));
#1109=DIRECTION('',(1.,0.,0.));
#1110=DIRECTION('',(0.,0.500000000000017,0.866025403784429));
#1111=DIRECTION('',(0.,-0.866025403784429,0.500000000000017));
#1112=DIRECTION('',(1.,0.,0.));
#1113=DIRECTION('',(-1.,0.,0.));
#1114=DIRECTION('',(0.,0.227200000000008,0.393521943479645));
#1115=DIRECTION('',(-1.,0.,0.));
#1116=DIRECTION('',(0.,0.227200000000008,0.393521943479645));
#1117=DIRECTION('',(1.,0.,0.));
#1118=DIRECTION('',(0.,1.,0.));
#1119=DIRECTION('',(0.,0.,1.));
#1120=DIRECTION('',(1.,0.,0.));
#1121=DIRECTION('',(0.,0.,-1.));
#1122=DIRECTION('',(0.,1.,0.));
#1123=DIRECTION('',(1.,0.,0.));
#1124=DIRECTION('',(0.,-1.,0.));
#1125=DIRECTION('',(0.,0.,-1.));
#1126=DIRECTION('',(1.,0.,0.));
#1127=DIRECTION('',(1.,0.,0.));
#1128=DIRECTION('',(0.,0.15,0.));
#1129=DIRECTION('',(1.,0.,0.));
#1130=DIRECTION('',(0.,0.15,0.));
#1131=DIRECTION('',(1.,0.,0.));
#1132=DIRECTION('',(0.,-0.500000000000017,-0.866025403784429));
#1133=DIRECTION('',(1.,0.,0.));
#1134=DIRECTION('',(0.,0.866025403784429,-0.500000000000017));
#1135=DIRECTION('',(1.,0.,0.));
#1136=DIRECTION('',(0.,0.0871557427476639,-0.996194698091745));
#1137=DIRECTION('',(-1.,0.,0.));
#1138=DIRECTION('',(0.,-0.227200000000008,-0.393521943479645));
#1139=DIRECTION('',(-1.,0.,0.));
#1140=DIRECTION('',(0.,-0.227200000000008,-0.393521943479645));
#1141=DIRECTION('',(1.,0.,0.));
#1142=DIRECTION('',(0.,-0.996194698091745,-0.0871557427476639));
#1143=DIRECTION('DIRECTION2',(0.,0.,1.));
#1144=DIRECTION('DIRECTION3',(1.,0.,0.));
#1145=DIRECTION('DIRECTION6',(0.,0.,1.));
#1146=DIRECTION('DIRECTION7',(1.,0.,0.));
#1147=DIRECTION('DIRECTION12',(0.,0.,1.));
#1148=DIRECTION('DIRECTION13',(1.,0.,0.));
#1149=DIRECTION('DIRECTION16',(0.,0.,1.));
#1150=DIRECTION('DIRECTION17',(1.,0.,0.));
#1151=DIRECTION('DIRECTION22',(0.,0.,1.));
#1152=DIRECTION('DIRECTION23',(1.,0.,0.));
#1153=DIRECTION('DIRECTION26',(0.,0.,1.));
#1154=DIRECTION('DIRECTION27',(1.,0.,0.));
#1155=DIRECTION('DIRECTION32',(0.,0.,1.));
#1156=DIRECTION('DIRECTION33',(1.,0.,0.));
#1157=DIRECTION('DIRECTION36',(0.,0.,1.));
#1158=DIRECTION('DIRECTION37',(1.,0.,0.));
#1159=DIRECTION('DIRECTION42',(0.,0.,1.));
#1160=DIRECTION('DIRECTION43',(1.,0.,0.));
#1161=DIRECTION('DIRECTION46',(0.,0.,1.));
#1162=DIRECTION('DIRECTION47',(1.,0.,0.));
#1163=DIRECTION('DIRECTION52',(0.,0.,1.));
#1164=DIRECTION('DIRECTION53',(1.,0.,0.));
#1165=DIRECTION('DIRECTION56',(0.,0.,1.));
#1166=DIRECTION('DIRECTION57',(1.,0.,0.));
#1167=DIRECTION('DIRECTION62',(0.,0.,-1.));
#1168=DIRECTION('DIRECTION63',(-1.,0.,0.));
#1169=DIRECTION('DIRECTION66',(0.,0.,1.));
#1170=DIRECTION('DIRECTION67',(1.,0.,0.));
#1171=CARTESIAN_POINT('',(0.,0.889,0.));
#1172=CARTESIAN_POINT('',(-3.102398142665,0.889,1.702222578125));
#1173=CARTESIAN_POINT('',(-3.102398142665,0.889,1.702222578125));
#1174=CARTESIAN_POINT('',(3.102398142665,0.889,1.702222578125));
#1175=CARTESIAN_POINT('',(3.102398142665,0.889,1.702222578125));
#1176=CARTESIAN_POINT('',(3.102398142665,0.889,-1.702222578125));
#1177=CARTESIAN_POINT('',(3.102398142665,0.889,-1.702222578125));
#1178=CARTESIAN_POINT('',(-3.102398142665,0.889,-1.702222578125));
#1179=CARTESIAN_POINT('',(-3.102398142665,0.889,-1.702222578125));
#1180=CARTESIAN_POINT('',(-3.102398142665,0.8128,-1.70830817866));
#1181=CARTESIAN_POINT('',(-3.102398142665,0.889,-1.702222578125));
#1182=CARTESIAN_POINT('',(-3.125717070453,0.889,-1.702222578125));
#1183=CARTESIAN_POINT('',(-3.156816891185,0.8721133377275,-1.703699969639));
#1184=CARTESIAN_POINT('',(-3.176283475588,0.8425837296116,-1.706283475588));
#1185=CARTESIAN_POINT('',(-3.17830817866,0.8194412675974,-1.70830817866));
#1186=CARTESIAN_POINT('',(-3.17830817866,0.8194412675974,-1.70830817866));
#1187=CARTESIAN_POINT('',(-3.17830817866,0.8194412675974,-1.70830817866));
#1188=CARTESIAN_POINT('',(-3.17830817866,0.8194412675974,1.70830817866));
#1189=CARTESIAN_POINT('',(-3.102398142665,0.889,1.702222578125));
#1190=CARTESIAN_POINT('',(-3.125717070453,0.889,1.702222578125));
#1191=CARTESIAN_POINT('',(-3.156816891185,0.8721133377275,1.703699969639));
#1192=CARTESIAN_POINT('',(-3.176283475588,0.8425837296116,1.706283475588));
#1193=CARTESIAN_POINT('',(-3.17830817866,0.8194412675974,1.70830817866));
#1194=CARTESIAN_POINT('',(-3.25,0.,1.78));
#1195=CARTESIAN_POINT('',(3.25,0.,1.78));
#1196=CARTESIAN_POINT('',(3.25,0.,1.78));
#1197=CARTESIAN_POINT('',(3.17830817866,0.8194412675974,1.70830817866));
#1198=CARTESIAN_POINT('',(3.102398142665,0.889,1.702222578125));
#1199=CARTESIAN_POINT('',(3.125717070453,0.889,1.702222578125));
#1200=CARTESIAN_POINT('',(3.156816891185,0.8721133377275,1.703699969639));
#1201=CARTESIAN_POINT('',(3.176283475588,0.8425837296116,1.706283475588));
#1202=CARTESIAN_POINT('',(3.17830817866,0.8194412675974,1.70830817866));
#1203=CARTESIAN_POINT('',(-3.25,0.,1.78));
#1204=CARTESIAN_POINT('',(-3.25,0.,1.78));
#1205=CARTESIAN_POINT('',(-3.25,0.,1.78));
#1206=CARTESIAN_POINT('',(-3.25,0.,1.78));
#1207=CARTESIAN_POINT('',(-3.25,0.,1.78));
#1208=CARTESIAN_POINT('',(-3.25,-0.3044,1.78));
#1209=CARTESIAN_POINT('',(3.25,-0.3044,1.78));
#1210=CARTESIAN_POINT('',(3.25,-0.3044,1.78));
#1211=CARTESIAN_POINT('',(3.25,0.,1.78));
#1212=CARTESIAN_POINT('',(3.25,0.,1.78));
#1213=CARTESIAN_POINT('',(3.25,-0.3044,1.78));
#1214=CARTESIAN_POINT('',(3.25,-0.3044,-1.78));
#1215=CARTESIAN_POINT('',(3.25,0.,-1.78));
#1216=CARTESIAN_POINT('',(3.25,0.,-1.78));
#1217=CARTESIAN_POINT('',(3.25,0.,1.78));
#1218=CARTESIAN_POINT('',(3.25,0.,1.78));
#1219=CARTESIAN_POINT('',(3.25,0.,-1.78));
#1220=CARTESIAN_POINT('',(3.17830817866,0.8194412675974,-1.70830817866));
#1221=CARTESIAN_POINT('',(3.17830817866,0.8194412675974,1.70830817866));
#1222=CARTESIAN_POINT('',(3.102398142665,0.8128,1.70830817866));
#1223=CARTESIAN_POINT('',(3.102398142665,0.889,-1.702222578125));
#1224=CARTESIAN_POINT('',(3.125717070453,0.889,-1.702222578125));
#1225=CARTESIAN_POINT('',(3.156816891185,0.8721133377275,-1.703699969639));
#1226=CARTESIAN_POINT('',(3.176283475588,0.8425837296116,-1.706283475588));
#1227=CARTESIAN_POINT('',(3.17830817866,0.8194412675974,-1.70830817866));
#1228=CARTESIAN_POINT('',(3.25,0.,-1.78));
#1229=CARTESIAN_POINT('',(-3.25,0.,-1.78));
#1230=CARTESIAN_POINT('',(-3.25,0.,-1.78));
#1231=CARTESIAN_POINT('',(-3.25,0.,-1.78));
#1232=CARTESIAN_POINT('',(3.25,0.,-1.78));
#1233=CARTESIAN_POINT('',(3.25,-0.3044,-1.78));
#1234=CARTESIAN_POINT('',(-3.25,-0.3044,-1.78));
#1235=CARTESIAN_POINT('',(-3.25,0.,-1.78));
#1236=CARTESIAN_POINT('',(-3.25,0.,-1.78));
#1237=CARTESIAN_POINT('',(-3.25,-0.3044,1.78));
#1238=CARTESIAN_POINT('',(-3.25,0.,1.78));
#1239=CARTESIAN_POINT('',(-3.25,0.,-1.78));
#1240=CARTESIAN_POINT('',(-3.25,-0.3044,1.78));
#1241=CARTESIAN_POINT('',(-3.25,-0.3044,-1.78));
#1242=CARTESIAN_POINT('',(-3.220530207678,-0.6412412675974,-1.750530207678));
#1243=CARTESIAN_POINT('',(-3.220530207678,-0.6412412675974,1.750530207678));
#1244=CARTESIAN_POINT('',(-3.220530207678,-0.6412412675974,1.750530207678));
#1245=CARTESIAN_POINT('',(-3.25,-0.3044,1.78));
#1246=CARTESIAN_POINT('',(3.25,-0.3044,1.78));
#1247=CARTESIAN_POINT('',(-3.144620171683,-0.7108,1.744444607143));
#1248=CARTESIAN_POINT('',(-3.16793909947,-0.7108,1.744444607143));
#1249=CARTESIAN_POINT('',(-3.199038920202,-0.6939133377275,1.745921998657));
#1250=CARTESIAN_POINT('',(-3.218505504605,-0.6643837296116,1.748505504605));
#1251=CARTESIAN_POINT('',(-3.220530207678,-0.6412412675974,1.750530207678));
#1252=CARTESIAN_POINT('',(-3.144620171683,-0.7108,1.744444607143));
#1253=CARTESIAN_POINT('',(3.144620171683,-0.7108,1.744444607143));
#1254=CARTESIAN_POINT('',(3.144620171683,-0.7108,1.744444607143));
#1255=CARTESIAN_POINT('',(3.144620171683,-0.7108,1.744444607143));
#1256=CARTESIAN_POINT('',(3.16793909947,-0.7108,1.744444607143));
#1257=CARTESIAN_POINT('',(3.199038920202,-0.6939133377275,1.745921998657));
#1258=CARTESIAN_POINT('',(3.218505504605,-0.6643837296116,1.748505504605));
#1259=CARTESIAN_POINT('',(3.220530207678,-0.6412412675974,1.750530207678));
#1260=CARTESIAN_POINT('',(3.220530207678,-0.6412412675974,1.750530207678));
#1261=CARTESIAN_POINT('',(3.25,-0.3044,1.78));
#1262=CARTESIAN_POINT('',(3.25,-0.3044,-1.78));
#1263=CARTESIAN_POINT('',(3.220530207678,-0.6412412675974,-1.750530207678));
#1264=CARTESIAN_POINT('',(3.220530207678,-0.6412412675974,-1.750530207678));
#1265=CARTESIAN_POINT('',(3.25,-0.3044,-1.78));
#1266=CARTESIAN_POINT('',(-3.25,-0.3044,-1.78));
#1267=CARTESIAN_POINT('',(3.144620171683,-0.7108,-1.744444607143));
#1268=CARTESIAN_POINT('',(3.16793909947,-0.7108,-1.744444607143));
#1269=CARTESIAN_POINT('',(3.199038920202,-0.6939133377275,-1.745921998657));
#1270=CARTESIAN_POINT('',(3.218505504605,-0.6643837296116,-1.748505504605));
#1271=CARTESIAN_POINT('',(3.220530207678,-0.6412412675974,-1.750530207678));
#1272=CARTESIAN_POINT('',(3.144620171683,-0.7108,-1.744444607143));
#1273=CARTESIAN_POINT('',(-3.144620171683,-0.7108,-1.744444607143));
#1274=CARTESIAN_POINT('',(-3.144620171683,-0.7108,-1.744444607143));
#1275=CARTESIAN_POINT('',(-3.144620171683,-0.7108,-1.744444607143));
#1276=CARTESIAN_POINT('',(-3.16793909947,-0.7108,-1.744444607143));
#1277=CARTESIAN_POINT('',(-3.199038920202,-0.6939133377275,-1.745921998657));
#1278=CARTESIAN_POINT('',(-3.218505504605,-0.6643837296116,-1.748505504605));
#1279=CARTESIAN_POINT('',(-3.220530207678,-0.6412412675974,-1.750530207678));
#1280=CARTESIAN_POINT('',(-3.144620171683,-0.6346,1.750530207678));
#1281=CARTESIAN_POINT('',(-3.144620171683,-0.7108,1.744444607143));
#1282=CARTESIAN_POINT('',(0.,-0.7108,0.));
#1283=CARTESIAN_POINT('',(3.144620171683,-0.7108,-1.744444607143));
#1284=CARTESIAN_POINT('',(3.144620171683,-0.6346,-1.750530207678));
#1285=CARTESIAN_POINT('',(-0.2411,0.,0.));
#1286=CARTESIAN_POINT('',(-0.2411,0.102254319818,0.3663130125884));
#1287=CARTESIAN_POINT('',(-0.2411,0.102254319818,0.3663130125884));
#1288=CARTESIAN_POINT('',(-0.2411,0.05556275854819,0.9));
#1289=CARTESIAN_POINT('',(-0.2411,0.2516835245318,0.3793863740005));
#1290=CARTESIAN_POINT('',(-0.2411,0.1766835245318,0.2494825634329));
#1291=CARTESIAN_POINT('',(-0.2411,0.1766835245318,0.2494825634329));
#1292=CARTESIAN_POINT('',(-0.2411,0.3098,0.1726277304877));
#1293=CARTESIAN_POINT('',(-0.2411,0.0826,-0.220894212992));
#1294=CARTESIAN_POINT('',(-0.2411,0.537,-0.220894212992));
#1295=CARTESIAN_POINT('',(-0.2411,0.537,-0.8));
#1296=CARTESIAN_POINT('',(-0.2411,0.537,-0.8));
#1297=CARTESIAN_POINT('',(-0.2411,0.2326,-0.8));
#1298=CARTESIAN_POINT('',(-0.2411,0.2326,-0.8));
#1299=CARTESIAN_POINT('',(-0.2411,0.2326,-0.220894212992));
#1300=CARTESIAN_POINT('',(-0.2411,0.2326,-0.220894212992));
#1301=CARTESIAN_POINT('',(-0.2411,0.0826,-0.220894212992));
#1302=CARTESIAN_POINT('',(-0.2411,0.1576,-0.09099040242428));
#1303=CARTESIAN_POINT('',(-0.2411,0.1576,-0.09099040242428));
#1304=CARTESIAN_POINT('',(-0.2411,0.02448352453178,-0.01413556947913));
#1305=CARTESIAN_POINT('',(-0.2411,0.2516835245318,0.3793863740005));
#1306=CARTESIAN_POINT('',(-0.2411,-0.2009873462811,0.339782804496));
#1307=CARTESIAN_POINT('',(-0.2411,-0.25,0.9));
#1308=CARTESIAN_POINT('',(-0.2411,-0.25,0.9));
#1309=CARTESIAN_POINT('',(-0.2411,-0.25,0.9));
#1310=CARTESIAN_POINT('',(0.28932,-0.25,0.9));
#1311=CARTESIAN_POINT('',(-0.2411,-0.25,0.9));
#1312=CARTESIAN_POINT('',(0.2411,-0.25,0.9));
#1313=CARTESIAN_POINT('',(0.2411,-0.25,0.9));
#1314=CARTESIAN_POINT('',(0.2411,0.05556275854819,0.9));
#1315=CARTESIAN_POINT('',(-0.2411,0.05556275854819,0.9));
#1316=CARTESIAN_POINT('',(-0.2411,0.1090598810091,0.2885250922242));
#1317=CARTESIAN_POINT('',(0.2411,0.102254319818,0.3663130125884));
#1318=CARTESIAN_POINT('',(0.2411,0.102254319818,0.3663130125884));
#1319=CARTESIAN_POINT('',(-0.2411,0.102254319818,0.3663130125884));
#1320=CARTESIAN_POINT('',(-0.2411,0.2516835245318,0.3793863740005));
#1321=CARTESIAN_POINT('',(0.2411,0.2516835245318,0.3793863740005));
#1322=CARTESIAN_POINT('',(0.2411,0.1766835245318,0.2494825634329));
#1323=CARTESIAN_POINT('',(-0.2411,0.1766835245318,0.2494825634329));
#1324=CARTESIAN_POINT('',(-0.2411,0.1522,0.263618132912));
#1325=CARTESIAN_POINT('',(0.2411,0.3098,0.1726277304877));
#1326=CARTESIAN_POINT('',(0.2411,0.3098,0.1726277304877));
#1327=CARTESIAN_POINT('',(-0.2411,0.3098,0.1726277304877));
#1328=CARTESIAN_POINT('',(-0.2411,0.0826,-0.220894212992));
#1329=CARTESIAN_POINT('',(0.2411,0.0826,-0.220894212992));
#1330=CARTESIAN_POINT('',(0.2411,0.537,-0.220894212992));
#1331=CARTESIAN_POINT('',(-0.2411,0.537,-0.220894212992));
#1332=CARTESIAN_POINT('',(-0.2411,0.537,-0.8));
#1333=CARTESIAN_POINT('',(0.2411,0.537,-0.8));
#1334=CARTESIAN_POINT('',(0.2411,0.537,-0.8));
#1335=CARTESIAN_POINT('',(-0.2411,0.537,-0.8));
#1336=CARTESIAN_POINT('',(-0.2411,0.2326,-0.8));
#1337=CARTESIAN_POINT('',(0.2411,0.2326,-0.8));
#1338=CARTESIAN_POINT('',(0.2411,0.2326,-0.8));
#1339=CARTESIAN_POINT('',(-0.2411,0.2326,-0.8));
#1340=CARTESIAN_POINT('',(-0.2411,0.2326,-0.1342916726135));
#1341=CARTESIAN_POINT('',(0.2411,0.2326,-0.220894212992));
#1342=CARTESIAN_POINT('',(0.2411,0.2326,-0.220894212992));
#1343=CARTESIAN_POINT('',(-0.2411,0.2326,-0.220894212992));
#1344=CARTESIAN_POINT('',(-0.2411,0.0826,-0.220894212992));
#1345=CARTESIAN_POINT('',(0.2411,0.0826,-0.220894212992));
#1346=CARTESIAN_POINT('',(0.2411,0.1576,-0.09099040242428));
#1347=CARTESIAN_POINT('',(-0.2411,0.1576,-0.09099040242428));
#1348=CARTESIAN_POINT('',(-0.2411,-0.1803710329128,0.1041372644062));
#1349=CARTESIAN_POINT('',(-0.2411,0.02448352453178,-0.01413556947913));
#1350=CARTESIAN_POINT('',(0.2411,0.02448352453178,-0.01413556947913));
#1351=CARTESIAN_POINT('',(0.2411,0.02448352453178,-0.01413556947913));
#1352=CARTESIAN_POINT('',(0.2411,0.,0.));
#1353=CARTESIAN_POINT('',(0.2411,-0.25,0.9));
#1354=CARTESIAN_POINT('',(0.2411,-0.2009873462811,0.339782804496));
#1355=CARTESIAN_POINT('',(0.2411,0.2516835245318,0.3793863740005));
#1356=CARTESIAN_POINT('',(-0.2411,0.2516835245318,0.3793863740005));
#1357=CARTESIAN_POINT('',(-0.2411,-0.2009873462811,0.339782804496));
#1358=CARTESIAN_POINT('',(-0.2411,-0.25,0.9));
#1359=CARTESIAN_POINT('',(-1.5,0.,0.));
#1360=CARTESIAN_POINT('',(-1.5,0.102254319818,0.3663130125884));
#1361=CARTESIAN_POINT('',(-1.5,0.102254319818,0.3663130125884));
#1362=CARTESIAN_POINT('',(-1.5,0.05556275854819,0.9));
#1363=CARTESIAN_POINT('',(-1.5,0.2516835245318,0.3793863740005));
#1364=CARTESIAN_POINT('',(-1.5,0.1766835245318,0.2494825634329));
#1365=CARTESIAN_POINT('',(-1.5,0.1766835245318,0.2494825634329));
#1366=CARTESIAN_POINT('',(-1.5,0.3098,0.1726277304877));
#1367=CARTESIAN_POINT('',(-1.5,0.0826,-0.220894212992));
#1368=CARTESIAN_POINT('',(-1.5,0.537,-0.220894212992));
#1369=CARTESIAN_POINT('',(-1.5,0.537,-0.8));
#1370=CARTESIAN_POINT('',(-1.5,0.537,-0.8));
#1371=CARTESIAN_POINT('',(-1.5,0.2326,-0.8));
#1372=CARTESIAN_POINT('',(-1.5,0.2326,-0.8));
#1373=CARTESIAN_POINT('',(-1.5,0.2326,-0.220894212992));
#1374=CARTESIAN_POINT('',(-1.5,0.2326,-0.220894212992));
#1375=CARTESIAN_POINT('',(-1.5,0.0826,-0.220894212992));
#1376=CARTESIAN_POINT('',(-1.5,0.1576,-0.09099040242428));
#1377=CARTESIAN_POINT('',(-1.5,0.1576,-0.09099040242428));
#1378=CARTESIAN_POINT('',(-1.5,0.02448352453178,-0.01413556947913));
#1379=CARTESIAN_POINT('',(-1.5,0.2516835245318,0.3793863740005));
#1380=CARTESIAN_POINT('',(-1.5,-0.2009873462811,0.339782804496));
#1381=CARTESIAN_POINT('',(-1.5,-0.25,0.9));
#1382=CARTESIAN_POINT('',(-1.5,-0.25,0.9));
#1383=CARTESIAN_POINT('',(-1.5,-0.25,0.9));
#1384=CARTESIAN_POINT('',(1.8,-0.25,0.9));
#1385=CARTESIAN_POINT('',(-1.5,-0.25,0.9));
#1386=CARTESIAN_POINT('',(1.5,-0.25,0.9));
#1387=CARTESIAN_POINT('',(1.5,-0.25,0.9));
#1388=CARTESIAN_POINT('',(1.5,0.05556275854819,0.9));
#1389=CARTESIAN_POINT('',(-1.5,0.05556275854819,0.9));
#1390=CARTESIAN_POINT('',(-1.5,0.1090598810091,0.2885250922242));
#1391=CARTESIAN_POINT('',(1.5,0.102254319818,0.3663130125884));
#1392=CARTESIAN_POINT('',(1.5,0.102254319818,0.3663130125884));
#1393=CARTESIAN_POINT('',(-1.5,0.102254319818,0.3663130125884));
#1394=CARTESIAN_POINT('',(-1.5,0.2516835245318,0.3793863740005));
#1395=CARTESIAN_POINT('',(1.5,0.2516835245318,0.3793863740005));
#1396=CARTESIAN_POINT('',(1.5,0.1766835245318,0.2494825634329));
#1397=CARTESIAN_POINT('',(-1.5,0.1766835245318,0.2494825634329));
#1398=CARTESIAN_POINT('',(-1.5,0.1522,0.263618132912));
#1399=CARTESIAN_POINT('',(1.5,0.3098,0.1726277304877));
#1400=CARTESIAN_POINT('',(1.5,0.3098,0.1726277304877));
#1401=CARTESIAN_POINT('',(-1.5,0.3098,0.1726277304877));
#1402=CARTESIAN_POINT('',(-1.5,0.0826,-0.220894212992));
#1403=CARTESIAN_POINT('',(1.5,0.0826,-0.220894212992));
#1404=CARTESIAN_POINT('',(1.5,0.537,-0.220894212992));
#1405=CARTESIAN_POINT('',(-1.5,0.537,-0.220894212992));
#1406=CARTESIAN_POINT('',(-1.5,0.537,-0.8));
#1407=CARTESIAN_POINT('',(1.5,0.537,-0.8));
#1408=CARTESIAN_POINT('',(1.5,0.537,-0.8));
#1409=CARTESIAN_POINT('',(-1.5,0.537,-0.8));
#1410=CARTESIAN_POINT('',(-1.5,0.2326,-0.8));
#1411=CARTESIAN_POINT('',(1.5,0.2326,-0.8));
#1412=CARTESIAN_POINT('',(1.5,0.2326,-0.8));
#1413=CARTESIAN_POINT('',(-1.5,0.2326,-0.8));
#1414=CARTESIAN_POINT('',(-1.5,0.2326,-0.1342916726135));
#1415=CARTESIAN_POINT('',(1.5,0.2326,-0.220894212992));
#1416=CARTESIAN_POINT('',(1.5,0.2326,-0.220894212992));
#1417=CARTESIAN_POINT('',(-1.5,0.2326,-0.220894212992));
#1418=CARTESIAN_POINT('',(-1.5,0.0826,-0.220894212992));
#1419=CARTESIAN_POINT('',(1.5,0.0826,-0.220894212992));
#1420=CARTESIAN_POINT('',(1.5,0.1576,-0.09099040242428));
#1421=CARTESIAN_POINT('',(-1.5,0.1576,-0.09099040242428));
#1422=CARTESIAN_POINT('',(-1.5,-0.1803710329128,0.1041372644062));
#1423=CARTESIAN_POINT('',(-1.5,0.02448352453178,-0.01413556947913));
#1424=CARTESIAN_POINT('',(1.5,0.02448352453178,-0.01413556947913));
#1425=CARTESIAN_POINT('',(1.5,0.02448352453178,-0.01413556947913));
#1426=CARTESIAN_POINT('',(1.5,0.,0.));
#1427=CARTESIAN_POINT('',(1.5,-0.25,0.9));
#1428=CARTESIAN_POINT('',(1.5,-0.2009873462811,0.339782804496));
#1429=CARTESIAN_POINT('',(1.5,0.2516835245318,0.3793863740005));
#1430=CARTESIAN_POINT('',(-1.5,0.2516835245318,0.3793863740005));
#1431=CARTESIAN_POINT('',(-1.5,-0.2009873462811,0.339782804496));
#1432=CARTESIAN_POINT('',(-1.5,-0.25,0.9));
#1433=CARTESIAN_POINT('CARTESIAN_POINT4',(0.,0.,0.));
#1434=CARTESIAN_POINT('CARTESIAN_POINT8',(0.,0.,0.));
#1435=CARTESIAN_POINT('CARTESIAN_POINT14',(2.54,-0.537,2.58));
#1436=CARTESIAN_POINT('CARTESIAN_POINT18',(0.,0.,0.));
#1437=CARTESIAN_POINT('CARTESIAN_POINT24',(1.27,-0.537,2.58));
#1438=CARTESIAN_POINT('CARTESIAN_POINT28',(0.,0.,0.));
#1439=CARTESIAN_POINT('CARTESIAN_POINT34',(0.,-0.537,2.58));
#1440=CARTESIAN_POINT('CARTESIAN_POINT38',(0.,0.,0.));
#1441=CARTESIAN_POINT('CARTESIAN_POINT44',(-1.27,-0.537,2.58));
#1442=CARTESIAN_POINT('CARTESIAN_POINT48',(0.,0.,0.));
#1443=CARTESIAN_POINT('CARTESIAN_POINT54',(-2.54,-0.537,2.58));
#1444=CARTESIAN_POINT('CARTESIAN_POINT58',(0.,0.,0.));
#1445=CARTESIAN_POINT('CARTESIAN_POINT64',(0.,-0.537,-2.58));
#1446=CARTESIAN_POINT('CARTESIAN_POINT68',(0.,0.,0.));
#1447=PLANE('',#889);
#1448=PLANE('',#891);
#1449=PLANE('',#892);
#1450=PLANE('',#893);
#1451=PLANE('',#894);
#1452=PLANE('',#896);
#1453=PLANE('',#897);
#1454=PLANE('',#898);
#1455=PLANE('',#899);
#1456=PLANE('',#900);
#1457=PLANE('',#901);
#1458=PLANE('',#902);
#1459=PLANE('',#903);
#1460=PLANE('',#905);
#1461=PLANE('',#907);
#1462=PLANE('',#912);
#1463=PLANE('',#913);
#1464=PLANE('',#916);
#1465=PLANE('',#919);
#1466=PLANE('',#920);
#1467=PLANE('',#921);
#1468=PLANE('',#924);
#1469=PLANE('',#925);
#1470=PLANE('',#928);
#1471=PLANE('',#929);
#1472=PLANE('',#934);
#1473=PLANE('',#935);
#1474=PLANE('',#938);
#1475=PLANE('',#941);
#1476=PLANE('',#942);
#1477=PLANE('',#943);
#1478=PLANE('',#946);
#1479=PLANE('',#947);
#1480=PLANE('',#950);
#1481=CLOSED_SHELL('',(#843,#844,#845,#846,#847,#848,#849,#850,#851,#852,
#853,#854,#855,#856,#857,#858,#859,#860));
#1482=CLOSED_SHELL('',(#861,#862,#863,#864,#865,#866,#867,#868,#869,#870,
#871,#872,#873,#874));
#1483=CLOSED_SHELL('',(#875,#876,#877,#878,#879,#880,#881,#882,#883,#884,
#885,#886,#887,#888));
#1484=MANIFOLD_SOLID_BREP('',#1481);
#1485=MANIFOLD_SOLID_BREP('',#1482);
#1486=MANIFOLD_SOLID_BREP('',#1483);
#1487=ADVANCED_BREP_SHAPE_REPRESENTATION('BODY_MP06A',(#1484),#143);
#1488=ADVANCED_BREP_SHAPE_REPRESENTATION('LEAD_MP06A',(#1485),#144);
#1489=ADVANCED_BREP_SHAPE_REPRESENTATION('LEAD_WIDE_MP06A',(#1486),#145);
ENDSEC;
END-ISO-10303-21;
